<svg xmlns="http://www.w3.org/2000/svg" width="23.87" height="17.891"><path id="パス_1104" data-name="パス 1104" d="M22.938 64.122H.933a.936.936 0 00-.933.936v16.019a.936.936 0 00.932.936h22.006a.936.936 0 00.932-.936V65.058a.917.917 0 00-.27-.658.933.933 0 00-.662-.278zm-.474 2.509v13.976H1.4V66.625l6.1 5.437 3.233 2.88a1.8 1.8 0 001.19.455 1.77 1.77 0 00.44-.063h.045l.112-.041a1.8 1.8 0 00.6-.351c1.583-1.409 5.405-4.814 7.976-7.1zm-.886-1.1l-9.385 8.36a.42.42 0 01-.13.075.385.385 0 01-.131.022.378.378 0 01-.261-.1l-9.388-8.36h11.062z" transform="translate(0 -64.122)" fill="#fff"/></svg>