<svg id="グループ_2264" data-name="グループ 2264" xmlns="http://www.w3.org/2000/svg" width="61.788" height="83.122"><g id="勲章のフリーアイコン" fill="#5dc1cf"><path id="パス_1156" data-name="パス 1156" d="M155.458 73.024a19.483 19.483 0 1019.483 19.482 19.509 19.509 0 00-19.483-19.482z" transform="translate(-124.565 -61.169)"/><path id="パス_1157" data-name="パス 1157" d="M125.513 33.089a3.114 3.114 0 010-3.5l1.563-2.1a2.04 2.04 0 00-.52-2.949l-2.19-1.444a3.118 3.118 0 01-1.2-3.288l.75-2.512a2.038 2.038 0 00-1.5-2.591l-2.55-.609a3.123 3.123 0 01-2.25-2.679l-.154-2.62a2.044 2.044 0 00-2.292-1.925l-2.606.3a3.117 3.117 0 01-3.03-1.747L108.5 3.017a2.043 2.043 0 00-2.815-1.024l-2.344 1.173a3.117 3.117 0 01-3.441-.607L98.094.653a2.04 2.04 0 00-2.993 0L93.3 2.56a3.115 3.115 0 01-3.444.607l-2.347-1.174A2.041 2.041 0 0084.7 3.017l-1.045 2.407a3.118 3.118 0 01-3.03 1.747l-2.6-.3a2.047 2.047 0 00-2.3 1.925l-.152 2.62a3.12 3.12 0 01-2.25 2.679l-2.553.605a2.039 2.039 0 00-1.5 2.591l.751 2.512a3.119 3.119 0 01-1.2 3.288l-2.189 1.444a2.041 2.041 0 00-.52 2.949l1.564 2.1a3.123 3.123 0 010 3.5l-1.564 2.1a2.041 2.041 0 00.52 2.949l2.189 1.445a3.12 3.12 0 011.2 3.288l-.751 2.512a2.043 2.043 0 001.5 2.593l2.551.605a3.123 3.123 0 012.25 2.681l.152 2.618a2.048 2.048 0 002.3 1.927l2.6-.306a3.121 3.121 0 013.029 1.751l1.048 2.416a2.039 2.039 0 002.814 1.023l2.344-1.173a3.117 3.117 0 013.444.608l1.8 1.906a2.04 2.04 0 002.993 0l1.8-1.906a3.12 3.12 0 013.445-.608l2.344 1.173a2.039 2.039 0 002.814-1.023l1.041-2.407a3.124 3.124 0 013.03-1.751l2.605.306a2.044 2.044 0 002.293-1.927l.154-2.618a3.126 3.126 0 012.25-2.681l2.55-.605a2.042 2.042 0 001.5-2.593l-.75-2.512a3.12 3.12 0 011.2-3.288l2.19-1.445a2.04 2.04 0 00.52-2.949zM96.6 53.728a22.39 22.39 0 1122.389-22.392A22.389 22.389 0 0196.6 53.728z" transform="translate(-65.703)"/><path id="パス_1158" data-name="パス 1158" d="M108.317 363.488a.474.474 0 00-.146-.025l-2.285 1.143a5.029 5.029 0 01-2.237.532 4.951 4.951 0 01-4.543-3l-1.042-2.4c0 .013 0 .018-.01.018a.344.344 0 01-.088-.029l-1.4.165L86.092 375.8l10.618-1.836 2.516 10.477 11.988-18.225a4.891 4.891 0 01-1.147-.874z" transform="translate(-82.782 -301.32)"/><path id="パス_1159" data-name="パス 1159" d="M283.234 359.717a.456.456 0 00-.132.077l-1.012 2.341a4.952 4.952 0 01-4.544 3 5.021 5.021 0 01-2.24-.534l-2.277-1.14a.7.7 0 00-.152.024l-1.748 1.854a5.035 5.035 0 01-1.377 1l11.9 18.1 2.516-10.477 10.622 1.838-10.5-15.958z" transform="translate(-236.626 -301.318)"/></g><path id="Checkbox" d="M9.112 15.847L0 6.735l1.849-1.849 7.263 7.131L21.13 0l1.849 1.849z" transform="translate(19.667 24.625)" fill="#fff"/><g id="勲章のフリーアイコン-2" data-name="勲章のフリーアイコン" fill="#5dc1cf"><path id="パス_1156-2" data-name="パス 1156" d="M155.458 73.024a19.483 19.483 0 1019.483 19.482 19.509 19.509 0 00-19.483-19.482z" transform="translate(-124.565 -61.169)"/><path id="パス_1157-2" data-name="パス 1157" d="M125.513 33.089a3.114 3.114 0 010-3.5l1.563-2.1a2.04 2.04 0 00-.52-2.949l-2.19-1.444a3.118 3.118 0 01-1.2-3.288l.75-2.512a2.038 2.038 0 00-1.5-2.591l-2.55-.609a3.123 3.123 0 01-2.25-2.679l-.154-2.62a2.044 2.044 0 00-2.292-1.925l-2.606.3a3.117 3.117 0 01-3.03-1.747L108.5 3.017a2.043 2.043 0 00-2.815-1.024l-2.344 1.173a3.117 3.117 0 01-3.441-.607L98.094.653a2.04 2.04 0 00-2.993 0L93.3 2.56a3.115 3.115 0 01-3.444.607l-2.347-1.174A2.041 2.041 0 0084.7 3.017l-1.045 2.407a3.118 3.118 0 01-3.03 1.747l-2.6-.3a2.047 2.047 0 00-2.3 1.925l-.152 2.62a3.12 3.12 0 01-2.25 2.679l-2.553.605a2.039 2.039 0 00-1.5 2.591l.751 2.512a3.119 3.119 0 01-1.2 3.288l-2.189 1.444a2.041 2.041 0 00-.52 2.949l1.564 2.1a3.123 3.123 0 010 3.5l-1.564 2.1a2.041 2.041 0 00.52 2.949l2.189 1.445a3.12 3.12 0 011.2 3.288l-.751 2.512a2.043 2.043 0 001.5 2.593l2.551.605a3.123 3.123 0 012.25 2.681l.152 2.618a2.048 2.048 0 002.3 1.927l2.6-.306a3.121 3.121 0 013.029 1.751l1.048 2.416a2.039 2.039 0 002.814 1.023l2.344-1.173a3.117 3.117 0 013.444.608l1.8 1.906a2.04 2.04 0 002.993 0l1.8-1.906a3.12 3.12 0 013.445-.608l2.344 1.173a2.039 2.039 0 002.814-1.023l1.041-2.407a3.124 3.124 0 013.03-1.751l2.605.306a2.044 2.044 0 002.293-1.927l.154-2.618a3.126 3.126 0 012.25-2.681l2.55-.605a2.042 2.042 0 001.5-2.593l-.75-2.512a3.12 3.12 0 011.2-3.288l2.19-1.445a2.04 2.04 0 00.52-2.949zM96.6 53.728a22.39 22.39 0 1122.389-22.392A22.389 22.389 0 0196.6 53.728z" transform="translate(-65.703)"/><path id="パス_1158-2" data-name="パス 1158" d="M108.317 363.488a.474.474 0 00-.146-.025l-2.285 1.143a5.029 5.029 0 01-2.237.532 4.951 4.951 0 01-4.543-3l-1.042-2.4c0 .013 0 .018-.01.018a.344.344 0 01-.088-.029l-1.4.165L86.092 375.8l10.618-1.836 2.516 10.477 11.988-18.225a4.891 4.891 0 01-1.147-.874z" transform="translate(-82.782 -301.32)"/><path id="パス_1159-2" data-name="パス 1159" d="M283.234 359.717a.456.456 0 00-.132.077l-1.012 2.341a4.952 4.952 0 01-4.544 3 5.021 5.021 0 01-2.24-.534l-2.277-1.14a.7.7 0 00-.152.024l-1.748 1.854a5.035 5.035 0 01-1.377 1l11.9 18.1 2.516-10.477 10.622 1.838-10.5-15.958z" transform="translate(-236.626 -301.318)"/></g><path id="Checkbox-2" data-name="Checkbox" d="M9.112 15.847L0 6.735l1.849-1.849 7.263 7.131L21.13 0l1.849 1.849z" transform="translate(19.667 24.625)" fill="#fff"/></svg>