<svg id="グループ_2267" data-name="グループ 2267" xmlns="http://www.w3.org/2000/svg" width="71.716" height="73.93"><path id="パス_1137" data-name="パス 1137" d="M12.7 56.69a3.8 3.8 0 013.032-1.548h.1l6.63 1.458 8.508 1.859 14.773 3.231a9.791 9.791 0 002.17.232 10.284 10.284 0 006.787-2.556l.505-.444L72.749 43.39l5.841-5.173a2.122 2.122 0 00-2.809-3.181l-6.245 5.525L51.9 56.173a6.019 6.019 0 01-3.982 1.5 6.093 6.093 0 01-1.273-.131l-10.087-2.228-12.178-2.689-8.535-1.888h-.011v-.027l-.061-.011-1.223-.271a3.793 3.793 0 01-.959-.485 3.808 3.808 0 01-1.548-3.043 4.014 4.014 0 01.174-1.121 3.881 3.881 0 01.557-1.09 3.563 3.563 0 011.331-1.133 3.636 3.636 0 011.7-.415h.095l6.633 1.455 8.508 1.859 14.773 3.233a9.806 9.806 0 002.17.232 9.53 9.53 0 001.223-.07 10.254 10.254 0 005.57-2.486l.5-.442 17.544-15.535 5.841-5.173a2.109 2.109 0 00.454-2.6 1.766 1.766 0 00-.273-.4 2.111 2.111 0 00-2.989-.183l-6.245 5.527-17.644 15.61a6.043 6.043 0 01-5.255 1.374l-10.082-2.233-12.176-2.687-8.537-1.891H15.9V38.7l-.059-.009-1.223-.273c-.061-.02-.113-.05-.172-.072a3.327 3.327 0 01-.435-.2 1.9 1.9 0 01-.354-.212 3.788 3.788 0 01-1.545-3.041 3.7 3.7 0 01.729-2.213 3.584 3.584 0 011.333-1.13 3.621 3.621 0 011.7-.415c.1 0 .2.011.3.011l4.668 1.008 4.131.889 20.411 4.415a8.086 8.086 0 007.1-1.848l12.555-11.052 7.508-6.61 5.3-4.677a4.08 4.08 0 00-1.839-7.041l-1.6-.345-11.629-2.517L48.035.185a8.09 8.09 0 00-7.1 1.85l-19.694 17.3-5.922 5.2-5.151 4.528a5.211 5.211 0 00-.555.747 3.586 3.586 0 00-.253.334A8 8 0 0010.4 40.8l-.02.02-.284.241a5.578 5.578 0 00-.555.749 4.163 4.163 0 00-.253.334A7.954 7.954 0 0010.335 52.8l-.025.025-.286.241a5.559 5.559 0 00-.553.749 3.322 3.322 0 00-.253.334 7.918 7.918 0 00-1.182 2.333 8.08 8.08 0 002.949 8.941 7.832 7.832 0 002.332 1.177l.09.029 8.985 1.971 8.508 1.862 14.773 3.233a9.806 9.806 0 002.17.232 10.292 10.292 0 006.791-2.556l.505-.444 17.54-15.532 5.841-5.173a2.122 2.122 0 00-2.809-3.181l-6.245 5.525-17.643 15.612a6.076 6.076 0 01-5.255 1.372l-10.082-2.231-12.176-2.69-8.537-1.888-1.223-.273a3.823 3.823 0 01-1.031-.523 3.815 3.815 0 01-1.546-3.045 3.708 3.708 0 01.727-2.21z" transform="translate(-7.659 .003)" fill="#5dc1cf"/><path id="パス_1137-2" data-name="パス 1137" d="M12.7 56.69a3.8 3.8 0 013.032-1.548h.1l6.63 1.458 8.508 1.859 14.773 3.231a9.791 9.791 0 002.17.232 10.284 10.284 0 006.787-2.556l.505-.444L72.749 43.39l5.841-5.173a2.122 2.122 0 00-2.809-3.181l-6.245 5.525L51.9 56.173a6.019 6.019 0 01-3.982 1.5 6.093 6.093 0 01-1.273-.131l-10.087-2.228-12.178-2.689-8.535-1.888h-.011v-.027l-.061-.011-1.223-.271a3.793 3.793 0 01-.959-.485 3.808 3.808 0 01-1.548-3.043 4.014 4.014 0 01.174-1.121 3.881 3.881 0 01.557-1.09 3.563 3.563 0 011.331-1.133 3.636 3.636 0 011.7-.415h.095l6.633 1.455 8.508 1.859 14.773 3.233a9.806 9.806 0 002.17.232 9.53 9.53 0 001.223-.07 10.254 10.254 0 005.57-2.486l.5-.442 17.544-15.535 5.841-5.173a2.109 2.109 0 00.454-2.6 1.766 1.766 0 00-.273-.4 2.111 2.111 0 00-2.989-.183l-6.245 5.527-17.644 15.61a6.043 6.043 0 01-5.255 1.374l-10.082-2.233-12.176-2.687-8.537-1.891H15.9V38.7l-.059-.009-1.223-.273c-.061-.02-.113-.05-.172-.072a3.327 3.327 0 01-.435-.2 1.9 1.9 0 01-.354-.212 3.788 3.788 0 01-1.545-3.041 3.7 3.7 0 01.729-2.213 3.584 3.584 0 011.333-1.13 3.621 3.621 0 011.7-.415c.1 0 .2.011.3.011l4.668 1.008 4.131.889 20.411 4.415a8.086 8.086 0 007.1-1.848l12.555-11.052 7.508-6.61 5.3-4.677a4.08 4.08 0 00-1.839-7.041l-1.6-.345-11.629-2.517L48.035.185a8.09 8.09 0 00-7.1 1.85l-19.694 17.3-5.922 5.2-5.151 4.528a5.211 5.211 0 00-.555.747 3.586 3.586 0 00-.253.334A8 8 0 0010.4 40.8l-.02.02-.284.241a5.578 5.578 0 00-.555.749 4.163 4.163 0 00-.253.334A7.954 7.954 0 0010.335 52.8l-.025.025-.286.241a5.559 5.559 0 00-.553.749 3.322 3.322 0 00-.253.334 7.918 7.918 0 00-1.182 2.333 8.08 8.08 0 002.949 8.941 7.832 7.832 0 002.332 1.177l.09.029 8.985 1.971 8.508 1.862 14.773 3.233a9.806 9.806 0 002.17.232 10.292 10.292 0 006.791-2.556l.505-.444 17.54-15.532 5.841-5.173a2.122 2.122 0 00-2.809-3.181l-6.245 5.525-17.643 15.612a6.076 6.076 0 01-5.255 1.372l-10.082-2.231-12.176-2.69-8.537-1.888-1.223-.273a3.823 3.823 0 01-1.031-.523 3.815 3.815 0 01-1.546-3.045 3.708 3.708 0 01.727-2.21z" transform="translate(-7.659 .003)" fill="#5dc1cf"/></svg>