<svg id="グループ_2265" data-name="グループ 2265" xmlns="http://www.w3.org/2000/svg" width="71.342" height="66.988"><path id="パス_1133" data-name="パス 1133" d="M63.48 382.552l-5.326 11.354a2.86 2.86 0 001.376 3.808l.91.427a2.865 2.865 0 003.808-1.377l6.663-14.2h-7.159a3.557 3.557 0 01-.272-.012z" transform="translate(-49.816 -331.424)" fill="#5dc1cf"/><path id="パス_1134" data-name="パス 1134" d="M399.571 358.465l-.519 1.108a3.941 3.941 0 01-3.555 2.26h-1.785l6.663 14.2a2.865 2.865 0 003.808 1.377l.912-.427a2.861 2.861 0 001.374-3.808z" transform="translate(-338.852 -310.694)" fill="#5dc1cf"/><path id="パス_1135" data-name="パス 1135" d="M144.547 137.6l-2.64-1.237a1.908 1.908 0 00-2.539.917L128.4 160.666a1.91 1.91 0 01-1.729 1.1H88.242a1.909 1.909 0 00-1.909 1.909v2.917a1.908 1.908 0 001.909 1.908h42.705a1.908 1.908 0 001.728-1.1l12.79-27.263a1.911 1.911 0 00-.918-2.537z" transform="translate(-74.303 -119.38)" fill="#5dc1cf"/><path id="パス_1136" data-name="パス 1136" d="M29.092 56.661h3.464l-4.439-18.28L53.1 32.315l-1.142-1.787a28.1 28.1 0 00-29.608-12.38l-.656-2.523-2.281.594.656 2.522A28.146 28.146 0 00.195 43.1L0 45.21l24.845-6.035zm19.07-26.266l-9.636 2.341.2-.089A31.106 31.106 0 0032 22.721a17.61 17.61 0 00-2.772-2.15 25.191 25.191 0 0118.934 9.824zm-23.9-9.522a8.323 8.323 0 012.806.814 16.375 16.375 0 015.261 4.336 31.6 31.6 0 014.409 7.146l-9.861 2.395-3.766-14.48c.389-.084.769-.149 1.153-.211zM12.788 38.945l.218-.012L3.5 41.241A25.232 25.232 0 019.1 29.4a24.979 24.979 0 016.552-5.471 18.243 18.243 0 00-1.643 3.733 30.081 30.081 0 00-1.282 9.072c-.002.723.019 1.466.061 2.211zm2-.446c-.029-.6-.046-1.188-.046-1.767a25.246 25.246 0 012.066-10.7 11.155 11.155 0 012.355-3.349 7.55 7.55 0 011.024-.809c.211-.07.424-.136.638-.2l3.757 14.445z" transform="translate(0 -15.624)" fill="#5dc1cf"/><path id="パス_1133-2" data-name="パス 1133" d="M63.48 382.552l-5.326 11.354a2.86 2.86 0 001.376 3.808l.91.427a2.865 2.865 0 003.808-1.377l6.663-14.2h-7.159a3.557 3.557 0 01-.272-.012z" transform="translate(-49.816 -331.424)" fill="#5dc1cf"/><path id="パス_1134-2" data-name="パス 1134" d="M399.571 358.465l-.519 1.108a3.941 3.941 0 01-3.555 2.26h-1.785l6.663 14.2a2.865 2.865 0 003.808 1.377l.912-.427a2.861 2.861 0 001.374-3.808z" transform="translate(-338.852 -310.694)" fill="#5dc1cf"/><path id="パス_1135-2" data-name="パス 1135" d="M144.547 137.6l-2.64-1.237a1.908 1.908 0 00-2.539.917L128.4 160.666a1.91 1.91 0 01-1.729 1.1H88.242a1.909 1.909 0 00-1.909 1.909v2.917a1.908 1.908 0 001.909 1.908h42.705a1.908 1.908 0 001.728-1.1l12.79-27.263a1.911 1.911 0 00-.918-2.537z" transform="translate(-74.303 -119.38)" fill="#5dc1cf"/><path id="パス_1136-2" data-name="パス 1136" d="M29.092 56.661h3.464l-4.439-18.28L53.1 32.315l-1.142-1.787a28.1 28.1 0 00-29.608-12.38l-.656-2.523-2.281.594.656 2.522A28.146 28.146 0 00.195 43.1L0 45.21l24.845-6.035zm19.07-26.266l-9.636 2.341.2-.089A31.106 31.106 0 0032 22.721a17.61 17.61 0 00-2.772-2.15 25.191 25.191 0 0118.934 9.824zm-23.9-9.522a8.323 8.323 0 012.806.814 16.375 16.375 0 015.261 4.336 31.6 31.6 0 014.409 7.146l-9.861 2.395-3.766-14.48c.389-.084.769-.149 1.153-.211zM12.788 38.945l.218-.012L3.5 41.241A25.232 25.232 0 019.1 29.4a24.979 24.979 0 016.552-5.471 18.243 18.243 0 00-1.643 3.733 30.081 30.081 0 00-1.282 9.072c-.002.723.019 1.466.061 2.211zm2-.446c-.029-.6-.046-1.188-.046-1.767a25.246 25.246 0 012.066-10.7 11.155 11.155 0 012.355-3.349 7.55 7.55 0 011.024-.809c.211-.07.424-.136.638-.2l3.757 14.445z" transform="translate(0 -15.624)" fill="#5dc1cf"/></svg>