<svg id="グループ_2266" data-name="グループ 2266" xmlns="http://www.w3.org/2000/svg" width="77.032" height="55.177"><path id="パス_1160" data-name="パス 1160" d="M140.314 72.877c-2.022 1.147-4.464 2.1-6.633 1.735-3.421-.569-12.239-.532-18.092 1.6S99.1 84.986 95.9 86.052s-3.459 5.321 3.724 6.118 13.568-3.725 15.164-4.522 17.027 1.6 17.027 1.6l4.855 1.2 11.193 15.13c1.964-1.706 5.848-5.327 6.832-8.079a11.249 11.249 0 011.477-2.742l.123.169c2.638-5.896-8.659-24.633-15.981-22.049z" transform="translate(-79.657 -72.634)" fill="#5dc1cf"/><path id="パス_1161" data-name="パス 1161" d="M149.379 194.528l-2.352-.237c-3.086-.478-11.814-1.721-15.092-1.721-.143 0-.258 0-.343.006-.132.075-.284.162-.433.249-2.326 1.354-7.772 4.525-14.116 4.525a18.782 18.782 0 01-2.07-.115 17.236 17.236 0 01-2.732-.514 6.525 6.525 0 013.8 4.781 6.537 6.537 0 018.234 6.386v.052a6.545 6.545 0 016.525 6.613 6.643 6.643 0 01-.262 1.756 6.484 6.484 0 013.321 1.825 6.551 6.551 0 01-.1 9.252l-1.292 1.263h.019a4.842 4.842 0 004.507-3.511 5.17 5.17 0 008.315-4.954 5.184 5.184 0 008.595-3.908 5.186 5.186 0 007.182-4.788c0-2.175-1.064-3.592-3.592-6.518z" transform="translate(-95.355 -174.526)" fill="#5dc1cf"/><path id="パス_1162" data-name="パス 1162" d="M51.253 238.732a3.351 3.351 0 00-4.738-.052l-4.787 4.685a3.349 3.349 0 104.684 4.787l4.788-4.684a3.349 3.349 0 00.053-4.736z" transform="translate(-34.595 -212.886)" fill="#5dc1cf"/><path id="パス_1163" data-name="パス 1163" d="M96.192 272.65a3.347 3.347 0 00-4.736-.052l-6.384 6.245a3.35 3.35 0 004.687 4.788l6.383-6.245a3.348 3.348 0 00.05-4.736z" transform="translate(-71.417 -241.7)" fill="#5dc1cf"/><path id="パス_1164" data-name="パス 1164" d="M139.538 316.954a3.348 3.348 0 00-4.736-.052l-6.384 6.247a3.349 3.349 0 104.686 4.787l6.384-6.245a3.349 3.349 0 00.05-4.737z" transform="translate(-108.242 -279.339)" fill="#5dc1cf"/><path id="パス_1165" data-name="パス 1165" d="M187.3 371.633a3.348 3.348 0 00-4.736-.052l-3.724 3.644a3.35 3.35 0 004.685 4.788l3.724-3.644a3.35 3.35 0 00.051-4.736z" transform="translate(-151.077 -325.791)" fill="#5dc1cf"/><path id="パス_1166" data-name="パス 1166" d="M14.263 95.5a6.652 6.652 0 011.474.172c-4.022-1.542-4.688-4.364-4.794-5.359a5.84 5.84 0 014.293-6.07 74.5 74.5 0 007.064-3.61c3.12-1.7 6.544-3.569 9.523-4.942a42.683 42.683 0 00-9.2.138c-2.032.339-4.3-.474-6.245-1.519C9.053 71.724-2.244 90.461.391 96.352A10.872 10.872 0 011.6 98.708a13.838 13.838 0 002.691 4.032 7.016 7.016 0 01.607-.694l4.787-4.685a6.512 6.512 0 014.578-1.861z" transform="translate(0 -73.85)" fill="#5dc1cf"/><path id="パス_1160-2" data-name="パス 1160" d="M140.314 72.877c-2.022 1.147-4.464 2.1-6.633 1.735-3.421-.569-12.239-.532-18.092 1.6S99.1 84.986 95.9 86.052s-3.459 5.321 3.724 6.118 13.568-3.725 15.164-4.522 17.027 1.6 17.027 1.6l4.855 1.2 11.193 15.13c1.964-1.706 5.848-5.327 6.832-8.079a11.249 11.249 0 011.477-2.742l.123.169c2.638-5.896-8.659-24.633-15.981-22.049z" transform="translate(-79.657 -72.634)" fill="#5dc1cf"/><path id="パス_1161-2" data-name="パス 1161" d="M149.379 194.528l-2.352-.237c-3.086-.478-11.814-1.721-15.092-1.721-.143 0-.258 0-.343.006-.132.075-.284.162-.433.249-2.326 1.354-7.772 4.525-14.116 4.525a18.782 18.782 0 01-2.07-.115 17.236 17.236 0 01-2.732-.514 6.525 6.525 0 013.8 4.781 6.537 6.537 0 018.234 6.386v.052a6.545 6.545 0 016.525 6.613 6.643 6.643 0 01-.262 1.756 6.484 6.484 0 013.321 1.825 6.551 6.551 0 01-.1 9.252l-1.292 1.263h.019a4.842 4.842 0 004.507-3.511 5.17 5.17 0 008.315-4.954 5.184 5.184 0 008.595-3.908 5.186 5.186 0 007.182-4.788c0-2.175-1.064-3.592-3.592-6.518z" transform="translate(-95.355 -174.526)" fill="#5dc1cf"/><path id="パス_1162-2" data-name="パス 1162" d="M51.253 238.732a3.351 3.351 0 00-4.738-.052l-4.787 4.685a3.349 3.349 0 104.684 4.787l4.788-4.684a3.349 3.349 0 00.053-4.736z" transform="translate(-34.595 -212.886)" fill="#5dc1cf"/><path id="パス_1163-2" data-name="パス 1163" d="M96.192 272.65a3.347 3.347 0 00-4.736-.052l-6.384 6.245a3.35 3.35 0 004.687 4.788l6.383-6.245a3.348 3.348 0 00.05-4.736z" transform="translate(-71.417 -241.7)" fill="#5dc1cf"/><path id="パス_1164-2" data-name="パス 1164" d="M139.538 316.954a3.348 3.348 0 00-4.736-.052l-6.384 6.247a3.349 3.349 0 104.686 4.787l6.384-6.245a3.349 3.349 0 00.05-4.737z" transform="translate(-108.242 -279.339)" fill="#5dc1cf"/><path id="パス_1165-2" data-name="パス 1165" d="M187.3 371.633a3.348 3.348 0 00-4.736-.052l-3.724 3.644a3.35 3.35 0 004.685 4.788l3.724-3.644a3.35 3.35 0 00.051-4.736z" transform="translate(-151.077 -325.791)" fill="#5dc1cf"/><path id="パス_1166-2" data-name="パス 1166" d="M14.263 95.5a6.652 6.652 0 011.474.172c-4.022-1.542-4.688-4.364-4.794-5.359a5.84 5.84 0 014.293-6.07 74.5 74.5 0 007.064-3.61c3.12-1.7 6.544-3.569 9.523-4.942a42.683 42.683 0 00-9.2.138c-2.032.339-4.3-.474-6.245-1.519C9.053 71.724-2.244 90.461.391 96.352A10.872 10.872 0 011.6 98.708a13.838 13.838 0 002.691 4.032 7.016 7.016 0 01.607-.694l4.787-4.685a6.512 6.512 0 014.578-1.861z" transform="translate(0 -73.85)" fill="#5dc1cf"/></svg>