<svg id="財宝アイコン_円タイプ" data-name="財宝アイコン　円タイプ" xmlns="http://www.w3.org/2000/svg" width="96.972" height="80.702"><path id="パス_1138" data-name="パス 1138" d="M136.148 250.643c0 2.536-4.833 4.593-10.793 4.593s-10.793-2.057-10.793-4.593 4.83-4.6 10.793-4.6 10.793 2.057 10.793 4.6z" transform="translate(-92.865 -207.581)" fill="#5dc1cf"/><path id="パス_1139" data-name="パス 1139" d="M114.562 302.017c0 2.539 4.83 4.6 10.793 4.6s10.793-2.057 10.793-4.6v-1.139a1.043 1.043 0 00-1.456-.962S131.315 302 125.355 302s-9.337-2.083-9.337-2.083a1.041 1.041 0 00-1.456.962v1.139z" transform="translate(-92.864 -251.178)" fill="#5dc1cf"/><path id="パス_1140" data-name="パス 1140" d="M128.841 344.185a16.959 16.959 0 00-1.933 4.815c-.512.033-1.027.047-1.557.047-5.957 0-10.79-2.06-10.79-4.6v-1.136a1.043 1.043 0 011.453-.965 18.975 18.975 0 009.337 2.086 23.787 23.787 0 003.49-.247z" transform="translate(-92.864 -285.576)" fill="#5dc1cf"/><path id="パス_1141" data-name="パス 1141" d="M126.921 391.429c-.509.033-1.039.047-1.568.047-5.957 0-10.79-2.06-10.79-4.593v-1.142a1.04 1.04 0 011.453-.962 19 19 0 009.337 2.083c.379 0 .743-.006 1.1-.021-.012.181-.012.358-.012.539a17.1 17.1 0 00.48 4.049z" transform="translate(-92.865 -319.969)" fill="#5dc1cf"/><path id="パス_1142" data-name="パス 1142" d="M130.8 433.265a22.241 22.241 0 01-5.445.633c-5.957 0-10.79-2.057-10.79-4.593v-1.142a1.04 1.04 0 011.453-.962 18.976 18.976 0 009.337 2.086 23.481 23.481 0 002.726-.154 17.285 17.285 0 002.719 4.132z" transform="translate(-92.864 -354.357)" fill="#5dc1cf"/><path id="パス_1143" data-name="パス 1143" d="M212.181 328.7a13.29 13.29 0 1013.29 13.29 13.292 13.292 0 00-13.29-13.29zm5.282 12.2h-3.637l-.394.607v1.459h4.031v2.069h-4.031v3.122h-2.5v-3.122H206.9v-2.065h4.034v-1.456l-.394-.61h-3.64v-1.767h2.5l-2.128-3.311h2.128l2.785 4.336 2.788-4.336h2.122l-2.128 3.311h2.5v1.763z" transform="translate(-161.221 -274.582)" fill="#5dc1cf"/><path id="パス_1144" data-name="パス 1144" d="M291.883 158.374c0 2.539-4.833 4.6-10.793 4.6s-10.793-2.057-10.793-4.6 4.83-4.593 10.793-4.593 10.793 2.057 10.793 4.593z" transform="translate(-219.104 -132.79)" fill="#5dc1cf"/><path id="パス_1145" data-name="パス 1145" d="M270.3 261.775c0 2.539 4.83 4.6 10.793 4.6s10.793-2.057 10.793-4.6v-1.142a1.046 1.046 0 00-1.456-.962s-3.377 2.086-9.337 2.086-9.337-2.086-9.337-2.086a1.044 1.044 0 00-1.456.962v1.142z" transform="translate(-219.102 -218.557)" fill="#5dc1cf"/><path id="パス_1146" data-name="パス 1146" d="M270.3 215.807c0 2.536 4.83 4.593 10.793 4.593s10.793-2.057 10.793-4.593v-1.142a1.046 1.046 0 00-1.456-.962s-3.377 2.086-9.337 2.086-9.337-2.086-9.337-2.086a1.044 1.044 0 00-1.456.962v1.142z" transform="translate(-219.102 -181.295)" fill="#5dc1cf"/><path id="パス_1147" data-name="パス 1147" d="M358.742 397.7a1.043 1.043 0 00-.985-.089 14.111 14.111 0 01-3.344 1.314 16.872 16.872 0 01-1.054 4.871c3.474-.761 5.854-2.3 5.854-4.081v-1.145a1.041 1.041 0 00-.471-.87z" transform="translate(-286.433 -330.369)" fill="#5dc1cf"/><path id="パス_1148" data-name="パス 1148" d="M356.589 351.725a1.035 1.035 0 00-.985-.089 15.842 15.842 0 01-4.9 1.672 16.948 16.948 0 011.349 4.3c3.007-.814 5.007-2.243 5.007-3.874V352.6a1.037 1.037 0 00-.471-.875z" transform="translate(-284.28 -293.103)" fill="#5dc1cf"/><path id="パス_1149" data-name="パス 1149" d="M313.981 305.743a1.043 1.043 0 00-.985-.089s-3.377 2.086-9.337 2.086a22.927 22.927 0 01-5.519-.648 17.125 17.125 0 017.561 5.176c4.981-.408 8.751-2.27 8.751-4.51v-1.142a1.041 1.041 0 00-.471-.873z" transform="translate(-241.673 -255.831)" fill="#5dc1cf"/><path id="長方形_1333" data-name="長方形 1333" transform="translate(46.645)" fill="#5dc1cf" d="M0 0h3.682v8.419H0z"/><path id="パス_1150" data-name="パス 1150" d="M126.976 79.68l-3.19 1.844-4.208-7.292 3.19-1.841z" transform="translate(-96.93 -66.815)" fill="#5dc1cf"/><path id="パス_1151" data-name="パス 1151" d="M38.57 166.739l-1.844 3.19-7.289-4.208 1.841-3.19z" transform="translate(-23.862 -139.883)" fill="#5dc1cf"/><path id="パス_1152" data-name="パス 1152" d="M443.489 400.521l-1.841 3.19-7.289-4.208 1.841-3.19z" transform="translate(-352.092 -329.387)" fill="#5dc1cf"/><path id="長方形_1334" data-name="長方形 1334" transform="translate(0 46.645)" fill="#5dc1cf" d="M0 0h8.416v3.682H0z"/><path id="パス_1153" data-name="パス 1153" d="M475.966 289.234v3.682h-8.416v-3.682z" transform="translate(-378.994 -242.589)" fill="#5dc1cf"/><path id="パス_1154" data-name="パス 1154" d="M36.727 396.313l1.841 3.19-7.289 4.208-1.841-3.19z" transform="translate(-23.862 -329.387)" fill="#5dc1cf"/><path id="パス_1155" data-name="パス 1155" d="M441.636 162.531l1.838 3.19-7.289 4.208-1.841-3.19z" transform="translate(-352.08 -139.883)" fill="#5dc1cf"/><path id="長方形_1335" data-name="長方形 1335" transform="rotate(-150 37.025 -2.04)" fill="#5dc1cf" d="M0 0h3.681v8.416H0z"/></svg>