<?xml version="1.0" encoding="UTF-8"?><svg xmlns="http://www.w3.org/2000/svg" xmlns:xlink="http://www.w3.org/1999/xlink" viewBox="0 0 2056.11293 1374.08377"><defs><style>.c`{fill:url(#u);}.ca{fill:url(#t);}.cb{fill:url(#v);}.cc{fill:url(#e);}.cd{fill:url(#s);}.ce{fill:url(#q);}.cf{fill:url(#r);}.cg{fill:url(#i);}.ch{fill:url(#h);}.ci{fill:url(#j);}.cj{fill:url(#n);}.ck{fill:url(#ag);}.cl{fill:url(#ab);}.cm{fill:url(#ai);}.cn{fill:url(#ad);}.co{fill:url(#ao);}.cp{fill:url(#aj);}.cq{fill:url(#ae);}.cr{fill:url(#af);}.cs{fill:url(#as);}.ct{fill:url(#aq);}.cu{fill:url(#al);}.cv{fill:url(#aw);}.cw{fill:url(#am);}.cx{fill:url(#an);}.cy{fill:url(#at);}.d`{fill:url(#ay);}.da{fill:url(#av);}.db{fill:url(#be);}.dc{fill:url(#bg);}.dd{fill:url(#bf);}.de{fill:url(#ba);}.df{fill:url(#bc);}.dg{fill:url(#bb);}.dh{fill:url(#by);}.di{fill:url(#bu);}.dj{fill:url(#bl);}.dk{fill:url(#bw);}.dl{fill:url(#bv);}.dm{fill:url(#bi);}.dn{fill:url(#bk);}.do{fill:url(#bj);}.dp{fill:url(#bt);}.dq{fill:url(#bq);}.dr{fill:url(#bs);}.ds{fill:url(#br);}.dt{fill:#f6f6fb;}.du{fill:#f7f7fc;}.dv{fill:#facfa7;}.dw{fill:#fbba05;}.dx,.dy{fill:#e8ecf7;}.e`,.ea{fill:#fff;}.eb{fill:#f2c39d;}.ec{fill:#ef4e16;}.ed{fill:#fcd1a9;}.ee{fill:#ffad02;}.ef{fill:#ffd03e;}.eg{fill:#fd9009;}.eh{fill:#fc780b;}.ei{fill:#6b67e9;}.ej{fill:#ced2f4;}.ek{fill:#ced3f8;}.el{fill:#dae0f5;}.em{fill:#bbc0e6;}.en{fill:#bbbfe2;}.eo{fill:#bdc1e4;}.ep{fill:#d0d4f6;}.eq{fill:#131147;}.er{fill:#20196f;}.es{fill:#423eaf;}.et{fill:#362e94;}.eu{fill:#a3a9d0;}.ev{fill:#807dfb;}.ew{fill:#5652cc;}.ex{fill:#c4cae9;}.ex,.dy,.ey,.f`,.fa,.fb,.fc,.fd,.fe,.ff,.fg,.fh,.fi,.fj,.fk,.fl,.fm,.fn,.fo,.fp,.fq,.fr,.fs,.ft,.fu,.fv,.fw,.fx,.fy{mix-blend-mode:multiply;}.ey{fill:url(#au);}.f`{fill:url(#ak);}.fa{fill:url(#ac);}.fb{fill:url(#ax);}.fc{fill:url(#ar);}.fd{fill:url(#a`);}.fe{fill:url(#bp);}.ff{fill:url(#bx);}.fg{fill:url(#b`);}.fh{fill:url(#bm);}.fi{fill:url(#bn);}.fj{fill:url(#bo);}.fk{fill:url(#bd);}.fl{fill:url(#bh);}.fm{fill:url(#ap);}.fn{fill:url(#ah);}.fo{fill:url(#aa);}.fp{fill:url(#p);}.fq{fill:url(#o);}.fr{fill:url(#g);}.fs{fill:url(#f);}.ft{fill:url(#k);}.fu{fill:url(#l);}.fv{fill:url(#m);}.fw{fill:url(#x);}.fx{fill:url(#y);}.fy{fill:url(#w);}.g`{isolation:isolate;}.ea{opacity:.4;}</style><linearGradient id="e" x1=".84834" y1="996.33337" x2="2045.75585" y2="660.60235" gradientTransform="matrix(1, 0, 0, 1, 0, 0)" gradientUnits="userSpaceOnUse"><stop offset="0" stop-color="#efeff3"/><stop offset="1" stop-color="#fff"/></linearGradient><linearGradient id="f" x1="342.14446" y1="767.96303" x2="1827.12816" y2="767.96303" gradientTransform="matrix(1, 0, 0, 1, 0, 0)" gradientUnits="userSpaceOnUse"><stop offset="0" stop-color="#dae0f5"/><stop offset=".44962" stop-color="#e8ebf8"/><stop offset="1" stop-color="#fff"/></linearGradient><linearGradient id="g" x1="838.92625" y1="1175.61947" x2="997.01456" y2="1175.61947" gradientTransform="translate(77.1359)" gradientUnits="userSpaceOnUse"><stop offset="0" stop-color="#c4cae9"/><stop offset=".09492" stop-color="#cdd2ec"/><stop offset=".40875" stop-color="#e8eaf6"/><stop offset=".68695" stop-color="#f9f9fc"/><stop offset=".89888" stop-color="#fff"/></linearGradient><linearGradient id="h" x1="2006.01752" y1="1359.29509" x2="2036.35444" y2="1343.03996" gradientTransform="translate(3139.68423 159.93784) rotate(-170.73455) scale(.99995 -.99995)" gradientUnits="userSpaceOnUse"><stop offset="0" stop-color="#423eaf"/><stop offset=".48832" stop-color="#302a8d"/><stop offset="1" stop-color="#20196f"/></linearGradient><linearGradient id="i" x1="1978.53154" y1="1369.64841" x2="2008.8701" y2="1353.3924" xlink:href="#h"/><linearGradient id="j" x1="313.73021" y1="949.00378" x2="411.32389" y2="949.00378" gradientTransform="translate(590.61959)" gradientUnits="userSpaceOnUse"><stop offset="0" stop-color="#362e94"/><stop offset="1" stop-color="#6b67e9"/></linearGradient><linearGradient id="k" x1="840.20858" y1="1366.91591" x2="840.20858" y2="944.81422" gradientTransform="translate(1804.07632 48.06941) rotate(30.00073) skewX(-29.99893)" gradientUnits="userSpaceOnUse"><stop offset="0" stop-color="#fff"/><stop offset=".09222" stop-color="#f9f9fb"/><stop offset=".3324" stop-color="#f2f2f7"/><stop offset="1" stop-color="#f1f1f6"/></linearGradient><linearGradient id="l" x1="309.14646" y1="569.02887" x2="1152.19694" y2="569.02887" xlink:href="#f"/><linearGradient id="m" x1="1272.64368" y1="551.20638" x2="1605.15704" y2="551.20638" gradientTransform="matrix(1, 0, 0, 1, 0, 0)" gradientUnits="userSpaceOnUse"><stop offset=".51446" stop-color="#c6ccea"/><stop offset=".63224" stop-color="#cdd2ec"/><stop offset=".80522" stop-color="#e0e4f3"/><stop offset="1" stop-color="#fff"/></linearGradient><linearGradient id="n" x1="399.99182" y1="620.16625" x2="550.82794" y2="881.42207" gradientTransform="translate(2311.36093 547.30545) rotate(120.00073)" gradientUnits="userSpaceOnUse"><stop offset=".00562" stop-color="#cc360e"/><stop offset="1" stop-color="#fc780b"/></linearGradient><linearGradient id="o" x1="1272.65245" y1="550.61663" x2="1574.27888" y2="550.61663" gradientTransform="matrix(1, 0, 0, 1, 0, 0)" gradientUnits="userSpaceOnUse"><stop offset="0" stop-color="#f1f1f6"/><stop offset=".65961" stop-color="#f2f2f7"/><stop offset=".90708" stop-color="#f9f9fb"/><stop offset="1" stop-color="#fff"/></linearGradient><linearGradient id="p" x1="961.33386" y1="779.20028" x2="1171.26254" y2="779.20028" gradientTransform="translate(176.9196)" xlink:href="#g"/><linearGradient id="q" x1="1733.15589" y1="762.78256" x2="1780.54124" y2="762.78256" gradientTransform="translate(-572.9511)" gradientUnits="userSpaceOnUse"><stop offset="0" stop-color="#362e94"/><stop offset=".51921" stop-color="#29217e"/><stop offset="1" stop-color="#20196f"/></linearGradient><linearGradient id="r" x1="1076.54364" y1="573.04848" x2="1082.38658" y2="769.10967" gradientTransform="translate(2256.03191) rotate(-180) scale(1 -1)" gradientUnits="userSpaceOnUse"><stop offset="0" stop-color="#131147"/><stop offset=".17583" stop-color="#1a1656"/><stop offset=".72295" stop-color="#2e2782"/><stop offset="1" stop-color="#362e94"/></linearGradient><linearGradient id="s" x1="1695.77225" y1="784.36623" x2="1743.15756" y2="784.36623" xlink:href="#q"/><linearGradient id="t" x1="1101.76724" y1="572.27586" x2="1107.60368" y2="768.1191" gradientTransform="translate(2256.03191) rotate(-180) scale(1 -1)" gradientUnits="userSpaceOnUse"><stop offset="0" stop-color="#362e94"/><stop offset=".675" stop-color="#3d38a5"/><stop offset="1" stop-color="#423eaf"/></linearGradient><linearGradient id="u" x1="1050.47255" y1="486.45047" x2="1192.21427" y2="486.45047" gradientTransform="translate(2256.03191) rotate(-180) scale(1 -1)" gradientUnits="userSpaceOnUse"><stop offset="0" stop-color="#fd9009"/><stop offset="1" stop-color="#fcba06"/></linearGradient><linearGradient id="v" x1="1024.9764" y1="464.82365" x2="1093.50252" y2="372.22065" gradientTransform="translate(2256.03191) rotate(-180) scale(1 -1)" gradientUnits="userSpaceOnUse"><stop offset="0" stop-color="#423eaf"/><stop offset=".06493" stop-color="#403cac"/><stop offset=".60846" stop-color="#38319a"/><stop offset="1" stop-color="#362e94"/></linearGradient><linearGradient id="w" x1="500.66616" y1="1068.40702" x2="673.55665" y2="1068.40702" gradientTransform="matrix(1, 0, 0, 1, 0, 0)" gradientUnits="userSpaceOnUse"><stop offset="0" stop-color="#c2c7e3"/><stop offset=".07076" stop-color="#ccd0e7"/><stop offset=".25523" stop-color="#e2e5f2"/><stop offset=".45645" stop-color="#f2f3f9"/><stop offset=".68504" stop-color="#fcfcfd"/><stop offset="1" stop-color="#fff"/></linearGradient><linearGradient id="x" x1="574.14515" y1="1026.12737" x2="707.93595" y2="1026.12737" gradientTransform="matrix(1, 0, 0, 1, 0, 0)" gradientUnits="userSpaceOnUse"><stop offset="0" stop-color="#c2c7e3"/><stop offset=".231" stop-color="#daddee"/><stop offset=".48763" stop-color="#eef0f7"/><stop offset=".74448" stop-color="#fafbfd"/><stop offset="1" stop-color="#fff"/></linearGradient><linearGradient id="y" x1="427.18746" y1="1110.68277" x2="577.02646" y2="1110.68277" xlink:href="#w"/><linearGradient id="a`" x1="353.71396" y1="1152.96247" x2="473.65196" y2="1152.96247" xlink:href="#w"/><linearGradient id="aa" x1="579.29198" y1="1203.21105" x2="680.40624" y2="1203.21105" gradientTransform="matrix(1, 0, 0, 1, 0, 0)" gradientUnits="userSpaceOnUse"><stop offset=".42652" stop-color="#c4c9e4"/><stop offset=".57661" stop-color="#d7daec"/><stop offset=".84594" stop-color="#f4f5fa"/><stop offset="1" stop-color="#fff"/></linearGradient><linearGradient id="ab" x1="557.00252" y1="1209.19787" x2="658.16746" y2="1209.19787" gradientTransform="matrix(1, 0, 0, 1, 0, 0)" gradientUnits="userSpaceOnUse"><stop offset="0" stop-color="#ffad02"/><stop offset=".16452" stop-color="#fb9806"/><stop offset=".53222" stop-color="#f4700e"/><stop offset=".82344" stop-color="#f05714"/><stop offset="1" stop-color="#ef4e16"/></linearGradient><linearGradient id="ac" x1="50.57416" y1="1030.33102" x2="197.39716" y2="1030.33102" gradientTransform="matrix(1, 0, 0, 1, 0, 0)" gradientUnits="userSpaceOnUse"><stop offset="0" stop-color="#dae0f5"/><stop offset=".32621" stop-color="#dee3f6"/><stop offset=".66064" stop-color="#eaedf9"/><stop offset=".99785" stop-color="#fefefe"/><stop offset="1" stop-color="#fff"/></linearGradient><linearGradient id="ad" x1="66.82392" y1="1008.4776" x2="124.36796" y2="1008.4776" gradientTransform="matrix(1, 0, 0, 1, 0, 0)" gradientUnits="userSpaceOnUse"><stop offset="0" stop-color="#a3a9d0"/><stop offset="1" stop-color="#dee2f9"/></linearGradient><linearGradient id="ae" x1="50.57416" y1="1050.87315" x2="87.28196" y2="1050.87315" gradientTransform="matrix(1, 0, 0, 1, 0, 0)" gradientUnits="userSpaceOnUse"><stop offset="0" stop-color="#a3a9d0"/><stop offset="1" stop-color="#d0d4f6"/></linearGradient><linearGradient id="af" x1="1689.34059" y1="1851.83928" x2="1707.43879" y2="1882.10697" gradientTransform="translate(2586.82773 513.49735) rotate(120.00073)" gradientUnits="userSpaceOnUse"><stop offset="0" stop-color="#d0d4f6"/><stop offset=".57039" stop-color="#b8bde1"/><stop offset="1" stop-color="#a3a9d0"/></linearGradient><linearGradient id="ag" x1="142.01149" y1="1022.31802" x2="167.04596" y2="1022.31802" gradientTransform="matrix(1, 0, 0, 1, 0, 0)" gradientUnits="userSpaceOnUse"><stop offset=".40449" stop-color="#a3a9d0"/><stop offset=".68884" stop-color="#b6bbe0"/><stop offset="1" stop-color="#d0d4f6"/></linearGradient><linearGradient id="ah" x1="1615.00766" y1="944.75287" x2="1927.45636" y2="944.75287" gradientTransform="matrix(1, 0, 0, 1, 0, 0)" gradientUnits="userSpaceOnUse"><stop offset="0" stop-color="#c4cae9"/><stop offset="1" stop-color="#fff"/></linearGradient><linearGradient id="ai" x1="1575.54946" y1="951.09312" x2="1800.31016" y2="951.09312" gradientTransform="matrix(1, 0, 0, 1, 0, 0)" gradientUnits="userSpaceOnUse"><stop offset=".00562" stop-color="#5652cc"/><stop offset=".28075" stop-color="#4f4bc1"/><stop offset=".75769" stop-color="#3f38a4"/><stop offset="1" stop-color="#362e94"/></linearGradient><linearGradient id="aj" x1="1581.65196" y1="957.06522" x2="1794.21316" y2="957.06522" gradientTransform="matrix(1, 0, 0, 1, 0, 0)" gradientUnits="userSpaceOnUse"><stop offset=".00562" stop-color="#423eaf"/><stop offset=".25374" stop-color="#3c37a4"/><stop offset=".6838" stop-color="#2d2787"/><stop offset="1" stop-color="#20196f"/></linearGradient><linearGradient id="ak" x1="1698.46966" y1="923.97922" x2="1794.21316" y2="923.97922" gradientTransform="matrix(1, 0, 0, 1, 0, 0)" gradientUnits="userSpaceOnUse"><stop offset="0" stop-color="#a5abcc"/><stop offset=".63356" stop-color="#e1e3ee"/><stop offset="1" stop-color="#fff"/></linearGradient><linearGradient id="al" x1="1612.17446" y1="821.73028" x2="1763.68516" y2="821.73028" gradientTransform="matrix(1, 0, 0, 1, 0, 0)" gradientUnits="userSpaceOnUse"><stop offset=".00562" stop-color="#423eaf"/><stop offset=".22937" stop-color="#38359a"/><stop offset=".68642" stop-color="#201e66"/><stop offset="1" stop-color="#0f0d3f"/></linearGradient><linearGradient id="am" x1="1632.22406" y1="670.15463" x2="1743.63913" y2="670.15463" xlink:href="#aj"/><linearGradient id="an" x1="1639.24838" y1="655.59638" x2="1736.61277" y2="655.59638" xlink:href="#aj"/><linearGradient id="ao" x1="1638.07516" y1="613.33372" x2="1737.78966" y2="613.33372" xlink:href="#al"/><linearGradient id="ap" x1="1213.38533" y1="546.91948" x2="1230.47669" y2="546.91948" gradientTransform="translate(-864.52252) scale(2.0961 1)" gradientUnits="userSpaceOnUse"><stop offset="0" stop-color="#a5abcc"/><stop offset=".74314" stop-color="#e7e8f1"/><stop offset="1" stop-color="#fff"/></linearGradient><radialGradient id="aq" cx="1678.31981" cy="530.32128" fx="1678.31981" fy="530.32128" r="27.47841" gradientTransform="matrix(1, 0, 0, 1, 0, 0)" gradientUnits="userSpaceOnUse"><stop offset="0" stop-color="#fff"/><stop offset=".1009" stop-color="#f4f5fd"/><stop offset=".40669" stop-color="#d8dcf9"/><stop offset=".58427" stop-color="#ced3f8"/><stop offset=".91573" stop-color="#a3a9d0"/><stop offset=".93646" stop-color="#a9afd4"/><stop offset=".96446" stop-color="#bac0df"/><stop offset=".99649" stop-color="#d6dcf2"/><stop offset="1" stop-color="#dae0f5"/></radialGradient><linearGradient id="ar" x1="997.45064" y1="1317.48472" x2="1163.30046" y2="1317.48472" gradientTransform="matrix(1, 0, 0, 1, 0, 0)" gradientUnits="userSpaceOnUse"><stop offset=".3764" stop-color="#c4cae9"/><stop offset="1" stop-color="#fff"/></linearGradient><linearGradient id="as" x1="956.70864" y1="1320.30212" x2="1143.01314" y2="1320.30212" gradientTransform="matrix(1, 0, 0, 1, 0, 0)" gradientUnits="userSpaceOnUse"><stop offset=".00562" stop-color="#e8ecf7"/><stop offset=".50289" stop-color="#dde1f7"/><stop offset="1" stop-color="#ced3f8"/></linearGradient><linearGradient id="at" x1="961.76646" y1="1325.25502" x2="1137.95514" y2="1325.25502" gradientTransform="matrix(1, 0, 0, 1, 0, 0)" gradientUnits="userSpaceOnUse"><stop offset=".00562" stop-color="#ced3f8"/><stop offset=".63957" stop-color="#c3c8ed"/><stop offset="1" stop-color="#bbc0e6"/></linearGradient><linearGradient id="au" x1="1053.00494" y1="1291.9801" x2="1137.95514" y2="1291.9801" gradientTransform="matrix(1, 0, 0, 1, 0, 0)" gradientUnits="userSpaceOnUse"><stop offset=".02247" stop-color="#dfe4f4"/><stop offset=".61188" stop-color="#f0f2fa"/><stop offset="1" stop-color="#fff"/></linearGradient><linearGradient id="av" x1="993.19814" y1="1240.71162" x2="1106.52614" y2="1240.71162" gradientTransform="matrix(1, 0, 0, 1, 0, 0)" gradientUnits="userSpaceOnUse"><stop offset=".00562" stop-color="#e8ecf7"/><stop offset="1" stop-color="#bbc0e6"/></linearGradient><linearGradient id="aw" x1="1004.63355" y1="1146.64487" x2="1095.09112" y2="1146.64487" xlink:href="#as"/><linearGradient id="ax" x1="1029.17494" y1="1135.28912" x2="1093.33546" y2="1135.28912" gradientTransform="matrix(1, 0, 0, 1, 0, 0)" gradientUnits="userSpaceOnUse"><stop offset="0" stop-color="#d1d7f3"/><stop offset=".38634" stop-color="#dee1f3"/><stop offset="1" stop-color="#efeff3"/></linearGradient><radialGradient id="ay" cx="1023.31877" cy="1086.00598" fx="1023.31877" fy="1086.00598" r="75.88014" xlink:href="#aq"/><linearGradient id="b`" x1="1267.94832" y1="1130.28425" x2="1430.55692" y2="1130.28425" gradientTransform="matrix(1, 0, 0, 1, 0, 0)" gradientUnits="userSpaceOnUse"><stop offset=".4525" stop-color="#c4c9e4"/><stop offset="1" stop-color="#fff"/></linearGradient><linearGradient id="ba" x1="1230.69394" y1="1143.00662" x2="1389.96246" y2="1143.00662" gradientTransform="matrix(1, 0, 0, 1, 0, 0)" gradientUnits="userSpaceOnUse"><stop offset="0" stop-color="#fd9009"/><stop offset="1" stop-color="#ef4e16"/></linearGradient><linearGradient id="bb" x1="1245.65314" y1="1091.10387" x2="1375.00713" y2="1091.10387" gradientTransform="matrix(1, 0, 0, 1, 0, 0)" gradientUnits="userSpaceOnUse"><stop offset="0" stop-color="#fc780b"/><stop offset="1" stop-color="#ef4e16"/></linearGradient><linearGradient id="bc" x1="1285.75446" y1="1124.84025" x2="1320.70894" y2="1124.84025" xlink:href="#bb"/><linearGradient id="bd" x1="1402.25986" y1="1160.00833" x2="1526.24061" y2="1160.00833" xlink:href="#b`"/><linearGradient id="be" x1="1369.58593" y1="1127.55493" x2="1491.60759" y2="1127.55493" xlink:href="#bb"/><linearGradient id="bf" x1="1478.52499" y1="1197.31038" x2="1355.50665" y2="1117.87325" gradientTransform="matrix(1, 0, 0, 1, 0, 0)" gradientUnits="userSpaceOnUse"><stop offset="0" stop-color="#ef4e16"/><stop offset="1" stop-color="#fd9009"/></linearGradient><linearGradient id="bg" x1="1407.05513" y1="1154.02889" x2="1440.86263" y2="1154.02889" xlink:href="#bb"/><linearGradient id="bh" x1="1243.63992" y1="919.07988" x2="1607.98621" y2="919.07988" gradientTransform="matrix(1, 0, 0, 1, 0, 0)" gradientUnits="userSpaceOnUse"><stop offset="0" stop-color="#dae0f5"/><stop offset=".32668" stop-color="#dee3f6"/><stop offset=".66009" stop-color="#eaedf9"/><stop offset=".99558" stop-color="#fefefe"/><stop offset="1" stop-color="#fff"/></linearGradient><linearGradient id="bi" x1="1550.62397" y1="802.96838" x2="1570.51466" y2="835.99079" gradientTransform="matrix(1, 0, 0, 1, 0, 0)" gradientUnits="userSpaceOnUse"><stop offset="0" stop-color="#6b67e9"/><stop offset="1" stop-color="#362e93"/></linearGradient><linearGradient id="bj" x1="1264.50701" y1="1008.94619" x2="1245.81288" y2="976.14943" gradientTransform="matrix(1, 0, 0, 1, 0, 0)" gradientUnits="userSpaceOnUse"><stop offset="0" stop-color="#bbc0e6"/><stop offset="1" stop-color="#f6f6fb"/></linearGradient><linearGradient id="bk" x1="1233.18348" y1="1014.52341" x2="1225.31151" y2="1004.35544" gradientTransform="matrix(1, 0, 0, 1, 0, 0)" gradientUnits="userSpaceOnUse"><stop offset="0" stop-color="#362e93"/><stop offset="1" stop-color="#807cfb"/></linearGradient><linearGradient id="bl" x1="1540.53332" y1="852.85367" x2="1518.70623" y2="816.15324" gradientTransform="matrix(1, 0, 0, 1, 0, 0)" gradientUnits="userSpaceOnUse"><stop offset=".07384" stop-color="#a3a9d0"/><stop offset=".13704" stop-color="#ced3f8"/><stop offset=".55863" stop-color="#ced3f8"/><stop offset=".68954" stop-color="#f6f6fb"/></linearGradient><linearGradient id="bm" x1="1528.80722" y1="861.18742" x2="1501.67319" y2="826.71464" gradientTransform="matrix(1, 0, 0, 1, 0, 0)" gradientUnits="userSpaceOnUse"><stop offset=".55863" stop-color="#d1d7f3"/><stop offset=".68954" stop-color="#f1f1f6"/></linearGradient><linearGradient id="bn" x1="1534.11159" y1="858.12143" x2="1506.97757" y2="823.64866" xlink:href="#bm"/><linearGradient id="bo" x1="1539.42558" y1="855.05622" x2="1512.29015" y2="820.58166" xlink:href="#bm"/><linearGradient id="bp" x1="727.88425" y1="1156.99612" x2="918.06155" y2="1156.99612" gradientTransform="translate(-13.7116)" xlink:href="#g"/><linearGradient id="bq" x1="971.47968" y1="1165.56581" x2="936.51662" y2="1130.60275" gradientTransform="translate(-245.34006 50.68448) rotate(-3.27899)" gradientUnits="userSpaceOnUse"><stop offset="0" stop-color="#131147"/><stop offset=".78752" stop-color="#1d1765"/><stop offset="1" stop-color="#20196f"/></linearGradient><linearGradient id="br" x1="962.37013" y1="1004.17253" x2="1022.08538" y2="1018.22315" gradientTransform="translate(1740.06104 3.5404) rotate(179.39836) scale(.99996 -.99996)" gradientUnits="userSpaceOnUse"><stop offset="0" stop-color="#20196f"/><stop offset=".6372" stop-color="#443fac"/><stop offset="1" stop-color="#5652ca"/></linearGradient><linearGradient id="bs" x1="945.33723" y1="1187.49786" x2="910.37301" y2="1152.53364" gradientTransform="translate(-199.7761)" xlink:href="#bq"/><linearGradient id="bt" x1="1007.32512" y1="1052.17782" x2="1073.59498" y2="1067.77071" gradientTransform="translate(1812.87696 41.52932) rotate(-177.32901) scale(.99999 -.99999)" gradientUnits="userSpaceOnUse"><stop offset="0" stop-color="#20196f"/><stop offset=".44646" stop-color="#302c8a"/><stop offset="1" stop-color="#4241a8"/></linearGradient><linearGradient id="bu" x1="1217.92227" y1="896.00379" x2="1255.21713" y2="896.00379" gradientTransform="translate(-445.7504)" gradientUnits="userSpaceOnUse"><stop offset="0" stop-color="#bbc0e6"/><stop offset=".51956" stop-color="#dbdef1"/><stop offset="1" stop-color="#f6f6fb"/></linearGradient><linearGradient id="bv" x1="1075.99571" y1="948.74057" x2="990.32477" y2="948.74057" gradientTransform="translate(1768.25191) rotate(-180) scale(1 -1)" gradientUnits="userSpaceOnUse"><stop offset="0" stop-color="#fff"/><stop offset=".2812" stop-color="#f6f7fd"/><stop offset=".72943" stop-color="#dfe2fa"/><stop offset="1" stop-color="#ced3f8"/></linearGradient><linearGradient id="bw" x1="1166.96355" y1="830.14288" x2="1207.46036" y2="830.14288" gradientTransform="translate(-445.7504)" gradientUnits="userSpaceOnUse"><stop offset="0" stop-color="#362e94"/><stop offset="1" stop-color="#5652cc"/></linearGradient><linearGradient id="bx" x1="1183.12305" y1="811.8725" x2="1199.86035" y2="811.8725" gradientTransform="translate(-445.7504)" gradientUnits="userSpaceOnUse"><stop offset="0" stop-color="#dae0f5"/><stop offset="1" stop-color="#fff"/></linearGradient><linearGradient id="by" x1="1118.53461" y1="899.89819" x2="1170.99774" y2="899.89819" gradientTransform="translate(-445.7504)" gradientUnits="userSpaceOnUse"><stop offset="0" stop-color="#fff"/><stop offset=".2648" stop-color="#f8f9fe"/><stop offset=".62292" stop-color="#e7eafb"/><stop offset="1" stop-color="#ced3f8"/></linearGradient></defs><g style="isolation:isolate;"><g id="a"/><g id="b"><g id="c"><g id="d"><g><path d="M307.75766,1252.65674c280.6693,52.34223,340.89529-117.17777,694.62449,44.47503,291.13849,133.0492,707.15001,49.687,738.94371-152.4413,21.6895-137.892,86.3165-177.0002,175.9215-187.6485,282.7471-33.60069,107.7471-442.80518-290.7722-464.56018-436.09102-23.80582-490.23122-59.61882-590.8987-172.5325-166.00551-186.19952-423.8245,94.267-526.043,244.09419-88.1165,129.1568-345.5995,101.13048-452.039,248.01229-136.818,188.8027-20,390.19949,250.2632,440.60096Z" style="fill:url(#e);"/><path d="M47.30616,731.14378l37.6148,81.0447c2.273,4.89749,8.2592,6.7918,12.937,4.0918l102.7612-59.331c7.517-4.3408,5.3883-15.7178-3.191-17.0458l-140.3757-21.7187c-7.2585-1.1233-12.837,6.2937-9.7463,12.959Z" style="fill:#e8ecf7; mix-blend-mode:multiply;"/><path d="M1752.37366,1200.36447c-30.7128-17.7295-80.5077-17.7295-111.2157,0-30.713,17.7345-30.713,46.48452,0,64.214,30.713,17.7343,80.5077,17.7343,111.2207,0,30.7127-17.72948,30.708-46.4795-.005-64.214Zm-84.9755,49.06252c-16.2157-9.36525-16.2207-24.54602,0-33.91102,16.2207-9.3652,42.5145-9.3652,58.7352,0,16.2208,9.365,16.2208,24.54577,0,33.91102-16.2207,9.36528-42.5145,9.36528-58.7352,0Z" style="fill:#e8ecf7; mix-blend-mode:multiply;"/><g><path d="M1808.39136,571.36597c5.415,3.125,14.1895,3.125,19.6045,0,5.4128-3.125,5.4128-8.19348,0-11.31848-5.415-3.125-14.1895-3.125-19.6045,0-5.4125,3.125-5.4125,8.19348,0,11.31848Z" style="fill:#e8ecf7;"/><path d="M1856.35536,599.05648c5.4125,3.125,14.1893,3.125,19.602,0,5.415-3.125,5.415-8.19352,0-11.31852-5.4127-3.125-14.1895-3.125-19.602,0s-5.4125,8.19352,0,11.31852Z" style="fill:#e8ecf7;"/><path d="M1904.31916,626.74678c5.4125,3.125,14.1895,3.125,19.602,0,5.4127-3.125,5.4127-8.1933,0-11.3183-5.4125-3.125-14.1895-3.125-19.602,0-5.415,3.125-5.415,8.1933,0,11.3183Z" style="fill:#e8ecf7;"/><path d="M1971.88536,643.11897c-5.415-3.125-14.1895-3.125-19.6045,0-5.413,3.125-5.413,8.19332,0,11.31832,5.415,3.125,14.1895,3.125,19.6045,0,5.4125-3.125,5.4125-8.19332,0-11.31832Z" style="fill:#e8ecf7;"/><path d="M1760.42986,599.05648c5.413,3.125,14.1896,3.125,19.6023,0,5.415-3.125,5.415-8.19352,0-11.31852-5.4127-3.125-14.1893-3.125-19.6023,0-5.4125,3.125-5.4125,8.19352,0,11.31852Z" style="fill:#e8ecf7;"/><path d="M1808.39136,626.74678c5.415,3.125,14.192,3.125,19.6045,0,5.4128-3.125,5.4128-8.1933,0-11.3183-5.4125-3.125-14.1895-3.125-19.6045,0-5.4125,3.125-5.4125,8.1933,0,11.3183Z" style="fill:#e8ecf7;"/><path d="M1856.35536,654.43728c5.415,3.125,14.1893,3.125,19.6045,0,5.4125-3.125,5.4125-8.19332-.0025-11.31832-5.4127-3.125-14.187-3.125-19.602,0-5.4125,3.125-5.4125,8.19332,0,11.31832Z" style="fill:#e8ecf7;"/><path d="M1923.92116,670.81428c-5.4125-3.125-14.1895-3.13-19.602,0-5.4125,3.125-5.4125,8.1885,0,11.3135s14.1895,3.125,19.602,0c5.4127-3.125,5.4127-8.1885,0-11.3135Z" style="fill:#e8ecf7;"/><path d="M1712.46616,626.74678c5.415,3.125,14.1922,3.125,19.6047,0s5.4125-8.1933,0-11.3183c-5.415-3.125-14.1897-3.125-19.6047,0-5.4125,3.125-5.4125,8.1933,0,11.3183Z" style="fill:#e8ecf7;"/><path d="M1760.42986,654.43728c5.413,3.125,14.1896,3.125,19.6023,0,5.415-3.125,5.415-8.19332,0-11.31832-5.4127-3.125-14.1893-3.125-19.6023,0-5.4125,3.125-5.4125,8.19332,0,11.31832Z" style="fill:#e8ecf7;"/><path d="M1808.39386,682.12778c5.4125,3.125,14.1895,3.125,19.602,0,5.4128-3.125,5.4128-8.1885,0-11.3135-5.4125-3.13-14.1895-3.13-19.602,0-5.415,3.125-5.415,8.1885,0,11.3135Z" style="fill:#e8ecf7;"/><path d="M1875.95986,698.50478c-5.4152-3.125-14.1895-3.125-19.6045,0-5.4125,3.125-5.4125,8.19319,0,11.31819,5.415,3.125,14.1893,3.125,19.6045,0,5.4125-3.125,5.4125-8.19319,0-11.31819Z" style="fill:#e8ecf7;"/><path d="M1664.50466,654.43728c5.4128,3.125,14.1895,3.125,19.602,0,5.4128-3.125,5.4128-8.19332,0-11.31832-5.4125-3.125-14.1892-3.125-19.602,0-5.4125,3.125-5.4125,8.19332,0,11.31832Z" style="fill:#e8ecf7;"/><path d="M1712.46866,682.12778c5.4125,3.125,14.1897,3.125,19.6022,0s5.4125-8.1885,0-11.3185c-5.4125-3.125-14.1897-3.125-19.6022,0-5.415,3.13-5.415,8.1935,0,11.3185Z" style="fill:#e8ecf7;"/><path d="M1760.42986,709.82297c5.413,3.125,14.1896,3.125,19.6023,0,5.415-3.13,5.415-8.19319,0-11.31819-5.4127-3.125-14.1893-3.125-19.6023,0-5.4125,3.125-5.4125,8.18819,0,11.31819Z" style="fill:#e8ecf7;"/><path d="M1827.99586,726.19497c-5.4125-3.125-14.1895-3.125-19.602,0s-5.4125,8.19351,0,11.31851,14.1895,3.125,19.602,0c5.4128-3.125,5.4128-8.19351,0-11.31851Z" style="fill:#e8ecf7;"/><path d="M1636.14546,670.80928c-5.415-3.125-14.1895-3.125-19.6045,0-5.4125,3.13-5.4125,8.1935,0,11.3185,5.415,3.125,14.1895,3.125,19.6045,0,5.4125-3.125,5.4125-8.1885,0-11.3185Z" style="fill:#e8ecf7;"/><path d="M1684.10666,698.50478c-5.4125-3.125-14.1892-3.125-19.602,0-5.4125,3.125-5.4125,8.18819,0,11.31819,5.4128,3.125,14.1895,3.125,19.602,0,5.4153-3.13,5.4153-8.19319,0-11.31819Z" style="fill:#e8ecf7;"/><path d="M1732.07086,726.19497c-5.4125-3.125-14.1897-3.125-19.6022,0-5.415,3.125-5.415,8.19351,0,11.31851,5.4125,3.125,14.1897,3.125,19.6022,0s5.4125-8.19351,0-11.31851Z" style="fill:#e8ecf7;"/><path d="M1780.03216,753.88548c-5.4127-3.125-14.1893-3.125-19.6023,0-5.4125,3.125-5.4125,8.1933,0,11.3183,5.4155,3.125,14.1896,3.125,19.6046,0,5.4127-3.125,5.4127-8.1933-.0023-11.3183Z" style="fill:#e8ecf7;"/></g><g><path d="M311.33996,1055.87597c-5.415-3.125-14.1895-3.125-19.6045,0-5.41,3.1275-5.41,8.191,0,11.3185,5.415,3.125,14.192,3.125,19.6045,0,5.4127-3.125,5.4127-8.191,0-11.3185Z" style="fill:#fff;"/><path d="M263.37616,1083.56897c-5.4127-3.125-14.1895-3.125-19.6022,0-5.4125,3.125-5.4125,8.191,0,11.3183,5.4127,3.125,14.1895,3.125,19.6022,0,5.415-3.1273,5.415-8.1933,0-11.3183Z" style="fill:#fff;"/><path d="M215.41466,1111.25947c-5.4125-3.125-14.1895-3.125-19.602,0-5.415,3.125-5.415,8.1933,0,11.3183,5.4125,3.125,14.1895,3.125,19.602,0s5.4125-8.1933,0-11.3183Z" style="fill:#fff;"/><path d="M167.45316,1138.94947c-5.415-3.125-14.1917-3.125-19.6045,0-5.4125,3.125-5.4125,8.1935,0,11.3185,5.415,3.125,14.1895,3.125,19.6045,0,5.4103-3.125,5.4103-8.1935,0-11.3185Z" style="fill:#fff;"/><path d="M119.48946,1166.64247c-5.415-3.125-14.1895-3.125-19.6045,0-5.4103,3.125-5.4103,8.1908,0,11.3183,5.415,3.125,14.1895,3.125,19.6045,0,5.4125-3.1275,5.4125-8.1933,0-11.3183Z" style="fill:#fff;"/></g><path d="M1346.82563,352.94679l43.09582,24.88018c6.57218,3.794,5.74718,10.42-1.84082,14.80232l-39.4137,22.7562c-7.5858,4.38-19.065,4.85348-25.635,1.062l-43.0958-24.8802c-6.5722-3.79432-5.74668-10.42,1.8408-14.80232l39.414-22.75618c7.588-4.38,19.065-4.856,25.6347-1.062Z" style="fill:#e8ecf7; mix-blend-mode:multiply;"/><polygon points="1393.43913 690.52828 1085.45694 740.02548 1135.73964 792.66528 807.45095 865.19028 651.83195 955.03677 342.14446 1016.75827 1152.19694 549.07428 1152.19694 519.16779 1629.39066 519.16779 1827.12816 549.07428 1346.29893 621.82997 1393.43913 690.52828" style="fill:url(#f); mix-blend-mode:multiply;"/><polygon points="1074.15046 1154.32747 937.94846 1154.40477 916.06215 1182.26647 951.50264 1182.26647 942.81394 1196.91147 1074.15046 1196.83147 1074.15046 1154.32747" style="fill:url(#g); mix-blend-mode:multiply;"/><path d="M924.39495,908.27748c-1.4183,2.19449-35.4903-6.6482-38.6603-8.813-4.567-3.109-9.19919-8.2787-12.19519-9.65951-2.99931-1.38069-9.00751-2.97519-10.60681-3.09119-1.6005-.1185-7.33719,1.53219-6.6857,3.58719,.655,2.05781,3.7772-.64449,4.6752,.398-.941,.32951-3.38769,2.45251-3.1355,4.47751,.2555,2.0253,1.0275,1.3573,1.0275,1.3573-.46169,1.02719-.5732,2.4437,.21231,2.88919-.36381,.87581-1.24281,2.319,.99769,2.86851,2.2375,.549,5.99831,1.0898,7.379,2.129,4.4468,3.3318,15.619,3.8008,16.976,4.50149,1.357,.70081,28.1678,13.42481,33.8495,15.05181,22.1353,6.3397,21.969-32.681,16.8143-32.681-9.499,0-7.61049,12.28119-10.648,16.9847Z" style="fill:#fcd1a9;"/><g><path d="M942.83764,1152.88147c6.105,.9978,7.869,10.8413,4.8163,17.0175-1.89449,2.1173-6.6813,4.1128-6.6813,4.1128,0,0-19.28619,7.9132-23.6185,8.2547-4.3472,.3563-13.97969-1.268-14.76669-8.6822,.73919-4.5228,4.54619-5.764,9.22-8.543,6.08119-3.6108,11.29549-8.852,16.201-11.263,4.03249-1.9808,14.82919-.8968,14.82919-.8968Z" style="fill:url(#h);"/><path d="M931.11746,1146.61027c2.97819,.4897,12.55149,2.8562,12.55149,2.8562,0,0,3.54551,9.924-2.0488,11.6818-10.8622,3.4087-20.1145-3.8813-15.8445-6.3308,2.8683-1.6362,5.692-3.4922,5.34181-8.2072Z" style="fill:#fcd1a9;"/><path d="M917.48495,1180.28597c4.4657-.3562,24.31651-8.4895,24.31651-8.4895,0,0,4.61719-1.948,6.66319-4.0505-.2197,.7485-.481,1.473-.8107,2.153-1.89449,2.1173-6.6813,4.1128-6.6813,4.1128,0,0-19.28619,7.9132-23.6185,8.2547-4.3472,.3563-13.97969-1.268-14.76669-8.6822,.03269-.1518,.08619-.2883,.113-.4455,2.04569,6.102,10.69269,7.4827,14.78449,7.1472Z" style="fill:#131147;"/><path d="M923.93446,1156.28427c.80169-1.0748,2.68419-3.9373,5.998-1.5768,3.46849,2.4678,4.25249,5.443,3.84549,7.9135-.4068,2.4675-7.551,.6383-7.81849,.2675-.273-.3682-2.025-6.6042-2.025-6.6042Z" style="fill:#362e94;"/><path d="M920.65315,1159.36377c1.42831,.6025,4.8908,2.9427,6.4765,6.301,.466,.9767,1.6213,1.3955,2.601,.9322,.97381-.469,1.3925-1.63,.9325-2.607-2.0192-4.2462-6.1705-7.2452-8.48069-8.2222-.99781-.4158-2.141,.0412-2.56551,1.0362-.416,.9945,.04751,2.144,1.0362,2.5598Z" style="fill:#fff;"/><path d="M914.63446,1163.21497c1.42219,.5998,4.86969,2.9308,6.46119,6.295,.463,.977,1.627,1.3958,2.6133,.9235,.97951-.4572,1.38651-1.6242,.92651-2.6012-2.01381-4.258-6.17651-7.251-8.475-8.2193-.99781-.4245-2.14681,.0448-2.57151,1.0393-.40949,.992,.05351,2.138,1.04551,2.5627Z" style="fill:#fff;"/><path d="M932.80414,951.79997c-2.93669,36.31581-7.801,70.87931-7.801,100.027,0,33.3373,5.7878,68.4565,6.141,96.3953-.309,8.57,9.416,15.2867,13.5285,7.7207,.1783-2.4885-.9887-5.645-.564-9.2972,2.488-21.2815,9.775-53.9748,3.6433-81.489,8.442-36.476,31.6802-81.5545,28.239-110.1795-10.5593-5.241-35.113-5.743-43.1868-3.17731Z" style="fill:#fcd1a9;"/></g><path d="M937.46894,836.84578c-9.523,4.677-13,11.8185-13,26.00619,6.5-3.982,13-26.00619,13-26.00619Z" style="fill:#fcd1a9;"/><polygon points="942.56414 965.64327 942.56414 971.73947 947.84694 968.69297 942.56414 965.64327" style="fill:#423eaf;"/><g><path d="M968.29714,1167.52347c6.105,.9978,7.8658,10.8413,4.81631,17.0178-1.89431,2.12-6.687,4.1125-6.687,4.1125,0,0-19.28331,7.9132-23.61251,8.2577-4.3473,.3595-13.983-1.2707-14.77-8.6882,.74251-4.5195,4.549-5.7638,9.2232-8.54,6.08131-3.6078,11.2955-8.8488,16.1948-11.26,4.0382-1.9838,14.8352-.8998,14.8352-.8998Z" style="fill:url(#i);"/><path d="M956.57994,1161.25227c2.9752,.4897,12.5487,2.8562,12.5487,2.8562,0,0,3.5423,9.927-2.049,11.679-10.862,3.4115-20.1147-3.878-15.8447-6.325,2.8687-1.6392,5.69251-3.4947,5.345-8.2102Z" style="fill:#fcd1a9;"/><path d="M942.94164,1194.92797c4.46581-.3532,24.316-8.4895,24.316-8.4895,0,0,4.62081-1.945,6.6635-4.05-.21969,.7483-.4812,1.4755-.80769,2.1528-1.89431,2.12-6.687,4.1125-6.687,4.1125,0,0-19.28331,7.9132-23.61251,8.2577-4.3473,.3595-13.983-1.2707-14.77-8.6882,.0357-.1485,.089-.288,.1157-.4395,2.0463,6.099,10.696,7.4797,14.782,7.1442Z" style="fill:#131147;"/><path d="M949.39114,1170.92627c.8045-1.0748,2.687-3.9373,6.001-1.5738,3.46831,2.4678,4.24931,5.44,3.84531,7.9138-.40681,2.4642-7.55131,.638-7.81851,.2672-.273-.3712-2.0278-6.6072-2.0278-6.6072Z" style="fill:#362e94;"/><path d="M946.10994,1174.00577c1.4312,.6055,4.88751,2.9457,6.476,6.304,.46651,.974,1.62451,1.3927,2.6042,.9292,.974-.466,1.3928-1.627,.9325-2.607-2.019-4.2462-6.1705-7.2452-8.4805-8.2222-.998-.4158-2.141,.0417-2.56869,1.0392-.41251,.995,.04769,2.141,1.03649,2.5568Z" style="fill:#fff;"/><path d="M940.08794,1177.85697c1.4312,.5998,4.8697,2.9308,6.4672,6.298,.46331,.974,1.62731,1.3928,2.613,.9235,.977-.46,1.387-1.627,.9205-2.601-2.007-4.258-6.17619-7.2512-8.4685-8.2222-1.00069-.4248-2.147,.0475-2.5715,1.042-.413,.992,.0475,2.1382,1.0393,2.5597Z" style="fill:#fff;"/><path d="M952.76146,967.42777c0,33.38219-.35651,70.71319-.35651,99.855,0,33.3402,3.84851,67.6427,4.1987,95.582-.3087,8.5725,9.413,15.2892,13.5285,7.7232,.1755-2.4885-.99169-5.6447-.564-9.3002,2.48831-21.2815,9.775-53.9748,3.64331-81.489,8.439-36.476,21.44819-74.9088,13.70969-112.1095-10.5532-5.2438-26.089-2.8238-34.15969-.2615Z" style="fill:#fcd1a9;"/></g><g><path d="M977.86446,924.51128c-2.76451-25.1508,9.11019-48.879,11.284-64.59331,1.37149-9.91469,2.36349-21.525-6.616-24.32219-9.27631-2.8893-13.02981-4.2313-21.07081-4.0325-19.37219,.481-28.447,4.4542-32.393,17.79569-3.7147,12.56051-6.346,16.37931-9.40419,28.69331-1.372,5.52,13.82249,17.5162,12.05869,41.33369-13.4602,20.35231-23.11669,66.33351-27.2265,102.45631-1.5677,10.87969,9.5023,24.8712,29.0825,34.6645,24.68731,12.3587,53.4728,13.3475,64.287,2.2092,2.62831-2.705,3.9285-5.8825,4.07731-9.306,.01469-12.82169-7.26931-104.006-24.079-124.89869Z" style="fill:url(#j);"/><path d="M968.34164,807.98048c-.34119-5.9627-20.72919,5.897-20.278,13.7573,.3743,6.396,1.2055,12.8395-1.1907,13.662-2.7823,2.0105-11.055,23.2445-6.084,28.20619,17.3172-7.08769,26.3442-22.08919,41.74351-28.01019-6.30681-1.2885-13.08331-8.3173-14.19081-27.6153Z" style="fill:#fcd1a9;"/></g><g><path d="M973.25614,799.73148l-6.135-15.3517h-38.893v23.4017c0,12.9258,8.70931,23.4048,19.4495,23.4048,10.41381,0,18.84381-9.87331,19.34881-22.2648l2.711,.07449,3.51869-9.26449Z" style="fill:#fcd1a9;"/><path d="M963.67064,820.91228c-3.3435,5.9355-8.8575,9.894-15.19119,10.21469-.077,1.936-.35631,3.13551-.986,3.857,1.10469-.04749,1.98369-.00269,3.08249-.279,6.491-1.59149,11.18251-6.95749,13.0947-13.79269Z" style="fill:#f2c39d;"/><path d="M950.23114,768.06578c-.1215-.0205-.2375-.00581-.365-.00581-21.2135,.53431-22.808,16.388-21.638,19.013,6.7318,2.40531,10.972-2.15569,15.19731-1.80249,2.04,.1633,10.32469,1.28849,13.74549,5.6718,3.685,4.715,2.512,12.2575,5.9832,12.0762,1.5085-.0622,1.9658-5.1192,4.2165-5.2557,1.88581-.10681,3.78881,1.654,3.5663,4.549-.288,3.8987-3.976,6.2595-3.43549,8.145,.90849,3.10019,8.66749-2.4675,8.51619-13.5315-.1545-10.9895-7.4827-29.6048-25.7865-28.8595Z" style="fill:#20196f;"/></g><path d="M987.81814,936.46597s4.166,10.387,4.1748,10.399c14.538-7.57769,23.0602-27.38069,23.8917-43.356,1.1225-21.51649-21.172-57.88269-22.3297-59.61069-5.642-8.4065-19.034-.95031-14.6038,9.81669,.962,2.17981,23.791,39.72181,21.35,52.41281-1.6865,8.7687-4.561,24.8537-12.483,30.33819Z" style="fill:#fcd1a9;"/><path d="M952.90964,768.10448c22.5435,1.6093,25.24881,23.83849,34.2133,29.8513,5.354,3.584,17.2937-3.1833,24.2927,8.926,8.0443,13.9207-4.9735,18.9715,3.5485,24.8687,8.522,5.8913,15.0725,23.8828,.867,34.929-14.19969,11.0463-31.992,1.3423-29.979-14.8322,1.44331-11.643-2.013-17.653-11.7885-13.888-7.32819,2.815-10.1257-2.966-6.8355-10.41631-16.2872,1.627,.7958-29.43569-23.80269-42.27249,.93249-6.3307,9.48419-17.166,9.48419-17.166Z" style="fill:#20196f;"/><path d="M987.81814,936.46597c-1.70469,1.10481-11.0405-1.10469-13.24969-1.10469-2.209,0-8.30231,.021-13.386,1.66-5.08931,1.6335-8.56351,3.498-5.08931,4.29669-1.87669,.40381-6.2925,2.20931-2.8095,3.21581,.33281,1.203,1.60381,2.81219,5.4223,2.6755,1.271,1.00669,10.1732,2.8805,12.917,2.4112,2.87751,.87,18.0302,.5553,20.37-2.75551,0-5.61249-4.1748-10.399-4.1748-10.399Z" style="fill:#fcd1a9;"/><polygon points="1558.32146 1072.14477 1586.88246 1013.70927 1485.67716 1030.20147 1503.37846 1040.41827 1146.13694 1246.66449 1183.38414 1268.17177 1540.62546 1061.92527 1558.32146 1072.14477" style="fill:url(#k); mix-blend-mode:multiply;"/><g><path d="M183.19166,819.41028c0-5.288,3.7125-11.71831,8.292-14.36231s8.292-.50049,8.292,4.78751-3.7125,11.718-8.292,14.362-8.292,.50049-8.292-4.7872Z" style="fill:#ffad02;"/><path d="M264.76596,678.11997c0-5.288,3.7125-11.718,8.292-14.362s8.292-.50069,8.292,4.78731-3.7125,11.718-8.292,14.362-8.292,.50069-8.292-4.78731Z" style="fill:#ffad02;"/><path d="M306.83246,702.40678c0-5.28781,3.7125-11.718,8.292-14.362s8.292-.5005,8.292,4.7875c0,5.28769-3.7125,11.718-8.292,14.362s-8.292,.5005-8.292-4.7875Z" style="fill:#ffad02;"/><path d="M384.07146,568.62548c0-5.288,3.7125-11.718,8.292-14.362s8.292-.50052,8.292,4.7873-3.7125,11.718-8.292,14.362-8.292,.5007-8.292-4.7873Z" style="fill:#ffad02;"/><polygon points="193.64926 815.87318 189.31816 813.37318 272.14286 669.91738 314.20836 694.20448 390.19836 562.58828 394.52936 565.08828 316.03936 701.03558 273.97396 676.74848 193.64926 815.87318" style="fill:#ffad02;"/></g><g><path d="M1129.09694,266.27897c0-5.28768,3.71252-11.718,8.292-14.362,4.57952-2.644,8.2917-.50047,8.2917,4.78753s-3.71218,11.718-8.2917,14.362c-4.57948,2.644-8.292,.50048-8.292-4.78752Z" style="fill:#ffad02;"/><path d="M1210.67114,124.98897c0-5.288,3.71232-11.718,8.2918-14.362,4.5797-2.644,8.292-.5007,8.292,4.7873s-3.7123,11.718-8.292,14.362c-4.57948,2.644-8.2918,.5007-8.2918-4.7873Z" style="fill:#dae0f5;"/><path d="M1252.73764,149.27577c0-5.2878,3.7125-11.718,8.292-14.362s8.29182-.5005,8.29182,4.7872c0,5.288-3.71232,11.7183-8.29182,14.3623s-8.292,.5005-8.292-4.7875Z" style="fill:#dae0f5;"/><path d="M1329.97663,15.49457c0-5.288,3.7125-11.718,8.292-14.3621,4.5795-2.6439,8.29182-.5007,8.29182,4.7873s-3.71232,11.718-8.29182,14.362-8.292,.5007-8.292-4.7872Z" style="fill:#dae0f5;"/><polygon points="1139.55494 262.74209 1135.22394 260.24209 1218.04624 116.78627 1260.11404 141.07337 1336.10283 9.45717 1340.43393 11.95717 1261.94514 147.90447 1219.87724 123.61737 1139.55494 262.74209" style="fill:#dae0f5;"/></g><polygon points="788.46165 427.02997 755.46346 407.97849 841.19515 163.03127 874.19315 182.08277 788.46165 427.02997" style="fill:#5652cc;"/><polygon points="874.19315 182.08277 788.46165 427.02997 697.28665 325.42229 571.66995 639.21548 416.05096 729.06197 309.14646 997.70677 1119.19894 530.02279 1119.19894 40.62877 874.19315 182.08277" style="fill:#423eaf;"/><polygon points="309.14646 997.70677 276.14846 978.65527 383.05296 710.01048 416.05096 729.06197 309.14646 997.70677" style="fill:#5652cc;"/><polygon points="571.66995 639.21528 538.67166 620.16397 664.28865 306.37079 697.28665 325.42229 571.66995 639.21528" style="fill:#5652cc;"/><polygon points="416.05096 729.06197 383.05296 710.01048 538.67166 620.16397 571.66995 639.21528 416.05096 729.06197" style="fill:#807dfb;"/><polygon points="874.19315 182.08277 841.19515 163.03127 1086.20094 21.57727 1119.19894 40.62877 874.19315 182.08277" style="fill:#807dfb;"/><polygon points="907.19115 409.79297 821.45965 587.60648 730.28495 558.57578 604.66795 748.11348 449.04919 837.95997 342.14446 1016.75827 1152.19694 549.07428 1152.19694 159.40247 1026.18014 437.00929 907.19115 409.79297" style="fill:#ef4e16;"/><polygon points="342.14446 1016.75827 309.14646 997.70677 416.05096 818.90848 449.04919 837.95997 342.14446 1016.75827" style="fill:#fc780b;"/><polygon points="449.04919 837.95997 416.05096 818.90848 571.66995 729.06197 604.66795 748.11348 449.04919 837.95997" style="fill:#ffad02;"/><polygon points="604.66795 748.11348 571.66995 729.06197 697.28665 539.52428 730.28495 558.57578 604.66795 748.11348" style="fill:#fc780b;"/><polygon points="821.45965 587.60648 788.46165 568.55497 874.19315 390.74149 907.19115 409.79297 821.45965 587.60648" style="fill:#fc780b;"/><polygon points="1026.18014 437.00929 993.18214 417.95779 1119.19894 140.35097 1152.19694 159.40247 1026.18014 437.00929" style="fill:#fc780b;"/><polygon points="907.19115 409.79297 874.19315 390.74149 993.18214 417.95779 1026.18014 437.00929 907.19115 409.79297" style="fill:#ffad02;"/><polygon points="730.28495 558.57578 697.28665 539.52428 788.46165 568.55497 821.45965 587.60648 730.28495 558.57578" style="fill:#ffad02;"/><polygon points="309.14646 997.70677 427.86496 873.39048 449.04919 837.95997 604.66795 748.11348 730.28495 558.57578 821.45965 587.60648 907.19115 409.79297 1026.18014 437.00929 1152.19694 159.40247 1119.19894 140.35097 993.18214 417.95779 874.19315 390.74149 788.46165 568.55497 697.28665 539.52428 571.66995 729.06197 416.05096 818.90848 309.14646 997.70677" style="fill:url(#l); mix-blend-mode:multiply;"/><path d="M1560.98516,489.62729c-33.3827-19.2695-78.5205-27.60932-122.09102-25.0385-43.5672-2.571-88.7002,5.76618-122.0795,25.0385-58.8995,34.0045-58.893,89.1482,.00982,123.1555,33.37848,19.27318,78.511,27.6125,122.07748,25.04118,43.56602,2.57132,88.69902-5.768,122.07752-25.04118,58.9025-34.0073,58.9025-89.1453,.0057-123.1555Z" style="fill:url(#m); mix-blend-mode:multiply;"/><g><path d="M1530.12366,467.54529c58.8968,34.0102,58.8968,89.1482-.0055,123.15568-58.8995,34.009-154.4047,34.009-213.30352,0-58.903-34.00748-58.9095-89.151-.01-123.15568,58.903-34.0088,154.41402-34.0018,213.31902,0Z" style="fill:#fd9009;"/><path d="M1316.82094,612.77848c58.9002,34.009,154.40322,34.009,213.30702,.0043,29.4335-16.9973,44.1565-39.26782,44.1735-61.541v-.0665l-.007-22.0138c-.0185,22.276-14.7415,44.5463-44.1763,61.53948-58.8995,34.009-154.4047,34.009-213.30352,0-29.40718-16.98048-44.13018-39.22648-44.175-61.48148l.00582,21.7983h.00118c-.0777,22.3485,14.6445,44.7095,44.1743,61.7607Zm-44.1848-83.8382l.0035,.0822c-.002-.02552,.003-.0567,.0015-.08352l-.005,.00132Z" style="fill:url(#n);"/><path d="M1507.53866,480.58397c46.4265,26.809,46.4265,70.27082-.0057,97.077-46.4265,26.806-121.7095,26.81182-168.13802,.00132-46.43-26.8045-46.43148-70.2735-.0023-97.07832,46.4295-26.80468,121.71382-26.80468,168.14602,0Z" style="fill:#fff;"/><path d="M1486.43096,492.77197c34.7715,20.074,34.7687,52.62552-.0043,72.70382-34.7747,20.077-91.14872,20.07418-125.91902-.0015-34.77318-20.0768-34.781-52.62832-.008-72.70232,34.774-20.07848,91.15682-20.07548,125.93132,0Z" style="fill:#fd9009;"/><path d="M1463.70816,505.88997c22.2223,12.83452,22.218,33.63882-.0042,46.469-22.2235,12.829-58.25582,12.82752-80.47802,0-22.23048-12.833-22.2278-33.63868-.0043-46.469,22.225-12.83018,58.25582-12.833,80.48652,0Z" style="fill:#fff;"/><path d="M1440.30493,519.40079c9.2982,5.36818,9.29553,14.0765-.003,19.44618-9.29947,5.36652-24.3773,5.368-33.6783-.00148-9.30118-5.371-9.2985-14.0737,0-19.4447,9.301-5.36782,24.37882-5.36782,33.6813,0Z" style="fill:#fd9009;"/><path d="M1346.29893,598.30178l213.89472-32.365c17.9053-22.173,18.7325-47.7965,2.5218-70.297h-278.505c-22.76182,31.596-11.90932,69.3615,32.60418,95.06118,10.471,6.04632,22.114,10.996,34.4875,14.89252l-5.0032-7.2917Z" style="fill:url(#o); mix-blend-mode:multiply;"/></g><g><path d="M819.15195,429.00579c0-11.2795,7.99251-25.122,17.76051-30.762l267.95718-154.70502c9.7683-5.6398,17.7603-1.0255,17.7603,10.25403v233.24599c0,11.2795-7.992,25.122-17.7603,30.762l-267.95718,154.705c-9.768,5.6395-17.76051,1.0255-17.76051-10.254v-233.24599Z" style="fill:#fff; opacity:.4;"/><path d="M819.15195,662.25178v-233.24599c0-11.2795,7.99251-25.122,17.7607-30.762l267.95699-154.70482c4.827-2.787,9.2155-3.0615,12.42482-1.2735l-5.642-3.2577h0c-3.24282-2.0805-7.82532-1.9115-12.88352,1.009l-267.95729,154.70502c-9.76819,5.6395-17.76019,19.4825-17.76019,30.7617v233.24629c0,5.902,2.20119,9.956,5.68749,11.6937l5.202,3.00349c-2.959-1.959-4.789-5.79849-4.789-11.17519Z" style="fill:#fff;"/></g><g><polygon points="857.71565 631.30328 847.03515 637.46948 847.03515 608.27778 857.71565 602.11128 857.71565 631.30328" style="fill:#fff;"/><polygon points="874.56965 621.57248 863.88915 627.73897 863.88915 591.16348 874.56965 584.99697 874.56965 621.57248" style="fill:#fff;"/><polygon points="891.42365 611.84197 880.74315 618.00828 880.74315 557.72278 891.42365 551.55648 891.42365 611.84197" style="fill:#fff;"/><polygon points="908.27746 602.11128 897.59695 608.27778 897.59695 522.25097 908.27746 516.08449 908.27746 602.11128" style="fill:#fff;"/><polygon points="925.13146 592.38078 914.45095 598.54728 914.45095 465.16229 925.13146 458.99597 925.13146 592.38078" style="fill:#fff;"/><polygon points="941.98514 582.65028 931.30464 588.81648 931.30464 479.88197 941.98514 473.71549 941.98514 582.65028" style="fill:#fff;"/><polygon points="958.83914 572.91948 948.15864 579.08597 948.15864 489.53379 958.83914 483.36729 958.83914 572.91948" style="fill:#fff;"/><polygon points="975.69314 563.18897 965.01264 569.35528 965.01264 498.72279 975.69314 492.55649 975.69314 563.18897" style="fill:#fff;"/><polygon points="992.54694 553.45828 981.86646 559.62478 981.86646 504.32429 992.54694 498.15797 992.54694 553.45828" style="fill:#fff;"/><polygon points="1009.40094 543.72778 998.72046 549.89428 998.72046 479.81349 1009.40094 473.64729 1009.40094 543.72778" style="fill:#fff;"/><polygon points="1026.25464 533.99729 1015.57414 540.16348 1015.57414 461.10549 1026.25464 454.93897 1026.25464 533.99729" style="fill:#fff;"/><polygon points="1043.10864 524.26649 1032.42814 530.43297 1032.42814 400.53679 1043.10864 394.37029 1043.10864 524.26649" style="fill:#fff;"/><polygon points="1059.96264 514.53597 1049.28194 520.70229 1049.28194 350.62529 1059.96264 344.45879 1059.96264 514.53597" style="fill:#fff;"/><polygon points="1076.81646 504.80529 1066.13594 510.97179 1066.13594 353.70849 1076.81646 347.54197 1076.81646 504.80529" style="fill:#fff;"/><polygon points="1093.67046 495.07479 1082.98994 501.24097 1082.98994 376.65349 1093.67046 370.48697 1093.67046 495.07479" style="fill:#fff;"/></g><path d="M1080.50364,309.26197c0-4.991,3.504-11.06018,7.8265-13.55568,4.32232-2.4955,7.8265-.4725,7.8265,4.5185s-3.50418,11.06018-7.8265,13.5557c-4.3225,2.4958-7.8265,.4728-7.8265-4.51852Z" style="fill:#362e94;"/><path d="M844.54915,440.38279c0-4.9913,3.504-11.0603,7.82631-13.55582,4.32249-2.49568,7.82649-.47248,7.82649,4.51852s-3.504,11.0603-7.82649,13.5558c-4.32231,2.4955-7.82631,.4725-7.82631-4.5185Z" style="fill:#362e94;"/><polygon points="1046.77164 336.52997 1062.46714 317.32229 1046.77214 316.23929 1046.77294 322.49879 882.70695 416.96379 882.70646 424.73479 1046.77246 330.26979 1046.77164 336.52997" style="fill:#362e94;"/><g><polygon points="1348.18213 800.72078 1348.18213 757.67978 1200.65314 757.67978 1196.44864 770.25797 1138.25346 770.25797 1153.75846 800.72078 1348.18213 800.72078" style="fill:url(#p); mix-blend-mode:multiply;"/><path d="M1207.59014,771.84848c0-18.5672-11.75868-19.0942-11.75868-19.0942,0,0-6.37382,0-16.71982-4.303-10.2095-4.2305-24.60218-2.602-16.56,12.24569,.076,.17151,.16382,.35151,.2755,.54251,.495,.79049,1.3415,1.549,2.61032,2.28349l25.70448,15.075c3.919,2.23951,16.364-2.92969,16.4482-6.74949Z" style="fill:url(#q);"/><path d="M1207.52246,770.18028c-.22382,3.81569-12.497,8.88469-16.38052,6.6655l-25.70448-15.071c-.84582-.495-2.31882-1.4693-3.61982-2.6343,.2313,.5028,.439,.986,.734,1.55649,.076,.17151,.16382,.35151,.2755,.54251,.495,.79049,1.3415,1.549,2.61032,2.28349l25.70448,15.075c3.66352,2.08781,14.81952-2.315,16.28852-6.015,.06-.279,.11568-.55019,.11568-.75049,.044-.57451,.004-1.093-.02368-1.6522Z" style="fill:#131147;"/><path d="M1199.87814,748.67428c-3.3095,0-12.471,2.9645-12.471,2.9645,0,0-.07368,1.6135-1.0332,3.0175-.122,.13069-.22248,.257-.327,.40969-2.3018,1.58731-4.6348,4.12451,.815,7.534,4.465,2.79951,8.0882,1.02031,9.8192-.69719,.69332-1.29981,1.7225-2.7555,3.1655-3.5925,1.47382-.8548,2.385-1.2388,3.039-1.282-.0045-.0875,.0215-.27931,.0215-.27931,0,0-1.6422-8.07469-3.029-8.07469Z" style="fill:#facfa7;"/><path d="M1200.60814,555.49278c-12.701,.23118-35.385,2.66418-48.07768,2.89518,4.73118,38.164,7.16,65.88052,13.51248,102.836,6.815,35.90981,14.48852,61.15481,21.1947,91.05151,2.4543,5.57249,12.067,4.0448,14.343-1.305-2.5395-34.7737,3.1793-61.65851-4.98318-93.4127,.71818-18.0195-2.085-39.91781,.81218-48.0725,6.6865-18.8208,6.6865-36.4795,3.1985-53.9925Z" style="fill:url(#r);"/><path d="M1170.20646,793.43228c0-18.5675-11.75882-19.09431-11.75882-19.09431,0,0-6.374,0-16.7195-4.303-10.20968-4.23049-24.6025-2.60219-16.56,12.24551,.0758,.17149,.1635,.3518,.27532,.543,.495,.7903,1.34148,1.5488,2.61018,2.283l25.70482,15.0753c3.91868,2.23919,16.364-2.92981,16.448-6.7495Z" style="fill:url(#s);"/><path d="M1170.13846,791.76378c-.22332,3.8157-12.49682,8.885-16.38,6.6657l-25.70482-15.071c-.8457-.495-2.3187-1.4692-3.62-2.6342,.2315,.50269,.4393,.98569,.7345,1.5562,.0758,.17149,.1635,.3518,.27532,.543,.495,.7903,1.34148,1.5488,2.61018,2.283l25.70482,15.0753c3.66348,2.0875,14.81918-2.315,16.28848-6.015,.0597-.279,.1152-.5505,.1152-.7503,.04432-.5747,.004-1.09351-.02368-1.6527Z" style="fill:#131147;"/><path d="M1163.56446,770.25797c-3.30982,0-13.54082,2.96481-13.54082,2.96481,0,0-.074,1.6135-1.0335,3.017-.1222,.131-.2222,.25719-.327,.4097-2.302,1.58749-4.63468,4.12449,.8155,7.5343,4.46482,2.7995,8.08782,1.02019,9.8185-.6975,.6935-1.2995,1.7225-2.7555,3.1658-3.59231,1.47352-.855,2.3847-1.23869,3.039-1.282-.0043-.08749,.02152-.27919,.02152-.27919,0,0-.57252-8.07481-1.959-8.07481Z" style="fill:#facfa7;"/><path d="M1183.52064,574.16778c-12.701,.231-42.682,3.2417-55.37418,3.4725-8.055,44.9162-5.83952,68.21168,.513,105.1675,6.81468,35.9097,14.488,61.1545,21.19418,91.0515,2.45482,5.5722,12.8943,3.4575,15.16982-1.892-1.678-30.991,2.353-61.0715-5.80952-92.8258,1.476-18.7062,4.2812-46.684,6.6237-53,4.4513-12.0002,20.0063-26.1992,17.683-51.9737Z" style="fill:url(#t);"/></g><g><path d="M1196.16246,443.54379c12.96418,12.50118,31.90268,71.3177,7.70768,104.1917-13.727-18.071-7.70768-104.1917-7.70768-104.1917Z" style="fill:#fc780b;"/><path d="M1075.46494,382.23649c7.6852,16.247,15.2317,40.38448,19.5722,45.0683,7.70132,8.3105,26.5835,13.799,45.28932,17.29418,1.95448,.36552,6.463,.68032,7.05018,.437,2.0985-.86918,4.7165-2.20218,7.86082-4.68018,9.37348-7.386,14.44948-11.5705,18.95768-12.49482,37.209-7.591,32.39232,57.945,29.28332,128.61732-2.87782,18.8002-6.88082,20.7825-13.737,24.8155-16.615,8.8725-54.09832,16.579-63.80382-2.191,6.8015-16.8003,12.62982-41.7715,13.0855-60.06482,.289-11.61068-7.80468-20.85048-10.5255-33.85118,.3473-3.105,1.0163-5.8613,1.8503-8.388-27.31548-15.1975-47.5938-28.4423-50.4268-35.5945-6.86668-17.33632-12.7752-34.818-16.1035-53.8188l11.6473-5.149Z" style="fill:url(#u);"/><path d="M1073.38564,379.00397l.03882,.11032c0-5.01532-1.05032-7.936-2.98382-8.79232-.4177-1.19918-.85618-2.44918-1.2827-3.64268-2.4973-6.99932-10.332-12.99932-11.9968-11.33432-1.0055,1.00552,2.9808,4.08432,5.084,7.41682,1.3845,2.19918,1.396,3.416,1.74832,5.2477,0,0-9.374,.87748-9.374,8.6673,0,6.334,3.41868,3.8307,3.41868,2.5835,2.4168,6.4145,5.29,2.62268,6.4025,7.84968l10.14382-4.48418s-.474-1.44982-1.19882-3.62182Z" style="fill:#fcd1a9;"/><path d="M1139.85146,399.26329c2.20448-11.40832,14.271-29.391,34.56048-25.0228,19.5972,4.2213,24.92152,16.933,23.7867,36.675-.7807,13.58,4.8275,53.293,35.3785,55.4013-16.349,22.0715-109.2415,13.1755-93.72568-67.0535Z" style="fill:#20196f;"/><path d="M1194.84846,443.14129c-13.19382-26.05732-3.16182-43.9605-10.14582-55.999-4.01518-6.9215-15.92018-16.3598-33.0207-7.46l-.00048,.0002c5.70648-4.6907,13.33468-7.4647,22.73048-5.442,19.5972,4.2213,24.9217,16.933,23.7867,36.675-.7807,13.58,4.8275,53.293,35.3785,55.4013-12.25768,3.3965-30.4025-6.7315-38.72868-23.1755Z" style="fill:url(#v);"/><path d="M1128.49764,485.18679c.3473-3.105,1.016-5.8613,1.8503-8.388,5.8287,5.82918,10.9117,10.948,12.6382,16.0685,1.726,5.1202,7.70032,23.0415,2.5798,32.998-5.1203,9.956-10.6458,48.5782-10.159,61.8385-4.0938-1.8405-7.4108-4.62-9.4693-8.601,6.8015-16.8003,12.62982-41.7715,13.0855-60.0645l-10.5255-33.8515Z" style="fill:#ffad02;"/></g><polygon points="574.14515 1049.75827 582.77546 1044.77477 500.66616 1044.77477 541.59716 1068.40577 500.66616 1092.03927 610.37715 1092.03927 673.55665 1055.56547 663.49946 1049.75827 574.14515 1049.75827" style="fill:url(#w); mix-blend-mode:multiply;"/><polygon points="650.10365 1002.49647 574.14515 1002.49647 615.07595 1026.12727 574.14515 1049.75827 683.85595 1049.75827 707.93595 1035.85777 650.10365 1002.49647" style="fill:url(#x); mix-blend-mode:multiply;"/><polygon points="500.66616 1092.03927 509.29896 1087.05327 427.18746 1087.05327 468.11816 1110.68147 427.18746 1134.31227 513.97946 1134.31227 577.02646 1097.91327 566.85495 1092.03927 500.66616 1092.03927" style="fill:url(#y); mix-blend-mode:multiply;"/><polygon points="427.18746 1134.31227 435.81996 1129.33147 353.71396 1129.33147 394.63946 1152.96247 353.71396 1176.59347 410.72216 1176.59347 473.65196 1140.26597 463.35016 1134.31227 427.18746 1134.31227" style="fill:url(#a`); mix-blend-mode:multiply;"/><g><polygon points="533.22216 885.87528 574.14515 909.50628 574.14515 1049.75827 533.22216 1026.12727 533.22216 885.87528" style="fill:#ced2f4;"/><polygon points="615.07595 885.87528 574.14515 909.50628 574.14515 1049.75827 615.07595 1026.12727 615.07595 885.87528" style="fill:#bbbfe2;"/><polygon points="574.14515 862.24728 533.22216 885.87528 574.14515 909.50628 615.07595 885.87528 574.14515 862.24728" style="fill:#fff;"/></g><g><polygon points="459.74069 960.21527 500.66616 983.85147 500.66616 1092.03927 459.74069 1068.40577 459.74069 960.21527" style="fill:#362e94;"/><polygon points="541.59716 960.21527 500.66616 983.85147 500.66616 1092.03927 541.59716 1068.40577 541.59716 960.21527" style="fill:#20196f;"/><polygon points="500.66616 936.59247 459.74069 960.21527 500.66616 983.85147 541.59716 960.21527 500.66616 936.59247" style="fill:#5652cc;"/></g><g><polygon points="386.26196 1026.12727 427.18746 1049.75827 427.18746 1134.31227 386.26196 1110.68147 386.26196 1026.12727" style="fill:#5652cc;"/><polygon points="468.11816 1026.12727 427.18746 1049.75827 427.18746 1134.31227 468.11816 1110.68147 468.11816 1026.12727" style="fill:#423eaf;"/><polygon points="427.18746 1002.49897 386.26196 1026.12727 427.18746 1049.75827 468.11816 1026.12727 427.18746 1002.49897" style="fill:#807dfb;"/></g><g><polygon points="312.78296 1095.58227 353.71396 1119.21327 353.71396 1176.59347 312.78296 1152.96247 312.78296 1095.58227" style="fill:#fc780b;"/><polygon points="394.63946 1095.58227 353.71396 1119.21327 353.71396 1176.59347 394.63946 1152.96247 394.63946 1095.58227" style="fill:#ef4e16;"/><polygon points="353.71396 1071.95127 312.78296 1095.58227 353.71396 1119.21327 394.63946 1095.58227 353.71396 1071.95127" style="fill:#ffad02;"/></g><path d="M665.47946,1182.49197c-10.56781-6.1062-24.619-8.9177-38.4213-8.5032h-21.6387v3.541c-4.105,1.2995-7.9778,2.9467-11.4473,4.9622-19.6705,11.4413-19.557,29.9815,.2435,41.423,3.4055,1.9653,7.198,3.5713,11.2038,4.854v3.7043h25.9537c12.481-.2103,24.846-3.041,34.3413-8.5555,19.679-11.4443,19.57669-29.9845-.235-41.4258Z" style="fill:url(#aa); mix-blend-mode:multiply;"/><g><path d="M571.92715,1223.93147c-9.9655-5.7552-14.955-13.31-14.9245-20.854l.0415-17.1965c-.0195,7.5465,4.9563,15.0988,14.9215,20.8563,19.8148,11.439,51.8253,11.439,71.5015,.0112,9.7825-5.6917,14.6783-13.122,14.7003-20.5717l-.044,17.1967c-.022,7.4443-4.91781,14.8745-14.695,20.5605-19.6763,11.4415-51.6953,11.4415-71.5013-.0025Z" style="fill:url(#ab);"/><path d="M571.96565,1206.73727c-19.8035-11.4303-19.9112-29.9815-.235-41.4118,19.6793-11.4412,51.7035-11.4412,71.507,0,19.812,11.4303,19.9113,29.9815,.2295,41.423-19.6762,11.4278-51.6867,11.4278-71.5015-.0112Z" style="fill:#fff;"/><polygon points="633.54315 1183.67497 596.12865 1185.57677 597.29246 1177.16747 586.95365 1177.16747 584.14515 1192.49847 633.54315 1189.64297 633.54315 1183.67497" style="fill:#bbc0e6;"/></g><path d="M176.15446,1040.10877c.3297-.72181,1.0152-1.3523,1.9537-1.8915,4.4688-2.5865,14.6788-3.1905,19.236-3.188l.053-9.38931c-5.922,.23351-19.2795-.88819-21.132-5.09169-.763-1.326-1.6965-2.62531-2.772-3.89831-3.7685-3.73949,4.916-10.00049,8.8383-12.26469l-11.4278-6.63931h-23.6035v4.49981c-1.4332-.3635-2.8537-.7515-4.326-1.0393-7.243-1.09-8.7302-9.0647-8.7132-12.258l-16.2185-.0067c-.005,2.644-1.0805,8.5587-5.5588,11.141-.938,.5387-2.021,.93619-3.2772,1.1215-2.2955,.44969-4.555,.9865-6.7448,1.619-7.469,1.60969-17.2505-2.81531-21.1462-5.07731l-11.5023,6.63931c3.8958,2.2642,12.5078,8.52769,8.699,12.2622-1.1,1.2683-2.0335,2.5748-2.8132,3.90549-.3295,.724-1.0155,1.35231-1.9513,1.896-4.4735,2.57951-14.681,3.18851-19.265,3.18851l-.0265,9.3918c5.5153-.0025,19.279,.8832,21.1323,5.0795,.1265,.219,.2815,.4327,.416,.65019h-25.4303v22.1613h30.3753c3.028-1.7525,10.179-5.124,16.2487-5.5628v14.3628h36.5888c.2477-2.7768,1.1862-8.6025,5.5995-11.153,.2385-.1368,.5157-.2343,.774-.351v2.704h30.3752l11.507-6.6413c-3.9007-2.264-12.5177-8.52769-8.7037-12.26469,1.0877-1.273,2.0382-2.577,2.8155-3.9055Zm-70.6008,1.99219c-11.1917-6.50369-11.129-17.034,.1205-23.53319,11.2663-6.50181,34.4863,22.19119,34.4863,22.19119v3.99181c-10.9993,3.6615-25.252,2.787-34.6068-2.64981Z" style="fill:url(#ac); mix-blend-mode:multiply;"/><g><path d="M49.08716,987.22097c-.0095-3.64549-6.4345-8.23919-9.6492-10.10619l.077,27.3955c3.2147,1.8672,9.6445,6.4562,9.6517,10.10369l-.0795-27.393Z" style="fill:#f7f7fc;"/><path d="M152.03296,1004.51027l-.077-27.3955c-3.2508,1.87419-9.7765,6.5037-9.7645,10.1567l.0745,27.398c-.007-3.6577,6.5185-8.2822,9.767-10.1592Z" style="fill:#bdc1e4;"/><path d="M75.37846,1018.69527c11.266-6.50431,29.4455-6.50431,40.6322-.0025,5.5563,3.22919,8.3403,7.4547,8.3573,11.6897l-.082-27.39551c-.0143-4.23269-2.7963-8.46069-8.352-11.68969-11.1893-6.5018-29.3688-6.5018-40.635,0-5.6598,3.2702-8.4873,7.5605-8.475,11.84369l.0747,27.39331c-.0075-4.2808,2.82-8.571,8.4798-11.839Z" style="fill:url(#ad);"/><polygon points="50.57416 1035.64977 39.14696 1029.00847 39.22616 1056.40427 50.65616 1063.04297 50.57416 1035.64977" style="fill:#d0d4f6;"/><polygon points="151.74416 1056.40427 151.66716 1029.00847 140.16046 1035.64977 140.24216 1063.04297 151.74416 1056.40427" style="fill:#a3a9d0;"/><path d="M71.85546,1057.96577c2.1822,.6282,4.4322,1.167,6.728,1.6147,7.1467,1.0733,8.689,8.8623,8.6985,12.1398l-.0768-27.3935c-.0122-3.2773-1.5545-11.06381-8.6987-12.1395-2.2933-.4478-4.5455-.9865-6.7283-1.61731-6.4437-2.19449-17.284,2.81081-21.204,5.07981l.082,27.39319c3.9173-2.269,14.7575-7.274,21.1993-5.0772Z" style="fill:url(#ae);"/><path d="M109.09016,1060.68947c.9215-.5317,1.9995-.919,3.2585-1.109,2.3003-.4477,4.531-.9842,6.7328-1.6097,6.4775-2.2018,17.2627,2.8032,21.1607,5.0722l-.0817-27.39319c-3.8935-2.2665-14.6783-7.2743-21.154-5.0723-2.2015,.6233-4.4345,1.162-6.7353,1.6098-1.2582,.19-2.3315,.5775-3.2602,1.1092-4.413,2.5508-5.3518,8.37649-5.5995,11.153l.0795,27.391c.2502-2.7742,1.1837-8.6002,5.5992-11.151Z" style="fill:url(#af);"/><path d="M47.98266,1016.74377c3.773,3.737-4.9137,9.998-8.8357,12.2647l11.4272,6.6413c3.92-2.269,14.7603-7.2743,21.204-5.07981,2.1828,.63081,4.435,1.16951,6.7283,1.61731,7.2357,1.0852,8.7252,9.062,8.6965,12.2622h16.2085c.2477-2.77651,1.1865-8.6022,5.5995-11.153,.9287-.5317,2.002-.9192,3.2602-1.1092,2.3008-.4478,4.5338-.9865,6.7353-1.6098,6.4757-2.202,17.2605,2.8058,21.154,5.0723l11.5067-6.6413c-3.9005-2.2642-12.5175-8.5277-8.7035-12.2647,1.0875-1.273,2.038-2.5773,2.8155-3.9055,.3298-.7218,1.0153-1.35231,1.9538-1.8915,4.4685-2.5865,14.6785-3.1905,19.236-3.188l.053-9.3895c-5.922,.2335-19.2795-.888-21.1323-5.0915-.7627-1.326-1.6962-2.6253-2.772-3.8983-3.7682-3.73951,4.9163-10.0007,8.8383-12.2647l-11.4275-6.6393c-3.9248,2.262-14.765,7.272-21.1995,5.0773-2.194-.628-4.4395-1.1693-6.7303-1.617-7.2427-1.09-8.73-9.0645-8.713-12.25781l-16.2185-.007c-.005,2.64451-1.0805,8.559-5.5587,11.141-.938,.539-2.021,.93631-3.2773,1.12181-2.2955,.4497-4.555,.9865-6.745,1.619-7.4687,1.6097-17.2505-2.8153-21.1462-5.0773l-11.502,6.6393c3.8957,2.264,12.5077,8.5277,8.6987,12.262-1.0997,1.26819-2.0332,2.575-2.813,3.9055-.3297,.7242-1.0155,1.3525-1.9515,1.8962-4.4732,2.57949-14.6807,3.1883-19.2647,3.1883l-.0265,9.392c5.5152-.0025,19.279,.883,21.1322,5.0795,.7675,1.3282,1.6745,2.63,2.7695,3.9055Zm27.3163-25.4465c11.2662-6.5018,29.4457-6.5018,40.635,0,11.1795,6.4992,11.1337,17.0365-.1323,23.5382-11.2497,6.49949-29.4437,6.4923-40.6232-.005-11.1918-6.5037-11.129-17.034,.1205-23.5332Z" style="fill:#fff;"/><path d="M39.14696,1029.00847c3.922-2.2667,12.6087-8.5277,8.8357-12.2647-1.095-1.2755-2.002-2.5773-2.7695-3.9055-1.8532-4.1965-15.617-5.082-21.1322-5.0795l.077,27.3907c3.4337,0,10.051,.344,15.008,1.61449l-.019-7.75549Z" style="fill:#ced3f8;"/><polygon points="103.49096 1071.84047 103.41146 1044.44947 87.20296 1044.44947 87.28196 1071.84527 103.49096 1071.84047" style="fill:#bdc1e4;"/><path d="M167.04596,1035.14947l-.077-27.3907c-4.5575-.0025-14.7675,.6015-19.236,3.188-.9385,.53919-1.624,1.1697-1.9538,1.8915-.7775,1.3282-1.728,2.6325-2.8155,3.9055-3.814,3.737,4.803,10.0005,8.7035,12.2647l.0243,7.8688c5.0072-1.35031,11.846-1.7278,15.3545-1.7278Z" style="fill:url(#ag);"/></g><path d="M1914.72266,922.15448l-100.7113-8.4837c-4.6697-4.8055-10.5065-9.3293-17.579-13.41181-20.7525-11.98419-47.9527-17.97749-75.1454-17.97749-27.1975,0-54.406,5.9933-75.1478,17.97749-20.7525,11.97631-31.1315,27.68151-31.1315,43.38431,0,15.7052,10.379,31.4022,31.1343,43.38669,20.7552,11.98431,47.9475,17.97231,75.145,17.97231,9.0527,0,18.0975-.683,26.9162-2.004l-3.8433,4.226,30.6823-10.6368c.2232-.077,.4437-.1567,.667-.234l1.576-.54451-.0318-.011c6.8123-2.43969,13.2628-5.35019,19.179-8.768,.675-.39349,1.313-.79749,1.9696-1.199,25.2044-.11669,62.6002-.79969,97.6334-1.56769,20.9145-11.0038,31.421-24.2185,31.421-37.44931,0-8.412-4.2737-16.81619-12.7337-24.65949Z" style="fill:url(#ah); mix-blend-mode:multiply;"/><g><path d="M1800.31016,951.09577c0-16.601-10.9713-33.20981-32.9173-45.8825-21.9487-12.6725-50.7037-19.00631-79.4617-19.00631s-57.5265,6.33381-79.4672,19.00631c-21.9405,12.67269-32.9145,29.2762-32.9145,45.8772,0,16.6088,10.974,33.2203,32.92,45.88749,21.9485,12.665,50.7037,19.00131,79.4617,19.00131s57.513-6.33631,79.4617-19.00131c21.946-12.66719,32.9173-29.27869,32.9173-45.88219Z" style="fill:url(#ai);"/><path d="M1763.07636,964.53127c-20.7497,11.9762-47.9555,17.96969-75.1452,17.96969-27.1952,0-54.393-5.99349-75.1507-17.96969-20.7473-11.9845-31.1285-27.6815-31.1285-43.39231v10.496c.005,15.70251,10.3812,31.405,31.1285,43.38681,20.7577,11.98419,47.9555,17.9697,75.1507,17.9697,27.1897,0,54.3955-5.98551,75.1452-17.9697,20.75-11.98181,31.1368-27.6843,31.1368-43.38681v-10.49049c0,15.7053-10.3868,31.4078-31.1368,43.3868Z" style="fill:url(#aj);"/><path d="M1794.21316,921.14448c0-15.7027-10.3868-31.4-31.1368-43.3892-20.7497-11.98431-47.9555-17.9725-75.1452-17.9725-27.1952,0-54.406,5.98819-75.1507,17.9725-20.7473,11.9815-31.1285,27.6815-31.1285,43.38369,0,15.71081,10.3812,31.40781,31.1285,43.39231,20.7577,11.9762,47.9555,17.96969,75.1507,17.96969,27.1897,0,54.3955-5.99349,75.1452-17.96969,20.75-11.979,31.1368-27.6815,31.1368-43.3868Z" style="fill:#5652cc;"/></g><path d="M1698.46966,960.18847c17.5442,0,46.597-.7522,73.6115-1.595,14.7325-11.0007,22.132-24.221,22.132-37.449,0-8.4122-3.0115-16.8162-8.9678-24.654l-72.9047-8.72051-13.871,72.41851Z" style="fill:url(#ak); mix-blend-mode:multiply;"/><path d="M1758.99666,901.72897h.0055c-11.5698-19.86749-32.6173-172.12219-32.6173-218.87919-21.502,0-38.4537,14.326-38.4537,14.326,0,0-16.9517-14.326-38.4537-14.326,0,46.757-21.0503,199.01169-32.62,218.87919h.0055c-3.1125,4.87951-4.6885,10.012-4.6885,15.14431,0,11.195,7.4022,22.387,22.193,30.92669,14.791,8.537,34.1747,12.81081,53.5637,12.81081,19.3837,0,38.77-4.27381,53.5635-12.81081,14.7882-8.53969,22.1905-19.73169,22.1905-30.92119,0-5.13781-1.576-10.2703-4.6885-15.14981Z" style="fill:url(#al);"/><g><path d="M1737.73666,653.08697s-.0055,.00552-.0055,.011c-2.6153-3.82748-6.586-7.41568-11.9417-10.49868-10.4533-6.0385-24.1571-9.0578-37.8583-9.0578s-27.4077,3.0193-37.8557,9.0578c-5.3608,3.083-9.3345,6.6712-11.9445,10.4932l-.0025-.00552c-5.8233,8.33-8.824,17.43031-1.9163,30.778,0-.00519,.0053-.01069,.0053-.01069,2.3522,5.07669,6.9607,9.87669,13.858,13.86069,10.4532,6.036,24.1545,9.05281,37.8557,9.05281s27.405-3.01681,37.8583-9.05281c6.8972-3.984,11.5059-8.784,13.8527-13.86069l.0052,.01069c6.9133-13.34769,3.91-22.448-1.9107-30.778Z" style="fill:url(#am);"/><path d="M1741.47336,664.45478c0-7.907-5.2305-15.8195-15.6839-21.8555-10.4533-6.0385-24.1571-9.0578-37.8583-9.0578-13.6985,0-27.4077,3.0193-37.8557,9.0578-10.464,6.031-15.6893,13.9432-15.6893,21.8505,0,7.9175,5.2253,15.8245,15.6893,21.8607,10.448,6.036,24.1572,9.0578,37.8557,9.0578,13.7012,0,27.405-3.0218,37.8583-9.0578,10.4534-6.0362,15.6839-13.9432,15.6839-21.8557Z" style="fill:#5652cc;"/><path d="M1725.78946,642.59928c-10.1796-5.8818-23.4396-8.8718-36.7741-9.0288l-3.5107,53.97848c9.5362,.76031,26.1745,2.679,43.0837-2.99549,8.5793-5.77,12.885-12.93051,12.885-20.0987,0-7.907-5.2305-15.8195-15.6839-21.8555Z" style="fill:#c4cae9; mix-blend-mode:multiply;"/></g><g><path d="M1731.45336,640.67497s0,.01082-.0055,.01082c-2.2802-3.3385-5.7567-6.47182-10.4372-9.175-9.135-5.2733-21.1112-7.9095-33.0795-7.9095-11.9735,0-23.9525,2.6362-33.0822,7.9095-4.6833,2.6977-8.1543,5.8315-10.4373,9.175l-.0027-.01082c-5.0873,7.27982-7.713,15.235-1.677,26.89751l.008-.0052c2.0517,4.4332,6.0782,8.63,12.109,12.1092,9.135,5.273,21.1087,7.915,33.0822,7.915,11.9683,0,23.9445-2.642,33.0795-7.915,6.0307-3.4792,10.06-7.676,12.1147-12.1092l.005,.0052c6.0335-11.66251,3.41-19.6177-1.677-26.89751Z" style="fill:url(#an);"/><path d="M1734.72266,650.61528c0-6.9158-4.5715-13.8258-13.712-19.1045-9.135-5.2733-21.1112-7.9095-33.0795-7.9095-11.971,0-23.9525,2.6362-33.0822,7.9095-9.1405,5.27318-13.7065,12.1887-13.7065,19.0995,0,6.9155,4.566,13.8312,13.7065,19.0992,9.1325,5.2733,21.1112,7.915,33.0822,7.915,11.9683,0,23.9445-2.6417,33.0795-7.915,9.1405-5.268,13.712-12.1837,13.712-19.0942Z" style="fill:#5652cc;"/><path d="M1691.55636,646.06248l-5.6292,25.0448c7.838,1.61069,14.8175,2.73769,22.3287,3.8115,4.6005-1.2863,8.9355-3.00081,12.7548-5.2093,9.1405-5.268,13.712-12.1837,13.712-19.0942,0-6.9158-4.5715-13.8258-13.712-19.1045-3.0935-1.78882-6.533-3.24782-10.1687-4.42782l-5.8873,1.475-13.3983,17.50452Z" style="fill:#c4cae9; mix-blend-mode:multiply;"/></g><g><path d="M1738.23366,551.90548c0-7.434-4.9198-14.86-14.7378-20.532-9.8235-5.677-22.6955-8.5102-35.5647-8.5102-12.872,0-25.7467,2.8332-35.5647,8.5102-9.826,5.6668-14.735,13.09548-14.735,20.5268,0,7.434,4.909,14.868,14.735,20.537,9.8207,5.672,22.6927,8.51068,35.5647,8.51068,12.8692,0,25.7412-2.83868,35.5647-8.51068,9.818-5.66632,14.7378-13.103,14.7378-20.5318Z" style="fill:#5652cc;"/><path d="M1723.49586,572.43728c-9.8235,5.672-22.6955,8.51068-35.5647,8.51068-12.872,0-25.744-2.83868-35.5647-8.51068-8.2208-4.7415-12.9518-10.7215-14.2913-16.8985l11.5775,95.0715,.0345,.021c.6543,5.111,4.3353,10.116,11.11,14.02268,7.4925,4.32181,17.3105,6.49051,27.134,6.49051,9.818,0,19.6387-2.1687,27.134-6.49051,6.7695-3.90669,10.456-8.91169,11.1122-14.02268l.0321-.021,11.5802-95.08732c-1.337,6.18232-6.0758,12.16752-14.2938,16.91432Z" style="fill:url(#ao);"/><path d="M1678.85446,546.92197c0-4.72,8.0162-8.54748,17.9114-8.54748,9.8978,0,17.9138,3.82748,17.9138,8.54748,0,4.72052-8.016,8.54252-17.9138,8.54252-9.8952,0-17.9114-3.822-17.9114-8.54252Z" style="fill:url(#ap); mix-blend-mode:multiply;"/><path d="M1672.33216,536.30148c0-8.6167,6.9823-15.5992,15.599-15.5992s15.6015,6.9825,15.6015,15.5992-6.9848,15.5988-15.6015,15.5988-15.599-6.98232-15.599-15.5988Z" style="fill:url(#aq);"/></g><path d="M1139.00514,1282.76277c-16.19168-9.345-37.41168-14.0203-58.6322-14.0203-21.21748,0-42.4458,4.6753-58.6268,14.0203-16.1915,9.3475-24.2955,21.603-24.2955,33.8555,0,12.25,8.104,24.5002,24.2955,33.853,16.1888,9.3477,37.40931,14.0175,58.6268,14.0175,7.0672,0,14.12652-.5263,21.005-1.5575l-3.00348,3.2957,25.66968-8.917c5.3155-1.903,10.3468-4.1782,14.961-6.8387,16.1915-9.345,24.29532-21.603,24.29532-33.853,0-12.2525-8.10382-24.5053-24.29532-33.8555Z" style="fill:url(#ar); mix-blend-mode:multiply;"/><g><path d="M1143.01314,1320.30477c0-13.7623-9.098-27.5248-27.2855-38.0288-18.1955-10.5035-42.03118-15.7555-65.8667-15.7555-23.8383,0-47.682,5.252-65.86948,15.7555-18.185,10.4988-27.28281,24.2665-27.28281,38.0233,0,13.7677,9.09781,27.5352,27.288,38.034,18.193,10.5012,42.026,15.7505,65.8643,15.7505,23.83552,0,47.6712-5.2493,65.8667-15.7505,18.1875-10.4988,27.2855-24.2663,27.2855-38.0285Z" style="fill:url(#as);"/><path d="M1112.14746,1331.43847c-17.19882,9.9323-39.74532,14.8973-62.28652,14.8973-22.54648,0-45.0853-4.965-62.28948-14.8973-17.199-9.9352-25.805-22.94-25.805-35.9607v8.699c.00269,13.013,8.606,26.0312,25.805,35.9607,17.20419,9.9298,39.743,14.8948,62.28948,14.8948,22.5412,0,45.0877-4.965,62.28652-14.8948,17.199-9.9295,25.80768-22.9477,25.80768-35.9607v-8.699c0,13.0207-8.60868,26.031-25.80768,35.9607Z" style="fill:url(#at);"/><path d="M1137.95514,1295.47777c0-13.0128-8.60868-26.0338-25.80768-35.9633-17.19882-9.92998-39.74532-14.89473-62.28652-14.89473-22.54648,0-45.09848,4.96475-62.28948,14.89473-17.199,9.9243-25.805,22.9423-25.805,35.9633s8.606,26.0255,25.805,35.9607c17.20419,9.9323,39.743,14.8973,62.28948,14.8973,22.5412,0,45.0877-4.965,62.28652-14.8973,17.199-9.9297,25.80768-22.94,25.80768-35.9607Z" style="fill:#f6f6fb;"/></g><path d="M1115.53614,1261.59277l-48.6625-5.82053-13.8687,72.41573c15.9472,0,41.4012-.6167,66.1937-1.361,12.484-9.1747,18.7565-20.258,18.7565-31.3492,0-12.1278-7.4845-24.2528-22.419-33.885Z" style="fill:url(#au); mix-blend-mode:multiply;"/><path d="M1103.01514,1284.14727h.008c-8.6515-14.8625-25.8795-95.9323-25.8795-130.912-16.0855,0-27.2827,10.7135-27.2827,10.7135,0,0-11.203-10.7135-27.28548-10.7135,0,34.9797-17.223,116.0495-25.87431,130.912h.0028c-2.32849,3.6545-3.5058,7.4872-3.5058,11.3305,0,8.3722,5.5335,16.7417,16.6008,23.1337,11.0622,6.3843,25.56051,9.5765,40.062,9.5765,14.49852,0,28.997-3.1922,40.06452-9.5765,11.06448-6.392,16.60068-14.7615,16.60068-23.1337,0-3.8433-1.18-7.676-3.511-11.3305Z" style="fill:url(#av);"/><g><path d="M1090.29464,1132.78547l-.0027,.008c-2.1238-3.1015-5.3448-6.012-9.6958-8.521-8.4862-4.9037-19.615-7.3542-30.7352-7.3542-11.1233,0-22.25148,2.4505-30.7383,7.3542-4.348,2.5065-7.572,5.4168-9.6957,8.521v-.008c-4.72549,6.7618-7.16549,14.1533-1.5548,24.989l.00531-.005c1.90569,4.122,5.648,8.016,11.24519,11.2505,8.4893,4.901,19.615,7.3515,30.7383,7.3515,11.1202,0,22.249-2.4505,30.7352-7.3515,5.6-3.232,9.34232-7.1285,11.2508-11.2505l.00552,.005c5.60768-10.8357,3.176-18.2272-1.55782-24.989Z" style="fill:url(#aw);"/><path d="M1093.33546,1142.02147c0-6.4267-4.25-12.848-12.73652-17.749-8.489-4.9037-19.6178-7.3542-30.738-7.3542-11.1233,0-22.25148,2.4505-30.7383,7.3542-8.489,4.8958-12.73619,11.3198-12.73619,17.7438,0,6.4267,4.24719,12.8452,12.73619,17.7465,8.48681,4.901,19.615,7.3517,30.7383,7.3517,11.1202,0,22.249-2.4507,30.738-7.3517,8.48652-4.8985,12.73652-11.3198,12.73652-17.7413Z" style="fill:#fff;"/><path d="M1080.59894,1124.27247c-5.0183-2.897-10.96648-4.917-17.2788-6.1025-19.75568,2.1715-34.1452,8.8455-34.1452,16.7445,0,9.6613,21.507,17.4938,48.038,17.4938,4.396,0,8.6457-.223,12.6937-.6243,2.27782-3.1152,3.42882-6.4375,3.42882-9.7625,0-6.4267-4.25-12.848-12.73652-17.749Z" style="fill:url(#ax); mix-blend-mode:multiply;"/></g><path d="M1006.78494,1102.52077c0-23.7905,19.283-43.0788,43.076-43.0788s43.07852,19.2883,43.07852,43.0788c0,23.793-19.28552,43.0782-43.07852,43.0782s-43.076-19.2852-43.076-43.0782Z" style="fill:url(#ay);"/><path d="M1406.54946,1096.96627c-16.99682-9.816-39.592-14.343-61.78852-13.677h-34.7908v5.7025c-6.6032,2.0835-12.83268,4.737-18.414,7.9745-31.63468,18.3962-31.45,48.2182,.3955,66.604,5.4813,3.1662,11.57182,5.7485,18.0185,7.8142v5.9588h41.7288c20.067-.3418,39.9627-4.8903,55.228-13.7623,31.649-18.3965,31.489-48.2185-.37748-66.6147Z" style="fill:url(#b`); mix-blend-mode:multiply;"/><g><g><path d="M1230.69394,1108.66997c-.0038-11.7642,7.768-23.5355,23.322-32.511,15.55052-8.9757,35.934-13.4705,56.3142-13.4705s40.7565,4.4948,56.3065,13.4705c15.5505,8.9755,23.32582,20.7398,23.32582,32.511,.00718,11.7608-7.76782,23.5325-23.32582,32.5078-15.5467,8.9827-35.92318,13.4667-56.30318,13.4667s-40.75982-4.484-56.31032-13.4667c-15.5542-8.9753-23.3255-20.747-23.3292-32.5078Z" style="fill:#ffd03e;"/><path d="M1366.63663,1141.17777c-15.5467,8.9827-35.92318,13.4667-56.30318,13.4667s-40.75982-4.484-56.31032-13.4667c-15.5542-8.9753-23.3255-20.747-23.3292-32.5078v22.6953c.0037,11.7645,7.775,23.532,23.3292,32.511,15.5505,8.9795,35.93032,13.467,56.31032,13.467s40.75648-4.4875,56.30318-13.467c15.558-8.9715,23.333-20.7465,23.32582-32.5145v-22.6918c.00718,11.7608-7.76782,23.5325-23.32582,32.5078Z" style="fill:url(#ba);"/><path d="M1264.60146,1135.07297c12.62968,7.2838,29.17748,10.938,45.732,10.938,16.55118,0,33.099-3.6542,45.725-10.938,11.65768-6.728,17.919-15.383,18.813-24.191-.894-8.8045-7.15532-17.456-18.813-24.191-12.62952-7.2945-29.18082-10.9345-45.732-10.9345s-33.09882,3.64-45.73232,10.9345c-11.6502,6.735-17.908,15.3828-18.813,24.1875,.905,8.8078,7.1628,17.463,18.82032,24.1945Z" style="fill:#ffad02;"/><path d="M1264.59414,1086.69097c12.6335-7.2945,29.181-10.9345,45.73232-10.9345s33.10248,3.64,45.732,10.9345c11.65768,6.735,17.919,15.3865,18.813,24.191,.082-.7375,.13568-1.4745,.13568-2.212,0-9.5595-6.3152-19.112-18.94868-26.4027-12.62952-7.2943-29.18082-10.9415-45.732-10.9415s-33.09882,3.6472-45.73232,10.9415c-12.63,7.2907-18.941,16.8432-18.941,26.4027,0,.7375,.0495,1.471,.128,2.2085,.905-8.8047,7.1628-17.4525,18.813-24.1875Z" style="fill:url(#bb);"/></g><g><polygon points="1342.18946 1099.16777 1348.30813 1095.63797 1348.30813 1091.22127 1342.18946 1094.74397 1342.18946 1099.16777" style="fill:#ef4e16;"/><path d="M1313.97364,1106.56527c-2.2795-1.3108-3.54018-3.0665-3.54018-4.9333,0-1.8552,1.26068-3.6077,3.54018-4.9255,4.7123-2.7177,12.3735-2.7177,17.0783-.0035,4.7122,2.7175,4.7122,7.148,0,9.8623l7.754,4.4732c7.64352-4.409,8.76152-11.18,3.38352-16.2945l6.11868-3.5227-7.7502-4.484-6.1188,3.5367c-8.85068-3.0987-20.56868-2.4542-28.21568,1.9658-4.35632,2.5042-6.74582,5.8415-6.74582,9.3922,0,3.5545,2.3895,6.899,6.74582,9.4065,4.70848,2.7248,4.71548,7.1448,0,9.8623-4.70532,2.7212-12.377,2.7212-17.08552,0-4.70848-2.7175-4.70848-7.1375,.00352-9.8623l-7.74652-4.4732c-7.6508,4.4162-8.762,11.18-3.3983,16.2947l-5.6417,3.2553,7.754,4.4805,5.64552-3.2623c8.85768,3.0985,20.576,2.4648,28.21918-1.9485,8.98282-5.1965,8.98282-13.6232,0-18.8197Z" style="fill:#ffd03e;"/><polygon points="1272.35494 1130.54627 1280.10894 1135.01947 1280.10894 1130.59577 1272.35494 1126.11527 1272.35494 1130.54627" style="fill:#fc780b;"/><polygon points="1280.10894 1135.01947 1285.75446 1131.75697 1285.75446 1127.33347 1280.10894 1130.59577 1280.10894 1135.01947" style="fill:#ef4e16;"/><polygon points="1331.05193 1110.98897 1338.80593 1115.46577 1338.80593 1111.03847 1331.05193 1106.56527 1331.05193 1110.98897" style="fill:#fc780b;"/><path d="M1289.14146,1115.46577v-4.4273c-3.34082,1.934-4.299,4.7195-2.899,7.1448,.56948-.9935,1.535-1.9338,2.899-2.7175Z" style="fill:#ef4e16;"/><path d="M1274.66646,1115.74747l.01418,4.986,.011-.0107c.0533,1.1792,.3775,2.358,.9615,3.494l2.3435-1.3568c-2.2757-2.1727-3.3727-4.6372-3.31218-7.0985l-.018-.014Z" style="fill:#fc780b;"/><path d="M1306.22346,1115.46227c1.364,.7872,2.32948,1.724,2.899,2.721,1.4-2.4253,.44168-5.2108-2.899-7.1448-4.35632-2.5075-6.74582-5.852-6.74582-9.4065v4.4348c0,3.5472,2.3895,6.888,6.74582,9.3955Z" style="fill:#fc780b;"/><path d="M1320.70894,1115.95377v-.0963h-.0038c0,.0323,.0038,.0573,.0038,.0963Z" style="fill:#fbba05;"/><path d="M1345.50893,1101.63197c.0107,3.4088-2.20448,6.8138-6.703,9.4065v4.4273c4.60852-2.6605,6.82752-6.1688,6.703-9.6628l.0107,.0143v-4.1853h-.0107Z" style="fill:#ef4e16;"/><path d="M1313.97364,1125.38497c-7.64318,4.4133-19.3615,5.047-28.21918,1.9485v4.4235c8.85768,3.1023,20.576,2.4648,28.21918-1.9552,4.45582-2.568,6.689-5.9445,6.7315-9.321l.0038,.0035v-4.4878c-.011,3.3945-2.251,6.7995-6.7353,9.3885Z" style="fill:url(#bc);"/><path d="M1331.05193,1096.70297c-4.7048-2.7142-12.366-2.7142-17.0783,.0035-2.2795,1.3178-3.54018,3.0703-3.54018,4.9255,0,.7695,.22418,1.5103,.62668,2.219,.5915-1.0112,1.5705-1.941,2.9135-2.7102,4.7123-2.7318,12.3735-2.7318,17.0783-.011,1.3677,.7875,2.326,1.7205,2.9027,2.7212,1.4035-2.4327,.4455-5.214-2.9027-7.148Z" style="fill:#ef4e16;"/></g></g><path d="M1507.93666,1126.68527c-12.9575-9.8123-30.1887-14.336-47.1107-13.67h-26.52732v5.706c-5.0327,2.0727-9.7805,4.7332-14.03318,7.964-24.12332,18.3997-23.988,48.2182,.292,66.611,4.18518,3.1592,8.83318,5.7485,13.74118,7.8072v5.962h31.82002c15.2905-.3417,30.4705-4.8902,42.1065-13.7622,24.1305-18.3998,24.006-48.2183-.2885-66.618Z" style="fill:url(#bd); mix-blend-mode:multiply;"/><g><path d="M1475.67466,1106.51177c-8.3377-8.4733-18.7985-14.781-29.8612-18.6278-18.44232-6.4072-38.566-5.9942-53.35432,2.5928-7.6932,4.4737-13.00368,10.614-15.9065,17.6415l-6.9667,16.8682c2.9027-7.0275,8.217-13.1677,15.9102-17.6377,9.6168-5.5955,21.509-7.7183,33.7115-6.7565,17.80482,1.4067,36.30802,9.3812,49.49702,22.7807,14.991,15.2405,19.3435,33.6508,13.3173,48.236l6.963-16.8717c6.0335-14.5888,1.6812-32.992-13.3103-48.2255Z" style="fill:url(#be);"/><path d="M1473.81566,1111.00297c22.2213,22.574,21.0568,52.129-2.6,65.8738-23.64973,13.741-60.9692,6.5572-83.1942-16.0208-22.22852-22.588-21.064-52.1432,2.582-65.884,23.66048-13.7447,60.9765-6.5642,83.2122,16.031Z" style="fill:#ffad02;"/><path d="M1501.99946,1160.08697c-2.319,5.6238-4.641,11.251-6.967,16.8718-3.5793,8.6585-10.1293,16.2307-19.6248,21.7442-29.15253,16.9393-75.00602,8.1135-102.40252-19.7177-18.47068-18.7735-23.83468-41.3978-16.423-59.3275h0c2.32232-5.627,4.6445-11.251,6.967-16.875-7.405,17.94-2.04468,40.5607,16.4335,59.3377,27.38582,27.8278,73.24252,36.65,102.39532,19.7105,9.4917-5.517,16.0455-13.0857,19.6215-21.744Z" style="fill:url(#bf);"/><path d="M1485.56916,1100.75227c27.386,27.8315,25.9683,64.1285-3.1912,81.0787-29.1528,16.9395-75.0095,8.1173-102.39532-19.7105-27.40018-27.8417-25.9615-64.139,3.1913-81.0785,29.1632-16.95,74.99152-8.1315,102.39522,19.7103Zm-95.68852,55.609c22.2215,22.5775,59.541,29.7582,83.19402,16.0207,23.657-13.7447,24.818-43.2962,2.6-65.8702-22.2357-22.5918-59.55502-29.7793-83.21552-16.035-23.64968,13.752-24.8142,43.2997-2.5785,65.8845h0Z" style="fill:#ffd03e;"/></g><g><path d="M1398.69213,1145.65497l3.22732-1.8807c-2.85332-4.4985-3.48-9.3245-1.95232-13.399l-1.83768,4.402h.01418c-1.268,3.3092-1.0827,7.138,.5485,10.8777Z" style="fill:#fc780b;"/><path d="M1426.97563,1138.22177c2.0765,2.1152,3.08082,4.548,3.0345,6.792,2.8065-2.9205,2.46132-7.5865-1.186-11.2763-3.9392-4.0072-6.012-8.712-5.8235-13.2425,.0643-1.6667,.4385-3.2445,1.08282-4.687l-.00352-.0037-1.75948,4.2775,.01418-.0033c-.7085,1.503-1.1255,3.1518-1.1897,4.9043-.192,4.5447,1.888,9.2427,5.8307,13.239Z" style="fill:#fc780b;"/><path d="M1412.89993,1130.65627c-2.3258,1.3467-3.5048,3.4797-3.5548,5.8202,.4808-.4952,1.0368-.9437,1.69532-1.3287l1.85948-4.4915Z" style="fill:#ef4e16;"/><path d="M1463.17696,1119.34827c.545,.8545,.9972,1.731,1.3782,2.6142l2.6428-1.5422,1.8595-4.4913-5.8805,3.4193Z" style="fill:#ef4e16;"/><polygon points="1452.20346 1132.46247 1450.34766 1136.95727 1457.34296 1144.06277 1459.19846 1139.56427 1452.20346 1132.46247" style="fill:#fc780b;"/><path d="M1459.19846,1139.56427l-1.8555,4.4985c2.7317-1.5885,4.6407-3.761,5.7092-6.2438h0l.0108-.0177c.0105-.0285,.0177-.057,.032-.0818l1.8342-4.438c-1.0682,2.5075-2.9812,4.6908-5.7307,6.2828Z" style="fill:#ef4e16;"/><path d="M1469.05746,1115.92897l-5.8805,3.4193c4.744,7.508,3.362,15.9527-3.9785,20.216l-6.995-7.1018c4.5305-2.6252,4.7547-8.2777,.4947-12.605-4.26303-4.3347-11.40423-5.7057-15.92422-3.074-2.2048,1.275-3.4583,3.295-3.55448,5.674-.09282,2.3828,.98268,4.8438,3.056,6.949,8.10967,8.2453,7.68217,19.023-.94752,24.0343-7.355,4.2777-18.31448,2.9952-26.4243-2.5575l-5.4245,3.156-6.99168-7.1023,5.432-3.1627c-4.755-7.5083-3.36982-15.9528,3.98168-20.227l6.9988,7.109c-4.5413,2.636-4.76548,8.2882-.49848,12.6192,4.25248,4.3275,11.39,5.7025,15.92768,3.0598,4.527-2.6285,4.755-8.281,.495-12.5978-3.9392-4.0072-6.012-8.712-5.8235-13.2425,.1855-4.5375,2.579-8.3842,6.77482-10.8205,7.344-4.2705,18.29967-2.9917,26.4062,2.568l5.8803-3.423,6.9955,7.1095Z" style="fill:#ffd03e;"/><polygon points="1396.48746 1146.93697 1394.62813 1151.42477 1401.62346 1158.53397 1403.47913 1154.03927 1396.48746 1146.93697" style="fill:#fc780b;"/><polygon points="1403.47913 1154.03927 1401.62346 1158.53397 1407.05513 1155.37827 1408.90363 1150.88327 1403.47913 1154.03927" style="fill:#ef4e16;"/><path d="M1439.96513,1149.14527h0c-.0035,.0037-.0105,.007-.0105,.0142-.32417,.4808-.6947,.944-1.09017,1.3925-.965,1.0935-2.12952,2.0768-3.53652,2.8888-7.355,4.2777-18.31448,2.9952-26.4243-2.5575l-1.8485,4.495c8.1028,5.5525,19.062,6.8277,26.417,2.5572,2.5648-1.4922,4.37732-3.501,5.47432-5.7947l.00748,.0322,1.9087-4.5947c-.25617,.538-.559,1.0575-.8975,1.567Z" style="fill:url(#bg);"/><path d="M1453.92016,1131.11597c2.7815-2.9172,2.4075-7.572-1.222-11.2585-4.26303-4.3347-11.40423-5.7057-15.92422-3.074-2.2048,1.275-3.4583,3.295-3.55448,5.674,0,.0463,.00368,.0963,.00368,.1495,.4805-.4985,1.0398-.9545,1.6915-1.3355,4.5235-2.625,11.66482-1.2535,15.93152,3.0808,1.9983,2.0302,2.9955,4.3595,3.0383,6.525l.0357,.2387Z" style="fill:#ef4e16;"/></g><path d="M1589.66696,807.16248c-3.2248,0-6.126,.6248-8.9345,2.253-1.4348,.83349-5.9718,3.44049-10.068,5.802l-1.8748-1.0877c-.926-.5405-2.0755-.471-2.9862,.015-.2388,.116-35.3655,20.40619-35.3655,20.40619-.4243,.23951-.8723,.53251-1.1883,.97251l-1.6662,2.3763-256.482,160.524-21.024,32.5735,54.978-17.22031,239.516-138.28919c.926,.5325,2.0832,.463,3.0015-.03081,.1775-.08549,35.374-20.41419,35.374-20.41419,.4085-.2473,.8327-.52481,1.1415-.949l2.5385-3.6183,13.1775-7.607c5.5002-3.534,9.15-9.53651,9.15-16.43351,0-10.647-8.6333-19.27249-19.2875-19.27249Z" style="fill:url(#bh); mix-blend-mode:multiply;"/><g><path d="M1558.55166,800.48128c-3.2327,0-6.1257,.63269-8.9345,2.2452-1.7512,1.0103-8.0542,4.65249-12.5985,7.2753,1.1188,.3397,2.2763,.8177,3.4793,1.51219,8.6027,4.97631,15.5692,17.043,15.5692,26.97231,0,2.1755-.4015,4.0115-1.0185,5.5702l13.6328-7.8692c5.516-3.534,9.15-9.5365,9.15-16.4335,0-10.647-8.6405-19.2725-19.2798-19.2725Z" style="fill:url(#bi);"/><path d="M1235.85146,1000.01327c2.78468,1.6045,5.03818,5.52369,5.03818,8.73369,0,1.94431-.8495,3.17831-2.1145,3.487l35.15-5.13819,7.5218-10.693-7.5218-19.365-15.01368-8.6723-27.018,31.632c.92568-.8327,2.34548-.9102,3.958,.0158Z" style="fill:url(#bj);"/><path d="M1235.85146,1000.01327c-1.61252-.926-3.03232-.8485-3.958-.0158l-.41732,.4788-12.5132,14.65869,19.4497-2.855,.3625-.046c1.265-.30869,2.1145-1.54269,2.1145-3.487,0-3.21-2.2535-7.12919-5.03818-8.73369Z" style="fill:url(#bk);"/><path d="M1501.18946,861.73178c-1.3263-.76381-2.8623-2.554-3.4175-3.97381l-6.095-15.71519c-.5555-1.4195-.2775-3.6183,.602-4.853l5.8555-8.3475c.8795-1.2498,2.6855-1.651,4.0047-.895l12.251,7.06669c1.3273,.77181,2.855,2.562,3.4025,3.98881l6.0953,15.70819c.5552,1.42751,.293,3.61831-.5943,4.868l-5.8477,8.34031c-.88,1.24969-2.6853,1.6432-4.0048,.8872l-12.2517-7.0747Z" style="fill:#ced3f8;"/><polygon points="1522.81496 857.04848 1281.44694 996.40277 1273.92514 977.03777 1515.30096 837.69128 1522.81496 857.04848" style="fill:#5652cc;"/><polygon points="1515.30096 867.74148 1273.92514 1007.09577 1281.44694 996.40277 1522.81496 857.04848 1515.30096 867.74148" style="fill:#362e94;"/><polygon points="1515.30096 837.69128 1273.92514 977.03777 1258.91146 968.36547 1500.27946 829.01197 1515.30096 837.69128" style="fill:#807dfb;"/><g><path d="M1559.41596,834.19628l-6.088-15.70031c-.5553-1.42749-2.0825-3.21669-3.4175-3.98869l-12.236-7.0668c-.9338-.52451-2.0753-.463-2.9855,.0308-.2393,.1082-35.3663,20.3985-35.3663,20.3985,.926-.3775,1.96-.4005,2.8165,.0775l12.251,7.06669c1.3273,.77181,2.855,2.562,3.4025,3.98881l6.0953,15.70819c.5552,1.42751,.293,3.61831-.5943,4.868l-5.8477,8.34031c-.2245,.3082-.5018,.5632-.8105,.7712l35.2042-20.3212c.4085-.255,.8328-.5325,1.1258-.9645l5.8635-8.3325c.8722-1.2578,1.1425-3.4485,.587-4.876Z" style="fill:url(#bl);"/><path d="M1521.77366,865.72078c.3088-.20081,.5863-.456,.8028-.772l5.8555-8.3323c.8792-1.25,1.1495-3.4407,.5862-4.8682l-6.0872-15.70031c-.5475-1.43469-2.0833-3.22469-3.4098-3.98869l-12.2445-7.0588c-.8715-.5017-1.9055-.463-2.777-.06251-.0542-.03069-2.5612,1.41951-2.5612,1.41951,.9102-.36951,1.9592-.4012,2.8157,.09249l12.2518,7.05981c1.3192,.764,2.8542,2.56119,3.4097,3.9887l6.0873,15.7083c.556,1.4267,.2857,3.61019-.5865,4.86019l-5.8635,8.34731c-.2158,.309-.4938,.5632-.8018,.77169l2.5225-1.46519Z" style="fill:url(#bm); mix-blend-mode:multiply;"/><path d="M1527.07396,862.64978c.309-.1855,.5862-.44781,.8177-.77181l5.8405-8.33249c.8873-1.2497,1.1575-3.43251,.5943-4.8602l-6.0873-15.7158c-.5552-1.419-2.0912-3.217-3.4105-3.9812l-12.2437-7.0588c-.8643-.4937-1.8978-.463-2.785-.06151-.0385-.03069-2.5613,1.42681-2.5613,1.42681,.918-.36981,1.9673-.4085,2.816,.08519l12.2515,7.06681c1.3273,.764,2.8623,2.56119,3.4175,3.981l6.0953,15.708c.5552,1.4277,.2852,3.6185-.602,4.876l-5.8558,8.3325c-.2157,.3082-.4857,.5705-.8097,.771l2.5225-1.4655Z" style="fill:url(#bn); mix-blend-mode:multiply;"/><path d="M1532.38216,859.59478c.316-.2005,.594-.463,.8098-.77181l5.8635-8.33249c.8792-1.2647,1.1415-3.44051,.594-4.876l-6.095-15.708c-.5553-1.419-2.098-3.2092-3.4175-3.981l-12.244-7.0667c-.8643-.49381-1.8973-.463-2.7775-.06181-.038-.02269-2.5693,1.43481-2.5693,1.43481,.926-.36981,1.975-.4085,2.8315,.0855l12.2368,7.0745c1.3262,.756,2.8692,2.54619,3.4175,3.96519l6.095,15.72381c.5555,1.4197,.2852,3.6105-.594,4.86019l-5.8558,8.34031c-.2242,.3082-.4937,.5635-.8105,.764l2.5155-1.4505Z" style="fill:url(#bo); mix-blend-mode:multiply;"/></g></g><polygon points="904.34995 1184.77297 904.34995 1129.21927 759.47215 1129.21927 789.88715 1156.17247 714.17265 1156.17247 742.28195 1184.77297 904.34995 1184.77297" style="fill:url(#bp); mix-blend-mode:multiply;"/><g><path d="M752.88546,1124.28777c-2.44281,1.0762-5.89931,9.7947-5.51751,15.9337,2.34851,2.342,10.3197,6.3693,10.3197,6.3693,0,0,19.0443,7.9935,24.03981,8.9007,9.73,1.7665,19.03819,.2253,19.59069-6.15,.2045-2.4057-6.4025-8.4707-12.0372-11.3945-7.321-3.7907-14.34-8.924-19.0603-13.5965-3.71919-3.682-17.33519-.0627-17.33519-.0627Z" style="fill:url(#bq);"/><path d="M772.85246,924.30378c.344,32.5865,.97049,82.3467,1.27269,110.8037,.34131,32.547-2.42169,62.45949-2.4785,89.74249-5.1695,6.5378-18.47419,5.0478-21.32519,.0663-3.719-24.719-6.15431-51.9398-4.53-78.9835-8.61531-35.5213-19.27281-91.052-16.211-119.036,7.90649,2.4247,35.35869-5.01781,43.272-2.593Z" style="fill:url(#br);"/></g><g><path d="M709.22895,1150.83097c-2.50049,.9345-6.45,9.4408-6.42,15.5918,2.2107,2.4725,9.9387,6.9487,9.9387,6.9487,0,0,18.5553,9.07,23.49081,10.2615,9.61319,2.3205,18.99419,1.314,19.91049-5.019,.3417-2.3905-5.907-8.8235-11.36549-12.0642-7.09231-4.2035-13.80651-9.73-18.25151-14.6648-3.50249-3.889-17.303-1.054-17.303-1.054Z" style="fill:url(#bs);"/><path d="M748.71946,953.57497c-1.51931,32.55031-8.223,77.758-10.87051,107.0715-3.0073,33.3073-4.963,64.0485-9.9168,91.2825-5.5382,6.2345-18.73569,3.9843-21.299-1.1517-2.2992-24.8905-5.6385-55.4473-2.4702-82.352,0-35.9593-10.7113-86.9738-6.054-114.7383,7.7552,2.87681,42.85-2.98849,50.61051-.112Z" style="fill:url(#bt);"/></g><g><path d="M756.13046,816.98928c10.673,2.04769,23.46519,11.162,24.823,37.538,1.35819,26.37569-8.165,41.1562-8.165,41.1562l-16.658-78.6942Z" style="fill:#bbc0e6;"/><path d="M804.58115,877.12448c1.4995-.2817,4.59831,.8368,4.8398,3.1878,.5562,5.40769-3.5403,18.2105-35.419,34.6135-8.4623-14.365,14.25851-34.7345,30.5792-37.8013Z" style="fill:url(#bu);"/></g><path d="M701.03665,836.82278c6.8933-8.62481,23.93481-19.778,34.9263-21.4815,27.2062-4.21531,35.73351,13.77969,37.66551,27.2295,3.62649,25.2495,.25169,205.40419,4.29869,222.07869-1.998,8.7883-18.168,13.55-24.2992,14.894-26.6243,5.8395-56.98949,4.8068-59.0878-12.0735-3.9045-31.562-3.4505-220.69769,6.4965-230.64719Z" style="fill:url(#bv);"/><g><path d="M735.38446,791.28428c-.36681-6.1405,22.67019,7.5395,21.39869,15.557-1.036,6.5205-5.84869,12.05869,.5698,16.5102,2.18551,1.947,4.3572,14.6273-2.6978,14.61349-17.2392-.03349-21.564-5.66349-33.442-16.98,6.8795-3.793,15.362-9.78619,14.17131-29.70069Z" style="fill:#facfa7;"/><path d="M754.14346,818.59697c-.30951,2.73951-6.48351,5.09151-22.01581-7.80049-1.7335,3.042-6.74219,8.2168-10.9145,10.18849,11.878,11.31651,27.50631,28.50431,37.05731,28.50431,7.15769,0,1.268-24.1908-.91751-26.1378-2.116-1.467-2.99649-3.0547-3.20949-4.75451Z" style="fill:url(#bw);"/><path d="M728.18695,788.52778l6.7977-13.1623,36.9813-5.26651,.82251,24.611c-1.26281,17.03-5.91131,22.12251-12.97131,22.54251-9.9982,.5943-20.2885-5.48651-22.4445-17.1962l-4.7095-.9105-4.4762-10.618Z" style="fill:#facfa7;"/><path d="M752.92265,823.67278c-9.8315-1.9265-15.4217-11.3135-15.55-23.6165,1.7413,9.4582,8.845,15.7685,16.7373,17.1082-.158,2.2473,.45,6.82849-1.1873,6.5083Z" style="fill:url(#bx); mix-blend-mode:multiply;"/><path d="M768.37515,760.35597c3.302-1.07319,3.2068-3.93049-11.18-6.71649-8.518-2.782-19.982-2.36951-26.649,3.1923-9.0295,7.5457-10.73069,16.977-7.347,28.03119,3.3795,11.061,10.992,21.264,10.992,21.264,1.2538,.94331,2.83231-5.79449,.3985-8.499-.476-.334-1.057-1.30069-1.759-3.12249-4.2635-11.11251,3.0143-10.4087,4.1165-9.57151,2.2908,.584-.55069,10.688,5.6705,8.83051,3.009-.88551,1.3683-9.4122,.928-12.4302,.4753,.046,.9235,.06469,1.4373,.16669,5.661,2.17,23.801,1.75181,13.0157-3.03249,6.8983-.9822,16.75281,.861,19.29981-3.9677,3.03119-5.7465-3.82131-10.5673-8.92331-14.14481Z" style="fill:#20196f;"/></g><g><path d="M715.81615,955.36227c2.5978,.74569,10.68731,9.5995,10.68731,9.5995-4.921,1.6777-13.905,5.909-13.905,5.909-1.342-1.4573-4.026-5.96481-4.026-5.96481l7.24369-9.54369Z" style="fill:#facfa7;"/><path d="M697.82065,839.56428c7.25081-12.8785,34.128-8.35631,25.8655,18.6562-8.02969,26.251-28.65169,50.68849-28.6075,53.54849,.0443,2.86031,25.1403,44.32381,25.1403,44.32381-.873,4.228-5.011,9.7077-11.8028,11.049-11.1352-6.3033-36.6902-38.927-35.598-56.80281,1.09231-17.87619,14.4355-52.00469,25.0025-70.77469Z" style="fill:url(#by);"/></g><path d="M744.38095,788.76128c.0842,4.599,3.225,16.142,9.729,15.993,3.6032-.0828,3.5157-2.2735,5.9452-4.698,1.956-1.95231,5.7845-4.2485,12.6448-4.2485,1.6447,2.21419,3.1987,15.20919-5.1518,20.42819-8.35069,5.21931-19.807,.15081-23.2725-3.09369-4.2395-3.9705-6.01719-23.25431-6.01719-23.25431l6.12249-1.12669Z" style="fill:#20196f;"/><g><polygon points="796.71546 893.29848 754.92965 917.42328 787.40415 866.37348 829.19015 842.24828 796.71546 893.29848" style="fill:#423eaf;"/><polygon points="754.92965 917.42328 753.38995 916.27748 785.86465 865.22748 787.40415 866.37348 754.92965 917.42328" style="fill:#6b67e9;"/><polygon points="787.40415 866.37348 785.86465 865.22748 827.65015 841.10228 829.19015 842.24828 787.40415 866.37348" style="fill:#807dfb;"/></g><path d="M795.17665,895.71728c-7.247,.968-7.38719-3.027-7.38719-7.202,0-4.1755,3.54069-7.6468,11.63149-6.8595,4.4997,.4377,5.3502-1.0213,5.3502-1.0213l1.57-2.468c1.98931,1.2153,2.1918,1.6178,2.2575,2.9598,.0655,1.3422-1.977,13.0625-13.422,14.591Z" style="fill:#facfa7;"/></g></g></g></g></g></svg>