<?xml version="1.0" encoding="UTF-8"?><svg xmlns="http://www.w3.org/2000/svg" xmlns:xlink="http://www.w3.org/1999/xlink" viewBox="0 0 1252.93761 927.03526"><defs><style>.bh{fill:url(#v);}.bi{fill:url(#f);}.bj{fill:url(#o);}.bk{fill:url(#s);}.bl{fill:url(#q);}.bm{fill:url(#i);}.bn{fill:url(#h);}.bo{fill:url(#k);}.bp{fill:url(#j);}.bq{fill:url(#m);}.br{fill:url(#l);}.bs{fill:url(#n);}.bt{fill:url(#x);}.bu{fill:url(#w);}.bv{fill:url(#y);}.bw{fill:url(#aa);}.bx{fill:url(#ag);}.by{fill:url(#ah);}.c`{fill:url(#ai);}.ca{fill:url(#ad);}.cb{fill:url(#aj);}.cc{fill:url(#ae);}.cd{fill:url(#af);}.ce{fill:url(#a`);}.cf{fill:url(#al);}.cg{fill:url(#am);}.ch{fill:url(#ac);}.ci{fill:url(#an);}.cj{fill:url(#at);}.ck{fill:url(#ay);}.cl{fill:url(#au);}.cm{fill:url(#ak);}.cn{fill:url(#be);}.co{fill:url(#bg);}.cp{fill:url(#bd);}.cq{fill:url(#ba);}.cr{fill:url(#bc);}.cs{fill:url(#b`);}.ct{fill:#f6f6fb;}.cu{fill:#f0f0f5;}.cv{fill:#eaedf7;}.cw{fill:#fbba05;}.cx{fill:#e8ecf7;}.cy{fill:#fff;}.d`{fill:#f2c39d;}.da{fill:#f1f1f6;}.db{fill:#f2c29d;}.dc{fill:#fcd1a9;}.dd{fill:#ffa383;}.de{fill:#ffd0b0;}.df{fill:#ff5a72;}.dg{fill:#ff826a;}.dh{fill:#ced3f8;}.di,.dj{fill:#dae0f5;}.dk{fill:#bbc0e6;}.dl{fill:#bdc0e0;}.dm{fill:#d3d7ef;}.dn{fill:#dce0f1;}.do{fill:#c6cbe7;}.dp{fill:#e33c5c;}.dq{fill:#131147;}.dr{fill:#1f196f;}.ds{fill:#20196f;}.dt{fill:#423eaf;}.du{fill:#121047;}.dv{fill:#362e94;}.dw{fill:#807dfb;}.dx{fill:#5555c6;}.dy{fill:#5652cc;}.e`{fill:#34318f;}.ea{fill:none;stroke:#e8ecf7;stroke-linecap:round;stroke-linejoin:round;stroke-width:2px;}.ea,.dj,.eb,.ec,.ed,.ee,.ef,.eg,.eh,.ei,.ej,.ek,.el,.em,.en,.eo,.ep,.eq,.er{mix-blend-mode:multiply;}.ec{fill:url(#av);}.ed{fill:url(#ax);}.ee{fill:url(#aw);}.ef{fill:url(#ar);}.eg{fill:url(#aq);}.eh{fill:url(#as);}.ei{fill:url(#bf);}.ej{fill:url(#bb);}.ek{fill:url(#ap);}.el{fill:url(#ab);}.em{fill:url(#u);}.en{fill:url(#t);}.eo{fill:url(#e);}.ep{fill:url(#r);}.eq{fill:url(#p);}.er{fill:url(#g);}.es{fill:url(#ao);mix-blend-mode:screen;}.et{isolation:isolate;}</style><linearGradient id="e" x1="173.93152" y1="224.65501" x2="251.45787" y2="224.65501" gradientTransform="matrix(1, 0, 0, 1, 0, 0)" gradientUnits="userSpaceOnUse"><stop offset=".42135" stop-color="#c4cae9"/><stop offset=".71156" stop-color="#e3e6f4"/><stop offset="1" stop-color="#fff"/></linearGradient><linearGradient id="f" x1="432.669" y1="824.74618" x2="461.34864" y2="874.42077" gradientTransform="translate(1161.82931 263.45848) rotate(120.00073)" gradientUnits="userSpaceOnUse"><stop offset="0" stop-color="#e33c5c"/><stop offset="1" stop-color="#ff5a72"/></linearGradient><linearGradient id="g" x1="778.85204" y1="224.54861" x2="913.927" y2="224.54861" gradientTransform="matrix(1, 0, 0, 1, 0, 0)" gradientUnits="userSpaceOnUse"><stop offset="0" stop-color="#c4c9e4"/><stop offset=".26171" stop-color="#d7daec"/><stop offset=".73136" stop-color="#f4f5fa"/><stop offset="1" stop-color="#fff"/></linearGradient><linearGradient id="h" x1="758.69788" y1="183.10583" x2="850.17121" y2="183.10583" gradientTransform="matrix(1, 0, 0, 1, 0, 0)" gradientUnits="userSpaceOnUse"><stop offset="0" stop-color="#807dfb"/><stop offset=".01383" stop-color="#7e7bf9"/><stop offset=".44803" stop-color="#5d5ad1"/><stop offset=".79166" stop-color="#4945b8"/><stop offset="1" stop-color="#423eaf"/></linearGradient><linearGradient id="i" x1="758.69788" y1="198.65283" x2="850.17121" y2="198.65283" gradientTransform="matrix(1, 0, 0, 1, 0, 0)" gradientUnits="userSpaceOnUse"><stop offset="0" stop-color="#ced3f8"/><stop offset=".417" stop-color="#c4c9ee"/><stop offset="1" stop-color="#bbc0e6"/></linearGradient><linearGradient id="j" y1="214.19983" y2="214.19983" xlink:href="#h"/><linearGradient id="k" y1="229.74683" y2="229.74683" xlink:href="#i"/><linearGradient id="l" x1="637.48243" y1="620.54002" x2="883.19029" y2="194.96152" gradientTransform="matrix(1, 0, 0, 1, 0, 0)" gradientUnits="userSpaceOnUse"><stop offset=".24595" stop-color="#fff"/><stop offset="1" stop-color="#d1d7f3"/></linearGradient><linearGradient id="m" x1="188.77278" y1="916.34522" x2="429.03761" y2="500.19432" gradientTransform="matrix(1, 0, 0, 1, 0, 0)" gradientUnits="userSpaceOnUse"><stop offset="0" stop-color="#ffa383"/><stop offset=".63976" stop-color="#fff"/></linearGradient><linearGradient id="n" x1="188.83684" y1="196.49239" x2="429.23536" y2="612.87484" gradientTransform="matrix(1, 0, 0, 1, 0, 0)" gradientUnits="userSpaceOnUse"><stop offset="0" stop-color="#dae0f5"/><stop offset=".69855" stop-color="#fff"/></linearGradient><linearGradient id="o" x1="637.68108" y1="492.52846" x2="883.25833" y2="917.88075" gradientTransform="matrix(1, 0, 0, 1, 0, 0)" gradientUnits="userSpaceOnUse"><stop offset=".30842" stop-color="#fff"/><stop offset="1" stop-color="#dae0f5"/></linearGradient><linearGradient id="p" x1="339.59256" y1="556.43906" x2="900.19871" y2="556.43906" gradientTransform="matrix(1, 0, 0, 1, 0, 0)" gradientUnits="userSpaceOnUse"><stop offset=".45959" stop-color="#dae0f5"/><stop offset=".70195" stop-color="#e7ebf8"/><stop offset="1" stop-color="#fff"/></linearGradient><linearGradient id="q" x1="257.03679" y1="609.1628" x2="817.64701" y2="609.1628" gradientTransform="matrix(1, 0, 0, 1, 0, 0)" gradientUnits="userSpaceOnUse"><stop offset=".08989" stop-color="#5555c6"/><stop offset=".17172" stop-color="#4f4fbc"/><stop offset=".73187" stop-color="#2b2a81"/><stop offset="1" stop-color="#1e1c6b"/></linearGradient><linearGradient id="r" x1="495.70094" y1="514.71805" x2="605.869" y2="514.71805" gradientTransform="matrix(1, 0, 0, 1, 0, 0)" gradientUnits="userSpaceOnUse"><stop offset=".5558" stop-color="#dae0f5"/><stop offset=".71462" stop-color="#dde2f5"/><stop offset=".84517" stop-color="#e7ebf8"/><stop offset=".96532" stop-color="#f8f9fd"/><stop offset="1" stop-color="#fff"/></linearGradient><linearGradient id="s" x1="482.25821" y1="526.00195" x2="592.42621" y2="526.00195" xlink:href="#q"/><linearGradient id="t" x1="838.85461" y1="312.40236" x2="935.54661" y2="312.40236" gradientTransform="translate(-218.7818)" gradientUnits="userSpaceOnUse"><stop offset="0" stop-color="#c4cae8"/><stop offset=".09492" stop-color="#cdd2eb"/><stop offset=".40875" stop-color="#e8eaf6"/><stop offset=".68695" stop-color="#f9f9fc"/><stop offset=".89888" stop-color="#fff"/></linearGradient><linearGradient id="u" x1="731.86299" y1="286.75887" x2="828.54481" y2="286.75887" gradientTransform="translate(-155.0672)" xlink:href="#t"/><linearGradient id="v" x1="-1029.56195" y1="283.34428" x2="-993.92027" y2="283.34428" gradientTransform="translate(-428.22368) rotate(-180) scale(1 -1)" gradientUnits="userSpaceOnUse"><stop offset="0" stop-color="#423eaf"/><stop offset=".30384" stop-color="#39359f"/><stop offset=".89062" stop-color="#231d77"/><stop offset="1" stop-color="#1f196f"/></linearGradient><linearGradient id="w" x1="-1073.62899" y1="308.99378" x2="-1037.99189" y2="308.99378" xlink:href="#v"/><linearGradient id="x" x1="-1058.15015" y1="223.83881" x2="-996.88278" y2="223.83881" gradientTransform="translate(-428.22368) rotate(-180) scale(1 -1)" gradientUnits="userSpaceOnUse"><stop offset="0" stop-color="#423eaf"/><stop offset=".30134" stop-color="#353097"/><stop offset=".74645" stop-color="#251f7a"/><stop offset="1" stop-color="#1f196f"/></linearGradient><linearGradient id="y" x1="1217.64091" y1="85.29507" x2="1255.08531" y2="85.29507" gradientTransform="translate(1873.02732) rotate(-180) scale(1 -1)" gradientUnits="userSpaceOnUse"><stop offset="0" stop-color="#423eaf"/><stop offset=".97605" stop-color="#7e7bf9"/><stop offset="1" stop-color="#807dfb"/></linearGradient><linearGradient id="a`" x1="-1060.52089" y1="113.88185" x2="-996.52041" y2="113.88185" gradientTransform="translate(-428.22368) rotate(-180) scale(1 -1)" gradientUnits="userSpaceOnUse"><stop offset="0" stop-color="#5652cc"/><stop offset="1" stop-color="#807dfb"/></linearGradient><linearGradient id="aa" x1="1722.12663" y1="109.48551" x2="1669.71649" y2="91.0516" gradientTransform="translate(-1057.6421)" xlink:href="#a`"/><linearGradient id="ab" x1="543.26019" y1="492.65516" x2="657.07021" y2="492.65516" gradientTransform="translate(-32.4512)" xlink:href="#t"/><linearGradient id="ac" x1="476.28941" y1="283.91238" x2="525.89063" y2="291.47242" gradientTransform="matrix(1, 0, 0, 1, 0, 0)" gradientUnits="userSpaceOnUse"><stop offset="0" stop-color="#ff826a"/><stop offset="1" stop-color="#e33c5c"/></linearGradient><linearGradient id="ad" x1="377.17593" y1="500.28381" x2="389.50854" y2="485.60699" gradientTransform="translate(899.87102) rotate(-180) scale(1 -1)" gradientUnits="userSpaceOnUse"><stop offset="0" stop-color="#423eaf"/><stop offset=".48832" stop-color="#2f2a8d"/><stop offset="1" stop-color="#1f196f"/></linearGradient><linearGradient id="ae" x1="372.35222" y1="496.04703" x2="385.60289" y2="482.69444" xlink:href="#ad"/><linearGradient id="af" x1="-143.0244" y1="404.8047" x2="-96.52812" y2="415.74499" gradientTransform="translate(642.26758)" gradientUnits="userSpaceOnUse"><stop offset="0" stop-color="#5652cc"/><stop offset=".35565" stop-color="#443fae"/><stop offset="1" stop-color="#1f196f"/></linearGradient><linearGradient id="ag" x1="337.59039" y1="523.13857" x2="349.92351" y2="508.46114" xlink:href="#ad"/><linearGradient id="ah" x1="332.76988" y1="518.899" x2="346.01783" y2="505.54915" xlink:href="#ad"/><linearGradient id="ai" x1="-122.2711" y1="422.98966" x2="-57.25383" y2="438.28782" xlink:href="#af"/><linearGradient id="aj" x1="-70.25853" y1="316.72896" x2="-136.6776" y2="316.72896" gradientTransform="translate(642.26758)" gradientUnits="userSpaceOnUse"><stop offset="0" stop-color="#e33c5c"/><stop offset="1" stop-color="#ff826a"/></linearGradient><linearGradient id="ak" x1="548.87525" y1="301.28989" x2="606.38743" y2="343.18147" xlink:href="#ac"/><linearGradient id="al" x1="127.83505" y1="900.84627" x2="143.79044" y2="900.84627" gradientTransform="translate(-218.86268 812.93597) rotate(-120.00073)" gradientUnits="userSpaceOnUse"><stop offset="0" stop-color="#20196f"/><stop offset="1" stop-color="#423eaf"/></linearGradient><linearGradient id="am" x1="121.14138" y1="859.20871" x2="150.48735" y2="859.20871" gradientTransform="translate(-218.86268 812.93597) rotate(-120.00073)" gradientUnits="userSpaceOnUse"><stop offset="0" stop-color="#362e94"/><stop offset="1" stop-color="#807dfb"/></linearGradient><linearGradient id="an" x1="429.40702" y1="267.38917" x2="441.90818" y2="289.04182" gradientTransform="matrix(1, 0, 0, 1, 0, 0)" gradientUnits="userSpaceOnUse"><stop offset="0" stop-color="#f6f6fb"/><stop offset="1" stop-color="#a5abcc"/></linearGradient><linearGradient id="ao" x1="424.44279" y1="276.07979" x2="438.99079" y2="276.07979" gradientTransform="matrix(1, 0, 0, 1, 0, 0)" gradientUnits="userSpaceOnUse"><stop offset="0" stop-color="#a5abcc"/><stop offset="1" stop-color="#000"/></linearGradient><linearGradient id="ap" x1="131.3021" y1="566.14796" x2="290.14709" y2="566.14796" gradientTransform="translate(42.4103)" gradientUnits="userSpaceOnUse"><stop offset="0" stop-color="#c4c9e5"/><stop offset=".24121" stop-color="#dcdfef"/><stop offset=".53855" stop-color="#f5f6fa"/><stop offset=".71946" stop-color="#fff"/></linearGradient><linearGradient id="aq" x1="9.3951" y1="612.73616" x2="161.42849" y2="612.73616" gradientTransform="translate(97.6369)" xlink:href="#ap"/><linearGradient id="ar" x1="-112.5093" y1="659.32846" x2="27.4213" y2="659.32846" gradientTransform="translate(152.8637)" xlink:href="#ap"/><linearGradient id="as" x1="327.72089" y1="189.06997" x2="486.90289" y2="189.06997" gradientTransform="translate(21.5859)" gradientUnits="userSpaceOnUse"><stop offset="0" stop-color="#c4c8e1"/><stop offset=".18763" stop-color="#d6d9ea"/><stop offset=".47714" stop-color="#eceef5"/><stop offset=".75341" stop-color="#fafafc"/><stop offset="1" stop-color="#fff"/></linearGradient><linearGradient id="at" x1="46.88278" y1="425.10781" x2="16.58356" y2="477.58761" gradientTransform="translate(1151.56442) rotate(-180) scale(1 -1)" gradientUnits="userSpaceOnUse"><stop offset="0" stop-color="#e33c5c"/><stop offset=".42214" stop-color="#f16063"/><stop offset=".78031" stop-color="#fb7968"/><stop offset="1" stop-color="#ff826a"/></linearGradient><linearGradient id="au" x1="850.14196" y1="380.34677" x2="914.39236" y2="491.63173" gradientTransform="translate(264.16019)" gradientUnits="userSpaceOnUse"><stop offset=".33708" stop-color="#ff826a"/><stop offset=".48272" stop-color="#fb7968"/><stop offset=".72015" stop-color="#f16063"/><stop offset="1" stop-color="#e33c5c"/></linearGradient><linearGradient id="av" x1="1124.44561" y1="521.48533" x2="1252.93761" y2="521.48533" gradientTransform="matrix(1, 0, 0, 1, 0, 0)" gradientUnits="userSpaceOnUse"><stop offset="0" stop-color="#d1d7f3"/><stop offset=".64672" stop-color="#f2f3fb"/><stop offset="1" stop-color="#fff"/></linearGradient><linearGradient id="aw" x1="981.42181" y1="651.35826" x2="1220.84261" y2="651.35826" gradientTransform="matrix(1, 0, 0, 1, 0, 0)" gradientUnits="userSpaceOnUse"><stop offset="0" stop-color="#dfe4f4"/><stop offset=".43155" stop-color="#f0f3fa"/><stop offset=".87652" stop-color="#fff"/></linearGradient><linearGradient id="ax" x1="396.78949" y1="880.71781" x2="556.83504" y2="880.71781" gradientTransform="matrix(1, 0, 0, 1, 0, 0)" gradientUnits="userSpaceOnUse"><stop offset=".4525" stop-color="#c4c9e4"/><stop offset="1" stop-color="#fff"/></linearGradient><linearGradient id="ay" x1="360.12221" y1="893.23766" x2="516.88359" y2="893.23766" xlink:href="#ac"/><linearGradient id="b`" x1="374.84579" y1="842.15595" x2="502.15979" y2="842.15595" xlink:href="#ac"/><linearGradient id="ba" x1="414.31579" y1="875.35869" x2="448.72021" y2="875.35869" xlink:href="#ac"/><linearGradient id="bb" x1="694.53911" y1="531.52316" x2="806.56951" y2="531.52316" gradientTransform="translate(-18.6895)" gradientUnits="userSpaceOnUse"><stop offset="0" stop-color="#c4cae9"/><stop offset=".09492" stop-color="#cdd2ec"/><stop offset=".40875" stop-color="#e8eaf6"/><stop offset=".68695" stop-color="#f9f9fc"/><stop offset=".89888" stop-color="#fff"/></linearGradient><linearGradient id="bc" x1="1301.882" y1="734.65868" x2="1323.34972" y2="723.15585" gradientTransform="translate(2096.83171 18.09993) rotate(-170.73455) scale(.99995 -.99995)" gradientUnits="userSpaceOnUse"><stop offset="0" stop-color="#423eaf"/><stop offset=".48832" stop-color="#302a8d"/><stop offset="1" stop-color="#20196f"/></linearGradient><linearGradient id="bd" x1="1282.43102" y1="741.985" x2="1303.90011" y2="730.48143" xlink:href="#bc"/><linearGradient id="be" x1="-630.25671" y1="371.15633" x2="-561.19198" y2="371.15633" gradientTransform="translate(1297.9766)" gradientUnits="userSpaceOnUse"><stop offset="0" stop-color="#362e94"/><stop offset="1" stop-color="#6b67e9"/></linearGradient><linearGradient id="bf" x1="698.65055" y1="797.02204" x2="761.20828" y2="797.02204" gradientTransform="matrix(1, 0, 0, 1, 0, 0)" gradientUnits="userSpaceOnUse"><stop offset=".42652" stop-color="#c4c9e4"/><stop offset=".57661" stop-color="#d7daec"/><stop offset=".84594" stop-color="#f4f5fa"/><stop offset="1" stop-color="#fff"/></linearGradient><linearGradient id="bg" x1="686.65394" y1="796.35216" x2="741.10281" y2="796.35216" xlink:href="#h"/></defs><g style="isolation:isolate;"><g id="a"/><g id="b"><g id="c"><g id="d"><g><path d="M243.13099,212.91467c-5.67578-3.2986-13.16078-4.9108-20.6244-4.8526l-19.6986-.0102c-7.376-.0158-14.7706,1.6-20.4154,4.858-11.229,6.4864-11.2906,17.0014-.1286,23.48858,5.6548,3.28542,13.1036,4.899,20.5414,4.85582v.0036h19.7012c7.3982,.02958,14.8234-1.5912,20.4844-4.8606,11.234-6.4834,11.29722-17.001,.14-23.4826Z" style="fill:url(#e); mix-blend-mode:multiply;"/><g><path d="M222.79999,236.39607c5.656-3.2614,8.477-7.5478,8.4646-11.8242l-.026-14.279c.016,4.2752-2.8076,8.5588-8.4622,11.823-11.2264,6.4864-29.3784,6.4864-40.536,.0024-5.5458-3.222-8.32319-7.4376-8.3336-11.6582l.02541,14.2778c.00919,4.22058,2.78459,8.43758,8.33179,11.66058,11.1548,6.48162,29.30321,6.484,40.536-.00238Z" style="fill:url(#f);"/><path d="M222.77639,222.11587c11.234-6.4826,11.29582-17.0002,.1396-23.48142-11.1584-6.48478-29.3156-6.48738-40.548-.00238-11.2284,6.4836-11.2886,17-.1276,23.4862,11.1576,6.484,29.3096,6.484,40.536-.0024Z" style="fill:#ff826a;"/><path d="M204.30439,209.36367c-1.0078-.584-1.56518-1.35822-1.56518-2.1838,0-.8228,.55738-1.5966,1.56678-2.179,2.0846-1.2038,5.474-1.2038,7.55722,0,2.083,1.201,2.083,3.15858,0,4.3642l3.43,1.978c3.38138-1.9528,3.876-4.9464,1.49758-7.2088l2.70642-1.5634-3.42862-1.9796-2.7062,1.56518c-3.9184-1.37218-9.102-1.08958-12.485,.86342-1.92918,1.113-2.9874,2.5902-2.9858,4.16-.0016,1.57458,1.05962,3.0502,2.9858,4.1632,2.0832,1.2026,2.0832,3.157,0,4.3656-2.0848,1.201-5.477,1.201-7.5604,0-2.083-1.2086-2.083-3.1616,.0034-4.3656l-3.4288-1.978c-3.386,1.95438-3.87738,4.94338-1.5036,7.2072l-2.496,1.4394,3.43,1.9812,2.496-1.4428c3.92122,1.3736,9.105,1.0928,12.488-.8634,3.97322-2.2934,3.97322-6.028-.0016-8.323Z" style="fill:#ffd0b0;"/></g><path d="M900.43021,205.81445c-9.5554-5.52118-22.2606-8.06338-34.7406-7.68858h-63.2132v3.2018c-3.7118,1.175-7.2134,2.6644-10.3506,4.48678-17.786,10.34522-17.6834,27.10942,.2202,37.45482,3.0792,1.777,6.5084,3.229,10.1304,4.3888v3.34938h67.1148c11.2854-.19,22.4658-2.74958,31.0514-7.73578,17.7938-10.3478,17.7014-27.112-.2124-37.45722Z" style="fill:url(#g); mix-blend-mode:multiply;"/><g><path d="M772.19261,196.42787c-9.0108-5.2038-13.5222-12.0348-13.4946-18.8562l.0374-15.549c-.0176,6.8234,4.4816,13.6522,13.4922,18.8582,17.9164,10.3432,46.8604,10.3432,64.6516,.0102,8.8454-5.14662,13.2722-11.865,13.292-18.601l-.0398,15.5492c-.0198,6.73118-4.4466,13.4496-13.2872,18.5908-17.7912,10.3456-46.743,10.3456-64.6516-.0022Z" style="fill:url(#h);"/><path d="M772.19261,211.97487c-9.0108-5.2038-13.5222-12.0348-13.4946-18.8562l.0374-15.549c-.0176,6.8234,4.4816,13.6522,13.4922,18.8582,17.9164,10.3432,46.8604,10.3432,64.6516,.0102,8.8454-5.14662,13.2722-11.865,13.292-18.601l-.0398,15.5492c-.0198,6.73118-4.4466,13.4496-13.2872,18.5908-17.7912,10.3456-46.743,10.3456-64.6516-.0022Z" style="fill:url(#i);"/><path d="M772.19261,227.52187c-9.0108-5.2038-13.5222-12.0348-13.4946-18.8562l.0374-15.549c-.0176,6.8234,4.4816,13.6522,13.4922,18.8582,17.9164,10.3432,46.8604,10.3432,64.6516,.0102,8.8454-5.14662,13.2722-11.865,13.292-18.601l-.0398,15.5492c-.0198,6.73118-4.4466,13.4496-13.2872,18.5908-17.7912,10.3456-46.743,10.3456-64.6516-.0022Z" style="fill:url(#j);"/><path d="M772.19261,243.06887c-9.0108-5.2038-13.5222-12.0348-13.4946-18.8562l.0374-15.549c-.0176,6.8234,4.4816,13.6522,13.4922,18.8582,17.9164,10.3432,46.8604,10.3432,64.6516,.0102,8.8454-5.14662,13.2722-11.865,13.292-18.601l-.0398,15.5492c-.0198,6.73118-4.4466,13.4496-13.2872,18.5908-17.7912,10.3456-46.743,10.3456-64.6516-.0022Z" style="fill:url(#k);"/><path d="M772.22761,180.88087c-17.9064-10.3352-18.0038-27.10942-.2126-37.4446,17.794-10.3452,46.7504-10.3452,64.6568,0,17.914,10.33518,18.0036,27.1094,.2074,37.4548-17.7912,10.333-46.7352,10.333-64.6516-.0102Z" style="fill:#f6f6fb;"/><polygon points="827.90601 160.02787 794.07581 161.74745 795.12801 154.14387 785.77961 154.14387 783.24021 168.00607 827.90601 165.42427 827.90601 160.02787" style="fill:#bbc0e6;"/></g><g><polygon points="1023.31481 275.86245 836.95941 308.99827 863.35481 324.23767 493.81339 537.59266 569.98521 581.57045 939.52661 368.21545 965.92221 383.45507 1023.31481 275.86245" style="fill:url(#l);"/><polygon points="569.98521 581.57045 493.81339 537.59266 135.1578 744.66266 108.76221 729.42306 51.3696 837.01545 237.72499 803.87986 211.32959 788.64045 569.98521 581.57045" style="fill:url(#m);"/></g><polygon points="211.32699 324.23645 237.72239 308.99707 51.3666 275.86087 108.7604 383.45345 135.1556 368.21407 494.07779 575.43786 570.24921 531.46045 211.32699 324.23645" style="fill:url(#n);"/><polygon points="1023.31801 837.01725 965.92421 729.42466 939.52861 744.66406 570.24921 531.46045 494.07779 575.43786 863.35741 788.64166 836.96201 803.88086 1023.31801 837.01725" style="fill:url(#o);"/><ellipse cx="537.34226" cy="555.93361" rx="360.72455" ry="208.26442" style="fill:none; mix-blend-mode:multiply; stroke:#e8ecf7; stroke-linecap:round; stroke-linejoin:round; stroke-width:2px;"/><ellipse cx="537.3422" cy="555.93356" rx="437.6373" ry="252.67013" style="fill:none; mix-blend-mode:multiply; stroke:#e8ecf7; stroke-linecap:round; stroke-linejoin:round; stroke-width:2px;"/><path d="M818.09941,442.01367c-109.465-63.2016-286.94302-63.2016-396.40782,0-109.46538,63.2012-109.46538,165.664,0,228.86559,31.314,18.0808,68.205,30.9658,107.466,38.7006v8.6858h93.92642c70.67-.4884,141.0952-16.2514,195.0186-47.3864,109.462-63.1952,109.462-165.6644-.0032-228.86559Z" style="fill:url(#p); mix-blend-mode:multiply;"/><g><path d="M364.83479,415.12345c95.2712-55.011,249.73962-55.011,345.01402,0,95.2746,55.00441,95.2746,144.18441,0,199.19541-95.271,55.0042-249.7396,55.0042-345.01402-.0068-95.27458-55.0042-95.27458-144.1842,0-199.18861Z" style="fill:#fff;"/><path d="M688.13161,427.66345c-83.1476-48.005-218.43482-48.005-301.57982-.00659-83.14458,48.005-83.14458,126.11659,.00342,174.1154,83.14438,48.005,218.4318,48.005,301.5764,.00619,83.1448-48.005,83.1448-126.11659,0-174.115Zm-5.8728,172.96261c-11.9346,6.7128-24.9174,12.449-38.6652,17.176l-6.244-6.2442-4.7528,1.5822,6.2212,6.2182c-14.3862,4.6486-29.5206,8.23619-45.08203,10.7558l-3.2032-6.91461-5.3032,.82041,3.20663,6.91459c-15.85722,2.31161-32.08922,3.516-48.35,3.63961v-7.1228h-5.48882v7.1228c-16.261-.12361-32.4928-1.328-48.35018-3.63961l3.21-6.91459-5.30322-.82041-3.2064,6.91461c-15.5612-2.51961-30.6928-6.1072-45.0786-10.7558l6.2178-6.2182-4.753-1.5822-6.24058,6.23759c-13.751-4.72039-26.73062-10.45659-38.66822-17.16939l8.7864-5.0718-3.8808-2.23981-8.78638,5.07221c-11.62862-6.8954-21.564-14.38921-29.742-22.32621l10.81158-3.607-2.7442-2.74119-10.7726,3.594c-8.0476-8.308-14.262-17.0456-18.6244-26.03081l11.97362-1.849-1.42282-3.06-11.9766,1.84921c-3.998-9.1544-6.0878-18.5238-6.2994-27.9126h12.33482v-3.1708h-12.33822c.215-9.38881,2.3048-18.75781,6.3028-27.9122l11.9738,1.8492,1.4222-3.0604-11.9702-1.849c4.3624-8.9852,10.5768-17.7228,18.6212-26.0308l10.77242,3.59439,2.74418-2.748-10.81118-3.60019c8.181-7.937,18.11318-15.431,29.74178-22.3262l8.7896,5.0722,3.8808-2.24-8.7898-5.072c11.93762-6.71281,24.9172-12.449,38.6684-17.1756l6.2438,6.24379,4.75-1.58219-6.2182-6.21781c14.3858-4.649,29.5208-8.23639,45.07862-10.75619l3.20978,6.9146,5.2998-.82041-3.2098-6.91459c15.8576-2.3112,32.0924-3.516,48.3534-3.6396v7.123h5.48882v-7.123c16.25758,.1236,32.49278,1.3284,48.35,3.6396l-3.20983,6.91459,5.3032,.82041,3.2064-6.9146c15.56143,2.5198,30.69283,6.10719,45.07863,10.75619l-6.2178,6.21781,4.7528,1.58219,6.2408-6.23759c13.751,4.7204,26.7308,10.45659,38.6684,17.1694l-8.7864,5.072,3.8802,2.24,8.7868-5.0722c11.6286,6.8952,21.564,14.3892,29.745,22.3262l-10.8146,3.60019,2.7442,2.748,10.7726-3.59439c8.0472,8.308,14.262,17.0456,18.6244,26.0308l-11.9702,1.849,1.4194,3.0604,11.9766-1.8492c3.998,9.15439,6.0878,18.52339,6.3028,27.9122h-12.335v3.1708h12.335c-.215,9.3888-2.3048,18.7582-6.3028,27.9126l-11.9736-1.84921-1.4224,3.06,11.9702,1.85581c-4.3624,8.9784-10.5772,17.716-18.6244,26.024l-10.7726-3.594-2.7408,2.7476,10.8112,3.60059c-8.181,7.94341-18.1134,15.43761-29.7418,22.32621l-8.79-5.07221-3.8802,2.23981,8.7864,5.0718Z" style="fill:#c6cbe7;"/><path d="M664.24961,435.50907l-3.8546,19.533,13.0644-7.54c1.823-1.0548,2.7932-1.9142,2.9136-2.58461,.1462-.918-.6348-1.85579-2.354-2.81279l.8304-.4754,10.0366,5.7948-.8268,.4818c-1.4522-.6512-2.5262-1.0222-3.2262-1.1266-.7032-.104-1.4716-.0582-2.3116,.1434-.8334,.1954-1.9694,.70979-3.4052,1.53679l-25.298,14.60381-.7618-.436,4.7498-26.47381-19.3182,11.15321c-1.7482,1.0094-2.5262,1.92079-2.3406,2.7412,.1858,.8142,.7944,1.5172,1.8266,2.10959l.716,.41661-.827,.47539-10.779-6.21779,.8272-.482c1.6894,.957,3.1968,1.4324,4.5282,1.426,1.3282-.013,2.7996-.482,4.4144-1.413l21.4438-12.3836,.1596-.8402c.1626-.83341,.1236-1.47141-.114-1.901-.2376-.4298-.8074-.9182-1.7024-1.4716l.83-.4816,10.7788,6.2244Z" style="fill:#34318f;"/><path d="M447.01879,577.02426l-9.8834,5.9898-.918-.5338c2.1062-1.71881,3.08282-3.5096,2.9362-5.378-.153-1.8752-1.2108-3.3792-3.1836-4.51881-1.52378-.87859-3.1382-1.341-4.841-1.38-1.7026-.04559-3.083,.23441-4.144,.85281-.6742,.38419-1.1134,.8204-1.32178,1.302-.27042,.6578-.27042,1.4584,0,2.40919,.20838,.69,.95378,2.12921,2.23938,4.32341,1.8068,3.0598,2.55562,5.3974,2.24,7.0122-.3288,1.6018-1.4908,2.9818-3.49638,4.1342-2.53922,1.4716-5.71342,2.162-9.519,2.0706-3.812-.0848-7.24022-1.0092-10.29042-2.7672-.9538-.5534-1.7612-1.12621-2.419-1.7318-.6574-.60541-1.3574-1.43241-2.1062-2.4872-.4166-.586-.85938-1.00921-1.3216-1.27621-.39078-.228-.9474-.37759-1.67978-.45559-.73582-.078-1.53982-.0198-2.42222,.1824l-.82678-.4822,11.47218-6.6214,.83,.4816c-2.5716,2.2398-3.7666,4.3886-3.5876,6.4526,.17942,2.0638,1.3546,3.71759,3.51942,4.96759,1.67338,.96381,3.46378,1.47161,5.36838,1.52381,1.9012,.0454,3.4602-.28,4.6714-.9766,.7164-.4168,1.2206-.9248,1.5138-1.5366,.2896-.60561,.3482-1.30861,.176-2.1098-.1694-.794-.7588-2.0442-1.7582-3.7436-1.40638-2.3828-2.2332-4.1996-2.4872-5.4498-.2536-1.25-.114-2.40241,.41682-3.4572,.52718-1.0548,1.50058-1.99221,2.92338-2.8126,2.419-1.4002,5.3682-2.0772,8.8518-2.0314,3.47982,.039,6.5726,.8464,9.2746,2.4024,.9864,.5732,1.82322,1.19139,2.51,1.8622,.524,.5144,1.0484,1.198,1.5724,2.0574,.52082,.86579,.983,1.41279,1.38682,1.6472,.38738,.2214,.81378,.332,1.27618,.319,.4622-.00641,1.25-.2146,2.35382-.63141l.67358,.39081Z" style="fill:#34318f;"/></g><g><path d="M735.54761,614.48145c-109.465,63.195-286.94322,63.195-396.40822,0-54.73418-31.60419-82.0994-73.02-82.1026-114.436v56.40421c.0032,41.41579,27.36842,82.83179,82.1026,114.4296,109.465,63.20119,286.94322,63.20119,396.40822,0,54.4996-31.46081,81.8554-72.662,82.0864-113.9024,.013-.0128,.013-56.93141,.013-56.93141,0,41.416-27.3688,82.83181-82.0994,114.436Z" style="fill:url(#q);"/><path d="M735.54421,385.61587c-109.4648-63.2016-286.94322-63.2016-396.40822-.0066-109.46478,63.2016-109.46478,165.6706,.0034,228.87219,109.465,63.195,286.94322,63.195,396.40822,0,109.4648-63.20159,109.4648-165.67059-.0034-228.86559Zm-25.6954,214.02719c-95.271,55.0042-249.7396,55.0042-345.01402,0-95.27458-55.0044-95.27458-144.191,0-199.19539,95.2712-55.00421,249.73962-55.00421,345.01402,0,95.2746,55.011,95.2746,144.191,0,199.19539Z" style="fill:#807dfb;"/><path d="M293.72259,507.53945c2.8874-33.681,26.5644-66.698,71.1122-92.416,95.2712-55.011,249.73962-55.011,345.01402,0,42.8682,24.748,66.444,56.48221,71.1254,92.25961,.1106-1.3084,.192-2.6172,.2052-3.06661,1.9566-37.45719-21.8116-75.27919-71.3306-103.86879-95.2744-55.00421-249.74282-55.00421-345.01402,0-49.519,28.5896-73.2838,66.4116-71.33058,103.86879,.06818,1.15241,.127,1.94681,.21838,3.223Z" style="fill:#5555c6;"/></g><path d="M511.83479,492.23066c21.5112-12.4208,56.38842-12.4208,77.9002,0,21.51203,12.4194,21.51203,32.5552,0,44.976-21.511,12.4194-56.3882,12.4194-77.9002-.0014-21.5118-12.4194-21.5118-32.5552,0-44.9746Z" style="fill:url(#r); mix-blend-mode:multiply;"/><g><polygon points="578.09479 484.88306 578.09479 484.88306 563.57521 482.80545 633.64321 459.11906 578.09479 484.88306" style="fill:#ff826a;"/><polygon points="578.09479 484.88306 578.09479 484.88306 589.06021 503.08045 633.64321 459.11906 578.09479 484.88306" style="fill:#e33c5c;"/></g><g><path d="M576.29221,527.97145c-21.511,12.41921-56.38822,12.41921-77.90022-.00159-10.75578-6.2096-16.13378-14.34841-16.13378-22.487h0v9.23559c.00018,8.13861,5.37818,16.27721,16.13378,22.48681,21.512,12.4208,56.38922,12.4208,77.90022,.0014,10.756-6.21021,16.13377-14.3494,16.134-22.48821v-9.23559c0,8.139-5.378,16.278-16.134,22.48859Z" style="fill:url(#s);"/><path d="M498.39221,482.99545c21.511-12.421,56.38818-12.421,77.90018,0,21.51182,12.41921,21.51182,32.555,0,44.976-21.51118,12.41921-56.3884,12.41921-77.90018-.00159-21.512-12.41941-21.512-32.5552,0-44.97441Z" style="fill:#807dfb;"/></g><g><polygon points="498.26521 528.09686 485.89039 526.09426 441.04139 570.31786 498.26521 528.09686" style="fill:#ff826a;"/><polygon points="498.26521 528.09686 517.64659 544.42166 441.04139 570.31786 498.26521 528.09686" style="fill:#e33c5c;"/></g><rect x="620.07281" y="303.51527" width="96.692" height="17.77418" style="fill:url(#t); mix-blend-mode:multiply;"/><rect x="576.79579" y="277.87607" width="96.68182" height="17.7656" style="fill:url(#u); mix-blend-mode:multiply;"/><g><path d="M565.69659,290.16127c0-13.9556,8.8514-14.36382,8.8514-14.36382,0,0,4.7854,0,12.572-3.23218,7.68063-3.1862,18.50183-1.95482,12.45243,9.20318-.0518,.13482-.1238,.27162-.2064,.41082-.3714,.599-1.0078,1.168-1.961,1.72418l-19.3338,11.34062c-2.94962,1.677-12.30482-2.2068-12.37462-5.0828Z" style="fill:url(#v);"/><path d="M565.75099,288.91467c.1696,2.8604,9.4008,6.679,12.32022,5.0064l19.3338-11.33162c.6386-.37158,1.7418-1.11218,2.7238-1.98538-.1738,.3782-.3324,.7498-.5564,1.16438-.0518,.13482-.1238,.27162-.2064,.41082-.3714,.599-1.0078,1.168-1.961,1.72418l-19.3338,11.34062c-2.75662,1.575-11.14282-1.73962-12.24862-4.5308-.0456-.21082-.091-.4044-.091-.5606-.035-.43222-.0066-.8276,.0194-1.238Z" style="fill:#121047;"/><path d="M569.29821,273.96227c2.27858,0,10.29778,2.0416,10.29778,2.0416,0,0,.0498,1.11,.719,2.0764,.078,.0826,.1498,.176,.2214,.2714,1.5834,1.0994,3.193,2.83678-.5644,5.19578-3.0802,1.929-5.57378,.70382-6.7576-.48238-.4824-.9034-1.1926-1.9068-2.1828-2.4762-1.0208-.5862-1.64038-.8578-2.0876-.87742,0-.063-.0152-.19538-.0152-.19538,0,0-.5844-5.5538,.36942-5.5538Z" style="fill:#fff;"/><path d="M569.14821,137.45767c8.74678,.1606,30.5914,.556,39.33,.7056-3.2518,26.2738-9.7982,50.1384-14.16843,75.5886-4.6942,24.727-9.98057,42.108-14.59657,62.6864-1.68982,3.8294-9.418,2.3828-10.98622-1.3056-1.22078-18.9534-2.63278-42.0426,2.9888-63.91122-.93858-23.56938-3.1148-49.95558-2.56758-73.76378Z" style="fill:#131147;"/></g><g><path d="M609.76821,315.81387c0-13.96,8.847-14.36642,8.847-14.36642,0,0,4.7872,0,12.5744-3.22738,7.6738-3.1912,18.4972-1.9594,12.4522,9.1942-.0586,.13918-.128,.27818-.2128,.41918-.367,.59522-1.0012,1.16642-1.9592,1.71822l-19.325,11.3382c-2.9496,1.681-12.3092-2.20242-12.3766-5.076Z" style="fill:url(#w);"/><path d="M609.81401,314.55827c.1692,2.865,9.4074,6.6836,12.3308,5.011l19.325-11.3276c.6406-.3756,1.7398-1.11422,2.728-1.9918-.1844,.3824-.3324,.754-.556,1.1644-.0586,.13918-.128,.27818-.2128,.41918-.367,.59522-1.0012,1.16642-1.9592,1.71822l-19.325,11.3382c-2.7606,1.5812-11.1516-1.73542-12.255-4.518-.0542-.21742-.0844-.41042-.0844-.5732-.0372-.4306-.0086-.817,.0086-1.2404Z" style="fill:#121047;"/><path d="M613.36761,299.60787c2.2716,0,10.2914,2.03958,10.2914,2.03958,0,0,.0584,1.11422,.71,2.08082,.0868,.09318,.1542,.18018,.2302,.2716,1.5856,1.0988,3.1972,2.83658-.5626,5.19558-3.0714,1.92862-5.5668,.70362-6.7572-.47578-.4824-.899-1.1924-1.909-2.1788-2.4784-1.0228-.5866-1.6398-.8516-2.0894-.8816,0-.0568-.0216-.1874-.0216-.1874,0,0-.5822-5.5644,.378-5.5644Z" style="fill:#fff;"/><path d="M596.88761,199.93545c-2.3914-11.293-29.95282-12.69358-28.14322-57.10618,8.64682-1.273,52.27322,19.1946,60.91582,17.9218,1.0816,26.443-1.4706,51.06538-1.6356,76.8742-.5842,25.1636-2.9668,43.1726-4.1592,64.2326-1.0408,4.0622-8.8994,3.8904-11.0494,.5108-4.3032-18.4998-9.4618-41.0568-7.4898-63.5488-2.5694-12.4546-5.6406-25.65442-8.4386-38.88442Z" style="fill:url(#x);"/></g><path d="M588.69279,56.59327c-30.7808,20.5608-34.4492,61.4068-17.8112,87.3176,0,0-3.5756-57.42542,17.8112-87.3176Z" style="fill:#5652cc;"/><path d="M626.78221,55.17067c-.1998-2.3874,.6952-5.8994-.8882-7.622-1.5838-1.72022-5.1-3.582-5.1-3.582-1.788,.9624-7.5046,5.235-7.5046,5.235,.7558,2.0656,2.0982,6.34,5.7342,8.9904,2.057-.8798,7.7586-3.0214,7.7586-3.0214Z" style="fill:#f2c39d;"/><path d="M655.38641,115.68887c-2.9518-23.2498-20.4848-46.1502-27.8006-60.7876-5.3062,1.72218-9.6438,3.7794-9.6438,3.7794,2.6824,9.51778,22.144,56.33078,22.144,56.33078l15.3004,.67742Z" style="fill:url(#y);"/><g><path d="M587.28279,168.00345c18.73003,10.51962,38.33543,10.53482,45.01443-2.387-2.502-24.06018-4.8458-43.63938-.0174-66.707-1.4206-12.73458-2.4282-14.64618-.7952-22.08118-.5772-2.4916-8.2428-7.81082-13.8228-12.9066-6.0298-5.4974-10.1004-10.7386-13.213-11.3706-25.61502-5.2328-38.05902,40.41138-35.91522,89.0766,1.9764,12.9394,9.52662,21.2066,18.7492,26.37578Z" style="fill:url(#a`);"/><path d="M590.24539,55.45745c5.55203-4.021,5.11123-12.32258,4.64183-17.83318-.86863-2.9234-1.26623-6.149-1.03583-9.5222,.81883-12.1398,9.26363-22.1118,18.69263-20.8172,19.0146,2.5978,14.9356,12.42658,14.1142,24.566-.7578,11.2494-6.3858,18.6474-15.0022,19.3708-.1284,1.8526,.6298,7.4674,2.9582,9.80478-6.2534,3.738-15.3782,1.97882-18.9882,.35382-3.83823-1.74182-7.98903-3.2276-5.38063-5.92282Z" style="fill:#fcd1a9;"/><path d="M620.13981,1.35308c-.4516-1.52062-3.3556-2.5134-13.2298,1.29-.0608,.028-2.398,.9402-2.548,.997-18.28043,7.9172-13.86223,28.995-11.13423,34.5926,.969,1.9854,1.64203,3.5772,1.44243,6.6334,7.1788-.2954,9.457,3.7472,14.0556-.2822,3.3016-2.8822,8.2386-6.26642,9.0706-7.6852,.8254-1.418,.6734-2.34122,.6734-3.48622,.0154-10.09538,4.6786-3.93118,4.531-1.60678,1.9134-.9324,1.7854-4.9936,1.6592-9.5098h0c15.5174-11.5746,7.1854-19.5636-4.5202-20.9428Z" style="fill:#20196f;"/></g><path d="M654.06801,111.42987c-6.5468-12.8852-11.208-18.22642-22.8132-35.166-2.6914-3.9818-11.3862-2.472-15.6676,3.17958-5.7972,7.63942-3.3188,18.76262-.0412,23.28242,8.4146,8.704,14.3838,12.28558,21.8056,18.3238,12.1746,9.9092,21.8294,.4344,16.7164-9.6198Z" style="fill:url(#aa);"/><polygon points="624.61901 482.19666 520.34021 482.19666 510.80899 503.11366 624.61901 503.11366 624.61901 482.19666" style="fill:url(#ab); mix-blend-mode:multiply;"/><path d="M491.46639,258.94967c0-.94522-7.2124-2.07122-12.4674,.4642,2.5238,2.67358,4.8746,2.397,6.4536,2.4432,.8768,.02538,6.0138-1.61962,6.0138-2.9074Z" style="fill:#362e94;"/><path d="M491.73921,254.98907c-1.33122,1.1978-1.46942,4.9318-1.46942,4.9318-3.9414,1.937-9.473,.484-9.473,.484,.1582-1.9808-.9682-10.372-.9682-10.372l12.0278,2.1434-.11718,2.8128Z" style="fill:#fcd1a9;"/><path d="M522.10179,257.80267c-11.2032,6.14278-23.0094,25.4212-30.36258,34.7174,.11718-15.6814-.27282-33.5704-.27282-33.5704-6.3788,3.3206-12.4674,.4642-12.4674,.4642-1.9556,12.4744-7.1232,53.3578,.068,57.7832,7.1914,4.42538,44.501-23.659,44.501-23.659l-1.4662-35.7354Z" style="fill:url(#ac);"/><g><path d="M528.12779,481.05106c4.585,.7478,5.9122,8.133,3.6188,12.775-1.4228,1.5886-5.0168,3.08439-5.0168,3.08439,0,0-14.4772,5.94661-17.73258,6.20321-3.25742,.2682-10.49-.9568-11.079-6.517,.55678-3.4028,3.40958-4.3326,6.91938-6.415,4.5644-2.7116,8.47862-6.6484,12.159-8.4534,3.02762-1.4866,11.1312-.6772,11.1312-.6772Z" style="fill:url(#ad);"/><path d="M509.09959,501.62266c3.3484-.2614,18.251-6.36721,18.251-6.36721,0,0,3.47062-1.464,5.0052-3.04339-.166,.559-.36358,1.1046-.6092,1.614-1.4228,1.5886-5.0168,3.08439-5.0168,3.08439,0,0-14.4772,5.94661-17.73258,6.20321-3.25742,.2682-10.49-.9568-11.079-6.517,.02258-.1134,.06338-.21821,.084-.3386,1.53678,4.58039,8.031,5.6192,11.09738,5.3646Z" style="fill:#121047;"/><path d="M518.26479,476.14345c2.23442,.36341,9.788,3.65021,9.788,3.65021,0,0-.1298,1.0982,.37042,2.1462,.057,.1024,.11138,.2068,.173,.309,1.36838,1.33,2.82078,3.68459-1.38222,5.0074-8.1492,2.562-15.0956-2.9092-11.8906-4.7482,2.15482-1.2342,2.6596-4.6304,2.9414-6.36461Z" style="fill:#fff;"/><path d="M513.93921,483.60606c.60458-.8068,2.01858-2.9552,4.50738-1.1822,2.60062,1.8572,3.1872,4.0848,2.88462,5.9418-.30682,1.85479-5.667,.482-5.87142,.2002-.2048-.2796-1.52058-4.9598-1.52058-4.9598Z" style="fill:url(#ae);"/><path d="M508.31321,341.37107c-.36362,30.80039,2.664,51.64239,4.17118,78.9742,1.53882,27.90019,1.8024,41.5094,2.0684,62.4834,4.0258,4.9824,14.2432,3.7322,16.3982-.1206,2.65722-19.0372,8.0106-37.5994,5.6396-59.694,6.0712-30.0368,14.398-61.3214,11.8178-82.8072-6.06218,1.9234-34.0306-.7612-40.09518,1.1642Z" style="fill:url(#af);"/></g><path d="M550.39521,525.96766h29.066c8.80477-6.0218,13.12137-13.4816,12.94717-20.9174h-31.723l-10.29018,20.9174Z" style="fill:#dae0f5; mix-blend-mode:multiply;"/><g><path d="M567.71379,503.90445c4.585,.75041,5.9126,8.138,3.61642,12.77741-1.42042,1.5888-5.01642,3.0848-5.01642,3.0848,0,0-14.47758,5.9416-17.7304,6.201-3.2598,.2682-10.4904-.9574-11.0814-6.517,.55922-3.40321,3.41222-4.3328,6.9194-6.41721,4.5644-2.70719,8.4812-6.64419,12.161-8.449,3.0256-1.48679,11.1314-.68,11.1314-.68Z" style="fill:url(#ag);"/><path d="M548.68359,524.47866c3.3504-.2638,18.25062-6.3714,18.25062-6.3714,0,0,3.47338-1.46181,5.00558-3.0414-.1638,.55659-.3638,1.1022-.60958,1.616-1.42042,1.5888-5.01642,3.0848-5.01642,3.0848,0,0-14.47758,5.9416-17.7304,6.201-3.2598,.2682-10.4904-.9574-11.0814-6.517,.023-.1138,.0638-.2184,.0864-.34121,1.53682,4.585,8.03082,5.62141,11.0952,5.36921Z" style="fill:#121047;"/><path d="M557.84879,498.99706c2.2366,.3662,9.7878,3.6508,9.7878,3.6508,0,0-.12738,1.1002,.37062,2.1458,.05658,.1,.11358,.2046,.17278,.3092,1.3706,1.32959,2.8208,3.6822-1.3796,5.00959-8.14918,2.55941-15.09818-2.90939-11.893-4.75059,2.155-1.232,2.6594-4.628,2.9414-6.3648Z" style="fill:#fff;"/><path d="M553.52321,506.46206c.60658-.807,2.01818-2.95961,4.50738-1.1868,2.60262,1.8594,3.1892,4.085,2.8844,5.94419-.30678,1.85281-5.6666,.48221-5.8714,.20221-.2022-.27721-1.52038-4.9596-1.52038-4.9596Z" style="fill:url(#ah);"/><path d="M526.90959,358.81007c-.3662,30.79839,14.2702,57.21639,18.5642,81.757,4.8212,27.5272,8.3992,44.1416,8.665,65.113,4.0258,4.9872,14.24342,3.7326,16.3982-.116,2.6576-19.0394,2.762-49.2582-.95678-62.3262,3.27538-34.2648,.00218-64.106-2.57762-85.5916-6.0602,1.92319-34.0286-.7636-40.093,1.1638Z" style="fill:url(#ai);"/></g><path d="M565.77039,269.36345c-5.2986-6.63518-18.3258-15.89038-26.8544-16.51978-14.50478-1.06722-25.993,10.91878-28.957,20.934-2.7892,9.429-1.25478,80.6524-4.369,93.4704,1.5364,6.7602,13.9706,10.4176,18.6828,11.454,20.47142,4.4892,47.61,1.6162,47.61-11.4678,0-25.16581,1.5368-90.2242-6.1124-97.87081Z" style="fill:url(#aj);"/><g><path d="M563.43121,347.29467c-1.96162,1.1024,.74338,1.232-6.276,3.2254-9.00822,.2388-19.20982,3.3688-17.10962,8.313,1.5684,3.69139,11.293,6.0896,18.0238,3.5276,5.2372-1.9958,6.33282-2.662,7.5352-5.45321,4.1164-3.36639-2.17338-9.61279-2.17338-9.61279Z" style="fill:#fcd1a9;"/><path d="M555.86199,266.09807c4.901-1.00462,10.9018,.1532,16.12322,14.374,4.50958,12.2816,18.83257,47.085,16.04357,51.4928-7.2172,11.395-10.0428,17.2914-20.86257,27.0522-6.517-3.4962-8.55142-10.2518-6.57382-14.15461,5.137-6.35579,4.30282-10.477,7.37382-18.25318-2.69122-7.349-18.79622-35.897-19.15322-43.846-.4524-9.8924,2.2094-15.67182,7.049-16.6652Z" style="fill:url(#ak);"/></g><g><path d="M540.74121,233.58667c.532-4.7006-15.71162,4.8702-15.05942,11.0782,.532,5.04858,2.0028,9.4924-3.10258,12.6532-1.75962,1.40838-7.78542,11.22238,1.47958,11.3272,13.25,.1636,16.7846-3.4746,26.36142-11.68382-5.71242-3.22438-11.39742-8.13558-9.679-23.37478Z" style="fill:#fcd1a9;"/><path d="M544.56921,230.80587l-6.59882-9.2846h-28.723v17.28918c0,9.554,6.4306,17.28822,14.35682,17.28822,7.70118,0,14.85018-6.3726,15.223-15.52422l3.48718-1.20358,2.25482-8.565Z" style="fill:#fcd1a9;"/><path d="M524.27279,260.72445c6.8622,0,15.3592-11.02558,14.55442-20.143-.34742,8.59462-7.49882,14.78982-14.64782,15.50362-.6024,.5092-.9774,.8478-1.60018,1.233-.13642,.11038-.3,.2788-.47742,.4846,0,1.3944,.9228,2.92178,2.171,2.92178Z" style="fill:#f2c29d;"/><path d="M510.92479,213.71545c-2.6274-.457-2.8662-2.64338,7.781-6.326,6.18542-3.037,14.9546-3.96538,20.6306-.455,7.69,4.76362,10.01082,11.76022,8.63082,20.54242-1.37022,8.7854-7.001,17.138-7.001,17.138-.85,.8594-.97722-3.1916-.284-6.18842,.32258-.30458,.66378-1.106,1.00238-2.56878,2.0388-8.9218-3.4256-7.592-4.1712-6.8396-1.6818,.6932,1.5754,8.0776-3.3618,7.341-2.3868-.3512-2.062-7.01962-2.05238-9.364-.35722,.085-.696,.1488-1.07542,.2818-4.07358,2.2642-17.928,3.911-10.2382-.9002-5.35538,0-12.6542,2.4732-15.1208-.9264-2.9274-4.048,1.764-8.4546,5.26-11.73482Z" style="fill:#1f196f;"/></g><g><path d="M477.62279,263.19907l35.6156-25.65562c.4306-.27378,.6946-.828,.6946-1.606,0-1.60858-1.1292-3.56418-2.522-4.36858-.6966-.402-1.3272-.44-1.7836-.17642l-40.082,18.04682,8.0774,13.7598Z" style="fill:url(#al);"/><path d="M428.32099,265.50807l14.8566,25.3076,36.073-25.2518-.0208-.0358c1.2158-.8642,1.9686-2.4854,1.9686-4.7542,0-4.88742-3.43118-10.83042-7.6636-13.274-1.9654-1.1346-3.7518-1.3046-5.1082-.6838l-.0058-.0098-40.0998,18.7018Z" style="fill:url(#am);"/><path d="M435.65839,290.19907c-5.731-3.30862-10.3768-11.35562-10.3768-17.973,0-3.3088,1.16162-5.6338,3.0394-6.718,1.8778-1.0842,4.472-.9274,7.3374,.7268,5.731,3.30858,10.37682,11.35558,10.37682,17.973,0,3.2008-1.08682,5.4808-2.85762,6.6078-1.89038,1.203-4.56,1.09178-7.5192-.6166Z" style="fill:#5652cc;"/><path d="M427.50039,269.57107c-.439,.958-.6828,2.14638-.6828,3.5416,0,5.6382,3.9582,12.49378,8.8408,15.313,1.208,.6974,2.3564,1.0742,3.4052,1.1732l.469,.81258,2.3748-1.37118-.00318-.0054c.05218-.0302,.10958-.05142,.16058-.084,1.5086-.96,2.4346-2.9026,2.43442-5.6298,0-5.638-3.958-12.49362-8.84082-15.3128-2.44118-1.4096-4.6514-1.54282-6.25118-.6192l-2.375,1.3712,.46818,.8108Z" style="fill:url(#an);"/><path d="M433.28379,289.79667c-4.8828-2.819-8.841-9.6748-8.841-15.3128,0-2.8192,.9896-4.8,2.58942-5.7236,1.6-.92382,3.81018-.7904,6.25158,.61918,4.8826,2.819,8.8408,9.67482,8.8408,15.31282,0,2.727-.926,4.6696-2.4346,5.6298-1.6106,1.0248-3.8852,.93-6.4062-.5254Z" style="fill:#ced3f8;"/><path d="M433.28379,269.37927c-2.4412-1.4094-4.6518-1.54282-6.25158-.6192-1.59982,.9238-2.58942,2.9046-2.58942,5.7238,0,3.0972,1.22,6.5428,3.1058,9.5038l11.4422-8.8418c-1.5434-2.4108-3.51958-4.50342-5.707-5.7666Z" style="fill:url(#ao); mix-blend-mode:screen;"/></g><path d="M477.10079,246.03767c.3308,2.036,6.53942,3.1772,8.6746,2.47678,2.8876-.94738,6.81082-3.20678,5.96382-4.63558-.847-1.4292-2.55282-6.4538-5.22642-5.7162-2.67358,.7376-10.19858,3.0332-9.412,7.875Z" style="fill:#fcd1a9;"/><path d="M493.41539,254.03127c1.121-1.4434,1.4412-5.954,.0582-5.8296-1.3828,.1242-3.27038,5.194-2.62038,6.4566,.23958,.4656,1.594,.61918,2.56218-.627Z" style="fill:#fcd1a9;"/><polygon points="292.19999 542.85166 173.7124 542.85166 214.06399 566.14386 173.7124 589.44426 292.19999 589.44426 332.55739 566.14386 292.19999 542.85166" style="fill:url(#ap); mix-blend-mode:multiply;"/><polygon points="218.71659 589.43866 107.032 589.43866 147.381 612.73886 107.032 636.03366 218.71659 636.03366 259.06539 612.73886 218.71659 589.43866" style="fill:url(#aq); mix-blend-mode:multiply;"/><polygon points="139.936 636.03106 40.3544 636.03106 80.7036 659.32826 40.3544 682.62586 139.936 682.62586 180.285 659.32826 139.936 636.03106" style="fill:url(#ar); mix-blend-mode:multiply;"/><g><polygon points="133.355 481.30145 173.7064 504.60266 173.7064 589.43866 133.355 566.14106 133.355 481.30145" style="fill:#ced3f8;"/><polygon points="214.05839 481.30145 173.7064 504.60266 173.7064 589.43866 214.05839 566.14106 214.05839 481.30145" style="fill:#bbc0e6;"/><polygon points="173.7064 458.00966 133.355 481.30145 173.7064 504.60266 214.05839 481.30145 173.7064 458.00966" style="fill:#f1f1f6;"/></g><g><polygon points="66.6774 550.85306 107.029 574.15086 107.029 636.03366 66.6774 612.73626 66.6774 550.85306" style="fill:#423eaf;"/><polygon points="147.381 550.85306 107.029 574.15086 107.029 636.03366 147.381 612.73626 147.381 550.85306" style="fill:#362e94;"/><polygon points="107.029 527.55606 66.6774 550.85306 107.029 574.15086 147.381 550.85306 107.029 527.55606" style="fill:#5652cc;"/></g><g><polygon points="0 610.79306 40.3544 634.09066 40.3544 682.62586 0 659.32826 0 610.79306" style="fill:#5652cc;"/><polygon points="80.7036 610.79306 40.3544 634.09066 40.3544 682.62586 80.7036 659.32826 80.7036 610.79306" style="fill:#423eaf;"/><polygon points="40.3544 587.49586 0 610.79306 40.3544 634.09066 80.7036 610.79306 40.3544 587.49586" style="fill:#807dfb;"/></g><g><polygon points="442.81099 151.14667 349.30679 151.14667 414.97999 189.07307 349.30679 226.99327 442.81099 226.99327 508.48879 189.07307 442.81099 151.14667" style="fill:url(#as); mix-blend-mode:multiply;"/><g><polygon points="349.30679 226.99327 283.63359 189.07307 283.63359 132.19427 349.30679 170.10827 349.30679 226.99327" style="fill:#d3d7ef;"/><polygon points="349.30679 170.10827 414.98139 132.19427 349.30679 94.30607 283.63359 132.19427 349.30679 170.10827" style="fill:#f0f0f5;"/><polygon points="349.30679 170.10827 382.14799 120.17907 316.47021 82.27567 283.63359 132.19427 349.30679 170.10827" style="fill:#eaedf7;"/><polygon points="382.14799 120.18067 414.98139 132.19427 349.30679 94.30607 316.47021 82.27567 382.14799 120.18067" style="fill:#dce0f1;"/></g><polygon points="382.14799 120.17907 414.98139 132.19427 414.98139 189.07307 349.30679 226.99327 349.30679 170.10827 382.14799 120.17907" style="fill:#bdc0e0;"/></g><g><path d="M1114.85761,429.47087c0-3.27941,.5566-6.0762,1.5664-8.36341-7.8614-.86519-13.4082,4.80861-13.4082,15.20521,0,13.664,9.5958,30.2852,21.4316,37.123,9.002,5.1914,16.6876,3.2226,19.8612-4.0136-2.4784-.2754-5.1854-1.18761-8.0272-2.8242-11.834-6.8322-21.4238-23.4572-21.4238-37.127Z" style="fill:url(#at);"/><path d="M1168.40841,423.29887c-17.7402-30.7206-46.5-47.3476-64.25-37.0956l-11.8361,6.836c17.7443-10.25,46.5119,6.375,64.2501,37.0976,17.7228,30.705,17.7342,63.89259,.0332,74.1582l11.8028-6.80661c17.7462-10.24219,17.7382-43.457,0-74.18959Z" style="fill:url(#au);"/><path d="M1156.57241,430.13687c-17.7382-30.7226-46.5058-47.3476-64.2501-37.0976-17.746,10.23619-17.746,43.457,0,74.1874l32.1233,55.6406,32.1268-18.54481c17.7382-10.23839,17.7342-43.45319,0-74.18559Zm-32.125,43.2988c-11.8358-6.8378-21.4316-23.459-21.4316-37.123,0-13.6778,9.5958-19.213,21.4316-12.3828,11.836,6.8358,21.4278,23.457,21.4278,37.1328,0,13.662-9.5918,19.203-21.4278,12.373Z" style="fill:#ff5a72;"/></g><path d="M1252.93761,533.92445c-17.5648-2.03159-34.4784-6.21439-42.874-11.05839-11.83-6.8334-2.2328-12.3712,21.4308-12.3712,6.8974,0,14.2248,.4808,21.4432,1.3154v-12.40181c-42.54-4.91179-82.1874-3.281-96.3716,4.91041l-32.1204,18.5484,96.3722,18.54619c10.6528,2.05061,21.4752,3.68361,32.1198,4.91341v-12.40241Z" style="fill:url(#av); mix-blend-mode:multiply;"/><g><polygon points="1220.84261 604.91126 981.42181 604.91126 1061.87041 651.35826 981.42181 697.80526 1220.84261 697.80526 1220.84261 649.19666 1220.84261 604.91126" style="fill:url(#aw); mix-blend-mode:multiply;"/><g><polygon points="1061.87021 513.12866 981.42181 466.68145 900.97341 513.12826 981.42221 559.57526 1061.87021 513.12866" style="fill:#f6f6fb;"/><polygon points="1045.70601 515.28406 981.42181 478.16926 917.13801 515.28386 981.42241 552.39806 1045.70601 515.28406" style="fill:#dae0f5;"/><polygon points="1061.87021 651.35826 981.42181 697.80526 981.42181 559.57566 1061.87021 513.12866 1061.87021 651.35826" style="fill:#bbc0e6;"/><g style="mix-blend-mode:multiply;"><polygon points="1025.74141 557.88445 1017.55081 562.61326 1017.55081 553.99145 1025.74141 549.26286 1025.74141 557.88445" style="fill:#dae0f5;"/><polygon points="1025.74141 577.47045 1017.55081 582.19906 1017.55081 573.57726 1025.74141 568.84845 1025.74141 577.47045" style="fill:#dae0f5;"/><polygon points="1025.74141 597.05626 1017.55081 601.78486 1017.55081 593.16306 1025.74141 588.43445 1025.74141 597.05626" style="fill:#dae0f5;"/><polygon points="1025.74141 616.64206 1017.55081 621.37066 1017.55081 612.74906 1025.74141 608.02026 1025.74141 616.64206" style="fill:#dae0f5;"/><polygon points="1025.74141 636.22806 1017.55081 640.95686 1017.55081 632.33506 1025.74141 627.60645 1025.74141 636.22806" style="fill:#dae0f5;"/><polygon points="1025.74141 655.81386 1017.55081 660.54286 1017.55081 651.92106 1025.74141 647.19226 1025.74141 655.81386" style="fill:#dae0f5;"/></g><polygon points="900.97321 651.35826 981.42181 697.80526 981.42181 559.57566 900.97321 513.12866 900.97321 651.35826" style="fill:#ced3f8;"/><g style="mix-blend-mode:multiply;"><polygon points="937.10221 557.88445 945.29261 562.61326 945.29261 553.99145 937.10221 549.26286 937.10221 557.88445" style="fill:#dae0f5;"/><polygon points="937.10221 577.47045 945.29261 582.19906 945.29261 573.57726 937.10221 568.84845 937.10221 577.47045" style="fill:#dae0f5;"/><polygon points="937.10221 597.05626 945.29261 601.78486 945.29261 593.16306 937.10221 588.43445 937.10221 597.05626" style="fill:#dae0f5;"/><polygon points="937.10221 616.64206 945.29261 621.37066 945.29261 612.74906 937.10221 608.02026 937.10221 616.64206" style="fill:#dae0f5;"/><polygon points="937.10221 636.22806 945.29261 640.95686 945.29261 632.33506 937.10221 627.60645 937.10221 636.22806" style="fill:#dae0f5;"/><polygon points="937.10221 655.81386 945.29261 660.54286 945.29261 651.92106 937.10221 647.19226 937.10221 655.81386" style="fill:#dae0f5;"/></g><polygon points="981.42181 478.16945 917.13801 515.28386 913.40401 513.12866 981.42181 473.85845 981.42181 478.16945" style="fill:#bbc0e6;"/><polygon points="981.42181 478.16945 1045.70521 515.28386 1049.43921 513.12866 981.42181 473.85845 981.42181 478.16945" style="fill:#ced3f8;"/></g></g><path d="M533.20499,847.91965c-16.7284-9.6582-38.9696-14.108-60.8166-13.457h-34.241v5.613c-6.4974,2.0502-12.6306,4.6658-18.1206,7.844-31.1358,18.1082-30.9572,47.4574,.38442,65.558,5.39438,3.1132,11.39438,5.6582,17.73618,7.6884v5.86921h41.07282c19.74878-.3342,39.33418-4.814,54.35958-13.54761,31.148-18.1106,30.9898-47.4598-.3748-65.568Z" style="fill:url(#ax); mix-blend-mode:multiply;"/><g><g><path d="M360.12221,859.44005c-.00262-11.578,7.64818-23.161,22.95478-32,15.3066-8.8318,35.3644-13.254,55.4248-13.254,20.0576,0,40.11542,4.4222,55.4196,13.254,15.30382,8.839,22.9596,20.4168,22.9622,32,.0048,11.5778-7.64838,23.1632-22.9622,32-15.3016,8.8364-35.357,13.256-55.4148,13.256s-40.1182-4.4196-55.4246-13.256c-15.3064-8.8368-22.9572-20.4222-22.95978-32Z" style="fill:#ffd0b0;"/><path d="M493.92139,891.44005c-15.3016,8.8364-35.357,13.256-55.4148,13.256s-40.1182-4.4196-55.4246-13.256c-15.3064-8.8368-22.9572-20.4222-22.95978-32v22.344c.00258,11.5778,7.65338,23.1584,22.95978,31.9926,15.3064,8.83921,35.3668,13.25861,55.4246,13.25861s40.1132-4.417,55.4148-13.25121c15.31382-8.8392,22.967-20.4222,22.9622-32.0074v-22.3366c.0048,11.5778-7.64838,23.1632-22.9622,32Z" style="fill:url(#ay);"/><path d="M393.49659,885.42745c12.42962,7.1732,28.71862,10.7688,45.01,10.7688s32.578-3.5956,45.0052-10.7688c11.4698-6.6156,17.6356-15.1408,18.5176-23.8042-.882-8.6682-7.0478-17.1884-18.5176-23.8116-12.4298-7.1782-28.71858-10.7638-45.01258-10.7638-16.28922,0-32.578,3.5856-45.01262,10.7638-11.46238,6.6232-17.6282,15.1382-18.515,23.8042,.8868,8.6682,7.05262,17.1908,18.525,23.8116Z" style="fill:#ffa383;"/><path d="M393.48659,837.81165c12.43462-7.1782,28.7234-10.7638,45.01262-10.7638,16.294,0,32.58278,3.5856,45.01258,10.7638,11.4698,6.6232,17.6356,15.1434,18.5176,23.8116,.07782-.7286,.1304-1.4546,.1304-2.1832,0-9.4046-6.216-18.8092-18.648-25.985-12.4298-7.1734-28.71858-10.7664-45.01258-10.7664-16.28922,0-32.578,3.593-45.01262,10.7664-12.4272,7.1758-18.6408,16.5804-18.6408,25.985,0,.7286,.0478,1.4494,.1258,2.1758,.8868-8.666,7.05262-17.181,18.515-23.8042Z" style="fill:url(#b`);"/></g><g><polygon points="469.86079 850.09565 475.88339 846.61845 475.88339 842.26665 469.86079 845.73885 469.86079 850.09565" style="fill:#e33c5c;"/><path d="M442.08959,857.37445c-2.2438-1.2988-3.485-3.0226-3.485-4.8568,0-1.829,1.2412-3.5552,3.485-4.8516,4.6382-2.6784,12.1784-2.6784,16.81162,0,4.63558,2.6758,4.63558,7.0326,0,9.7084l7.628,4.3996c7.52518-4.3442,8.62338-11.0026,3.33158-16.0352l6.0226-3.4722-7.628-4.4072-6.02,3.4774c-8.716-3.0528-20.249-2.417-27.77418,1.9322-4.28882,2.4674-6.643,5.7536-6.643,9.2486,0,3.4976,2.35678,6.7864,6.643,9.2564,4.63578,2.6784,4.63838,7.0326,0,9.7084-4.63542,2.6784-12.18062,2.676-16.81642,0-4.6332-2.6758-4.6332-7.03,.0026-9.7084l-7.6206-4.3996c-7.5302,4.3442-8.63058,11.0026-3.3468,16.0354l-5.5502,3.206,7.6306,4.4046,5.5554-3.2086c8.71842,3.05,20.2488,2.4246,27.7738-1.9196,8.8392-5.1082,8.8392-13.4122,0-18.5178Z" style="fill:#ffd0b0;"/><polygon points="401.12979 880.97245 408.76039 885.37705 408.76039 881.02045 401.12979 876.61585 401.12979 880.97245" style="fill:#ff826a;"/><polygon points="408.76039 885.37705 414.31579 882.16865 414.31579 877.81185 408.76039 881.02045 408.76039 885.37705" style="fill:#e33c5c;"/><polygon points="458.90121 861.72885 466.52921 866.13105 466.52921 861.77405 458.90121 857.37445 458.90121 861.72885" style="fill:#ff826a;"/><path d="M417.64739,866.13105v-4.357c-3.289,1.9022-4.23118,4.6458-2.8518,7.0326,.5604-.9774,1.51-1.8994,2.8518-2.6756Z" style="fill:#e33c5c;"/><path d="M403.40339,866.40985l.0104,4.907,.01242-.01c.05258,1.1556,.372,2.3166,.94458,3.437l2.3092-1.334c-2.2412-2.1384-3.3216-4.5678-3.2614-6.9876l-.0152-.0124Z" style="fill:#ff826a;"/><path d="M434.46121,866.12845c1.34438,.7788,2.29178,1.696,2.85438,2.6782,1.377-2.3868,.4298-5.1304-2.85438-7.0326-4.28622-2.47-6.643-5.7588-6.643-9.2564v4.3594c0,3.495,2.35678,6.7788,6.643,9.2514Z" style="fill:#ff826a;"/><path d="M448.72021,866.60825v-.088h-.01c0,.0278,.01,.0554,.01,.088Z" style="fill:#fbba05;"/><path d="M473.12739,852.51285c.01,3.3568-2.1736,6.711-6.59818,9.2612v4.357c4.53778-2.6182,6.71858-6.073,6.59558-9.5102l.0126,.015v-4.123h-.01Z" style="fill:#e33c5c;"/><path d="M442.08959,875.89225c-7.525,4.3442-19.05538,4.9696-27.7738,1.9196v4.3568c8.71842,3.0528,20.2488,2.4222,27.7738-1.9248,4.387-2.5302,6.58562-5.8516,6.6232-9.1784l.00742,.01v-4.422c-.01262,3.3416-2.22122,6.6934-6.63062,9.2388Z" style="fill:url(#ba);"/><path d="M458.90121,847.66605c-4.63322-2.6784-12.17342-2.6784-16.81162,0-2.2438,1.2964-3.485,3.0226-3.485,4.8516,0,.7564,.2188,1.485,.62062,2.181,.57778-.9948,1.54018-1.9122,2.86438-2.6734,4.6382-2.681,12.1784-2.681,16.81162-.0024,1.34418,.7738,2.28638,1.6936,2.85418,2.6758,1.3796-2.392,.4374-5.1356-2.85418-7.0326Z" style="fill:#e33c5c;"/></g></g><polygon points="787.88001 516.45466 687.80541 516.51026 675.84961 536.22666 701.08641 536.22666 694.93861 546.59166 787.88001 546.53426 787.88001 516.45466" style="fill:url(#bb); mix-blend-mode:multiply;"/><path d="M681.90461,342.33667c-1.0034,1.5522-25.1158-4.70521-27.3576-6.23821-3.2292-2.19978-6.509-5.858-8.6324-6.834-2.1214-.97738-6.3718-2.10738-7.5054-2.189-1.1304-.08358-5.1916,1.085-4.7296,2.53822,.4634,1.4584,2.6738-.455,3.3092,.283-.6682,.2344-2.3994,1.7346-2.2204,3.1686,.1822,1.43418,.7272,.96018,.7272,.96018-.3264,.72582-.4062,1.72922,.151,2.045-.2602,.62-.8818,1.64082,.7068,2.02821,1.58,.3906,4.2434,.7724,5.2208,1.50879,3.1494,2.35581,11.0528,2.68741,12.0128,3.18581,.96,.4948,19.9316,9.497,23.9528,10.65,15.6658,4.4878,15.5476-23.1264,11.9-23.1264-6.724,0-5.3856,8.6914-7.5352,12.0198Z" style="fill:#fcd1a9;"/><g><path d="M694.95381,515.43366c4.3234,.70479,5.5716,7.6722,3.41,12.0404-1.3402,1.502-4.7276,2.9118-4.7276,2.9118,0,0-13.6482,5.5994-16.7146,5.8408-3.0748,.2516-9.8928-.896-10.4504-6.143,.5246-3.2014,3.2176-4.08,6.525-6.047,4.304-2.554,7.9936-6.261,11.4658-7.9694,2.8526-1.4012,10.4918-.6336,10.4918-.6336Z" style="fill:url(#bc);"/><path d="M686.66181,510.99406c2.1096,.3472,8.8828,2.0208,8.8828,2.0208,0,0,2.5068,7.0232-1.45,8.2662-7.688,2.415-14.2354-2.743-11.2124-4.47761,2.0296-1.16139,4.0296-2.47239,3.7796-5.80939Z" style="fill:#fcd1a9;"/><path d="M677.01381,534.82545c3.1614-.25359,17.2074-6.00739,17.2074-6.00739,0,0,3.2694-1.3804,4.7158-2.86461-.1564,.526-.3404,1.04161-.5732,1.52061-1.3402,1.502-4.7276,2.9118-4.7276,2.9118,0,0-13.6482,5.5994-16.7146,5.8408-3.0748,.2516-9.8928-.896-10.4504-6.143,.0246-.10921,.061-.2046,.0818-.314,1.4462,4.316,7.5664,5.2936,10.4608,5.05579Z" style="fill:#131147;"/><path d="M681.57821,517.84186c.5676-.764,1.8996-2.78841,4.245-1.1166,2.4552,1.747,3.009,3.851,2.721,5.5996-.2884,1.7464-5.3424,.4512-5.5318,.189-.1944-.26041-1.4342-4.672-1.4342-4.672Z" style="fill:#362e94;"/><path d="M679.25521,520.01886c1.0102,.429,3.4606,2.0838,4.5854,4.46059,.3298,.69081,1.1494,.986,1.8404,.65961,.689-.3318,.9842-1.15461,.6596-1.84561-1.4288-3.00519-4.3682-5.12519-6.0022-5.818-.7066-.29339-1.5154,.02941-1.8156,.73261-.2938,.705,.0344,1.519,.7324,1.8108Z" style="fill:#fff;"/><path d="M674.99641,522.74486c1.0086,.4238,3.448,2.073,4.5728,4.455,.3284,.6928,1.1514,.9898,1.8494,.6528,.6944-.3228,.9826-1.151,.6562-1.842-1.4256-3.009-4.3738-5.1288-5.9968-5.8144-.7048-.3022-1.5192,.03119-1.8198,.7344-.2914,.7014,.0384,1.5136,.7382,1.8142Z" style="fill:#fff;"/><path d="M687.85461,373.13527c-2.0784,25.6996-5.5176,50.1576-5.5176,70.7856,0,23.59159,4.0938,48.442,4.344,68.2138-.2186,6.0646,6.6618,10.8184,9.5734,5.464,.125-1.7606-.6998-3.99321-.3992-6.58021,1.7604-15.058,6.917-38.19319,2.5782-57.66659,5.9744-25.8122,22.4182-57.71,19.9838-77.9682-7.4724-3.7104-24.8486-4.0644-30.5626-2.2484Z" style="fill:#fcd1a9;"/></g><path d="M691.15701,291.78687c-6.7384,3.3092-9.2004,8.3632-9.2004,18.4038,4.5994-2.818,9.2004-18.4038,9.2004-18.4038Z" style="fill:#fcd1a9;"/><polygon points="694.76281 382.93267 694.76281 387.24367 698.50101 385.09107 694.76281 382.93267" style="fill:#423eaf;"/><g><path d="M712.97241,525.79345c4.32,.70861,5.5646,7.67261,3.408,12.04261-1.3402,1.5-4.731,2.9116-4.731,2.9116,0,0-13.6466,5.5992-16.7108,5.844-3.0784,.2536-9.895-.8994-10.4522-6.1514,.5262-3.1962,3.2206-4.07681,6.5282-6.04181,4.302-2.55259,7.9918-6.26279,11.4588-7.96579,2.858-1.4046,10.499-.63921,10.499-.63921Z" style="fill:url(#bd);"/><path d="M704.67861,521.35586c2.1076,.3472,8.8824,2.021,8.8824,2.021,0,0,2.507,7.0248-1.448,8.2662-7.688,2.415-14.235-2.745-11.216-4.476,2.0314-1.16161,4.0282-2.4724,3.7816-5.8112Z" style="fill:#fcd1a9;"/><path d="M695.02721,545.18886c3.1614-.2516,17.2106-6.0092,17.2106-6.0092,0,0,3.2676-1.3766,4.714-2.86621-.1542,.52941-.3384,1.04321-.5714,1.52261-1.3402,1.5-4.731,2.9116-4.731,2.9116,0,0-13.6466,5.5992-16.7108,5.844-3.0784,.2536-9.895-.8994-10.4522-6.1514,.0246-.1024,.0644-.2014,.0816-.309,1.448,4.31619,7.5716,5.2918,10.4592,5.0576Z" style="fill:#131147;"/><path d="M699.59141,528.20186c.5714-.7606,1.9046-2.7866,4.2504-1.113,2.4532,1.74659,3.0034,3.8492,2.7206,5.6008-.2884,1.7434-5.3458,.45-5.535,.1894-.1928-.264-1.436-4.6772-1.436-4.6772Z" style="fill:#362e94;"/><path d="M697.27361,530.38066c1.0104,.4306,3.4568,2.0834,4.5818,4.4622,.3282,.6892,1.1496,.9844,1.8422,.658,.6892-.3316,.9844-1.1512,.6598-1.84741-1.429-3.00359-4.3666-5.12519-6.0022-5.81619-.7064-.2936-1.5138,.0294-1.816,.7344-.2934,.703,.033,1.5156,.7344,1.809Z" style="fill:#fff;"/><path d="M693.00941,533.10466c1.014,.4254,3.4464,2.07479,4.5768,4.45879,.3282,.68921,1.151,.98621,1.849,.65281,.6908-.3246,.9826-1.151,.6526-1.8404-1.4218-3.01241-4.3734-5.1306-5.9932-5.81641-.7066-.302-1.519,.03121-1.8196,.73441-.2918,.7014,.033,1.5158,.7344,1.8108Z" style="fill:#fff;"/><path d="M701.97881,384.19327c0,23.6246-.2536,50.0428-.2536,70.664,0,23.595,2.7242,47.86719,2.9724,67.63919-.2186,6.06821,6.6618,10.82021,9.5738,5.464,.123-1.757-.7016-3.99159-.3978-6.57859,1.7588-15.0598,6.917-38.19841,2.5764-57.6668,5.9726-25.8138,15.1784-53.0114,9.7002-79.3342-7.4674-3.7122-18.4612-2.0002-24.1714-.1876Z" style="fill:#fcd1a9;"/></g><g><path d="M719.74361,353.82507c-1.9586-17.79961,6.4448-34.5922,7.9848-45.71261,.9688-7.01438,1.672-15.22838-4.684-17.20918-6.5632-2.0454-9.2196-2.997-14.911-2.8546-13.7068,.3422-20.1296,3.1512-22.9212,12.5946-2.6288,8.8876-4.4916,11.58918-6.655,20.305-.9724,3.9048,9.7818,12.3948,8.5334,29.2498-9.5266,14.4002-16.3586,46.9386-19.2668,72.5028-1.1094,7.70159,6.7244,17.60159,20.5796,24.5308,17.4696,8.747,37.8408,9.4452,45.4938,1.56279,1.8596-1.91339,2.7798-4.16019,2.8874-6.58219,.0088-9.075-5.1462-73.605-17.041-88.3872Z" style="fill:url(#be);"/><path d="M713.00201,271.35845c-.2378-4.21718-14.6694,4.17542-14.3482,9.735,.2638,4.528,.8544,9.089-.8404,9.67062-1.972,1.4238-7.8266,16.449-4.3074,19.9596,12.256-5.01422,18.6434-15.63122,29.5384-19.8204-4.4604-.9136-9.256-5.88782-10.0424-19.54482Z" style="fill:#fcd1a9;"/></g><g><path d="M716.48121,265.52127l-4.3406-10.8636h-27.524v16.562c0,9.1464,6.1636,16.5634,13.763,16.5634,7.372,0,13.3376-6.9882,13.6952-15.75962l1.9168,.05562,2.4896-6.5578Z" style="fill:#fcd1a9;"/><path d="M709.69961,280.51187c-2.3678,4.19958-6.2696,7.0002-10.7524,7.228-.0536,1.3714-.25,2.21858-.6962,2.729,.7796-.0328,1.4028,0,2.1808-.196,4.5942-1.127,7.9154-4.9256,9.2678-9.761Z" style="fill:#f2c39d;"/><path d="M700.18881,243.11367c-.0886-.0138-.1684-.0016-.2588-.0016-15.0112,.375-16.1398,11.5962-15.3134,13.452,4.7624,1.7,7.7644-1.526,10.7558-1.2742,1.4426,.11458,7.308,.9114,9.7282,4.0124,2.606,3.3388,1.7758,8.67418,4.231,8.5456,1.0694-.0452,1.3908-3.6218,2.9862-3.719,1.3334-.07642,2.6808,1.172,2.521,3.22058-.203,2.75722-2.8124,4.42922-2.4306,5.76242,.6458,2.1964,6.1358-1.74642,6.028-9.575-.111-7.7782-5.297-20.9492-18.2474-20.4232Z" style="fill:#20196f;"/></g><path d="M726.78561,362.28407s2.95,7.351,2.9554,7.3596c10.2902-5.363,16.3188-19.376,16.9072-30.6806,.7952-15.2282-14.9816-40.9624-15.8034-42.18461-3.9914-5.95178-13.4676-.672-10.332,6.94482,.6804,1.5434,16.8344,28.111,15.1068,37.0908-1.1926,6.2052-3.226,17.5896-8.834,21.47Z" style="fill:#fcd1a9;"/><path d="M702.08281,243.13987c15.9542,1.14058,17.8674,16.8708,24.2098,21.1244,3.7918,2.5366,12.2386-2.2516,17.194,6.31818,5.6914,9.85122-3.5214,13.42442,2.5106,17.59822,6.0316,4.1704,10.6674,16.9002,.6128,24.71678-10.0492,7.818-22.6386,.953-21.2168-10.49558,1.0244-8.238-1.4218-12.4918-8.3408-9.8268-5.1844,1.99138-7.1636-2.0992-4.8352-7.372-11.5286,1.1528,.5608-20.8294-16.8448-29.9132,.6598-4.4812,6.7104-12.15,6.7104-12.15Z" style="fill:#20196f;"/><path d="M726.78561,362.28407c-1.2048,.7812-7.8128-.7814-9.3736-.7814-1.566,0-5.8756,.01379-9.4746,1.17379-3.6008,1.15641-6.061,2.476-3.6008,3.04161-1.3284,.2848-4.4534,1.5612-1.988,2.27439,.2358,.85261,1.1336,1.99161,3.8352,1.89441,.9012,.71159,7.2002,2.0382,9.1412,1.70659,2.0368,.61481,12.7594,.39261,14.416-1.94979,0-3.974-2.9554-7.3596-2.9554-7.3596Z" style="fill:#fcd1a9;"/><path d="M753.17501,785.87106c-5.6882-3.2856-13.2514-4.7996-20.6792-4.5768h-19.7818v1.906c-2.2104,.6978-4.295,1.5864-6.1618,2.6708-10.5872,6.158-10.5268,16.1358,.13,22.2938,1.8336,1.0576,3.875,1.922,6.0318,2.6118v1.9946h22.104c6.7162-.1128,13.3722-1.6374,18.4832-4.6038,10.5912-6.1606,10.536-16.1384-.1262-22.2964Z" style="fill:url(#bf); mix-blend-mode:multiply;"/><g><path d="M694.68721,808.17286c-5.3648-3.095-8.0492-7.1618-8.0332-11.2234l.023-17.0388c-.0108,4.0616,2.667,8.1256,8.0302,11.2262,10.6652,6.158,27.8934,6.158,38.4846,.0052,5.2656-3.0628,7.9002-7.0626,7.911-11.0702l-.0228,17.0388c-.0122,4.005-2.6468,8.0048-7.9096,11.065-10.5898,6.1578-27.8236,6.1578-38.4832-.0028Z" style="fill:url(#bg);"/><path d="M694.70721,791.21566c-10.6582-6.1526-10.7172-16.1358-.1262-22.2884,10.5914-6.158,27.8278-6.158,38.4874,0,10.6624,6.1526,10.7174,16.1358,.1234,22.2938-10.5912,6.1526-27.8194,6.1526-38.4846-.0054Z" style="fill:#e8ecf7;"/><polygon points="727.85001 778.80306 707.71301 779.82586 708.34001 775.29986 702.77521 775.29986 701.26381 783.55166 727.85001 782.01626 727.85001 778.80306" style="fill:#bbc0e6;"/></g></g></g></g></g></g></svg>