<?xml version="1.0" encoding="UTF-8"?><svg xmlns="http://www.w3.org/2000/svg" xmlns:xlink="http://www.w3.org/1999/xlink" viewBox="0 0 482.6356 364.3904"><defs><style>.f{fill:none;}.g{fill:#6a6ae2;}.h{fill:#fff;}.i{fill:#dfe3f7;}.j{fill:#4141aa;}.k{fill:#5555c6;}.l{clip-path:url(#e);}</style><clipPath id="e"><rect width="482.6356" height="364.3904" style="fill:none;"/></clipPath></defs><g id="a"/><g id="b"><g id="c"><g id="d"><g style="clip-path:url(#e);"><g><path d="M84.844,151.21141c4.7482-16.8048-8.553-26.53221-16.9144-31.62801-1.0638,5.2504-4.1174,26.75061,16.9144,31.62801Z" style="fill:#dfe3f7;"/><path d="M182.7254,271.7263c-.3906,0-.7851-.1132-1.1308-.3515-29.7852-20.4766-71.6738-63.1758-99.9141-121.60354-.4804-.99609-.0644-2.19141,.9297-2.67188,1.002-.47656,2.1914-.06054,2.6719,.92969,27.9004,57.72463,69.2168,99.86333,98.5781,120.04883,.9102,.627,1.1406,1.8711,.5156,2.7813-.3886,.5644-1.0136,.8671-1.6504,.8671Z" style="fill:#dfe3f7;"/><path d="M158.9168,261.1254c-34.5032-7.2968-45.5586,16.1334-54.6996,33.6722,10.7278,1.4332,47.7148,9.3648,54.6996-33.6722Z" style="fill:#dfe3f7;"/><path d="M133.5306,238.8178c-25.37-12.564-38.6462,3.4462-49.2564,15.2564,8.0536,3.2558,35.2278,16.8112,49.2564-15.2564Z" style="fill:#dfe3f7;"/><path d="M111.2546,209.5296c-18.6714-15.6028-32.984-4.8956-44.2268,2.8388,6.0734,4.3402,26.0536,21.1338,44.2268-2.8388Z" style="fill:#dfe3f7;"/><path d="M92.0774,179.5542c-8.443-12.5468-18.8396-8.6328-26.8888-5.9632,2.874,3.6422,11.8912,17.125,26.8888,5.9632Z" style="fill:#dfe3f7;"/><path d="M168.5594,245.4502c-14.5046-27.5312,2.7224-42.5596,15.4066-54.5436,3.8024,8.7628,19.444,38.2478-15.4066,54.5436Z" style="fill:#dfe3f7;"/><path d="M141.4046,220.6718c-16.0548-21.5116-3.3936-36.6292,5.8072-48.546,4.413,6.9542,21.7026,29.981-5.8072,48.546Z" style="fill:#dfe3f7;"/><path d="M113.853,186.691c-6.4766-17.1602,4.6946-24.6932,12.9876-30.7754,1.5836,5.3986,8.583,23.7838-12.9876,30.7754Z" style="fill:#dfe3f7;"/><path d="M96.9,162.4876c-5.5436-9.13639,.0516-14.64379,4.1502-19.01459,1.4838,2.924,7.4592,12.70419-4.1502,19.01459Z" style="fill:#dfe3f7;"/></g><g><path d="M300.1024,302.294c-32.3577-87.8734,23.9262-155.03599,131.694-178.4244,13.3486,85.141-29.69,186.9752-131.694,178.4244Z" style="fill:#4141aa;"/><path d="M300.1004,304.2947c-.4492,0-.9023-.1504-1.2753-.4609-.8497-.7051-.9668-1.9668-.2618-2.8164,9.3438-11.254,22.9493-31.7012,38.7012-55.379,25.9297-38.9707,58.1973-87.4726,84.8711-114.3339,.7832-.7813,2.0469-.7852,2.8301-.0098,.7832,.7793,.7871,2.0449,.0097,2.83007-26.4003,26.58403-58.5488,74.90433-84.3808,113.73043-15.8145,23.7715-29.4746,44.3008-38.9531,55.7168-.3965,.4766-.9668,.7227-1.5411,.7227Z" style="fill:#5555c6;"/><path d="M329.3465,263.1267c-.6406,0-1.2695-.3066-1.6562-.8769-.6211-.9141-.3828-2.1563,.5312-2.7774,8.7266-5.9257,29.1329-10.7246,45.2051-2.1953,.9766,.5196,1.3477,1.7285,.8301,2.7051s-1.7285,1.3457-2.7051,.8301c-15.1426-8.041-34.2324-2.6856-41.084,1.9687-.3437,.2344-.7343,.3457-1.1211,.3457Z" style="fill:#5555c6;"/><path d="M346.7626,236.99c-.7696,0-1.502-.4453-1.8321-1.1933-.4453-1.0118,.0137-2.1915,1.0235-2.6368,13.375-5.8965,42.4921-9.1406,62.8847-4.3808,1.0762,.25,1.7442,1.3261,1.4922,2.4023-.25,1.0742-1.334,1.7363-2.4023,1.4922-19.627-4.5801-47.5625-1.4922-60.3614,4.1465-.2617,.1152-.5371,.1699-.8046,.1699Z" style="fill:#5555c6;"/><path d="M371.9696,199.8924c-.8887,0-1.7012-.5977-1.9336-1.4981-.2774-1.0703,.3652-2.1601,1.4336-2.4375,1.6816-.4355,3.8125-1.3476,6.2812-2.4023,9.4746-4.0508,23.793-10.1719,43.0606-3.4024,1.043,.3653,1.5918,1.5078,1.2246,2.5488-.3672,1.045-1.5156,1.5918-2.5488,1.2247-17.8028-6.252-31.2578-.5-40.1641,3.3066-2.6172,1.1191-4.877,2.084-6.8496,2.5957-.168,.0449-.3379,.0645-.5039,.0645Z" style="fill:#5555c6;"/><path d="M397.4208,165.0974c-.8067,0-1.5684-.4922-1.8711-1.291-.3907-1.0332,.1289-2.1875,1.1621-2.5801,4.8965-1.8535,14.2793-4.7793,22.0683-3.5664,1.0918,.1719,1.8379,1.1934,1.668,2.2852-.1699,1.0898-1.1973,1.834-2.2852,1.668-6.8906-1.0801-15.5058,1.6406-20.0332,3.3554-.2343,.0879-.4726,.1289-.7089,.1289Z" style="fill:#5555c6;"/><path d="M397.4208,165.0974c-.795,0-1.5469-.4765-1.8594-1.2617-1.7168-4.3262-1.8789-10.3574-1.9746-13.96092-.0235-.81836-.0391-1.48633-.0742-1.9375-.086-1.10157,.7382-2.0625,1.8398-2.14844,1.1152-.07813,2.0625,.74023,2.1484,1.83984,.0391,.49805,.0586,1.23633,.084,2.13867,.0899,3.33789,.2383,8.92575,1.6953,12.59185,.4063,1.0273-.0957,2.1894-1.1211,2.5976-.2421,.0957-.4921,.1406-.7382,.1406Z" style="fill:#5555c6;"/><path d="M371.9696,199.8924c-.877,0-1.6817-.5821-1.9258-1.4688-2.5508-9.2559-5.9941-23.2637-6.457-37.9766-.0352-1.1035,.8301-2.0273,1.9355-2.0605,1.1192-.0547,2.0274,.8301,2.0606,1.9355,.4511,14.2852,3.8203,27.9805,6.3164,37.0391,.2929,1.0645-.3321,2.166-1.3965,2.459-.1777,.0488-.3574,.0723-.5332,.0723Z" style="fill:#5555c6;"/><path d="M346.7606,236.99c-.7871,0-1.5332-.4668-1.8496-1.2402-4.3399-10.5703-13.125-38.2696-13.8906-50.002-.0723-1.1035,.7636-2.0547,1.8652-2.1269,1.1465-.0567,2.0527,.7656,2.127,1.8652,.7402,11.334,9.3457,38.3809,13.5976,48.7441,.4199,1.0215-.0683,2.1915-1.0898,2.6094-.2481,.1035-.5059,.1504-.7598,.1504Z" style="fill:#5555c6;"/><path d="M329.3446,263.1267c-1.0879,0-1.9785-.8711-2-1.9629-.1406-7.4101-8.2207-26.0761-18.4258-39.0371-.6836-.8691-.5352-2.1269,.332-2.8105,.8711-.6817,2.1231-.5313,2.8106,.334,9.9199,12.5976,19.1113,32.3496,19.2832,41.4394,.0215,1.1035-.8574,2.0156-1.9629,2.0371h-.0371Z" style="fill:#5555c6;"/><path d="M315.493,283.5213c-1.0371,0-1.914-.8008-1.9922-1.8496-.7246-9.668-6.0488-18.0528-6.1015-18.1368-.5957-.9277-.3282-2.166,.5996-2.7636,.9297-.5957,2.166-.334,2.7617,.5976,.2422,.375,5.9258,9.2949,6.7285,20.0039,.082,1.0996-.7441,2.0606-1.8457,2.1426-.0508,.0039-.0996,.0059-.1504,.0059Z" style="fill:#5555c6;"/><path d="M315.493,283.5213c-.914,0-1.7383-.6289-1.9492-1.5586-.2441-1.0762,.4316-2.1485,1.5098-2.3926,11.0488-2.502,21.4629-.7852,21.8984-.7109,1.0899,.1855,1.8223,1.2167,1.6367,2.3066-.1816,1.0879-1.2148,1.8105-2.3047,1.6387-.0996-.0157-10.0937-1.6543-20.3476,.6679-.1485,.0332-.2969,.0489-.4434,.0489Z" style="fill:#5555c6;"/></g><g><path d="M195.4408,364.3904c-71.0716,0-219.8324-132.7282,0-63.0002-56.679-27.4156-105.6002-146.6032,54.3826-26.889-16.1132-35.7444-54.3826-164.1358,106.2992,20.1624-22.3268-55.9068-13.5822-97.0314,89.363,22.9018-35.4252-53.1454,24.3524-90.7602,139.2658,46.825H195.4408Z" style="fill:#6a6ae2;"/><path d="M264.4651,311.8038c0-5.4048,4.381-9.7884,9.7886-9.7884,5.4048,0,9.7881,4.3836,9.7881,9.7884s-4.3833,9.7884-9.7881,9.7884c-5.4076,0-9.7886-4.3836-9.7886-9.7884Z" style="fill:#fff;"/><path d="M339.5474,345.5302c0-3.9726,3.2218-7.1944,7.194-7.1944,3.975,0,7.1968,3.2218,7.1968,7.1944,0,3.975-3.2218,7.1966-7.1968,7.1966-3.9722,0-7.194-3.2216-7.194-7.1966Z" style="fill:#fff;"/><path d="M405.932,322.365c0-3.9726,3.2192-7.1942,7.1942-7.1942,3.9746,0,7.1938,3.2216,7.1938,7.1942,0,3.9748-3.2192,7.1968-7.1938,7.1968-3.975,0-7.1942-3.222-7.1942-7.1968Z" style="fill:#fff;"/></g></g></g></g></g></svg>