<?xml version="1.0" encoding="UTF-8"?><svg xmlns="http://www.w3.org/2000/svg" xmlns:xlink="http://www.w3.org/1999/xlink" viewBox="0 0 1541.65206 1077.6908"><defs><style>.m{fill:url(#e);}.n{fill:url(#g);}.o{fill:url(#f);}.p{fill:url(#i);}.q{fill:url(#h);}.r{fill:url(#k);}.s{fill:url(#j);}.t{fill:url(#l);}.u{fill:#f7f7fc;}.v{fill:#f3b378;}.w{fill:#f7c479;}.x{fill:#6767db;}.y{fill:#6a6ae2;}.a`{fill:#ed995a;}.aa{fill:#e9efff;}.ab{fill:#f3dad2;}.ac{fill:#fff;}.ad{fill:#f2d5cc;}.ae{fill:#edd1ca;}.af{fill:#7f7ff4;}.ag{fill:#a1acff;}.ah{fill:#bdc1e4;}.ai{fill:#d0d4f6;}.aj{fill:#d67747;}.ak{fill:#dfe3f7;}.al{fill:#1e1c6b;}.am{fill:#4141aa;}.an{fill:#5555c6;}.ao{fill:#34318f;}</style><linearGradient id="e" x1="1283.67328" y1="386.03069" x2="1367.0529" y2="386.03069" gradientTransform="translate(-84.64123 550.25869) rotate(-27.73249)" gradientUnits="userSpaceOnUse"><stop offset="0" stop-color="#ed995a"/><stop offset=".11958" stop-color="#e99356"/><stop offset=".64918" stop-color="#db7e4b"/><stop offset="1" stop-color="#d67747"/></linearGradient><linearGradient id="f" x1="1287.00365" y1="342.63007" x2="1391.90584" y2="342.63007" gradientTransform="translate(-123.2565 288.92444) rotate(-17.06532)" gradientUnits="userSpaceOnUse"><stop offset="0" stop-color="#5555c6"/><stop offset=".26724" stop-color="#4948b3"/><stop offset=".72768" stop-color="#393798"/><stop offset="1" stop-color="#34318f"/></linearGradient><linearGradient id="g" x1="1284.13536" y1="546.91467" x2="1445.38994" y2="546.91467" gradientTransform="translate(-123.2565 288.92444) rotate(-17.06532)" gradientUnits="userSpaceOnUse"><stop offset="0" stop-color="#ed995a"/><stop offset=".60775" stop-color="#dc804c"/><stop offset="1" stop-color="#d67747"/></linearGradient><linearGradient id="h" x1="829.06722" y1="595.46206" x2="965.28164" y2="595.46206" gradientTransform="translate(-123.2565 288.92444) rotate(-17.06532)" gradientUnits="userSpaceOnUse"><stop offset="0" stop-color="#7f7ff4"/><stop offset="1" stop-color="#5555c6"/></linearGradient><linearGradient id="i" x1="723.17888" y1="904.43677" x2="859.86822" y2="659.09741" gradientTransform="translate(-123.2565 288.92444) rotate(-17.06532)" gradientUnits="userSpaceOnUse"><stop offset="0" stop-color="#5555c6"/><stop offset="1" stop-color="#34318f"/></linearGradient><linearGradient id="j" x1="392.75098" y1="465.12071" x2="313.61846" y2="385.98818" gradientTransform="translate(-70.85668 158.95617) rotate(-3.81561)" gradientUnits="userSpaceOnUse"><stop offset="0" stop-color="#a3aace"/><stop offset="1" stop-color="#d0d4f6"/></linearGradient><linearGradient id="k" x1="413.02921" y1="483.73594" x2="315.26091" y2="385.96763" gradientTransform="translate(-70.85668 158.95617) rotate(-3.81561)" gradientUnits="userSpaceOnUse"><stop offset="0" stop-color="#dfe3f7"/><stop offset="1" stop-color="#f7f7fc"/></linearGradient><linearGradient id="l" x1="348.07843" y1="335.89162" x2="306.72134" y2="294.53453" gradientTransform="translate(-106.39351 255.26711) rotate(-13.99291)" gradientUnits="userSpaceOnUse"><stop offset="0" stop-color="#ed995a"/><stop offset="1" stop-color="#d67747"/></linearGradient></defs><g id="a"/><g id="b"><g id="c"><g id="d"><g><path d="M872.6424,949.4551c-.41699,2.00526-.86251,3.72712-1.35396,5.03387-2.84884,7.57609-3.83783,11.3662,.04687,15.35909,5.73116,5.89079,27.17538,30.70101,35.70853,23.91016,11.81186-9.3999-17.57707-30.22467-16.60777-42.70555-3.47717,1.86576-9.21002,3.0324-17.79367-1.59758Z" style="fill:#34318f;"/><g><g><path d="M266.33976,881.41267c52.77768,70.55714,20.05641,146.24307-70.85036,196.27813-34.905-73.19953-23.44043-176.596,70.85036-196.27813Z" style="fill:#ed995a;"/><path d="M200.77355,1064.79303c-.49194,.15101-1.04271,.11381-1.53201-.14876-.97347-.52242-1.33982-1.73594-.8174-2.70942,16.83681-31.38125,33.11688-82.35632,46.19746-123.31483,7.7749-24.34565,14.49034-45.37101,19.87821-57.99224,.43515-1.01823,1.60852-1.48879,2.62579-1.05335,1.01576,.43392,1.48691,1.6092,1.05394,2.62467-5.3151,12.44565-12.00346,33.38915-19.74802,57.63773-13.13061,41.11478-29.47151,92.28426-46.48229,123.99057-.25962,.48222-.68929,.81632-1.17569,.96564Z" style="fill:#f7c479;"/></g><path d="M272.02669,872.05319c-26.67821,65.91491,14.42127,118.24817,95.65228,138.59828,12.18436-64.29908-18.02594-142.62838-95.65228-138.59828Z" style="fill:#5555c6;"/><g><path d="M151.14482,1027.74758c-.35199,.10805-.74437,.0876-1.10041-.08711-.7441-.36406-1.05067-1.26287-.6869-2.00793,11.40024-23.24802,8.75244-36.35268,4.52414-43.25149-4.3041-7.02271-11.46203-9.60828-16.72507-9.68841-.72687-.01181-1.34132-.54235-1.45787-1.25837-1.17165-7.18753-5.9532-13.28311-13.1188-16.72241-10.22102-4.91-23.59365-3.48135-36.68503,3.90844-.72724,.40306-1.63711,.15119-2.04274-.56804-.40785-.72274-.1531-1.63653,.56871-2.04399,13.95942-7.88315,28.34255-9.338,39.45748-4.00154,7.54579,3.62281,12.91007,10.19538,14.55272,17.74294,5.90639,.44855,13.39446,3.53749,18.00845,11.06363,4.62136,7.5403,7.61259,21.66728-4.38782,46.14153-.18965,.3871-.52504,.65554-.90686,.77275Z" style="fill:#6a6ae2;"/><path d="M133.51228,1030.62704c-.51441,.15791-1.09742,.03238-1.50312-.37427-.5847-.58664-.58422-1.53682,.00255-2.12145,11.54084-11.50882,17.04706-25.04894,15.10683-37.1531-1.24407-7.75977-5.47093-13.81526-11.9028-17.05071-.28903-.14621-.52345-.38064-.66786-.67147-2.74099-5.48795-9.16171-9.93837-16.75514-11.60978-11.82504-2.60134-25.23702,1.48111-37.76647,11.49336-.64848,.5199-1.59149,.41292-2.1082-.23539-.51713-.6463-.41246-1.58965,.2347-2.10705,13.25357-10.59208,27.55833-14.88112,40.28524-12.08057,8.2562,1.81723,15.31606,6.68234,18.56475,12.7562,6.9709,3.68694,11.7263,10.59559,13.07776,19.03131,2.09462,13.0661-3.71912,27.55463-15.9499,39.7512-.17936,.17766-.39244,.30238-.61834,.37173Z" style="fill:#6a6ae2;"/><path d="M109.40955,1027.23439c-.85976,.18432-1.65273-.18932-1.8968-.99089-.24015-.79252,.20518-1.62799,.99491-1.87042l.02342-.00719c6.01774-1.84731,25.6411-17.08962,29.24373-32.52161,1.47674-6.32715-.12608-11.74168-4.76376-16.09381-.14412-.13348-.25945-.2962-.34107-.47555-1.28168-2.84075-4.65898-4.88087-9.5091-5.74562-12.1051-2.15573-32.42475,3.13799-46.23488,17.19442-.58312,.58969-1.5295,.59819-2.12174,.02003-.59092-.58066-.59858-1.53042-.01878-2.12108,14.52739-14.79149,36.03615-20.33789,48.90129-18.04559,5.7948,1.03031,9.79326,3.51313,11.58762,7.18534,5.31345,5.10288,7.13739,11.41389,5.42204,18.76432-3.80392,16.29673-24.05916,32.4889-31.28687,34.70765Z" style="fill:#6a6ae2;"/><path d="M110.76075,1012.67137c-.64318,.19744-1.36207-.05793-1.7251-.66157-.42667-.71079-.1964-1.63139,.51346-2.05768,6.37069-3.82915,19.56828-21.75102,22.64571-33.88571-14.24117-.48878-35.59749,4.01393-40.67661,7.18508-.70041,.44378-1.62711,.22364-2.0665-.47916-.43794-.70115-.2246-1.62682,.47837-2.06532,5.72368-3.57739,29.26036-8.5512,44.20765-7.54568,.42651,.02839,.81946,.23674,1.08196,.57291,.26263,.33623,.36903,.76938,.29353,1.18891-2.39412,13.25896-16.97961,33.12901-24.41933,37.59888-.10659,.06546-.21919,.11436-.33314,.14934Z" style="fill:#6a6ae2;"/><path d="M87.62733,996.48978c-.5928,.18198-1.26084-.01746-1.64882-.54597-.4912-.66848-.34735-1.60755,.32074-2.09664,18.87977-13.85763,34.02769-17.46981,47.39034-20.64838,.80615-.19234,1.61475,.30517,1.80674,1.11049,.19208,.80529-.31835,1.61169-1.11161,1.80614-13.08296,3.12127-27.92028,6.65034-46.30957,20.14914-.14026,.10227-.29094,.17708-.44782,.22523Z" style="fill:#6a6ae2;"/><path d="M88.41774,1009.91952c-.5536,.16994-1.07996,.30903-1.5804,.41569-.81008,.17305-1.60644-.34454-1.77919-1.15367-.17288-.80919,.34665-1.60604,1.15424-1.78041,10.85015-2.32152,36.68714-21.87804,43.19098-32.71083,.4282-.7117,1.3483-.93902,2.05816-.51339,.70989,.42572,.94083,1.34774,.51396,2.05694-6.63435,11.0466-31.25995,29.91053-43.55775,33.68568Z" style="fill:#6a6ae2;"/><path d="M137.6184,972.64651c-.64509,.19803-1.36454-.05916-1.7272-.66501-.42417-.70946-.19304-1.63033,.51777-2.05691,9.37143-5.60442,59.82703-54.08067,77.23862-77.83582,.49128-.66568,1.42953-.81071,2.09713-.32305,.66819,.48956,.81223,1.42802,.32305,2.09713-17.56293,23.96103-68.61187,72.9504-78.11841,78.63709-.10622,.06326-.21796,.11189-.33096,.14658Z" style="fill:#6a6ae2;"/></g><g><rect x="930.30384" y="62.16299" width="275.5286" height="46.83377" transform="translate(1969.74943 664.42727) rotate(-151.88206)" style="fill:#ed995a;"/><path d="M966.40754,32.56628c-1.68375,3.15095-5.60296,4.34036-8.75392,2.65661s-4.34036-5.60296-2.6567-8.75389c1.68375-3.15095,5.60306-4.34039,8.75398-2.65673,3.15095,1.68375,4.34038,5.60304,2.65664,8.75401Z" style="fill:#d67747;"/><path d="M964.42307,31.50584c-1.0981,2.05495-3.65409,2.83069-5.70911,1.73261-2.05493-1.09811-2.83067-3.65411-1.73259-5.70912,1.09811-2.05493,3.65418-2.83072,5.70912-1.73259,2.05493,1.09811,2.8307,3.65419,1.73259,5.7091Z" style="fill:#fff;"/><rect x="1181.44787" y="121.74402" width="4.21876" height="14.98551" transform="translate(2166.53188 801.00369) rotate(-151.88286)" style="fill:#4141aa;"/><rect x="1166.50154" y="113.75741" width="4.2188" height="14.98547" transform="translate(2142.14498 778.96178) rotate(-151.88093)" style="fill:#4141aa;"/><rect x="1151.55523" y="105.7708" width="4.21873" height="14.98547" transform="translate(2117.78954 756.87344) rotate(-151.88173)" style="fill:#4141aa;"/><rect x="1136.60886" y="97.78418" width="4.2188" height="14.98547" transform="translate(2093.41612 734.81206) rotate(-151.88093)" style="fill:#4141aa;"/><rect x="1121.66255" y="89.79757" width="4.21873" height="14.98547" transform="translate(2069.06197 712.7214) rotate(-151.88189)" style="fill:#4141aa;"/><rect x="1106.71618" y="81.81095" width="4.2188" height="14.98547" transform="translate(2044.68725 690.66233) rotate(-151.88093)" style="fill:#4141aa;"/><rect x="1091.76987" y="73.82433" width="4.21873" height="14.98547" transform="translate(2020.33435 668.56926) rotate(-151.88206)" style="fill:#4141aa;"/><rect x="1076.82349" y="65.83772" width="4.2188" height="14.98547" transform="translate(1995.95839 646.51261) rotate(-151.88093)" style="fill:#4141aa;"/><rect x="1061.87719" y="57.85111" width="4.21873" height="14.98547" transform="translate(1971.6033 624.42259) rotate(-151.88189)" style="fill:#4141aa;"/><rect x="1046.93081" y="49.86449" width="4.2188" height="14.98547" transform="translate(1947.22953 602.36289) rotate(-151.88093)" style="fill:#4141aa;"/><rect x="1031.98451" y="41.87787" width="4.21872" height="14.98548" transform="translate(1922.87396 580.27317) rotate(-151.88189)" style="fill:#4141aa;"/><rect x="1017.03813" y="33.89126" width="4.2188" height="14.98547" transform="translate(1898.50066 558.21317) rotate(-151.88093)" style="fill:#4141aa;"/><rect x="1002.09182" y="25.90465" width="4.21873" height="14.98547" transform="translate(1874.14463 536.12377) rotate(-151.88189)" style="fill:#4141aa;"/><rect x="987.14545" y="17.91803" width="4.21879" height="14.98547" transform="translate(1849.7734 514.06061) rotate(-151.88112)" style="fill:#4141aa;"/><rect x="920.29425" y="102.13399" width="275.5286" height="4.35616" transform="translate(1942.08334 694.96348) rotate(-151.88206)" style="fill:#d67747;"/></g><g><polygon points="1398.38 132.91078 1424.4368 132.36738 1415.18386 106.43373 1406.5434 106.6139 1398.38 132.91078" style="fill:#e9efff;"/><polygon points="1406.5434 106.6139 1415.18386 106.43373 1410.59336 93.56737 1406.5434 106.6139" style="fill:#5555c6;"/><path d="M1409.86507,352.11103h15.99649v24.70354h-15.99657c-1.78808,0-3.23977-1.45169-3.23977-3.23977v-18.22391c0-1.78812,1.45173-3.23986,3.23986-3.23986Z" transform="translate(1081.38975 1787.99765) rotate(-91.19475)" style="fill:#6a6ae2;"/><rect x="1413.12389" y="338.95678" width="5.71871" height="26.06245" transform="translate(1093.6176 1775.00751) rotate(-91.19561)" style="fill:#dfe3f7;"/><rect x="1413.00464" y="333.23933" width="5.7187" height="26.06243" transform="translate(1099.18134 1769.04467) rotate(-91.19438)" style="fill:#d0d4f6;"/><rect x="1412.8854" y="327.52189" width="5.71867" height="26.06243" transform="translate(1104.80034 1763.0942) rotate(-91.19536)" style="fill:#dfe3f7;"/><rect x="1412.76614" y="321.80445" width="5.71869" height="26.06243" transform="translate(1110.36965 1757.13286) rotate(-91.19435)" style="fill:#d0d4f6;"/><rect x="1412.64689" y="316.08695" width="5.71873" height="26.06249" transform="translate(1115.96477 1751.17714) rotate(-91.19438)" style="fill:#dfe3f7;"/><path d="M1411.4083,132.63911l4.03826,193.62035-13.02839,.27171-4.03817-193.62039,3.78835-5.4138c1.2571-1.7963,3.89822-1.85139,5.22913-.10905l4.01081,5.25118Z" style="fill:#a1acff;"/><path d="M1424.4368,132.36738l4.03827,193.62036-13.02849,.27172-4.03826-193.62035,3.78845-5.41383c1.2571-1.7963,3.89822-1.85139,5.22904-.10902l4.01101,5.25113Z" style="fill:#7f7ff4;"/></g><path d="M1526.42901,503.35776c-34.09306-23.22748-82.93479-57.30029-124.51659-64.1451l-11.52795,28.17305c62.27021,25.00806,120.99349,43.44059,129.15375,44.89689,4.28125,.90454,4.26634,4.61865,4.38183,6.15447,.96468,12.83544-.56749,31.89819,4.90905,32.01205,4.87754,.1015,7.91873-6.77337,10.7237-18.51437,1.46076-6.1148,2.40505-13.65406,2.00841-17.33723-.51684-4.79683-8.25696-6.44518-15.1322-11.23976Z" style="fill:#f2d5cc;"/><path d="M1397.3115,602.68668c-4.11311-8.70953-36.68478-90.1875-61.27567-119.47094l-28.86738,18.98758c36.7122,55.08722,73.79881,97.79166,81.88352,107.4193,2.07625,2.8458,2.80889,5.7371,2.59428,7.26212-1.79315,12.74612-7.98303,32.98575-2.65675,34.26418,4.74405,1.13874,9.81063-6.87149,15.05328-17.74475,2.73047-5.66292,5.26015-12.82775,5.6575-16.51082,.51742-4.79674-6.69349-8.05685-12.38878-14.20667Z" style="fill:#f2d5cc;"/><path d="M1209.76615,238.72954c-16.03058-.081-47.44776-8.44565-55.76652-14.8434-8.31873-6.39765-22.25192-62.31028-21.61614-67.50215,.6359-5.1918,1.74478-8.95428,1.74478-8.95428-1.3154-.70293-4.00395-2.13949-4.00395-2.13949-.59484-3.97003-6.32384-21.54082-9.57848-18.65473-3.25468,2.88597-9.00534,12.60355-6.16407,23.23242,1.90022,7.10844,7.01807,12.54428,7.57646,17.17626,3.87257,32.11923,7.96773,70.02554,21.87175,76.77136,18.51196,8.98139,63.86758,25.84065,72.79025,23.91574,9.16228-1.9765,8.21097-1.25998,8.19415-11.27144-.01682-10.01146-7.24059-17.69088-15.04822-17.73027Z" style="fill:#f2d5cc;"/><path d="M1247.05208,225.94307c10.6605,9.92473,68.99366,50.51263,79.44769,59.4005,18.02333-.21272,65.08272-11.64689,65.08272-11.64689,0,0,20.42812,4.51366,26.46273-2.24254,6.03461-6.7562,4.30709-9.4968,3.58119-10.80069-1.72665-3.10134-19.31197,2.32813-20.52594-1.38554-.14284-2.76648-.19445-5.23983-.21666-6.30616-3.85962,4.89508-7.02889,2.9615-10.74801,6.02741-6.28019,5.17724-48.50752,9.34882-56.62224,8.23274-14.81739-10.57069-40.22552-37.05296-50.28274-47.98048-10.05715-10.92765-36.17874,6.70164-36.17874,6.70164Z" style="fill:#f2d5cc;"/><path d="M1268.38002,345.7154c-7.07142-13.45241-71.16499-94.37296-58.61388-106.98587,12.63671-12.69902,50.5002-34.51756,68.71462-23.04705,18.21438,11.47072,17.32186,32.24847,23.0519,48.06742,5.73014,15.81892,9.5431,40.6783,18.79989,55.19713-6.24806,3.28437-51.95254,26.76837-51.95254,26.76837Z" style="fill:url(#e);"/><path d="M1209.67628,160.64878c14.17424-7.45085,40.18409-.81572,50.96064,33.0281,10.77646,33.84352,37.25462,56.70904,57.26145,46.84657-1.24005,28.05526-8.07498,48.78747-34.24819,52.10025-15.75721,1.99436-36.90164-8.24091-53.89155-32.12973-13.23798-18.61339-21.08659-32.10527-31.59958-54.64793-11.61761-24.91193-.63327-38.81014,11.51723-45.19726Z" style="fill:url(#f);"/><path d="M1268.38002,345.7154c-.49353,17.30516-19.4585,87.34338,29.11239,174.93999,60.84971-9.11551,108.9808-35.15054,135.64998-86.96936-14.40091-29.58939-59.09523-93.92986-112.80983-114.73899-12.74593,6.59563-51.95254,26.76837-51.95254,26.76837Z" style="fill:url(#g);"/><path d="M1023.01619,199.53019l-148.84802,83.57661c-6.85552,3.84931-9.29254,12.52737-5.44332,19.38292l46.40132,82.63943c3.84922,6.85555,12.52728,9.29257,19.38279,5.44325l20.44647-11.48043c3.69766,8.15525,6.67391,20.68332,5.57352,30.03092,9.3574-10.65078,19.76926-25.81075,16.65558-42.51236l106.17244-59.61474c6.85552-3.84931,9.29254-12.52737,5.44322-19.38289l-46.40123-82.63946c-3.84931-6.85552-12.52728-9.29257-19.38279-5.44325Z" style="fill:#bdc1e4;"/><g><path d="M923.58357,322.45838c-1.32192,.4058-2.79112-.1473-3.49451-1.40035-.81129-1.44473-.29796-3.27349,1.14667-4.08475l106.19119-59.62624c1.46034-.82006,3.27434-.29519,4.08469,1.14679,.81126,1.44463,.29806,3.27346-1.1467,4.08466l-106.19119,59.62623c-.19158,.10788-.39034,.19233-.59014,.25367Z" style="fill:#fff;"/><path d="M959.63872,342.38796c-1.32192,.4058-2.79085-.14644-3.49425-1.39949-.8112-1.44476-.29796-3.27349,1.14667-4.08475l68.38002-38.39512c1.45717-.8171,3.27434-.29519,4.08466,1.1467,.81129,1.44473,.29796,3.27349-1.14667,4.08475l-68.37992,38.39509c-.19167,.1079-.39071,.19149-.59051,.25282Z" style="fill:#fff;"/><path d="M932.1575,337.72996c-1.32192,.4058-2.79115-.14739-3.49454-1.40045-.81117-1.44466-.29796-3.27349,1.14679-4.0847l106.19327-59.62594c1.46216-.82061,3.27437-.29508,4.08469,1.14679,.81127,1.44464,.29806,3.27347-1.14669,4.08467l-106.1933,59.62585c-.19167,.1079-.39041,.19244-.59021,.25378Z" style="fill:#fff;"/><path d="M969.41449,269.79399c-1.1396-2.02964-3.70866-2.75118-5.73836-1.61146-2.02964,1.1396-2.75135,3.70881-1.61165,5.73842,1.13963,2.02973,3.70882,2.75103,5.73852,1.6113,2.02964-1.13958,2.75112-3.70852,1.6115-5.73825Z" style="fill:#fff;"/><path d="M954.41128,278.21817c-1.1397-2.02962-3.70891-2.751-5.73864-1.61137-2.02945,1.13952-2.75106,3.70872-1.61147,5.73834,1.13972,2.02971,3.70892,2.75101,5.73836,1.61148,2.02964-1.1396,2.75137-3.70871,1.61175-5.73845Z" style="fill:#fff;"/><path d="M977.06797,265.49668c-1.13972-2.0297-.41827-4.59873,1.61146-5.73836,2.02961-1.13969,4.59892-.41833,5.73855,1.6114,1.1396,2.02964,.41795,4.59873-1.61175,5.73845-2.02964,1.1396-4.59867,.41814-5.73826-1.61149Z" style="fill:#fff;"/></g><path d="M710.52395,45.51065l173.31377,47.17135c7.98232,2.17255,12.69203,10.40479,10.5195,18.3872l-26.18923,96.22264c-2.17265,7.98234-10.40489,12.69206-18.3872,10.5195l-23.80716-6.47971c-1.6849,9.26999-1.51355,22.81792,2.00354,32.07581-12.27769-8.47303-26.78647-21.27794-27.88634-39.12036l-123.62372-33.64712c-7.98232-2.17255-12.69212-10.40476-10.51955-18.38708l26.18927-96.22276c2.17255-7.98232,10.40479-12.69203,18.38711-10.51948Z" style="fill:#6a6ae2;"/><g><path d="M844.52558,145.21333c-.52473,.16108-1.09876,.18101-1.66719,.02663l-123.64625-33.65339c-1.59834-.43479-2.5418-2.08404-2.1051-3.68299,.43611-1.60087,2.0844-2.54097,3.6825-2.10704l123.64612,33.65332c1.5984,.43488,2.54192,2.0841,2.10523,3.68306-.28011,1.03089-1.06498,1.78869-2.01531,2.08042Z" style="fill:#fff;"/><path d="M812.83285,174.78882c-.52464,.16105-1.09876,.181-1.66722,.02653l-79.6191-21.671c-1.5983-.43491-2.54183-2.08413-2.10513-3.68309,.43462-1.59926,2.08413-2.54183,3.6825-2.10704l79.61913,21.67109c1.59836,.43477,2.5418,2.08404,2.1051,3.68299-.28008,1.03099-1.06485,1.78875-2.01528,2.08051Z" style="fill:#fff;"/><path d="M839.68524,162.99583c-.52473,.16108-1.09876,.18101-1.6672,.02661l-123.64624-33.65337c-1.59837-.43478-2.5418-2.08404-2.1051-3.68299,.4364-1.59991,2.0841-2.54192,3.6825-2.10704l123.64612,33.65332c1.5984,.43488,2.54192,2.08409,2.10523,3.68306-.28011,1.03089-1.06498,1.78869-2.01531,2.08042Z" style="fill:#fff;"/><path d="M825.58794,111.33591c-.52473,.16108-1.09886,.18102-1.66722,.02653l-70.3423-19.14444c-1.5983-.43491-2.54183-2.08413-2.10513-3.68309,.43432-1.60021,2.08621-2.54153,3.6825-2.10704l70.3422,19.14447c1.59839,.43486,2.54192,2.0841,2.10523,3.68306-.28011,1.03089-1.06495,1.78878-2.01528,2.08051Z" style="fill:#fff;"/></g><path d="M538.67617,151.4796l-6.95818,64.93616,64.93605,6.95822c3.84293-35.86318-22.11468-68.05143-57.97787-71.89438Z" style="fill:#6a6ae2;"/><path d="M574.95166,227.4599c-5.38082,21.17174-25.63588,35.72196-47.98825,33.32676-24.50543-2.62581-42.24232-24.61999-39.61643-49.12555,2.39518-22.35235,20.9066-39.06467,42.7378-39.83754l.90279-8.42548c-26.46734,.33291-49.11007,20.39144-52.00067,47.36725-3.12065,29.12253,17.95813,55.26086,47.08066,58.38152,26.9758,2.89059,51.37642-14.98813,57.30963-40.78407l-8.42553-.90288Z" style="fill:#ed995a;"/><g><path d="M755.01761,527.15077c-2.56081,1.76083-4.54818,4.84891-6.10898,7.31471-1.22536,1.93583-4.01012,2.5071-6.06722,3.14664-3.45946-2.44305-6.58623-4.5946-7.95648-5.38456-2.88339-1.66201-5.98065-2.47843-1.97012,2.38507-2.60543-1.35048-4.7898-2.44158-5.88783-2.89679-3.13323-1.29891-6.34668-1.68247-1.34471,2.88828-3.21337-.86278-5.94663-1.55557-7.23348-1.78284-3.6418-.64287-7.1344-.20098,1.14603,4.10743-3.02086-.09152-5.50374-.12894-6.64656-.05595-4.08659,.26116-7.73518,1.7675,5.40009,4.46779,12.10867,2.48937,18.69968,6.05745,22.26292,8.91532,.44223-.03941,11.92652-6.44274,11.92652-6.44274-1.16473-1.69681-.24523-6.78226,3.21459-12.63111,3.25667-5.5054,1.32009-5.44409-.73477-4.03126Z" style="fill:#f2d5cc;"/><path d="M803.04373,582.2655c-8.87575,.7338-50.50593-38.45237-50.50593-38.45237-6.02514,2.60798-11.92652,6.44274-11.92652,6.44274,4.70559,12.85791,50.46859,62.98539,63.42277,62.1035,14.55095-.99066,33.61247-12.3288,45.57838-20.46255-3.63798-6.85951-12.90087-22.49545-17.69297-30.53095-10.5391,10.61783-21.78847,20.31358-28.87573,20.89962Z" style="fill:#ed995a;"/><path d="M854.34593,537.22288c-4.92342,5.31296-13.41552,15.06483-22.42647,24.143,4.7921,8.0355,14.05499,23.67144,17.69297,30.53095,6.85786-4.66156,11.39306-8.27423,11.39306-8.27423l-6.65956-46.39972Z" style="fill:#5555c6;"/></g><g><path d="M1027.44459,531.53334s-33.48409,44.05511-42.37862,43.60186c-4.47813-.22819-7.15155-3.63787-14.63821-12.75567-3.31324,6.79456-14.90873,19.5088-17.90899,26.24066,17.43217,13.45473,26.789,17.6258,34.20409,17.81802,12.97994,.33681,49.68736-56.7479,52.83906-70.07217,0,0-5.82588-2.95565-12.11733-4.8327Z" style="fill:#ed995a;"/><path d="M948.25234,537.51751c-.08945-.08353-.17488-.14067-.26372-.22052-.09369-.0929-.17202-.22743-.26963-.30961-10.87686-9.15233-27.19753-15.81279-37.35237-15.5396s-25.27545,2.82935-25.27545,2.82935c-5.92318-.0779-23.88218,2.87551-30.74514,12.94571-7.6803,11.26946,7.7079,84.40395,2.48445,119.27028,12.10942,.53584,80.86708,9.57592,80.86708,9.57592,1.74648-12.10112,5.20827-49.70552,10.64362-80.97014,.92688,.72878,3.28665,2.83355,4.17772,3.52134,3.00013-6.73192,14.59563-19.44616,17.90884-26.24082-5.54479-6.75305-15.29931-18.43815-22.17539-24.86192Z" style="fill:url(#h);"/><path d="M1039.56192,536.36604c6.39383-7.09628,10.09255-11.3978,14.54046-17.8028,2.76112-3.97615,4.78638-12.1166,5.76976-15.635-4.43819-8.28483-14.60443,2.01726-16.73242,8.28762-4.78497,5.26544-5.57652,8.28665-8.1224,7.51792-4.49102-1.35618-2.51569-12.1683-5.56272-14.21922-2.55019,2.34713-1.06627,10.42376-3.20845,15.48965-2.14214,5.06599,1.47361,8.50649,1.19842,11.52913l12.11733,4.8327Z" style="fill:#f2d5cc;"/></g><g><path d="M886.86169,513.03204c-.58305,4.03025-1.77056,11.24499-1.77056,11.24499,3.44953,3.58641,15.56962,3.84752,25.27548-2.82925-1.10177-7.33199-1.86494-22.45174-1.86494-22.45174l-21.63999,14.036Z" style="fill:#edd1ca;"/><path d="M867.19875,475.93418c.41021,7.79199,1.03637,31.2301,7.3976,38.17531,5.22307,5.7023,12.92827,4.99842,23.91071-1.99031,10.98458-6.98751,6.16367-28.85967,6.20244-35.51926,.05855-10.54832-38.10717-11.96722-37.51076-.66574Z" style="fill:#f3dad2;"/><path d="M863.49522,467.76859c-3.76946-3.064-14.82675-16.30134-4.1048-12.32306-2.92214-4.09381,1.38849-16.27254,12.09656-3.91139,10.70805,12.35958,20.48465,6.26624,20.48465,6.26624-3.58273-1.73647-8.32451-12.80538,5.14579-3.72783,13.46737,9.07856,18.31688,13.47468,15.06842,23.52153-3.23085,9.9928,1.13518,32.96206-2.45782,36.45109-1.68281,1.63628-4.36563-2.23883-4.52731-11.54283-.15385-8.80346-6.28968-3.55839-5.73206-10.92539,.487,.78735,1.21366,1.31577,2.06102,1.3701,1.6129,.10353,3.03264-1.52042,3.16699-3.62824,.13514-2.10797-1.06304-3.90047-2.67782-4.00364-.68395-.04341-1.32394,.23633-1.85596,.71817,.87312-6.58799,1.35737-12.23974-2.33153-14.00208-4.57013-2.18159-26.72807,6.64609-34.37409,1.77911-7.64192-4.86488-4.87114-7.58999,.03797-6.04177Z" style="fill:#34318f;"/></g><path d="M765.31634,925.63361c-.10825,.27777-.21377,.52667-.3132,.71421-4.323,8.15289-38.49812,13.09791-37.66395,21.3741,.8997,8.9265,13.89779,7.44179,27.8627,3.52151,19.39697-5.44522,26.15713-5.18448,26.92878-11.37039,.37399-2.99826,1.59008-8.02329,2.32007-11.05792-7.5687,1.6007-15.11974-.84347-19.1344-3.1815Z" style="fill:#34318f;"/><path d="M929.7042,836.25567c2.67559-15.9898,15.39762-100.97851,7.99345-170.18665-15.50061-2.00828-80.86727-9.57586-80.86727-9.57586-9.74817,25.06846-52.44169,100.46376-63.55065,133.45227-10.85342,32.22992-23.36208,123.88543-27.9634,135.68818,4.01467,2.33803,11.5657,4.78221,19.1344,3.1815,8.90998-37.04134,42.08183-76.77149,44.95771-118.78257,20.32433-28.29282,48.66666-65.05481,55.09965-79.92266-1.06228,34.83416,4.98689,91.1479,5.31356,98.83949-11.84251,26.40031-12.19222,96.5257-17.17927,120.50573,8.58365,4.62998,14.3165,3.46334,17.79367,1.59758,.03047-.39315,.089-.7787,.18204-1.15476,3.04648-12.31149,36.41034-97.6525,39.0861-113.64225Z" style="fill:url(#i);"/><path d="M814.91266,810.06201c-2.50357,7.59438,6.79166,7.30054-5.4045,43.54182-5.95683,17.70086-25.96794,45.99784-28.58643,75.65212,1.16891-.06834,2.34588-.19051,3.52901-.44084,8.90998-37.04134,42.08183-76.77149,44.95771-118.78257,20.32433-28.29282,48.66666-65.05481,55.09965-79.92266-20.64325,21.69502-36.3868,39.89508-47.6913,55.87919-11.30448,15.9842-19.40044,16.47862-21.90414,24.07293Z" style="fill:#34318f;"/><g><path d="M759.30223,475.09754c-.16067-3.0969-1.98097-5.68915-4.50036-6.88339,2.38231-1.44682,3.92459-4.21353,3.76382-7.31166-.22861-4.40517-3.80636-7.79886-7.99125-7.58294l-69.80424,3.62153c-4.18483,.21715-7.39224,3.96418-7.16369,8.36811,.16084,3.09873,1.97975,5.68963,4.50039,6.88348-2.38231,1.44849-3.92451,4.21445-3.76376,7.31153,.15962,3.09818,1.97968,5.68903,4.50033,6.8833-2.38349,1.44875-3.92445,4.21464-3.76481,7.3129,.22962,4.40403,3.80625,7.79953,7.99241,7.58229l69.80289-3.62081c4.18493-.21717,7.39343-3.96412,7.16489-8.36931-.16075-3.09709-1.98097-5.68915-4.50039-6.88348,2.38231-1.44682,3.92452-4.21341,3.76376-7.31154Z" style="fill:#6767db;"/><path d="M717.97256,499.47222l-34.90148,1.81046s6.50236,12.7576,8.31166,13.77934c1.81035,1.0214,2.92164,.96436,5.84226,.81281,2.92039-.1516,21.54071-1.11842,21.54071-1.11842,0,0,18.61892-.96555,21.53957-1.11702,2.91922-.1503,4.03283-.20867,5.72661-1.41253,1.69379-1.20283,6.84209-14.56498,6.84209-14.56498l-34.90141,1.81035Z" style="fill:#5555c6;"/><path d="M748.00126,470.50954c-.15496,.04757-.31746,.07706-.48446,.08543l-61.91639,3.21179c-1.10417,.05706-2.04461-.79017-2.10106-1.89243-.05695-1.10422,.80031-2.0518,1.89254-2.1011l61.91636-3.2119c1.1042-.05695,2.04464,.79027,2.101,1.89256,.04808,.93527-.55277,1.7531-1.40798,2.01564Z" style="fill:#7f7ff4;"/><path d="M748.73637,484.70398c-.15508,.04761-.31761,.077-.48461,.08537l-61.91454,3.21134c-1.10418,.05704-2.04454-.7903-2.101-1.89256-.0576-1.10599,.79899-2.0493,1.89256-2.101l61.91444-3.21131c1.10418-.05704,2.04466,.79027,2.1011,1.89254,.04799,.9353-.55286,1.75313-1.40796,2.01563Z" style="fill:#7f7ff4;"/></g><g><path d="M795.54126,350.26406c-2.4369-46.98706-42.5042-83.1031-89.49311-80.66607-46.98777,2.43766-83.10431,42.50428-80.66602,89.49322,1.09932,21.21235,9.87272,40.20503,23.48438,54.44008,.1651,.1715,.92525,.84717,1.13291,1.03908,20.45834,18.97616,30.45534,36.29235,30.77079,42.3707l34.90148-1.81046,34.90276-1.81106c-.31484-6.06818,7.89607-24.24195,26.2184-45.18945,.21506-.24605,.78613-.98371,.88762-1.11414,12.15198-15.59278,18.96569-35.45966,17.86079-56.75189Z" style="fill:#f3b378;"/><path d="M684.98985,456.7214c-2.71493-11.46204-13.50016-26.28022-29.68766-41.73904l-2.46057-2.53264c-13.59596-13.97981-21.63933-32.4133-22.6507-51.90323-2.29782-44.31022,31.88023-82.22889,76.19143-84.52828,44.30922-2.29731,82.22847,31.88088,84.52644,76.19158,1.01133,19.49078-5.08219,38.65707-17.15798,53.96912l-2.1925,2.7797c-14.49696,17.04728-23.64185,33.82036-25.20349,44.5805l-61.36497,3.18228Z" style="fill:#ed995a;"/><path d="M750.85841,286.76652c15.82494,14.76642,26.17711,35.43341,27.38461,58.70437,1.08571,20.94644-7.69606,41.66026-20.67301,58.11562l-2.35617,2.98801c-15.58061,18.32128-25.40682,36.34654-27.08519,47.91032l18.22617-.94572c1.56165-10.76014,10.70653-27.53322,25.20349-44.5805l2.1925-2.7797c12.07578-15.31206,18.1693-34.47835,17.15798-53.96912-1.46018-28.16445-17.3145-52.23052-40.05038-65.44326Z" style="fill:#d67747;"/><path d="M643.31444,317.32995c-3.25111,6.37088-2.8874,13.06551,.81229,14.95331,3.69996,1.8873,9.33273-1.74702,12.58519-8.11936,3.2499-6.37082,2.8861-13.06533-.81373-14.95255-3.6998-1.88714-9.334,1.74697-12.58375,8.1186Z" style="fill:#fff;"/></g><g><path d="M708.31151,450.40048l-3.99354,.20853-2.65175-51.1068c-.57341-11.10591-6.92071-22.06556-18.86498-32.57585-.83085-.7298-.91028-1.99353-.1802-2.82343,.72689-.8268,1.99278-.90901,2.82149-.1797,12.78409,11.24957,19.58548,23.14967,20.21751,35.37141l2.65145,51.10585Z" style="fill:#f7c479;"/><path d="M726.49764,449.45763l-3.99355,.20842-2.65176-51.10679c-.635-12.2249,4.90104-24.76599,16.44986-37.27415,.74774-.81188,2.0133-.86219,2.82575-.11261,.81049,.75029,.86156,2.01466,.11186,2.82705-10.78983,11.68582-15.96977,23.24414-15.3936,34.35223l2.65145,51.10585Z" style="fill:#f7c479;"/><path d="M734.82711,359.70805c-.39396,.12094-.83688-.01068-1.09721-.35985-.32826-.4437-.23482-1.07094,.20793-1.39891,9.7505-7.23162,12.42105-10.03933,13.13254-11.08925-2.27291,.19615-9.05216,3.06376-11.42666,4.06747l-1.31362,.55242c-.41384,.1761-.89693,.04656-1.17388-.30975-.27686-.35634-.28047-.85368-.00923-1.21488,10.169-13.52187,11.54194-17.31551,11.6665-18.31402-.06547,.01299-.13755,.03102-.21594,.05508-3.14992,.96696-14.43227,10.91512-16.40124,14.6506-.24116,.45919-.79546,.65686-1.27193,.45583-.47858-.20142-.72377-.73402-.56491-1.22821,5.3016-16.47958,5.43816-20.5801,5.19806-21.59534-.88357,.49593-4.02421,3.3898-13.40964,19.8502-.2356,.41052-.72461,.60143-1.17769,.45651-.44932-.14597-.73631-.58812-.68485-1.05947,1.82049-16.83811,1.34211-21.41797,.9427-22.65911-2.00856,2.32866-6.52189,16.34444-7.96763,24.11379-.0934,.49449-.54522,.83958-1.03481,.81518-.50044-.02619-.90472-.418-.94591-.91814-1.34912-16.70072-2.55717-21.6409-3.17133-23.09603-1.43577,3.20297-2.96891,17.59621-3.53954,27.29113-.03078,.47222-.37823,.85776-.85257,.92982-.46685,.06979-.92109-.19843-1.08396-.64279-6.92436-18.77616-9.68433-23.05501-10.6502-24.00478-.98968,3.42462,2.33688,22.32758,3.73825,25.98758,.16408,.42778,.01626,.91135-.35831,1.17551-.38126,.26213-.88274,.23929-1.22794-.0603-13.5498-11.66725-17.73287-13.95951-19.00072-14.34262,.90537,3.72148,14.3138,20.30581,16.80463,22.66303,.40055,.37967,.41723,1.01296,.03758,1.41349-.38235,.39836-1.00935,.41918-1.41409,.03881-.21629-.20537-20.0388-22.38319-17.06593-25.67704,.93287-1.02091,2.17386-2.40901,19.50412,12.30235-1.63224-7.01444-4.47627-22.60151-2.40534-25.13322,.3669-.44862,.8946-.65968,1.45329-.56361,.9907,.16589,2.98781,.5018,10.8268,21.13931,.87568-12.27504,2.49022-24.91875,5.23081-24.95614,1.26651-.01388,2.81574-.03181,4.63666,19.27717,2.02113-7.81826,5.82067-20.43916,8.86-19.98897,1.23902,.18253,3.06617,.45106,1.14703,20.4617,10.62378-18.11036,12.51123-17.28616,13.66999-16.7725,1.46643,.64391,2.42601,2.74481-2.5752,19.13124,4.6411-4.94081,12.38915-11.57402,15.27197-11.52737,.68339,.00989,1.23401,.33931,1.50928,.90346,.43801,.89423,1.32282,2.69841-9.69507,17.69461,8.50591-3.5122,11.32548-4.06414,12.1924-2.54454,.76856,1.34539,.24623,3.31793-13.99279,13.87746-.09493,.07004-.19597,.12041-.30239,.15308Z" style="fill:#fff;"/></g><path d="M1128.27688,784.93069c-.15315,.04701-.31383,.07594-.48027,.08613-1.10112,.06019-2.04528-.78589-2.10605-1.88892l-3.01236-55.0434c-.41561-7.60341-6.9431-13.4532-14.54842-13.03701-7.59231,.41837-13.4532,6.9431-13.03701,14.54842,.26086,4.74978-1.34408,9.31842-4.52033,12.86163-3.17437,3.54253-7.53861,5.63824-12.2927,5.89834-4.91248,.26991-9.44887-1.10999-12.7762-3.88252-3.61619-3.01493-5.68578-7.4873-5.98377-12.93051-.97877-17.90344,2.03081-35.58661,4.68853-51.18828,5.72747-33.63439,9.86397-57.93576-23.07842-67.97819-1.05738-.32313-1.65161-1.44002-1.33042-2.49691,.3218-1.05488,1.43938-1.64723,2.49694-1.33033,36.31024,11.07004,31.46515,39.52598,25.85471,72.47672-2.62117,15.39431-5.59234,32.84309-4.63635,50.29985,.23438,4.30434,1.80864,7.78877,4.55144,10.07471,2.54594,2.12377,6.09663,3.17486,9.99461,2.96104,3.68882-.20275,7.07181-1.82768,9.53271-4.57303,2.46222-2.74785,3.70782-6.29089,3.50486-9.97357-.53712-9.80937,7.01484-18.22628,16.81247-18.76178,9.80756-.53657,18.2234,7.00547,18.76188,16.81244l3.01286,55.04534c.05055,.9365-.55175,1.75677-1.40868,2.01983Z" style="fill:#6a6ae2;"/><g><path d="M1239.99369,880.29207c-.04454,.05154-.08461,.10704-.13001,.15749,0,0,.13648-.15173,.13001-.15749Z" style="fill:#fff;"/><path d="M1006.20617,887.05335c.26242,4.80359,4.42327,8.51735,9.24642,8.25279l218.35984-11.95304c4.82143-.26257,8.55288-4.40907,8.28864-9.21074l-4.83494-88.36267c-.26422-4.80161-4.42519-8.51543-9.24662-8.25286l-218.35984,11.95306c-4.82315,.26445-8.55279,4.40904-8.29036,9.21263l4.83686,88.36082Z" style="fill:#dfe3f7;"/><g><g><rect x="1216.14948" y="786.40254" width="11.13797" height="11.09261" transform="translate(-41.41152 67.8759) rotate(-3.12939)" style="fill:#fff;"/><rect x="1197.42043" y="787.42813" width="11.13791" height="11.0926" transform="translate(-41.61378 67.05785) rotate(-3.13873)" style="fill:#fff;"/><rect x="1178.69026" y="788.45366" width="11.13707" height="11.09173" transform="translate(-41.57933 65.834) rotate(-3.12939)" style="fill:#fff;"/><rect x="1159.96058" y="789.47911" width="11.13787" height="11.09257" transform="translate(-41.66486 64.81572) rotate(-3.12952)" style="fill:#fff;"/><rect x="1141.23177" y="790.50418" width="11.13652" height="11.09114" transform="translate(-41.74486 63.78849) rotate(-3.12922)" style="fill:#fff;"/><rect x="1122.50127" y="791.52927" width="11.13799" height="11.09264" transform="translate(-41.82853 62.76719) rotate(-3.1292)" style="fill:#fff;"/><rect x="1103.77186" y="792.55435" width="11.13741" height="11.09198" transform="translate(-42.03236 61.9339) rotate(-3.13853)" style="fill:#fff;"/><rect x="1085.04231" y="793.58025" width="11.13696" height="11.09163" transform="translate(-41.99176 60.71844) rotate(-3.12885)" style="fill:#fff;"/><rect x="1066.31259" y="794.6044" width="11.1375" height="11.09207" transform="translate(-42.19692 59.88024) rotate(-3.13823)" style="fill:#fff;"/><rect x="1047.5832" y="795.63045" width="11.13695" height="11.09163" transform="translate(-42.15047 58.66359) rotate(-3.12815)" style="fill:#fff;"/><rect x="1028.85326" y="796.65586" width="11.13744" height="11.09203" transform="translate(-42.31713 57.76278) rotate(-3.13452)" style="fill:#fff;"/><rect x="1010.12319" y="797.68048" width="11.13789" height="11.09257" transform="translate(-42.44798 56.80648) rotate(-3.13811)" style="fill:#fff;"/></g><rect x="1208.29191" y="805.29931" width="20.02334" height="11.09114" transform="translate(-42.50713 67.81771) rotate(-3.13394)" style="fill:#fff;"/><rect x="1201.65555" y="823.38598" width="27.64381" height="11.09262" transform="translate(-43.47413 67.64714) rotate(-3.13198)" style="fill:#fff;"/><rect x="1195.0612" y="842.24811" width="35.26445" height="11.09114" transform="translate(-44.53326 67.5626) rotate(-3.13377)" style="fill:#fff;"/><rect x="1211.41853" y="860.48136" width="20.0243" height="15.01754" transform="translate(-45.63436 68.08642) rotate(-3.1345)" style="fill:#fff;"/><rect x="1183.81687" y="861.99263" width="20.02324" height="15.01678" transform="translate(-45.75827 66.57939) rotate(-3.1345)" style="fill:#fff;"/><rect x="1156.21518" y="863.50301" width="20.02337" height="15.01669" transform="translate(-45.88215 65.07239) rotate(-3.1345)" style="fill:#fff;"/><rect x="1061.04438" y="868.71205" width="20.02274" height="15.0173" transform="translate(-46.30346 59.86812) rotate(-3.13408)" style="fill:#fff;"/><rect x="1014.2522" y="870.74665" width="39.27366" height="15.01817" transform="translate(-46.42946 57.78537) rotate(-3.13123)" style="fill:#fff;"/><rect x="1088.56913" y="866.10849" width="60.09621" height="15.01808" transform="translate(-46.06445 62.42786) rotate(-3.13228)" style="fill:#fff;"/><rect x="1184.32305" y="806.71084" width="16.38693" height="11.092" transform="translate(-42.5903 66.35606) rotate(-3.13144)" style="fill:#fff;"/><rect x="1177.69314" y="825.00525" width="16.38639" height="11.09253" transform="translate(-43.67525 66.14291) rotate(-3.13711)" style="fill:#fff;"/><rect x="1171.0769" y="843.56552" width="16.38722" height="11.09173" transform="translate(-44.70087 65.80867) rotate(-3.13711)" style="fill:#fff;"/><rect x="1147.10699" y="844.87717" width="16.38562" height="11.09177" transform="translate(-44.72495 64.37115) rotate(-3.13101)" style="fill:#fff;"/><rect x="1123.13593" y="846.18981" width="16.38639" height="11.09146" transform="translate(-44.83709 63.07082) rotate(-3.13135)" style="fill:#fff;"/><rect x="1099.16494" y="847.50226" width="16.38722" height="11.09163" transform="translate(-45.02407 61.87914) rotate(-3.13711)" style="fill:#fff;"/><rect x="1075.19516" y="848.81374" width="16.38541" height="11.09166" transform="translate(-45.04027 60.43925) rotate(-3.13051)" style="fill:#fff;"/><rect x="1051.22369" y="850.12624" width="16.38534" height="11.09162" transform="translate(-45.15127 59.13703) rotate(-3.13076)" style="fill:#fff;"/><rect x="1013.10191" y="851.82534" width="30.54848" height="11.09074" transform="translate(-45.33584 57.50534) rotate(-3.13402)" style="fill:#fff;"/><rect x="1153.72247" y="826.31773" width="16.38556" height="11.09171" transform="translate(-43.70591 64.71192) rotate(-3.13135)" style="fill:#fff;"/><rect x="1129.75142" y="827.63022" width="16.38703" height="11.09212" transform="translate(-43.76319 63.3274) rotate(-3.12762)" style="fill:#fff;"/><rect x="1105.78128" y="828.94176" width="16.38649" height="11.09248" transform="translate(-44.00529 62.22365) rotate(-3.13762)" style="fill:#fff;"/><rect x="1081.81064" y="830.25424" width="16.38537" height="11.09172" transform="translate(-44.01572 60.77116) rotate(-3.13042)" style="fill:#fff;"/><rect x="1057.83907" y="831.56581" width="16.38632" height="11.09255" transform="translate(-44.12428 59.46571) rotate(-3.13051)" style="fill:#fff;"/><rect x="1012.10351" y="833.47367" width="38.16804" height="11.09113" transform="translate(-44.32764 57.63065) rotate(-3.13397)" style="fill:#fff;"/><rect x="1160.3529" y="808.02274" width="16.38632" height="11.09158" transform="translate(-42.7674 65.16133) rotate(-3.13677)" style="fill:#fff;"/><rect x="1136.3819" y="809.33528" width="16.38633" height="11.09261" transform="translate(-42.87517 63.85161) rotate(-3.13677)" style="fill:#fff;"/><rect x="1112.4112" y="810.64669" width="16.38631" height="11.09264" transform="translate(-42.90491 62.42159) rotate(-3.13085)" style="fill:#fff;"/><rect x="1088.43965" y="811.9592" width="16.38722" height="11.09171" transform="translate(-43.09503 61.23893) rotate(-3.13711)" style="fill:#fff;"/><rect x="1064.47023" y="813.27175" width="16.38611" height="11.09119" transform="translate(-43.07695 59.74417) rotate(-3.12761)" style="fill:#fff;"/><rect x="1040.49928" y="814.58331" width="16.38643" height="11.09257" transform="translate(-43.23693 58.5138) rotate(-3.13157)" style="fill:#fff;"/><rect x="1011.13639" y="816.04322" width="21.78268" height="11.09124" transform="translate(-43.39448 57.11228) rotate(-3.13442)" style="fill:#fff;"/></g></g><path d="M99.05934,222.90128c-.46331-1.11129-.97687-2.18242-1.5161-3.23533l9.20622-7.20375-3.39063-5.2925-10.38611,5.34305c-1.47825-1.89417-3.09733-3.64669-4.83554-5.24988l6.1783-9.91381-4.9936-3.8146-7.93981,8.58196c-2.02121-1.26022-4.14095-2.36019-6.33241-3.27882l2.41924-11.43785-5.99989-1.8746-4.52453,10.77612c-2.32095-.49258-4.68401-.80818-7.07636-.92852l-1.63773-11.55421-6.27646,.2862-.56596,11.65861c-2.32907,.33044-4.6584,.85773-6.96347,1.57339l-5.49431-10.31072-5.80248,2.42008,3.45861,11.15966c-2.12891,1.1338-4.14198,2.41936-6.01622,3.84024l-8.68072-7.80206-4.62294,4.2595,7.05888,9.29316c-1.59763,1.78462-3.03871,3.68834-4.32084,5.68218l-10.83856-4.36666-2.89019,5.58046,9.8261,6.33054c-.88622,2.20234-1.59464,4.4819-2.12303,6.80547l-11.68328-.39416-.80321,6.23232,11.3886,2.58353c-.08214,2.36242,.02347,4.74626,.32931,7.12944l-11.10604,3.62074,1.37452,6.13338,11.59977-1.47399c.36715,1.12478,.76689,2.24332,1.2304,3.35452,.46272,1.10967,.97502,2.17775,1.51465,3.2272l-9.20762,7.20941,3.39093,5.29241,10.38678-5.34496c1.47873,1.8954,3.09769,3.6465,4.83461,5.25197l-6.17778,9.91007,4.99348,3.81455,7.93502-8.57644c2.0282,1.25569,4.14432,2.35517,6.33656,3.28071l-2.41778,11.43207,5.9997,1.87466,4.52028-10.76919c2.32131,.48901,4.68736,.8031,7.0812,.92319l1.63673,11.55609,6.27827-.29052,.56384-11.65565c2.3303-.33124,4.66031-.85695,6.96319-1.57361l5.49591,10.31011,5.8025-2.41998-3.46027-11.15926c2.13113-1.13268,4.1442-2.41826,6.01786-3.8404l8.68165,7.79968,4.62098-4.25534-7.05789-9.29503c1.59766-1.78486,3.03631-3.68593,4.32066-5.67868l10.8388,4.36334,2.88968-5.58219-9.82285-6.32673c.88401-2.20344,1.59339-4.48497,2.12008-6.80791l11.68491,.39743,.80257-6.2341-11.38935-2.58497c.0817-2.36385-.02311-4.74472-.32939-7.12934l11.10461-3.62028-1.37469-6.13322-11.59833,1.46811c-.36695-1.11971-.7662-2.23663-1.22901-3.34626Zm-33.98085,34.2869c-9.46368,3.94701-20.33515-.52513-24.28222-9.98869-3.94698-9.46359,.52513-20.33517,9.98871-24.28215,9.46368-3.94701,20.33512,.52506,24.28211,9.98864,3.94711,9.46363-.52504,20.33512-9.98859,24.28219Z" style="fill:#7f7ff4;"/><g><path d="M266.83835,295.86561c2.19816-.67479,3.54278-2.9101,3.06846-5.16028-.54028-2.57272-1.19984-5.14346-1.98669-7.7067-.78645-2.56191-1.68286-5.05982-2.67961-7.4941-.86988-2.12865-3.2371-3.22451-5.43526-2.54972l-6.56848,2.01638c-2.0192,.61985-4.18074-.27387-5.21396-2.11712-1.14925-2.05086-2.38752-4.03187-3.7125-5.94027-1.20387-1.73575-1.0647-4.06534,.37342-5.61072l4.68361-5.03369c1.56731-1.68472,1.61073-4.29593,.07575-6.0089-3.56372-3.97398-7.46769-7.59073-11.64993-10.82218-1.81694-1.40203-4.41564-1.16821-5.97943,.51365l-4.68247,5.03198c-1.43811,1.54537-3.75159,1.85439-5.56882,.77611-2.01123-1.19083-4.07859-2.28719-6.19232-3.28241-1.91079-.89946-2.95453-2.9876-2.4807-5.04556l1.53802-6.69932c.51429-2.23932-.74964-4.52034-2.9313-5.23727-5.01986-1.64907-10.20715-2.8506-15.49325-3.57147-2.27907-.30951-4.41632,1.19138-4.93167,3.4327l-1.53863,6.70275c-.47375,2.05791-2.32389,3.48031-4.43654,3.45602-2.32124-.02501-4.65628,.06009-6.99823,.261-2.10571,.17892-4.05823-1.10899-4.67846-3.12944l-2.01594-6.56704c-.67523-2.19959-2.9115-3.54256-5.16072-3.06989-2.57368,.54194-5.14426,1.20165-7.70616,1.9881-2.56324,.78686-5.06285,1.68358-7.49586,2.67859-2.12703,.87074-3.22318,3.23669-2.54795,5.43628l2.01594,6.56704c.62023,2.02044-.27336,4.18205-2.11811,5.21583-2.05121,1.14768-4.03181,2.3874-5.94074,3.71097-1.7337,1.20503-4.06334,1.06574-5.61015-.37191l-5.03279-4.68547c-1.68425-1.56609-4.29684-1.60888-6.00836-.07435-3.97259,3.56308-7.59227,7.46816-10.82225,11.64974-1.40353,1.8175-1.17003,4.41484,.51222,5.97987l5.03198,4.68247c1.54537,1.43811,1.85436,3.75181,.77754,5.56839-1.19279,2.01025-2.28768,4.07735-3.2828,6.19106-.89905,1.91213-2.98906,2.95488-5.04799,2.48302l-6.69788-1.53847c-2.23801-.5148-4.51896,.74934-5.2363,2.92933-1.65013,5.02186-2.85105,10.2057-3.57256,15.49515-.30948,2.27917,1.19138,4.41632,3.43275,4.93186l6.70266,1.53836c2.05749,.4723,3.47989,2.32253,3.45716,4.43482-.0261,2.32314,.05899,4.65816,.26001,7.00011,.17877,2.10554-1.10902,4.05813-3.12822,4.67798l-6.56838,2.01635c-2.19806,.67476-3.54297,2.91016-3.06992,5.16062,.542,2.57387,1.20314,5.14401,1.98959,7.70592,.78686,2.56324,1.68167,5.06176,2.67671,7.49488,.87115,2.12836,3.23866,3.22413,5.43672,2.54938l6.56838-2.01635c2.01921-.61985,4.18072,.27377,5.21459,2.11849,1.14715,2.04981,2.3873,4.03184,3.71193,5.93877,1.20353,1.73425,1.06467,4.06525-.37342,5.6107l-4.68502,5.03425c-1.56612,1.68415-1.60932,4.2954-.07435,6.00836,3.5646,3.9721,7.46772,7.59083,11.65127,10.82177,1.81741,1.40356,4.41428,1.16853,5.97841-.51187l4.6811-5.03135c1.43908-1.54734,3.75462-1.85543,5.57125-.77844,2.01013,1.19274,4.07576,2.28787,6.19101,3.28262,1.91063,.89961,2.95344,2.9895,2.48073,5.04566l-1.53761,6.70066c-.51477,2.23811,.74921,4.5189,2.93079,5.23596,5.02033,1.6506,10.20715,2.8506,15.49516,3.57256,2.27773,.30992,4.41626-1.19157,4.9313-3.43425l1.53748-6.70072c.47374-2.05793,2.32398-3.48033,4.43472-3.45714,2.32318,.02587,4.65781-.06055,7.00011-.26001,2.10701-.17943,4.05954,1.10849,4.67939,3.12769l2.01638,6.56848c.67432,2.19663,2.91,3.54281,5.15885,3.0689,2.57261-.54027,5.14441-1.2018,7.70766-1.98866,2.56191-.78645,5.06029-1.68135,7.49437-2.67802,2.1274-.86949,3.22413-3.23866,2.54982-5.43529l-2.01638-6.56848c-.61985-2.0192,.27374-4.18081,2.11718-5.21408,2.05087-1.14915,4.03187-2.38752,5.93886-3.71196,1.73561-1.20394,4.06515-1.06464,5.61197,.37303l5.03394,4.68344c1.68456,1.56746,4.29587,1.61085,6.00874,.07591,3.97068-3.56417,7.59083-7.46772,10.82034-11.65083,1.4036-1.81763,1.17006-4.41474-.51171-5.97856l-5.03239-4.68381c-1.54649-1.4363-1.85455-3.75175-.77757-5.56849,1.19126-2.00978,2.28789-4.07565,3.28411-6.19127,.89965-1.91083,2.98759-2.95451,5.04556-2.48068l6.69926,1.53783c2.23767,.51333,4.52046-.74958,5.23733-2.93111,1.64882-5.02135,2.8506-10.20717,3.57123-15.49474,.30948-2.27917-1.1916-4.41636-3.43416-4.93133l-6.70125-1.53891c-2.05753-.47237-3.48024-2.32401-3.45717-4.43479,.02644-2.32168-.06053-4.65771-.25945-6.99861-.17943-2.10701,1.10839-4.05951,3.12759-4.67936l6.56848-2.01638Zm-72.62951,45.33745c-17.95734,5.5125-36.98303-4.57576-42.4951-22.53167-5.51209-17.956,4.57629-36.98164,22.53362-42.49414,17.956-5.51209,36.98161,4.5762,42.4937,22.5322,5.51206,17.9559-4.57623,36.98151-22.53223,42.4936Z" style="fill:#7f7ff4;"/><path d="M164.88248,245.67051c-34.80488,10.68432-54.35848,47.56048-43.67415,82.36537,10.68432,34.80489,47.56055,54.35833,82.36543,43.67401,34.80489-10.68432,54.35839-47.56043,43.67406-82.36532-10.68432-34.80489-47.56045-54.35838-82.36534-43.67406Zm29.32636,95.53255c-17.95734,5.5125-36.98303-4.57576-42.4951-22.53167-5.51209-17.956,4.57629-36.98164,22.53362-42.49414,17.956-5.51209,36.98161,4.5762,42.4937,22.5322,5.51206,17.9559-4.57623,36.98151-22.53223,42.4936Z" style="fill:#5555c6;"/><path d="M173.13002,272.5374c-19.96679,6.12936-31.18399,27.284-25.05461,47.25088,6.12936,19.96679,27.284,31.18399,47.25079,25.05464s31.18409-27.28403,25.05473-47.25082c-6.12939-19.96688-27.28403-31.18409-47.25091-25.0547Zm18.9778,61.82178c-14.17743,4.35215-29.19823-3.61258-33.55-17.78876s3.61295-29.19708,17.79038-33.54924c14.17619-4.35177,29.197,3.61297,33.5488,17.78926s-3.61299,29.19697-17.78918,33.54875Z" style="fill:#7f7ff4;"/></g><g><polygon points="555.57465 653.66517 636.08472 589.42982 750.33042 732.62075 642.76976 818.43858 550.10653 702.29823 555.57465 653.66517" style="fill:#dfe3f7;"/><polygon points="577.15711 680.71575 550.10653 702.29823 555.57465 653.66517 577.15711 680.71575" style="fill:#f7f7fc;"/><polygon points="550.10653 702.29823 576.05253 689.87248 572.82754 684.17022 550.10653 702.29823" style="fill:#bdc1e4;"/><rect x="606.74428" y="738.52553" width="64.03198" height="4.00195" transform="translate(-322.43025 560.22962) rotate(-38.59584)" style="fill:#4141aa;"/><rect x="669.72589" y="709.47078" width="10.90031" height="4.00196" transform="translate(-296.35393 576.6227) rotate(-38.59718)" style="fill:#4141aa;"/><rect x="682.31923" y="700.57834" width="8.00928" height="4.00187" transform="translate(-288.36944 581.62041) rotate(-38.59634)" style="fill:#4141aa;"/><rect x="691.78584" y="692.4037" width="9.56302" height="4.00197" transform="translate(-281.0343 586.24302) rotate(-38.5974)" style="fill:#4141aa;"/><rect x="611.91217" y="736.82536" width="110.74939" height="4.00185" transform="translate(-315.13984 577.66235) rotate(-38.59634)" style="fill:#4141aa;"/><rect x="635.35148" y="745.08051" width="95.96287" height="4.00187" transform="translate(-316.78456 589.4756) rotate(-38.59634)" style="fill:#4141aa;"/></g><g><rect x="643.09967" y="676.56769" width="5.31345" height="5.31338" transform="translate(1574.14893 807.42105) rotate(141.41501)" style="fill:#4141aa;"/><rect x="631.56382" y="685.77163" width="5.31338" height="5.31341" transform="translate(1559.3344 831.02404) rotate(141.41561)" style="fill:#4141aa;"/><rect x="620.02793" y="694.9756" width="5.31344" height="5.31343" transform="translate(1544.52127 854.61722) rotate(141.41561)" style="fill:#4141aa;"/><path d="M629.27922,724.85921c-3.87799,1.19046-8.27015-.01917-10.95147-3.37621l-5.09734-6.38893c-1.0275-1.29038-2.4964-2.10216-4.13594-2.28528-1.64271-.18633-3.25512,.27799-4.53827,1.30936l-2.49646-3.12769c2.66033-2.12225,3.09805-6.01384,.97532-8.67612l-5.09743-6.3889c-1.69391-2.12371-2.46011-4.77949-2.15576-7.48189,.30299-2.7,1.63975-5.12077,3.7629-6.81649l4.25887-3.39751,2.49662,3.12776-4.25892,3.39742c-1.28859,1.02686-2.09968,2.49765-2.28528,4.13594-.18319,1.63965,.28058,3.25027,1.30936,4.53827l5.09789,6.39074c2.08317,2.61313,2.66953,5.94725,1.87475,8.95554,.49717-.01778,.99959,.00163,1.50353,.05939,2.70194,.3025,5.12258,1.63919,6.81708,3.7648l5.09688,6.38709c2.12465,2.66169,6.01311,3.10248,8.67603,.97536l4.26072-3.39797,2.49275,3.12883-4.26069,3.39806c-1.02406,.81689-2.16134,1.40503-3.34512,1.76843Z" style="fill:#4141aa;"/><path d="M662.44021,699.30134l-2.49278-3.12893,4.26072-3.39797c2.65842-2.12166,3.09625-6.0133,.97345-8.67544l-5.09678-6.38711c-1.6945-2.12562-2.4607-4.7814-2.15643-7.48377,.05466-.501,.14671-.99308,.27311-1.47311-.49526,.0172-.99589-.00287-1.49742-.05927-2.69993-.30312-5.12067-1.63978-6.81652-3.76299l-5.09734-6.38893c-2.12034-2.66092-6.00938-3.10362-8.67603-.97535l-4.25639,3.39873-2.49662-3.12775,4.25832-3.39932c4.38709-3.492,10.80143-2.77635,14.29896,1.60905l5.09687,6.38708c1.02742,1.29041,2.49823,2.10159,4.13594,2.28528,1.6383,.18559,3.25696-.27856,4.54009-1.30992l2.49657,3.12766c-2.66225,2.12283-3.09952,6.01628-.97546,8.67606l5.09748,6.38899c3.49752,4.38539,2.77584,10.79949-1.60715,14.29838l-4.2626,3.39865Z" style="fill:#4141aa;"/></g><g><circle cx="49.18529" cy="519.85128" r="49.18296" transform="translate(-353.18433 187.04017) rotate(-45)" style="fill:#f3b378;"/><path d="M53.92866,542.53333c-.06529,.02004-.13153,.03734-.20007,.05022-1.08414,.21533-2.13616-.48936-2.35028-1.57295l-8.32986-42.08318c-.2156-1.085,.49237-2.1533,1.57297-2.35018,1.08414-.21533,2.13607,.48939,2.35025,1.57284l8.32977,42.08322c.2013,1.01491-.40466,2.00284-1.37277,2.30002Z" style="fill:#fff;"/><path d="M45.80818,540.31282c-.15123,.04643-.3107,.07592-.47625,.08594l-21.56752,1.21881c-.65691,.03617-1.291-.25235-1.69371-.77226-.40312-.52095-.52447-1.20588-.32379-1.8334l6.57159-20.57867c.33495-1.05191,1.45847-1.63478,2.51334-1.29666,1.05211,.33594,1.6325,1.46126,1.29656,2.51337l-5.68707,17.80958,18.66551-1.05538c1.10267-.0616,2.04694,.78141,2.10979,1.88474,.05266,.9369-.54962,1.7603-1.40846,2.02394Z" style="fill:#fff;"/><path d="M69.50923,521.95132c-.37628,.11551-.79027,.12104-1.19345-.0075-1.05211-.33594-1.6325-1.46126-1.29657-2.51338l5.68796-17.80973-18.66515,1.05621c-1.10363,.0619-2.04789-.78111-2.11045-1.88349-.06239-1.10149,.7878-2.04587,1.88346-2.11056l21.56819-1.22004c.65757-.03742,1.29166,.2511,1.69469,.77207,.403,.52087,.52444,1.20579,.32376,1.83331l-6.57252,20.57906c-.2073,.6489-.71403,1.11807-1.31992,1.30406Z" style="fill:#fff;"/></g><g><path d="M1039.78766,493.83615c-.16242,.04986-.33494,.08043-.51238,.08783-1.10256,.04222-2.03286-.81836-2.07564-1.92274l-1.98924-51.917c-.04222-1.10256,.82577-2.02886,1.92286-2.07557,1.10256-.04222,2.03277,.81839,2.07557,1.92286l1.98921,51.9169c.03479,.92502-.56454,1.72806-1.41038,1.98771Z" style="fill:#5555c6;"/><path d="M1030.49106,489.64145c-.24827,.07621-.51526,.10503-.78703,.0781l-26.02911-2.62953c-.65575-.06638-1.23534-.4503-1.55334-1.02687-.31668-.57906-.32974-1.27382-.03263-1.86358l11.76142-23.36905c.49621-.98594,1.69749-1.38534,2.68638-.88596,.98593,.49621,1.38353,1.69805,.88596,2.68638l-10.45442,20.77163,23.13601,2.33675c1.10081,.11157,1.90024,1.09203,1.78996,2.19024-.0834,.82658-.65823,1.48318-1.40321,1.71187Z" style="fill:#5555c6;"/><path d="M1062.32566,472.1685c-.47617,.14617-1.00612,.1168-1.48717-.12571-.98584-.49625-1.38343-1.69808-.88596-2.68638l10.45633-20.77222-23.13792-2.33617c-1.10071-.1116-1.90024-1.09203-1.7899-2.19037,.11101-1.10262,1.10122-1.89688,2.19028-1.78987l26.03092,2.62897c.65575,.06638,1.23534,.4503,1.55334,1.02687,.31668,.57906,.32974,1.27382,.03269,1.86345l-11.76331,23.36973c-.25552,.50544-.69704,.85751-1.19931,1.0117Z" style="fill:#5555c6;"/></g><g><path d="M413.66081,677.78827c-.25788-6.93967-6.09268-12.35637-13.03235-12.09849l-287.42647,10.68241c-6.93967,.25788-12.35635,6.09276-12.09846,13.03244l.49394,13.29167,312.55728-11.61636-.49394-13.29167Z" style="fill:#6a6ae2;"/><path d="M101.59747,702.6963l6.96686,187.45278c.23673,6.37052,5.59296,11.3429,11.96348,11.10617l289.48765-10.75896c6.37049-.23682,11.34288-5.59306,11.10614-11.96357l-6.96686-187.45278-312.55728,11.61636Z" style="fill:#e9efff;"/><path d="M110.93104,690.10664c-.12404-3.33734,2.4808-6.14331,5.81814-6.26735,3.33724-.12401,6.14321,2.48083,6.26726,5.81817,.12401,3.33724-2.48084,6.14321-5.81818,6.26724-3.33724,.12402-6.14321-2.48082-6.26722-5.81807Z" style="fill:#fff;"/><path d="M132.01023,689.32321c-.12404-3.33734,2.4808-6.14331,5.81814-6.26735,3.33724-.12401,6.14321,2.48083,6.26726,5.81817,.12404,3.33734-2.48084,6.14321-5.81818,6.26724-3.33724,.12402-6.14321-2.48082-6.26722-5.81807Z" style="fill:#fff;"/><path d="M153.08943,688.53978c-.12404-3.33734,2.48083-6.14321,5.81814-6.26735,3.33724-.12401,6.14324,2.48093,6.26726,5.81817,.12404,3.33734-2.48081,6.14331-5.81815,6.26735-3.33724,.12401-6.14324-2.48093-6.26725-5.81817Z" style="fill:#fff;"/></g><g><rect x="133.29868" y="715.63023" width="11.43987" height="3.99853" transform="translate(-26.65179 5.68035) rotate(-2.1361)" style="fill:#5555c6;"/><rect x="133.80003" y="729.12111" width="11.43946" height="3.99852" transform="translate(-27.01091 5.67548) rotate(-2.12477)" style="fill:#5555c6;"/><rect x="134.30134" y="742.61089" width="11.43946" height="3.99852" transform="translate(-27.51695 5.70475) rotate(-2.12525)" style="fill:#5555c6;"/><rect x="134.80232" y="756.10273" width="11.44038" height="3.99851" transform="translate(-28.02576 5.7346) rotate(-2.12593)" style="fill:#5555c6;"/><rect x="135.30362" y="769.59246" width="11.44037" height="3.99856" transform="translate(-28.53238 5.76394) rotate(-2.12642)" style="fill:#5555c6;"/><rect x="135.80547" y="783.08319" width="11.43988" height="3.99856" transform="translate(-29.15757 5.8192) rotate(-2.13561)" style="fill:#5555c6;"/><rect x="136.30683" y="796.57406" width="11.43945" height="3.99857" transform="translate(-29.51497 5.81586) rotate(-2.12513)" style="fill:#5555c6;"/><rect x="136.80872" y="810.06478" width="11.43891" height="3.99858" transform="translate(-30.14418 5.87142) rotate(-2.13431)" style="fill:#5555c6;"/><rect x="137.30911" y="823.55567" width="11.44037" height="3.99858" transform="translate(-30.53328 5.87551) rotate(-2.12642)" style="fill:#5555c6;"/><rect x="137.81096" y="837.0464" width="11.43993" height="3.99857" transform="translate(-31.16898 5.93181) rotate(-2.13573)" style="fill:#5555c6;"/><rect x="138.31231" y="850.53713" width="11.44042" height="3.99857" transform="translate(-31.53563 5.93171) rotate(-2.12655)" style="fill:#5555c6;"/><rect x="138.81367" y="864.02711" width="11.43942" height="3.99851" transform="translate(-32.00685 5.95363) rotate(-2.12461)" style="fill:#5555c6;"/><rect x="139.31556" y="877.51875" width="11.4394" height="3.99855" transform="translate(-32.51408 5.98301) rotate(-2.1251)" style="fill:#5555c6;"/><rect x="160.1555" y="712.86584" width="106.50288" height="3.99859" transform="translate(-26.40558 8.42006) rotate(-2.12868)" style="fill:#5555c6;"/><rect x="273.08764" y="710.15584" width="26.42591" height="3.99856" transform="translate(-26.27378 11.13429) rotate(-2.13024)" style="fill:#5555c6;"/><rect x="294.87365" y="736.18282" width="36.26973" height="3.99847" transform="translate(-27.18109 12.12551) rotate(-2.12695)" style="fill:#5555c6;"/><rect x="160.62777" y="724.78889" width="190.87728" height="3.99856" transform="translate(-26.81733 10.01216) rotate(-2.12854)" style="fill:#5555c6;"/><rect x="358.95999" y="720.64824" width="17.04688" height="3.99854" transform="translate(-26.55993 14.13264) rotate(-2.12638)" style="fill:#5555c6;"/><rect x="337.82014" y="748.37222" width="21.37468" height="3.99852" transform="translate(-27.61868 13.45633) rotate(-2.1277)" style="fill:#5555c6;"/><rect x="284.6147" y="791.0553" width="11.81321" height="3.99857" transform="translate(-29.25489 11.33763) rotate(-2.12855)" style="fill:#5555c6;"/><rect x="161.15138" y="739.45057" width="127.87757" height="3.99856" transform="translate(-27.38219 8.87141) rotate(-2.12846)" style="fill:#5555c6;"/><rect x="161.63816" y="752.1573" width="170.05269" height="3.99856" transform="translate(-27.83844 9.68115) rotate(-2.1284)" style="fill:#5555c6;"/><rect x="162.16768" y="767.21432" width="85.69054" height="3.99853" transform="translate(-28.42082 8.14294) rotate(-2.12798)" style="fill:#5555c6;"/><rect x="255.12332" y="764.66205" width="37.12437" height="3.99855" transform="translate(-28.29721 10.69851) rotate(-2.12938)" style="fill:#5555c6;"/><rect x="162.63501" y="778.84622" width="185.81467" height="3.99858" transform="translate(-28.82459 10.02968) rotate(-2.12848)" style="fill:#5555c6;"/><rect x="163.16031" y="793.62798" width="116.25239" height="3.99854" transform="translate(-29.39468 8.76679) rotate(-2.12829)" style="fill:#5555c6;"/><rect x="163.65716" y="806.84799" width="130.87741" height="3.99853" transform="translate(-29.88214 9.06654) rotate(-2.12843)" style="fill:#5555c6;"/><rect x="299.30249" y="803.65959" width="31.17253" height="3.99852" transform="translate(-29.6982 12.2479) rotate(-2.12797)" style="fill:#5555c6;"/><rect x="164.17851" y="821.41699" width="72.75215" height="3.99852" transform="translate(-30.44574 8.01738) rotate(-2.12863)" style="fill:#5555c6;"/><rect x="164.68212" y="835.05005" width="65.15867" height="3.99856" transform="translate(-30.95246 7.90394) rotate(-2.12849)" style="fill:#5555c6;"/><rect x="165.16009" y="847.28374" width="132.82223" height="3.99855" transform="translate(-31.37694 9.18472) rotate(-2.12807)" style="fill:#5555c6;"/><rect x="303.61225" y="844.31403" width="15.70941" height="3.99858" transform="translate(-31.23765 12.16019) rotate(-2.12986)" style="fill:#5555c6;"/><rect x="165.64835" y="860.04295" width="172.19691" height="3.99851" transform="translate(-31.85093 9.94741) rotate(-2.12902)" style="fill:#5555c6;"/><rect x="166.1855" y="875.4615" width="68.39213" height="3.99857" transform="translate(-32.44363 8.04568) rotate(-2.12799)" style="fill:#5555c6;"/><rect x="298.62218" y="763.43886" width="15.98513" height="3.99858" transform="translate(-28.27237 11.94045) rotate(-2.13268)" style="fill:#5555c6;"/></g><g><path d="M476.36216,770.09355c-6.20353-19.87958-34.9947-61.46359-33.16915-93.91868-7.96056-36.75832-103.98259-62.78443-103.98259-62.78443,29.48809-1.28584,115.99097-4.86752,124.4129,8.17146,8.42198,13.03907,25.07513,122.96558,26.47874,144.00994-5.3223,1.75161-13.7399,4.52172-13.7399,4.52172Z" style="fill:#1e1c6b;"/><path d="M492.82058,778.51806c-1.22234-3.81078-1.71879-5.85635-2.71852-12.94623-4.00144,1.31685-9.92703,3.26705-13.7399,4.52172,1.68092,6.19267,2.84087,8.30905,3.67556,11.54812,.44458,1.72561,.78113,4.02279,1.23569,5.85998l.00552-.00179c3.43755,1.30852,15.65836,2.16667,15.30522-1.83687-2.24268-2.01947-2.54125-3.33424-3.76357-7.14492Z" style="fill:#f2d5cc;"/><path d="M486.02731,798.29383c-1.95664-.2021-4.60973,1.71823-5.15556,3.987-2.73677-.2824-3.46955-.35537-3.56403-.36737,0,0-2.88888-6.27135-.26699-13.68195,1.65339-4.66981,2.76717-3.39316,3.88251-2.02356,2.59802,2.59807,14.08976,4.54334,15.40042,.74884,2.93985,.75449,32.77907,12.75509,32.48432,15.59848-.47034,4.60697-4.08217,4.2253-6.54301,3.9718-29.08198-2.98446-25.04694-4.37585-36.23765-8.23324Z" style="fill:#1e1c6b;"/><path d="M493.6777,781.74636c-.54538-4.48429-12.88445-9.0689-13.01502-1.33538-.03011,1.77949-.41952,3.46707-1.16388,4.81924l.00531,.0013c2.59937,2.59598,28.24101,13.49847,33.19139,8.26343-2.88259-1.94564-19.49456-7.09916-19.0178-11.74858Z" style="fill:#f2d5cc;"/></g><g><path d="M424.44747,804.16569c-1.29638-4.33618,1.84012-12.59516,2.63489-19.711-4.2031,.28029-10.42751,.69549-14.43275,.96264-.73842,8.02389-1.17868,12.11816-1.36024,18.5948-.05024,1.78137-.24376,4.09074-.26037,5.98335l.00572-.0004c3.00416,2.12223,16.24957,2.83824,16.90297-1.12741-2.04649-.44974-3.36937-2.89038-3.49022-4.70198Z" style="fill:#f2d5cc;"/><path d="M452.23626,628.66845c-19.3554-16.93507-93.7152-16.56607-122.35673-15.5491l-53.47243,3.56644c.97446,14.61094-16.59261,69.40137,46.19123,65.21385,0,0,66.48363-7.45818,86.02582-11.43161-6.89571,26.24298-.3961,93.18813,1.6257,123.50106,4.00535-.26718,12.75933-.85104,16.96203-1.13131,26.41565-126.2894,32.58589-157.55356,25.02438-164.16934Z" style="fill:#34318f;"/><path d="M419.57386,821.81217c-1.96284,.12942-4.25548,2.4684-4.41241,4.79677-2.74532,.18112-3.48003,.23238-3.57489,.23651,0,0-3.90175-5.69671-2.56203-13.44271,.84512-4.88102,2.15737-3.80975,3.48718-2.64689,2.99766,2.12454,14.65278,2.11112,15.30717-1.84961,3.02496,.24968,34.45628,7.06601,34.64335,9.91861,.31045,4.62063-3.31415,4.85096-5.78263,5.01488-29.16993,1.94437-25.42598-.10528-37.10574-2.02756Z" style="fill:#1e1c6b;"/><path d="M424.33499,804.21466c-1.29088-4.32919-14.22489-6.77525-13.05409,.87019,.26932,1.75953,.1689,3.48822-.33766,4.94648l.00543,.00032c2.99863,2.12226,30.10766,8.56141,34.10783,2.56897-3.16838-1.43352-20.41009-3.72262-20.72151-8.38596Z" style="fill:#f2d5cc;"/></g><g><path d="M348.70281,614.18663l82.11356,.49333c1.56678,.00681,2.84836-1.25757,2.85796-2.82687l.01989-3.51626-87.79324-.53049-.0207,3.51975c-.00946,1.56906,1.25488,2.85055,2.82253,2.86054Z" style="fill:#bdc1e4;"/><path d="M440.65017,607.97626l29.58222-76.59862c.56707-1.46491-.16046-3.10806-1.62783-3.67291l-3.28192-1.26906-31.62842,81.90116,3.28253,1.26553c1.46239,.56471,3.10951-.1608,3.67342-1.62611Z" style="fill:#bdc1e4;"/><polygon points="423.10405 607.09717 428.39477 607.12707 428.38528 608.30449 423.09526 608.27072 423.10405 607.09717" style="fill:#7f7ff4;"/><rect x="414.42538" y="607.05783" width="5.29209" height="1.17824" transform="translate(830.61251 1217.702) rotate(-179.66778)" style="fill:#7f7ff4;"/><rect x="405.75273" y="607.00607" width="5.29338" height="1.17684" transform="translate(813.08957 1217.66582) rotate(-179.65093)" style="fill:#7f7ff4;"/><polygon points="397.08057 606.94183 402.37518 606.96906 402.36707 608.14586 397.07854 608.11697 397.08057 606.94183" style="fill:#7f7ff4;"/><rect x="388.40536" y="606.90399" width="5.29367" height="1.177" transform="translate(777.98924 1217.61435) rotate(-179.61272)" style="fill:#7f7ff4;"/><polygon points="379.73607 606.83538 385.0314 606.86565 385.02255 608.04413 379.73092 608.01127 379.73607 606.83538" style="fill:#7f7ff4;"/></g><path d="M342.59776,424.53618c20.69087,22.08386,32.02237,81.28947-6.6357,85.69521-30.33412,3.45722-10.84133-25.63058-6.9774-33.8071,3.8638-8.17659,13.6131-51.88811,13.6131-51.88811Z" style="fill:#d67747;"/><g><path d="M303.48993,488.61558c-11.89199,6.48059-19.80439,12.79238-21.6597,25.90477-1.85707,17.78221-5.42313,102.16544-5.42313,102.16544,12.08855-.80622,61.60576-3.7991,61.60576-3.7991-1.86726-8.87049-3.0255-24.43551,1.78367-36.65713,5.28273-13.42485,11.24727-21.13133,14.07547-35.28863-4.34559-16.48757-20.32141-35.15373-24.93155-50.07751-10.9159-5.4487-25.45052-2.24783-25.45052-2.24783Z" style="fill:url(#j);"/><path d="M379.06856,598.44307c4.8426,.02006,18.64779-6.14309,23.49437-6.12299,4.84266,.02026,16.6133,15.99707,13.11807,15.98265-2.10065-.00872-5.90678-3.51191-8.97838-6.3278,1.00544,2.9768,1.76486,6.29777,.63648,6.29299-1.01566-.00423-3.20302-3.39805-4.85181-6.24337-.52818,3.20134-1.48228,6.78106-2.51353,6.21287-.70446-.38387-1.03478-2.98684-1.19117-5.68599-1.99545,2.66848-4.65068,5.51753-7.91311,5.50393-5.86031-.0245-12.0422-.05008-12.0422-.05008l.24128-9.56222Z" style="fill:#f2d5cc;"/><path d="M301.8935,502.77094c-4.89671-3.057-17.54328-5.61663-20.06326,11.74942-2.42388,16.70419,17.88538,80.14504,23.33658,88.93013,3.23522,5.21354,73.66047,4.55481,73.66047,4.55481,.00199-4.39206,.24128-9.56222,.24128-9.56222-19.74716-2.44157-57.79376-10.96889-59.32754-14.43698-1.98102-4.47927-5.13335-45.4391-6.48285-54.52607-1.0963-7.38232-.55029-19.95784-11.36467-26.70908Z" style="fill:url(#k);"/></g><path d="M303.48993,488.61558l-.01443,.00172c3.90779-9.62498,2.65915-18.93307,.75397-25.22552,0,0-5.90867-15.47634-2.2252-28.73298,4.70131-16.92003,32.71099-14.20611,39.41578-8.29944,8.42388,8.41774,7.67454,17.67189,6.80178,29.96916,0,0,1.94059,12.15268,1.84589,12.91044-.13828,1.10545-3.46092,.15079-3.74414,.63691-.28322,.48643-.87032,7.3972-3.59531,9.72832-2.72374,2.33178-10.1616-1.31328-11.43576,.7505-.94812,1.53555-3.05145,7.09088-2.35135,10.50862l-.0007,.00011c-6.56342,1.63551-18.32687,2.03378-25.45052-2.24783Z" style="fill:#f2d5cc;"/><path d="M320.44846,416.71205c-18.88606,1.41307-29.79463,13.22695-29.54048,34.80474,.15825,13.43541-10.43003,22.3576-20.75909,23.67771-10.33467,1.32068-25.46023-13.28597-41.3776,7.33123-8.99492,11.65063-9.61242,22.78184-.72117,26.78673,4.25856,1.91834-5.39872,13.78641,.13317,18.99431,13.01339,12.2514,22.00274-9.03736,33.81546-12.81737,11.30876-3.61872,36.20277,2.42651,50.74659-28.61039l-.0023-.01256c3.26886-6.5711,4.57259-13.86191,3.74107-20.05695-.83152-6.19506,3.6502-11.28465,11.32618-10.6883,8.54098,.66356,16.25732-3.37615,17.93219-24.64597-.85683-7.94108-10.80916-15.84683-25.294-14.76319Z" style="fill:#ed995a;"/><path d="M327.81028,456.12121c8.14408,.63279,15.52513-3.04824,17.64694-21.82819-1.83574,4.5985-5.02176,17.53224-15.15547,16.79305-9.10863-.66442-20.05046,.00151-20.89841,12.13111-.84797,12.1296-15.57826,34.61864-42.70505,35.88959-27.11914,1.27068-25.32936,37.28419-39.87667,27.09065,.27734,.77639,.70626,1.49245,1.36166,2.10936,13.01339,12.2514,22.00274-9.03736,33.81546-12.81737,11.30876-3.61872,36.20277,2.42651,50.74659-28.61039l-.0023-.01256c3.26886-6.5711,4.57259-13.86191,3.74107-20.05695-.83152-6.19506,3.6502-11.28465,11.32618-10.6883Z" style="fill:url(#l);"/></g></g></g></g></g></svg>