<?xml version="1.0" encoding="UTF-8"?><svg xmlns="http://www.w3.org/2000/svg" xmlns:xlink="http://www.w3.org/1999/xlink" viewBox="0 0 683.30131 557.52689"><defs><style>.s{fill:url(#e);}.t{fill:url(#g);}.u{fill:url(#f);}.v{fill:url(#p);}.w{fill:url(#o);}.x{fill:url(#q);}.y{fill:url(#r);}.a`{fill:url(#i);}.aa{fill:url(#h);}.ab{fill:url(#k);}.ac{fill:url(#j);}.ad{fill:url(#m);}.ae{fill:url(#l);}.af{fill:url(#n);}.ag{fill:#f7f7fc;}.ah{fill:#f7d25c;}.ai{fill:#6a6ae2;}.aj{fill:#e9efff;}.ak{fill:#f3dad2;}.al{fill:#fff;}.am{fill:#f2d5cc;}.an{fill:#f2bd42;}.ao{fill:#ebcec3;}.ap{fill:#7f7ff4;}.aq{fill:#bdc1e4;}.ar{fill:#d0d4f6;}.as{fill:#dfe3f7;}.at{fill:#d3d8f2;}.au{fill:#c6cbe7;}.av{fill:#d6952d;}.aw{fill:#1e1c6b;}.ax{fill:#4141aa;}.ay{fill:#a3aace;}.b`{fill:#5555c6;}.ba{fill:#34318f;}</style><linearGradient id="e" x1="-201.53125" y1="360.14289" x2="-216.98471" y2="532.41938" gradientTransform="translate(-148.93118) rotate(-180) scale(1 -1)" gradientUnits="userSpaceOnUse"><stop offset="0" stop-color="#34318f"/><stop offset=".36975" stop-color="#3e3ca0"/><stop offset="1" stop-color="#5555c6"/></linearGradient><linearGradient id="f" x1="2564.89535" y1="308.15769" x2="2621.80897" y2="308.15769" gradientTransform="translate(-2526.1924)" gradientUnits="userSpaceOnUse"><stop offset="0" stop-color="#e9efff"/><stop offset=".67684" stop-color="#d9ddf9"/><stop offset="1" stop-color="#d0d4f6"/></linearGradient><linearGradient id="g" x1="-251.30547" y1="443.68094" x2="-188.03098" y2="443.68094" gradientTransform="translate(-148.93118) rotate(-180) scale(1 -1)" gradientUnits="userSpaceOnUse"><stop offset="0" stop-color="#4141aa"/><stop offset=".65622" stop-color="#4d4dbb"/><stop offset="1" stop-color="#5555c6"/></linearGradient><linearGradient id="h" x1="181.11435" y1="231.55599" x2="201.40441" y2="404.50361" gradientTransform="matrix(1, 0, 0, 1, 0, 0)" xlink:href="#e"/><linearGradient id="i" x1="167.1201" y1="231.71939" x2="138.07689" y2="407.91471" gradientTransform="matrix(1, 0, 0, 1, 0, 0)" xlink:href="#g"/><linearGradient id="j" x1="141.4235" y1="103.49306" x2="186.59093" y2="103.49306" gradientTransform="translate(241.17515 -87.17543) rotate(141.00731) scale(.99997 -.99997)" gradientUnits="userSpaceOnUse"><stop offset="0" stop-color="#4141aa"/><stop offset=".64325" stop-color="#28277e"/><stop offset="1" stop-color="#1e1c6b"/></linearGradient><linearGradient id="k" x1="840.60612" y1="280.73685" x2="884.04187" y2="280.73685" gradientTransform="translate(1468.63422) rotate(-180) scale(1 -1)" gradientUnits="userSpaceOnUse"><stop offset="0" stop-color="#e9efff"/><stop offset="1" stop-color="#dfe3f7"/></linearGradient><linearGradient id="l" x1="840.46423" y1="275.69163" x2="892.39423" y2="275.69163" gradientTransform="translate(1468.63422) rotate(-180) scale(1 -1)" gradientUnits="userSpaceOnUse"><stop offset="0" stop-color="#f7f7fc"/><stop offset="1" stop-color="#fff"/></linearGradient><linearGradient id="m" x1="940.68607" y1="399.72664" x2="868.89605" y2="302.59883" gradientTransform="translate(1468.63422) rotate(-180) scale(1 -1)" gradientUnits="userSpaceOnUse"><stop offset="0" stop-color="#6a6ae2"/><stop offset=".03993" stop-color="#6767de"/><stop offset=".42367" stop-color="#5252c1"/><stop offset=".75682" stop-color="#4545b0"/><stop offset="1" stop-color="#4141aa"/></linearGradient><linearGradient id="n" x1="500.61689" y1="347.72894" x2="587.53119" y2="347.72894" gradientTransform="matrix(1, 0, 0, 1, 0, 0)" gradientUnits="userSpaceOnUse"><stop offset="0" stop-color="#5555c6"/><stop offset=".27647" stop-color="#4948b2"/><stop offset=".72986" stop-color="#393798"/><stop offset="1" stop-color="#34318f"/></linearGradient><linearGradient id="o" x1="399.69749" y1="302.76369" x2="399.69749" y2="240.26149" gradientTransform="matrix(1, 0, 0, 1, 0, 0)" gradientUnits="userSpaceOnUse"><stop offset="0" stop-color="#d0d4f6"/><stop offset=".11753" stop-color="#d4d8f7"/><stop offset=".61688" stop-color="#e3e9fd"/><stop offset="1" stop-color="#e9efff"/></linearGradient><linearGradient id="p" x1="458.83207" x2="458.83207" xlink:href="#o"/><linearGradient id="q" x1="446.81569" y1="229.85959" x2="407.68593" y2="195.86163" gradientTransform="matrix(1, 0, 0, 1, 0, 0)" gradientUnits="userSpaceOnUse"><stop offset="0" stop-color="#34318f"/><stop offset=".64183" stop-color="#4b4ab5"/><stop offset="1" stop-color="#5555c6"/></linearGradient><linearGradient id="r" x1="473.38613" y1="381.67769" x2="372.06045" y2="296.06115" gradientTransform="matrix(1, 0, 0, 1, 0, 0)" gradientUnits="userSpaceOnUse"><stop offset="0" stop-color="#d6952d"/><stop offset=".51499" stop-color="#e6ab39"/><stop offset="1" stop-color="#f2bd42"/></linearGradient></defs><g id="a"/><g id="b"><g id="c"><g id="d"><g><path d="M683.30131,441.32559c0-7.914-97.96742-14.3305-218.80922-14.3305s-218.80829,6.4165-218.80829,14.3305c0,7.917,97.9627,14.3325,218.80829,14.3325s218.80922-6.4155,218.80922-14.3325Z" style="fill:#e9efff;"/><ellipse cx="178.44442" cy="420.53159" rx="74.29762" ry="9.9905" style="fill:#e9efff;"/><ellipse cx="74.29763" cy="547.53638" rx="74.29763" ry="9.9905" style="fill:#e9efff;"/><rect x="180.7136" y="42.8966" width="120.3605" height="87.547" style="fill:#e9efff;"/><g><path d="M224.52309,73.7935c2.1021-2.6724,4.734-4.6736,7.6223-6.0085l-4.2111-9.0903c-4.2754,1.9763-8.164,4.9569-11.27558,8.9129-5.26391,6.6923-7.31691,14.88478-6.38091,22.7201l9.9352-1.1869c-.6324-5.2927,.7544-10.8267,4.3101-15.3473Z" style="fill:#f7d25c;"/><path d="M247.74739,67.0182c2.1197,.7391,4.1597,1.8156,6.023,3.28118,9.04132,7.11162,10.6057,20.206,3.4941,29.24732-5.53878,7.0418-14.7015,9.5236-22.7573,6.92768l-3.0787,9.54682c11.9265,3.8445,25.5001,.137,33.7005-10.2886,10.5279-13.3847,8.212-32.7697-5.1727-43.2976-2.7577-2.1691-5.7722-3.7841-8.9093-4.8783l-3.2996,9.4615Z" style="fill:#d0d4f6;"/><path d="M228.01729,103.0407c-4.5207-3.5557-7.172-8.6072-7.8043-13.8999l-9.9352,1.1869c.9361,7.8354,4.8612,15.3136,11.5536,20.5775,2.9591,2.3275,6.212,4.0248,9.5971,5.116l3.0787-9.54682c-2.2874-.737-4.49048-1.861-6.4899-3.43368Z" style="fill:#6a6ae2;"/><path d="M247.74739,67.0182l3.2996-9.4615c-7.589-2.647-15.9029-2.1947-23.1127,1.138l4.2111,9.0903c4.8695-2.2507,10.47632-2.5541,15.602-.7668Z" style="fill:#7f7ff4;"/></g><polygon points="266.45671 62.5217 265.04271 61.1076 270.07389 56.0763 282.63449 56.0763 282.63449 58.0763 270.90209 58.0763 266.45671 62.5217" style="fill:#a3aace;"/><polygon points="215.33079 62.5217 210.88549 58.0763 199.15299 58.0763 199.15299 56.0763 211.71359 56.0763 216.74479 61.1076 215.33079 62.5217" style="fill:#a3aace;"/><polygon points="169.9569 16.1763 72.0138 16.1763 72.0138 72.3888 141.3235 72.3888 153.4679 84.5332 153.4679 72.3888 169.9569 72.3888 169.9569 16.1763" style="fill:#7f7ff4;"/><path d="M152.3855,46.8718h-62.8003c-.8287,0-1.5-.67142-1.5-1.5,0-.8287,.6713-1.5,1.5-1.5h62.8003c.8281,0,1.5,.6713,1.5,1.5,0,.82858-.6719,1.5-1.5,1.5Z" style="fill:#dfe3f7;"/><path d="M133.4626,56.8381h-43.8774c-.8287,0-1.5-.6714-1.5-1.5s.6713-1.5,1.5-1.5h43.8774c.82811,0,1.5,.6714,1.5,1.5s-.67189,1.5-1.5,1.5Z" style="fill:#dfe3f7;"/><path d="M119.2848,34.2109c0-.9392,.7613-1.70052,1.7005-1.70052s1.7006,.76132,1.7006,1.70052-.7614,1.70048-1.7006,1.70048-1.7005-.76128-1.7005-1.70048Z" style="fill:#fff;"/><path d="M126.2273,34.2109c0-.9392,.76141-1.70052,1.7006-1.70052,.9391,0,1.7005,.76132,1.7005,1.70052s-.7614,1.70048-1.7005,1.70048c-.93919,0-1.7006-.76128-1.7006-1.70048Z" style="fill:#fff;"/><path d="M115.7433,34.2109c0-.9392-.7613-1.70052-1.7005-1.70052s-1.7006,.76132-1.7006,1.70052,.7614,1.70048,1.7006,1.70048,1.7005-.76128,1.7005-1.70048Z" style="fill:#fff;"/><path d="M463.37699,172.8578c-.0729,.3285-.1736,.7157-.3039,1.1609l-3.0168,10.56569-3.1931,11.29551-.7387-.119,.4686-6.3401c.1354-1.8049,.26762-5.2736,.3953-10.4053,.0997-4.47511,.22332-7.1669,.37-8.0766,.1896-1.1742,.5912-2.2174,1.205-3.1302,.6137-.9117,1.5362-1.2686,2.7681-1.0698,1.2691,.205,2.0319,1.0184,2.2891,2.4397,.133,.7415,.1156,1.6332-.052,2.6745-.0552,.34129-.1196,.6767-.1916,1.0047Zm-10.6502,32.61959c-.5196-.66629-.7073-1.44449-.5639-2.33579,.1382-.85321,.5597-1.5428,1.2677-2.0706,.7063-.52761,1.5057-.7192,2.3963-.5754,.86882,.1401,1.5417,.5746,2.0189,1.3023,.4764,.729,.6478,1.5097,.5136,2.3429-.13468,.8344-.5561,1.4995-1.26368,1.9985-.70762,.4978-1.50542,.6757-2.39432,.5318-.7972-.1289-1.4554-.5265-1.9746-1.19371Z" style="fill:#bdc1e4;"/><g><path d="M554.33719,89.9383c1.9483,0,3.594-1.4777,3.769-3.4184,.2014-2.2187,.3071-4.4659,.3071-6.7368s-.1057-4.5181-.3071-6.7389c-.175-1.9406-1.8207-3.4162-3.769-3.4162h-5.8231c-1.791,0-3.3189-1.2625-3.6975-3.0111-.4204-1.9478-.9313-3.8621-1.5312-5.7356-.54368-1.7057,.1486-3.55992,1.6985-4.4532l5.0471-2.9132c1.6874-.9753,2.3732-3.0811,1.5543-4.8489-1.8978-4.1064-4.1609-8.0064-6.74558-11.6644-1.12392-1.5883-3.28692-2.0463-4.97212-1.071l-5.0438,2.9105c-1.551,.896-3.5016,.5701-4.7058-.75472-1.3331-1.46608-2.73428-2.86738-4.1994-4.19928-1.3254-1.2049-1.6513-3.1555-.7563-4.7054l2.9127-5.0447c.973-1.6869,.5173-3.8478-1.0722-4.9711-3.6568-2.5857-7.56008-4.8484-11.6638-6.7472-1.7689-.8178-3.8736-.1326-4.8489,1.5549l-2.9126,5.0459c-.896,1.5498-2.7475,2.2423-4.45378,1.6985-1.87462-.5989-3.78772-1.109-5.735-1.5307-1.75022-.3786-3.01162-1.907-3.01162-3.6985v-5.8215c0-1.94892-1.47838-3.5934-3.4169-3.7696-2.2202-.2008-4.4669-.3066-6.7389-.3066s-4.5187,.1058-6.7389,.3066c-1.9385,.1762-3.41568,1.82068-3.41568,3.7696v5.8215c0,1.7915-1.26142,3.3199-3.01292,3.6985-1.9472,.4217-3.8604,.9318-5.7349,1.5307-1.7041,.5438-3.5577-.1487-4.4526-1.6985l-2.9127-5.0459c-.9753-1.6875-3.081-2.3727-4.84888-1.5549-4.10482,1.8988-8.00812,4.1615-11.66492,6.7472-1.5895,1.1233-2.0452,3.2842-1.07208,4.9711l2.91258,5.0447c.8949,1.5499,.5691,3.5005-.7551,4.7054-1.4662,1.3319-2.8676,2.7332-4.1994,4.19928-1.2043,1.32482-3.156,1.65072-4.707,.75472l-5.0437-2.9105c-1.6853-.9753-3.8472-.5173-4.9711,1.071-2.5857,3.658-4.8477,7.558-6.7466,11.6644-.819,1.7678-.1332,3.8736,1.55432,4.8489l5.047,2.9132c1.54988,.89328,2.24228,2.7475,1.69738,4.4532-.5989,1.8735-1.1096,3.7878-1.53,5.7356-.3788,1.7486-1.9077,3.0111-3.6976,3.0111h-5.823c-1.9474,0-3.5941,1.4756-3.7701,3.4162-.2004,2.2208-.3051,4.4681-.3051,6.7389s.1047,4.5181,.3051,6.7368c.176,1.9407,1.8227,3.4184,3.7701,3.4184h5.823c1.7899,0,3.3188,1.2604,3.6976,3.0117,.4204,1.9473,.9311,3.8616,1.53,5.7351,.5449,1.7056-.1475,3.5576-1.69738,4.4537l-5.047,2.9131c-1.68752,.9748-2.37332,3.0784-1.55432,4.8484,1.8989,4.1042,4.1609,8.0065,6.7466,11.6643,1.1239,1.5884,3.2858,2.0442,4.9711,1.0711l5.0437-2.9105c1.551-.896,3.5027-.5701,4.707,.75518,1.3318,1.46512,2.7332,2.86752,4.1994,4.19832,1.3242,1.2031,1.65,3.1549,.7551,4.7048l-2.91258,5.0458c-.97312,1.6843-.51742,3.8472,1.07208,4.9712,3.6568,2.5846,7.5601,4.8467,11.66492,6.7455,1.76788,.8201,3.87358,.1343,4.84888-1.5543l2.9127-5.0448c.8949-1.551,2.7485-2.2423,4.4526-1.6986,1.8745,.5989,3.7877,1.1085,5.7349,1.5302,1.7515,.3786,3.01292,1.9075,3.01292,3.6964v5.8241c0,1.9473,1.47718,3.594,3.41568,3.7679,2.2202,.20149,4.467,.3072,6.7389,.3072s4.5187-.10571,6.7389-.3072c1.93852-.1739,3.4169-1.8206,3.4169-3.7679v-5.8241c0-1.7889,1.2614-3.3178,3.01162-3.6964,1.94728-.4217,3.86038-.9313,5.735-1.5302,1.70628-.5437,3.55778,.1476,4.45378,1.6986l2.9126,5.0448c.9753,1.6886,3.08,2.3744,4.8489,1.5543,4.10372-1.8988,8.007-4.1609,11.6638-6.7455,1.5895-1.124,2.0452-3.2869,1.0722-4.9712l-2.9127-5.0458c-.895-1.5499-.5691-3.5017,.7563-4.7048,1.46512-1.3308,2.8663-2.7332,4.1994-4.19832,1.2042-1.32528,3.1548-1.65118,4.7058-.75518l5.0438,2.9105c1.6852,.9731,3.8482,.5173,4.97212-1.0711,2.58468-3.6578,4.84778-7.5601,6.74558-11.6643,.8189-1.77,.1331-3.8736-1.5543-4.8484l-5.0471-2.9131c-1.5499-.8961-2.24218-2.7481-1.6985-4.4537,.5999-1.8735,1.1108-3.7878,1.5312-5.7351,.3786-1.7513,1.9065-3.0117,3.6975-3.0117h5.8231Zm-70.1159,18.6675c-15.9183,0-28.82258-12.9055-28.82258-28.8227,0-15.9193,12.90428-28.822,28.82258-28.822s28.8226,12.9027,28.8226,28.822c0,15.9172-12.9043,28.8227-28.8226,28.8227Z" style="fill:#7f7ff4;"/><path d="M484.22129,23.9163c-30.8535,0-55.8652,25.0134-55.8652,55.8668s25.0117,55.8642,55.8652,55.8642,55.86642-25.0101,55.86642-55.8642-25.01182-55.8668-55.86642-55.8668Zm0,84.6895c-15.9183,0-28.82258-12.9055-28.82258-28.8227,0-15.9193,12.90428-28.822,28.82258-28.822s28.8226,12.9027,28.8226,28.822c0,15.9172-12.9043,28.8227-28.8226,28.8227Z" style="fill:#6a6ae2;"/><path d="M484.22129,46.6896c-18.2761,0-33.0925,14.8169-33.0925,33.0935s14.8164,33.0915,33.0925,33.0915c18.2772,0,33.0936-14.8148,33.0936-33.0915s-14.8164-33.0935-33.0936-33.0935Zm0,61.9162c-15.9183,0-28.82258-12.9055-28.82258-28.8227,0-15.9193,12.90428-28.822,28.82258-28.822s28.8226,12.9027,28.8226,28.822c0,15.9172-12.9043,28.8227-28.8226,28.8227Z" style="fill:#7f7ff4;"/></g><g><path d="M271.55299,301.13559c1.7463,0,3.221-1.3214,3.378-3.0625,.1811-1.9862,.2746-4.002,.2746-6.0336,0-2.0377-.0935-4.0495-.2746-6.0388-.157-1.7366-1.6317-3.0595-3.378-3.0595h-5.21628c-1.60582,0-2.97182-1.12981-3.31142-2.7002-.3759-1.7433-.8363-3.4595-1.37058-5.1378-.49042-1.5283,.12978-3.1862,1.51988-3.9893l4.5205-2.6118c1.5125-.8725,2.1252-2.7569,1.3947-4.3401-1.7026-3.6791-3.73108-7.1763-6.0448-10.4523-1.0084-1.424-2.9448-1.8338-4.4542-.9607l-4.5205,2.6105c-1.3885,.7984-3.1364,.5086-4.214-.6777-1.1955-1.3116-2.4497-2.56741-3.7629-3.7606-1.1863-1.0822-1.4791-2.8277-.6761-4.21781l2.6081-4.51679c.8709-1.5139,.4634-3.4495-.9599-4.4555-3.27678-2.3161-6.774-4.3425-10.4507-6.04571-1.5848-.732-3.4715-.11929-4.344,1.39241l-2.6097,4.522c-.8029,1.3893-2.4616,2.0104-3.9875,1.52-1.6815-.5351-3.393-.9932-5.14088-1.3691-1.56671-.3388-2.69721-1.70931-2.69721-3.31531v-5.21329c0-1.747-1.3251-3.2208-3.0625-3.3786-1.9878-.1819-4.0012-.27311-6.0344-.27311-2.0374,0-4.0495,.09121-6.0388,.27311-1.7372,.1578-3.0595,1.6316-3.0595,3.3786v5.21329c0,1.606-1.1319,2.97651-2.6987,3.31531-1.7463,.3759-3.4594,.834-5.1407,1.3691-1.526,.4904-3.1848-.1307-3.9877-1.52l-2.6097-4.522c-.8725-1.5117-2.7605-2.12441-4.34379-1.39241-3.67691,1.70321-7.17551,3.72961-10.45081,6.04571-1.4233,1.006-1.8338,2.9416-.96,4.4555l2.6082,4.51679c.8031,1.39011,.5102,3.13561-.6762,4.21781-1.3145,1.19319-2.5674,2.449-3.7627,3.7606-1.0777,1.1863-2.8256,1.4761-4.2141,.6777l-4.5205-2.6105c-1.5094-.8731-3.4474-.4633-4.454,.9607-2.3154,3.276-4.3425,6.7732-6.045,10.4523-.7336,1.5832-.1192,3.4676,1.3947,4.3401l4.52041,2.6118c1.38859,.8031,2.009,2.461,1.52,3.9893-.53741,1.6783-.99481,3.3945-1.36911,5.1378-.3411,1.57039-1.71,2.7002-3.31289,2.7002h-5.21631c-1.7464,0-3.221,1.3229-3.378,3.0595-.1811,1.9893-.27469,4.0011-.27469,6.0388,0,2.0316,.09359,4.0474,.27469,6.0336,.157,1.7411,1.6316,3.0625,3.378,3.0625h5.21631c1.60289,0,2.97179,1.1297,3.31289,2.6987,.3743,1.7462,.8317,3.4579,1.36911,5.1363,.489,1.5275-.13141,3.1893-1.52,3.9914l-4.52041,2.6097c-1.5139,.8731-2.1283,2.759-1.3947,4.3461,1.7025,3.676,3.7296,7.1724,6.045,10.4491,1.0066,1.4227,2.9446,1.8309,4.454,.9608l4.5205-2.61031c1.3885-.80309,3.1364-.50949,4.2141,.67681,1.1953,1.3125,2.4482,2.56819,3.7627,3.7643,1.1864,1.0754,1.4793,2.82389,.6762,4.2134l-2.6082,4.5182c-.8738,1.5115-.4633,3.4489,.96,4.4548,3.2753,2.3154,6.7739,4.3432,10.45081,6.0458,1.58329,.7319,3.47129,.1176,4.34379-1.3948l2.6097-4.5197c.8029-1.39081,2.4617-2.0112,3.9877-1.5214,1.6813,.53659,3.3944,.9939,5.1407,1.3712,1.5668,.3389,2.6987,1.7063,2.6987,3.3123v5.21709c0,1.74551,1.3223,3.22021,3.0595,3.37641,1.9893,.1788,4.0014,.2754,6.0388,.2754,2.0332,0,4.0466-.0966,6.0344-.2754,1.7374-.1562,3.0625-1.6309,3.0625-3.37641v-5.21709c0-1.606,1.1305-2.9734,2.69721-3.3123,1.74789-.3773,3.45938-.83461,5.14088-1.3712,1.5259-.4898,3.1846,.13059,3.9875,1.5214l2.6097,4.5197c.8725,1.5124,2.7592,2.1267,4.344,1.3948,3.6767-1.7026,7.17392-3.7304,10.4507-6.0458,1.4233-1.0059,1.8308-2.9433,.9599-4.4548l-2.6081-4.5182c-.803-1.38951-.5102-3.138,.6761-4.2134,1.3132-1.19611,2.5674-2.4518,3.7629-3.7643,1.0776-1.1863,2.8255-1.4799,4.214-.67681l4.5205,2.61031c1.5094,.8701,3.4458,.4619,4.4542-.9608,2.31372-3.2767,4.3422-6.7731,6.0448-10.4491,.7305-1.5871,.1178-3.473-1.3947-4.3461l-4.5205-2.6097c-1.3901-.8021-2.0103-2.4639-1.51988-3.9914,.53428-1.6784,.99468-3.3901,1.37058-5.1363,.3396-1.569,1.7056-2.6987,3.31142-2.6987h5.21628Zm-62.8144,16.7249c-14.2617,0-25.8262-11.5622-25.8262-25.821,0-14.2648,11.5645-25.8249,25.8262-25.8249,14.2588,0,25.8204,11.5601,25.8204,25.8249,0,14.2588-11.5616,25.821-25.8204,25.821Z" style="fill:#7f7ff4;"/><path d="M208.73571,258.00979c-18.78981,0-34.02811,15.2361-34.02811,34.0274,0,18.7936,15.2383,34.0297,34.02811,34.0297,18.79578,0,34.03108-15.2361,34.03108-34.0297,0-18.7913-15.2353-34.0274-34.03108-34.0274Zm.00289,59.8507c-14.2617,0-25.8262-11.5622-25.8262-25.8233,0-14.2625,11.5645-25.8226,25.8262-25.8226,14.2588,0,25.8204,11.5601,25.8204,25.8226,0,14.2611-11.5616,25.8233-25.8204,25.8233Z" style="fill:#6a6ae2;"/><path d="M237.86449,257.58279c1.4731-1.4725,3.8564-1.4725,5.3279,0,1.47332,1.4715,1.47332,3.8579,0,5.3279-1.4715,1.4716-3.8548,1.4716-5.3279,0-1.4716-1.47-1.4716-3.8564,0-5.3279Z" style="fill:#5555c6;"/><path d="M174.2819,262.91069c-1.4717-1.47-1.4717-3.8564,0-5.3279,1.4716-1.4725,3.8564-1.4725,5.3281,0,1.4715,1.4715,1.4715,3.8579,0,5.3279-1.4717,1.4716-3.8565,1.4716-5.3281,0Z" style="fill:#5555c6;"/><path d="M179.61,326.49399c-1.4717,1.46939-3.8565,1.46939-5.3281,0-1.4717-1.4724-1.4717-3.8563,0-5.3287,1.4716-1.4708,3.8564-1.4708,5.3281,0,1.4715,1.4724,1.4715,3.8563,0,5.3287Z" style="fill:#5555c6;"/><path d="M243.19239,321.16529c1.47332,1.4724,1.47332,3.8563,0,5.3287-1.4715,1.46939-3.8548,1.46939-5.3279,0-1.4716-1.4724-1.4716-3.8563,0-5.3287,1.4731-1.4708,3.8564-1.4708,5.3279,0Z" style="fill:#5555c6;"/></g><g><path d="M162.1882,224.69819c.9647,0,1.7817-.7324,1.8691-1.69481,.0988-1.10019,.1517-2.21709,.1517-3.34309,0-1.1271-.0529-2.2406-.1517-3.3437-.0874-.9629-.9044-1.6948-1.8691-1.6948h-2.8896c-.88889,0-1.6482-.6235-1.8345-1.4942-.2083-.9657-.4627-1.91521-.7603-2.8444-.2687-.8447,.073-1.764,.84291-2.2075l2.50459-1.4447c.837-.4867,1.1769-1.5273,.7689-2.4071-.9407-2.0367-2.063-3.97151-3.34549-5.7839-.55591-.7887-1.63-1.0152-2.46621-.5328l-2.5026,1.4457c-.7671,.4436-1.7366,.2822-2.3328-.3744-.66239-.7296-1.35639-1.42211-2.0831-2.086-.6577-.59711-.8189-1.5629-.37629-2.3313l1.44749-2.5031c.481-.83771,.25451-1.908-.5327-2.46671-1.8153-1.28339-3.7506-2.40379-5.78679-3.34649-.87831-.40751-1.92181-.0658-2.40561,.7724l-1.4448,2.5016c-.4454,.7689-1.3622,1.1136-2.2089,.841-.9292-.2957-1.87769-.5482-2.8434-.7579-.8678-.1881-1.4957-.9461-1.4957-1.8331v-2.89051c0-.96569-.7344-1.78029-1.6953-1.86859-1.1001-.09841-2.2156-.1512-3.3416-.1512-1.1271,0-2.2416,.05279-3.34269,.1512-.96291,.0883-1.69531,.9029-1.69531,1.86859v2.89051c0,.887-.624,1.645-1.4938,1.8331-.9657,.2097-1.9141,.4622-2.8444,.7579-.8466,.2726-1.7653-.0721-2.2099-.841l-1.44659-2.5016c-.481-.8382-1.52451-1.17991-2.40291-.7724-2.03609,.9427-3.9723,2.0631-5.7867,3.34649-.7891,.55871-1.0137,1.629-.5308,2.46671l1.4437,2.5031c.4454,.7684,.2832,1.73419-.37429,2.3313-.72861,.66389-1.42171,1.3564-2.08321,2.086-.5961,.6566-1.5657,.818-2.3347,.3744l-2.5026-1.4457c-.8362-.4824-1.90849-.2559-2.4652,.5328-1.2826,1.81239-2.4058,3.7472-3.3475,5.7839-.4041,.8798-.0653,1.9204,.7709,2.4071l2.5046,1.4447c.7679,.4435,1.1126,1.3628,.8428,2.2075-.2975,.92919-.551,1.8787-.7602,2.8444-.1873,.8707-.9465,1.4942-1.8336,1.4942h-2.8876c-.96769,0-1.7836,.7319-1.871,1.6948-.0989,1.1031-.15069,2.2166-.15069,3.3437,0,1.126,.05179,2.2429,.15069,3.34309,.0874,.96241,.90331,1.69481,1.871,1.69481h2.8876c.8871,0,1.6463,.624,1.8336,1.49419,.2092,.96571,.4627,1.91561,.7602,2.84441,.2698,.8448-.0749,1.764-.8428,2.207l-2.5046,1.4491c-.8362,.4823-1.175,1.5263-.7709,2.4037,.9417,2.0362,2.0649,3.971,3.3475,5.7834,.55671,.792,1.629,1.0152,2.4652,.5323l2.5026-1.4414c.769-.4473,1.7386-.2832,2.3347,.37449,.6615,.72521,1.3546,1.42171,2.08321,2.08171,.65749,.5985,.81969,1.56329,.37429,2.3355l-1.4437,2.4994c-.4829,.8376-.2583,1.9112,.5308,2.4666,1.8144,1.2836,3.75061,2.40379,5.7867,3.3465,.8784,.4075,1.92191,.0658,2.40291-.7723l1.44659-2.5017c.4446-.7689,1.3633-1.11071,2.2099-.841,.9303,.2957,1.8787,.5482,2.8444,.7579,.8698,.1883,1.4938,.9461,1.4938,1.8331v2.89c0,.9662,.7324,1.7837,1.69531,1.8691,1.10109,.1018,2.21559,.15119,3.34269,.15119,1.126,0,2.2415-.04939,3.3416-.15119,.9609-.0854,1.6953-.9029,1.6953-1.8691v-2.89c0-.887,.6279-1.6448,1.4957-1.8331,.96571-.2097,1.9142-.4622,2.8434-.7579,.8467-.26971,1.7635,.0721,2.2089,.841l1.4448,2.5017c.4838,.8381,1.5273,1.1798,2.40561,.7723,2.03619-.94271,3.97149-2.0629,5.78679-3.3465,.78721-.5554,1.0137-1.629,.5327-2.4666l-1.44749-2.4994c-.44261-.77221-.28141-1.737,.37629-2.3355,.72671-.66,1.42071-1.3565,2.0831-2.08171,.5962-.65769,1.5657-.82179,2.3328-.37449l2.5026,1.4414c.83621,.4829,1.9103,.2597,2.46621-.5323,1.28249-1.8124,2.40479-3.7472,3.34549-5.7834,.408-.8774,.0681-1.9214-.7689-2.4037l-2.50459-1.4491c-.76991-.443-1.11161-1.3622-.84291-2.207,.2976-.9288,.552-1.8787,.7603-2.84441,.1863-.87019,.94561-1.49419,1.8345-1.49419h2.8896Zm-34.7818,9.2589c-7.8958,0-14.297-6.4016-14.297-14.2968,0-7.8958,6.4012-14.2974,14.297-14.2974s14.2968,6.4016,14.2968,14.2974c0,7.8952-6.4011,14.2968-14.2968,14.2968Z" style="fill:#d0d4f6;"/><path d="M127.4064,200.82079c-10.4053,0-18.8415,8.4342-18.8415,18.8395,0,10.4047,8.4362,18.8419,18.8415,18.8419,10.4042,0,18.8404-8.4372,18.8404-18.8419,0-10.4053-8.4362-18.8395-18.8404-18.8395Zm0,33.1363c-7.8958,0-14.297-6.4016-14.297-14.2968,0-7.8958,6.4012-14.2974,14.297-14.2974s14.2968,6.4016,14.2968,14.2974c0,7.8952-6.4011,14.2968-14.2968,14.2968Z" style="fill:#bdc1e4;"/><path d="M117.7956,243.41129c-.12989,0-.2617-.02591-.3892-.0796-9.53169-4.0298-15.6909-13.3218-15.6909-23.6714,0-14.1665,11.5249-25.6914,25.6909-25.6914,.55231,0,1,.4478,1,1,0,.5523-.44769,1-1,1-13.0629,0-23.6909,10.628-23.6909,23.6914,0,9.5445,5.6797,18.1128,14.47021,21.8296,.50829,.2149,.74659,.8018,.53129,1.3106-.1611,.3813-.5317,.6108-.9214,.6108Z" style="fill:#bdc1e4;"/><path d="M127.4064,245.35119c-.5522,0-1-.4477-1-1,0-.5522,.4478-1,1-1,13.0621,0,23.689-10.6279,23.689-23.6909,0-.5522,.44731-1,1-1s1,.4478,1,1c0,14.166-11.5244,25.6909-25.689,25.6909Z" style="fill:#bdc1e4;"/></g><path d="M621.52888,166.596c-.1166-1.1954-.2927-2.3673-.4987-3.5294l10.88893-4.1749-1.6842-6.0402-11.46953,2.0551c-.8552-2.2393-1.8863-4.3847-3.0746-6.4226l8.7946-7.646-3.6456-5.0999-10.0847,5.8601c-1.5587-1.7936-3.2582-3.4632-5.0793-4.9809l5.6558-10.2-5.1732-3.5444-7.4699,8.9526c-2.0693-1.1493-4.2306-2.14212-6.4769-2.9573l1.8207-11.4987-6.06958-1.5645-3.953,10.9531c-2.318-.36672-4.69382-.5458-7.10172-.5381l-2.22128-11.4419-6.24232,.60928,.03132,11.65552c-2.36232,.458-4.65852,1.0947-6.862,1.9011l-5.99462-9.9823-5.6559,2.7089,4.0113,10.9295c-2.0461,1.2342-3.97778,2.6279-5.7843,4.1541l-9.0583-7.3377-4.39018,4.476,7.51778,8.9142c-1.4899,1.8409-2.8329,3.8075-4.0171,5.8688l-11.027-3.7964-2.5906,5.7086,10.10492,5.7981c-.76992,2.229-1.36712,4.5334-1.77312,6.8958l-11.65188,.2016-.48472,6.2518,11.4942,1.9903c.0208,1.1802,.0746,2.364,.1913,3.5594,.1165,1.1938,.2923,2.3624,.4997,3.5212l-10.8919,4.18,1.68442,6.0401,11.47078-2.05661c.8553,2.24061,1.8867,4.38461,3.0731,6.42421l-8.793,7.6426,3.6455,5.0999,10.0785-5.8563c1.5667,1.7914,3.2629,3.4595,5.0827,4.984l-5.6527,10.1949,5.173,3.5443,7.4639-8.9472c2.0706,1.146,4.23522,2.1383,6.483,2.95359l-1.8222,11.50021,6.0726,1.561,3.9501-10.9509c2.3194,.3663,4.6954,.5471,7.1015,.5378l2.223,11.4418,6.2423-.6092-.033-11.6556c2.3641-.4563,4.6603-1.093,6.8636-1.9008l5.9962,9.9802,5.6528-2.7054-4.0098-10.931c2.0462-1.2345,3.9748-2.6263,5.78312-4.1508l9.05948,7.3345,4.3902-4.4777-7.5158-8.9096c1.48812-1.8426,2.8326-3.8108,4.015-5.872l11.0276,3.7999,2.59053-5.7105-10.10523-5.7997c.7699-2.2305,1.367-4.5318,1.773-6.8957l11.65043-.2016,.4845-6.2517-11.49113-1.9954c-.0221-1.1753-.0759-2.3574-.1924-3.5512Zm-41.5319,32.1122c-15.3511,1.49819-29.0101-9.7317-30.5084-25.0827s9.7317-29.01011,25.0827-30.5083c15.351-1.4983,29.0101,9.7316,30.5083,25.0826,1.4983,15.351-9.7316,29.0101-25.0826,30.5084Z" style="fill:#d0d4f6;"/><path d="M574.57129,143.1172c-15.351,1.49818-26.581,15.1573-25.0827,30.5083s15.1573,26.58089,30.5084,25.0827c15.351-1.4983,26.5809-15.1574,25.0826-30.5084-1.4982-15.351-15.1573-26.5809-30.5083-25.0826Zm4.9088,50.3121c-12.4351,1.2137-23.4987-7.8822-24.7122-20.3158-1.214-12.4384,7.882-23.5018,20.3171-24.7155,12.4369-1.2139,23.502,7.8818,24.716,20.3203,1.2135,12.4336-7.884,23.49709-20.3209,24.711Z" style="fill:#bdc1e4;"/><rect x="297.92573" y="59.34277" width="54.37647" height="1.99986" transform="translate(54.64358 250.56916) rotate(-45.6341)" style="fill:#5555c6;"/><rect x="362.12724" y="33.15479" width="1.99981" height="54.37581" transform="translate(61.28929 271.0474) rotate(-44.35275)" style="fill:#5555c6;"/><rect x="255.85539" y="78.7448" width="176.5302" height="9.2034" style="fill:#4141aa;"/><rect x="255.85539" y="87.9482" width="176.5302" height="130.7415" style="fill:#f7f7fc;"/><path d="M339.15709,42.8966c0-2.7413,2.2222-4.9635,4.9634-4.9635s4.9634,2.2222,4.9634,4.9635-2.22218,4.9634-4.9634,4.9634-4.9634-2.2222-4.9634-4.9634Z" style="fill:#1e1c6b;"/><rect x="261.18299" y="197.5699" width="11.7113" height="15.7922" style="fill:#e9efff;"/><rect x="276.77899" y="180.4668" width="11.7114" height="32.8953" style="fill:#e9efff;"/><rect x="292.37509" y="172.8971" width="11.7113" height="40.465" style="fill:#e9efff;"/><rect x="307.97109" y="184.4476" width="11.7114" height="28.9145" style="fill:#e9efff;"/><rect x="323.56709" y="160.0428" width="11.7114" height="53.3193" style="fill:#e9efff;"/><rect x="339.16319" y="140.5802" width="11.7113" height="72.7819" style="fill:#e9efff;"/><rect x="354.75919" y="153.319" width="11.7114" height="60.0431" style="fill:#e9efff;"/><rect x="370.35529" y="139.8249" width="11.7113" height="73.5372" style="fill:#e9efff;"/><rect x="385.95129" y="128.9951" width="11.71142" height="84.367" style="fill:#e9efff;"/><rect x="401.54739" y="115.1692" width="11.71132" height="98.1929" style="fill:#e9efff;"/><rect x="417.14339" y="96.4677" width="11.7114" height="116.8944" style="fill:#e9efff;"/><g><g><path d="M363.34819,191.8476c.0001-1.4018-.7616-2.6147-1.8711-3.2128,1.1098-.5973,1.8708-1.8101,1.8708-3.2125-.00018-1.9935-1.5355-3.6098-3.4301-3.61l-31.5948,.0005c-1.894-.0003-3.4294,1.61659-3.43,3.6093,.0006,1.4025,.7616,2.6146,1.8706,3.2128-1.1092,.598-1.8698,1.8101-1.8698,3.2126-.0002,1.4018,.7608,2.6145,1.8704,3.2127-1.1093,.5974-1.8707,1.8109-1.8703,3.2119-.0008,1.9942,1.5352,3.6104,3.4299,3.6107l31.5941,.0002c1.8943-.0005,3.4301-1.61661,3.4299-3.6107,.0005-1.4018-.7605-2.61391-1.8703-3.2114,1.1094-.5986,1.8707-1.8109,1.8707-3.2133Z" style="fill:#6a6ae2;"/><path d="M344.12079,201.88289l-15.797-.0001s2.6365,5.9115,3.429,6.4141c.7928,.5039,1.29692,.50449,2.6188,.5042,1.3217,.0002,9.7489-.0006,9.7489-.0006,0,0,8.4269-.0002,9.7491,0,1.3217-.0004,1.8262,.0002,2.6183-.5034,.7927-.50371,3.43-6.4141,3.43-6.4141l-15.7971-.0001Z" style="fill:#5555c6;"/><path d="M330.10809,189.63538c-.5527,0-1-.44769-1-1,0-.55219,.4473-1,1-1l28.0244-.00089c.5528,0,1,.4477,1,1,0,.5522-.4472,1-1,1l-28.0244,.00089Z" style="fill:#7f7ff4;"/><path d="M358.13249,196.0597h-28.0234c-.5528,0-1-.4477-1-1,0-.5522,.4472-1,1-1h28.0234c.5528,0,1,.4478,1,1,0,.5523-.4472,1-1,1Z" style="fill:#7f7ff4;"/></g><g><path d="M382.62971,136.3461c-.00042-21.2681-17.24142-38.509-38.50922-38.5093-21.2674-.0007-38.50878,17.2414-38.5092,38.5085,.0006,9.6009,3.5155,18.3808,9.3269,25.124,.0704,.0824,.3977,.4054,.4868,.4958,8.7912,9.0455,12.899,17.0966,12.898,19.8477l15.7972,.0001,15.7976-.0006c.0006-2.7463,4.1333-10.7578,12.8934-19.7846,.10352-.1058,.3782-.4262,.42652-.483,5.85048-6.7535,9.39188-15.56131,9.392-25.1986Z" style="fill:#f7d25c;"/><path d="M329.99359,181.8125c-.9738-5.3289-5.57288-12.3892-12.6374-19.8734l-1.06948-1.2211c-5.91022-6.7432-9.16412-15.3989-9.16412-24.3728,.00012-20.4011,16.5972-36.99882,36.9977-36.998,20.4018-.0003,36.9988,16.5975,36.9983,36.9989,.0009,8.9729-3.2541,17.62928-9.1637,24.3726l-1.0724,1.2239c-7.0636,7.4832-11.6612,14.9666-12.635,19.8701l-28.2539-.0002Z" style="fill:#f2bd42;"/></g><g><path d="M338.50559,179.5055l-.001-23.1323c0-4.8613-2.54788-9.8139-7.5733-14.7197-.5927-.5786-.6044-1.5283-.0253-2.12112,.58-.59228,1.5283-.60248,2.1211-.02538,5.625,5.4917,8.4775,11.1665,8.4775,16.8662l.001,23.1323h-3Z" style="fill:#f7d25c;"/><path d="M348.23599,181.006c-.8281,0-1.5-.6714-1.5-1.5v-23.1323c.001-5.6992,2.8536-11.374,8.4776-16.8672,.5918-.5776,1.5429-.5674,2.12112,.02488,.57908,.59282,.56738,1.54252-.02542,2.12162-5.0244,4.9072-7.5723,9.86038-7.5733,14.7212v23.1318c0,.8286-.6718,1.5-1.5,1.5Z" style="fill:#f7d25c;"/><path d="M354.89129,139.2487c-.1611,0-.3203-.0786-.417-.2231-.1523-.2305-.0898-.5406,.1406-.6934,4.3233-2.8716,5.6846-4.0981,6.1084-4.6025-1.1152,.1001-4.0742,1.1743-5.1298,1.5571l-.6075,.2197c-.2158,.0752-.4492-.0014-.5781-.1855-.1289-.1851-.11818-.43362,.0264-.6065,4.6855-5.6015,5.5322-7.3735,5.6689-7.9009-1.3877,.3189-6.7822,4.6001-7.7412,6.2115-.1328,.2236-.4121,.3076-.6474,.19428-.2334-.11278-.3418-.38518-.25-.62788,2.66212-7.0064,2.913-8.98,2.8584-9.5327-.4717,.2827-2.0127,1.6909-6.4375,8.5957-.128,.1992-.379,.2798-.5997,.1972-.2207-.0844-.3525-.313-.3154-.5468,1.1621-7.2203,1.11332-9.4244,.9776-10.0953-.98928,1.1807-3.2784,7.2334-4.0889,10.606-.0586,.2427-.2832,.4023-.5381,.3809-.249-.0264-.4404-.2325-.4482-.4829-.20808-7.2134-.6065-9.5909-.8506-10.3731-.7168,1.5928-1.709,7.8662-2.1807,12.1138-.0264,.2353-.2139,.4199-.4492,.4424-.25,.0239-.4551-.1236-.5254-.3492-2.57618-8.28512-3.7305-10.4443-4.1787-10.9995-.46,1.7188,.5742,10.0728,1.10352,11.7041,.07028,.2178-.01562,.4561-.21,.5777-.19142,.1211-.44532,.0971-.61132-.062-5.5898-5.3418-7.499-6.6001-8.13868-6.875,.48148,1.854,5.98148,9.4204,7.02048,10.5112,.19052,.1997,.1827,.5166-.01748,.707-.20022,.189-.51662,.1841-.70712-.01762-.0927-.09808-8.5781-10.58348-7.1015-12.05708,.4521-.4507,1.0635-1.0635,8.4785,5.9116-.5733-3.2783-1.4483-10.2158-.46188-11.3017,.18938-.2071,.45108-.293,.71578-.2354,.4834,.107,1.3525,.2993,4.3613,9.6221,.6826-5.4458,1.6865-10.9712,2.9502-10.9712l.0176,.0005c.583,.0239,1.2939,.0527,1.6729,8.5176,.4208-1.29642,.9169-2.691,1.3984-3.9112,1.7637-4.4687,2.5-4.7153,3.0459-4.6098,.6015,.12058,1.4082,.2812,.1094,9.1025,5.1347-7.7676,5.9834-7.3491,6.5048-7.08692,.5225,.26322,1.2891,.64942-1.5214,8.44972,2.2314-2.1104,5.8095-4.8232,7.0556-4.7251,.3272,.022,.583,.1938,.7022,.4722,.1787,.4194,.54,1.2627-4.6914,7.6777,3.8711-1.3628,5.09272-1.5156,5.4619-.7822,.2656,.5263,.5957,1.1811-6.65818,5.9985-.085,.0567-.18072,.0835-.27642,.0835Z" style="fill:#fff;"/></g></g><g><path d="M39.0998,354.80109c.5348,43.3478,5.8866,53.605,10.6596,93.4345-5.23669,18.6667-6.93969,69.1211-7.87469,84.3252h7.87469c7.71531-21.0811,30.5714-72.8929,28.543-177.7597H39.0998Z" style="fill:url(#e);"/><path d="M40.0512,535.43969c.7709-1.006,1.83351-2.8789,1.83351-2.8789h7.87469c-.7728,2.2252-1.2355,4.1222-.9322,5.2377-2.0476,.7852-5.0417-1.2442-8.776-2.3588Z" style="fill:#ebcec3;"/><path d="M40.0512,535.43969c3.7343,1.1146,6.7284,3.144,8.776,2.3588,1.0829,.7852,17.0483,6.5288,18.67451,7.6404,1.66169,1.13949,1.41889,2.9039-.34181,2.9039-2.5736,0-23.7719-.9321-23.7719-.9321-.431,.4656-.7775,.9321-.7775,.9321h-4.845c-1.4457-2.5055-1.0541-10.0212,2.2857-12.9031Z" style="fill:#4141aa;"/></g><path d="M77.9501,227.45349c.6508,5.0471,4.1739,19.958,1.2134,25.343-2.4259,4.4202-7.4207,5.167-15.4595,2.434-8.0436-2.7316-8.37-17.33811-9.426-21.5539-1.6694-6.6771,22.3031-16.8448,23.6721-6.2231Z" style="fill:#f2d5cc;"/><path d="M70.9221,254.95589c.4474,2.566,1.9507,7.6227,1.9507,7.6227-1.1089,1.4994-8.3298,3.9253-16.2467-.565,.5721-4.7125,.192-15.6399,.192-15.6399l14.104,8.5822Z" style="fill:#f2d5cc;"/><path d="M109.28271,316.06309c2.519-1.1538,2.40959-11.39771-3.19671-22.9952-4.8651-10.0634-14.7788-21.0508-19.4711-29.166-1.0686-1.8441-.5406-6.3147-1.4689-7.57751-7.8784-10.69759-10.9225-2.04049-10.3994,.50441,.5884,2.8444,6.2274,15.8862,8.3432,18.588,2.1148,2.7014,16.7621,44.9605,26.19291,40.6463Z" style="fill:#f2d5cc;"/><path d="M32.2975,314.73359c-.9773,15.0851,9.5536,20.1307,9.5536,20.1307l6.2955-36.6548c-5.58889-.9456-9.1255-2.516-12.42689-4.7604-1.66271,6.1322-2.89911,13.20729-3.42221,21.2845Z" style="fill:#f2d5cc;"/><path d="M35.71971,293.44909c3.30139,2.2444,6.838,3.8148,12.42689,4.7604l6.0489-35.2162c-5.3241,3.0158-13.6854,12.8094-18.47579,30.4558Z" style="fill:#d0d4f6;"/><path d="M56.6261,262.01359c-4.725,1.0239-13.31,8.7953-16.1708,28.81079-2.86359,20.01081-1.3555,63.97671-1.3555,63.97671h55.6556c1.9814-12.0842,.4474-49.36971-3.6124-68.1314-2.1811-10.0779-7.2046-19.5024-15.808-23.23531-7.4099-3.21539-18.7089-1.42079-18.7089-1.42079Z" style="fill:url(#f);"/><g><path d="M39.0998,354.80109c.5348,43.3478,29.5078,64.1801,37.6483,92.1356,0,31.7262,5.9865,78.6682,6.5203,85.6241h7.8718c4.2814-18.7301,20.7229-117.8092,3.6152-177.7597H39.0998Z" style="fill:url(#g);"/><path d="M83.2894,535.43969c-.021-1.3065-.021-2.8789-.021-2.8789h7.8718c-.2947,2.2252,.623,4.1222,.9254,5.2377-2.0476,.7852-5.0428-1.2442-8.7762-2.3588Z" style="fill:#ebcec3;"/><path d="M83.2894,535.43969c3.7334,1.1146,6.7286,3.144,8.7762,2.3588,1.0838,.7852,17.04811,6.5288,18.6753,7.6404,1.66181,1.13949,1.4169,2.9039-.3427,2.9039-2.5737,0-23.7738-.9321-23.7738-.9321-.4281,.4656-.7786,.9321-.7786,.9321h-4.844c-1.4438-2.5055-1.05409-10.0212,2.2876-12.9031Z" style="fill:#4141aa;"/></g><path d="M76.7481,297.31669c3.2851,4.4169,18.3663,20.2421,25.3732,21.2165,4.2287,.5855,8.1079-1.1769,7.6366-5.1685-.4704-3.9954-13.3984-23.6126-15.1763-27.0425-3.4386,.3475-17.8335,10.9945-17.8335,10.9945Z" style="fill:#f2d5cc;"/><path d="M94.5816,286.32219c-2.4652-4.4495-4.7806-8.7895-7.3821-12.7139-2.9942-4.5177-6.9081-8.9288-12.5105-9.0152-5.6014-.0845-12.2406,4.0204-9.3962,13.8304,1.2547,4.3208,5.5957,11.6848,11.4553,18.8932,8.1302-2.1119,14.5091-7.5616,17.8335-10.9945Z" style="fill:#e9efff;"/><path d="M56.6261,222.07859c8.3-3.73621,19.1553-11.7261,20.3438-10.6903,.2161,.1873-.311,.757-.0556,.9873,.4147,.3745,4.2372-5.3941,7.5847-3.103,3.3475,2.2905,1.3536,13.277-6.5489,18.1809-7.9006,4.9046-.49639,10.0913-4.0242,12.835-3.5299,2.7421-3.286,12.5992-9.1765,12.6874-5.8914,.0888-9.3271,3.7008-9.1514,0,.1766-3.7006-3.1727-11.0488-2.8204-17.3314,.3533-6.2825-.7536-11.4952,3.8485-13.5659Z" style="fill:#4141aa;"/><path d="M72.0184,238.30509c-.0691-1.48171,.6489-2.7186,1.6012-2.7628,.9533-.0437,1.7808,1.1218,1.847,2.6035,.06911,1.4817-.64789,2.71959-1.6003,2.7622-.9532,.0443-1.7797-1.1212-1.8479-2.6029Z" style="fill:#f2d5cc;"/><g><path d="M205.20829,232.24769c0,23.2084-.08159,127.2429-.08159,174.76169h-8.43241c-4.7365-11.78079-36.3091-152.35009-39.51159-174.76169h48.02559Z" style="fill:url(#h);"/><path d="M196.6943,410.09479v-3.08541h8.43241c.10849,2.87611,.64319,4.41781,.96569,5.61011-2.1915,.84289-5.3988-1.3324-9.3981-2.5247Z" style="fill:#ebcec3;"/><path d="M196.6943,410.09479c3.9993,1.1923,7.2066,3.36759,9.3981,2.5247,1.1626,.84289,18.2627,6.9944,20.0041,8.1828,1.7797,1.22109,1.5196,3.1123-.36578,3.1123-2.75712,0-25.46431-1.0003-25.46431-1.0003-.4609,.49909-.8333,1.0003-.8333,1.0003h-5.1897c-1.5484-2.68221-1.1288-10.7345,2.4509-13.8198Z" style="fill:#4141aa;"/></g><g><path d="M134.6904,410.09479v-3.08541h8.4324c.1085,2.87611,.6432,4.41781,.9658,5.61011-2.1926,.84289-5.39889-1.3324-9.3982-2.5247Z" style="fill:#ebcec3;"/><path d="M134.6904,410.09479c3.99931,1.1923,7.2056,3.36759,9.3982,2.5247,1.1616,.84289,18.2626,6.9944,20.004,8.1828,1.7797,1.22109,1.5187,3.1123-.3668,3.1123-2.75509,0-25.4643-1.0003-25.4643-1.0003-.4589,.49909-.8313,1.0003-.8313,1.0003h-5.19149c-1.54661-2.68221-1.12711-10.7345,2.45169-13.8198Z" style="fill:#4141aa;"/><path d="M143.0134,232.24769c-.478,8.8048-8.323,127.2429-8.323,174.76169h8.4315c4.7365-11.78079,44.7195-152.35009,47.9201-174.76169h-48.0286Z" style="fill:url(#i);"/></g><g><path d="M179.4694,128.9951c11.0436,6.84928,37.9114,40.5181,44.4651,42.812,6.4511,2.2579,28.0765-12.7504,35.1218-19.79571,2.4566,2.45711,5.5505,4.353,5.5505,4.353-3.4405,5.07921-30.5963,38.953-41.6553,37.47851-11.0589-1.4746-23.5923-14.5821-33.1767-21.9547s-10.3054-42.8931-10.3054-42.8931Z" style="fill:#c6cbe7;"/><path d="M259.05629,152.01138c4.2776-2.64708,3.3301-7.45948,6.7659-10.94418,3.4357-3.4852,3.8917-4.0353,4.4379-3.0465,.5463,.9889-3.51538,5.613-2.5353,5.5353,1.68-.1335,8.1896-10.7249,9.9013-10.2305,1.1807,.3403-3.2361,6.7822-5.6207,9.5043,3.0872-.4306,7.5329-11.2548,8.8288-9.9857,.8698,.851-3.692,9.9127-6.9627,11.7184,2.8906-.338,7.1029-9.5464,8.5698-8.8668,1.1826,.5481-3.3254,8.7175-6.2619,10.4704,2.5592-.8179,5.0456-5.1094,5.8126-4.3338,.9466,.9576-4.317,7.24108-9.5306,11.2875-4.1212,3.19859-4.9382,1.6347-7.8546,3.24459-3.2764-1.51479-5.5505-4.353-5.5505-4.353Z" style="fill:#f2d5cc;"/><path d="M266.04399,157.1612s-7.6395-5.9427-8.0821-6.4049c-1.633,1.1394-4.4466,4.2546-4.6203,4.2546,1.2527,1.30649,8.65312,8.2529,8.9613,8.2529,.6749-.7036,3.7411-6.1026,3.7411-6.1026Z" style="fill:#d3d8f2;"/></g><g><path d="M143.0134,232.24769h62.1949c-1.6204-22.4817-2.109-79.6642-12.4211-92.2446-12.2023-14.8864-20.95249-13.1695-32.9128-1.2096-16.1304,16.1295-19.332,74.7092-16.861,93.4542Z" style="fill:#dfe3f7;"/><path d="M192.6901,232.29019c-.4785-22.6636-1.0127-35.23681-1.4023-44.4175-.2168-5.1167-.3877-9.1582-.49809-13.5219-.43451-17.2339-7.624-34.8482-10.54881-39.2901l3.3399-2.2002c3.5703,5.42188,10.7617,23.7012,11.207,41.3897,.1094,4.3291,.2803,8.3554,.4971,13.4531,.3896,9.1987,.92481,21.7964,1.4052,44.502l-4,.0849Z" style="fill:#c6cbe7;"/></g><g><path d="M169.0211,115.4988c.36961,3.0042,.5097,14.4304-2.0371,17.7009,1.8364,1.3948,11.5235,3.3562,18.7685,.4531-1.5552-1.9185-4.0175-3.2106-2.0322-6.6175,2.1618-3.70992,5.8232,1.2767,8.7223-4.8024,3.3829-7.0884,4.4044-21.069,1.05111-24.9641-3.75161-4.3607-11.23941-9.6905-21.35941-3.7492-8.2587,4.8469-3.8639,15.8742-3.1132,21.9792Z" style="fill:#f3dad2;"/><path d="M176.6375,108.6368c2.2973,.0341,1.1241-5.9903,2.8118-7.4249,1.9948-1.6958,8.6648-2.6769,15.1311-1.9627,6.4655,.71,10.5002-7.7239,6.3695-11.22882-4.1366-3.50438-7.8996,1.32432-10.98119,.29562-3.58941-1.1989-2.95671-5.5817-8.29321-5.1219-4.9295,.4228-2.69279,5.0101-5.8252,5.8237-3.2294,.8385-7.9745-3.4459-11.92,1.6152-2.9269,3.7549,1.4735,5.94938,1.0051,10.1272-.2928,2.6088-6.7899,10.3087,.215,13.5751,7.0108,3.2624,5.39031-3.8976,5.0198-6.8566-.3668-2.9582,.97151-4.9085,2.4527-4.9679,1.4755-.0629,.7344,6.0814,4.0146,6.126Z" style="fill:url(#j);"/><path d="M167.9085,130.4436c1.7174,.8602,12.4355,2.74078,16.1218,.5905,.7679,.9134,1.345,1.7375,1.7222,2.6187-2.5689,1.5394-12.2052,3.1728-18.9403-.29142,.4281-1.16428,1.0963-2.91778,1.0963-2.91778Z" style="fill:#c6cbe7;"/></g><g><path d="M160.1826,138.3226c-11.2961,9.4817-34.3854,39.2179-34.3854,61.09s18.5006,42.5913,24.57351,48.6631c2.33649-2.3375,7.37449-7.3755,7.37449-7.3755-4.4946-4.4946-16.4243-34.2015-14.21249-42.5571,2.21179-8.35571,12.73789-17.4078,22.07659-26.7464,9.3386-9.3387,10.2401-17.2028,8.60141-23.1009-1.63871-5.8981-9.31561-13.9287-14.02811-9.9732Z" style="fill:#e9efff;"/><path d="M157.7452,240.70019c2.1292,0,3.5221,.0807,5.4066,1.9651-1.8845,.983-12.78109,5.4104-12.78109,5.4104l7.37449-7.3755Z" style="fill:#f2d5cc;"/><path d="M150.3121,248.51259s7.9179-8.2751,8.516-8.7406c-1.1462-2.0592-3.44339-5.2521-4.2413-6.1631-1.6895,1.3171-10.3946,8.8251-10.432,9.1879,.74791,.8784,6.1573,5.7158,6.1573,5.7158Z" style="fill:#d3d8f2;"/></g><g><g><polygon points="590.68089 368.42699 594.33748 381.26569 608.11308 381.26569 611.77058 368.42699 590.68089 368.42699" style="fill:#1e1c6b;"/><rect x="597.11858" y="381.26569" width="8.2135" height="6.9483" style="fill:#34318f;"/><rect x="598.77538" y="388.21399" width="4.9008" height="16.1823" style="fill:#d0d4f6;"/><path d="M563.00579,431.63659c0-2.4585,1.992-4.4514,4.4514-4.4514,2.45852,0,4.45152,1.9929,4.45152,4.4514s-1.993,4.4514-4.45152,4.4514c-2.4594,0-4.4514-1.9929-4.4514-4.4514Z" style="fill:#5555c6;"/><path d="M565.48059,431.63659c0-1.0915,.88512-1.9766,1.9766-1.9766s1.9766,.8851,1.9766,1.9766-.88508,1.9756-1.9766,1.9756-1.9766-.8841-1.9766-1.9756Z" style="fill:#34318f;"/><path d="M598.77538,414.89179c0,.5558-.3148,1.06259-.8111,1.3103l-28.76958,10.1777c-1.75392,.9033-5.26152,1.4947-5.02832-.4647h0c.2861-2.4143,3.2409-4.2133,10.8794-7.6414l21.5841-9.80231c.9744-.51349,2.1455,.193,2.1455,1.294v5.12641Z" style="fill:#bdc1e4;"/><path d="M639.44591,431.63659c0-2.4585-1.993-4.4514-4.4515-4.4514s-4.4524,1.9929-4.4524,4.4514,1.9939,4.4514,4.4524,4.4514,4.4515-1.9929,4.4515-4.4514Z" style="fill:#5555c6;"/><path d="M636.97001,431.63659c0-1.0915-.8841-1.9766-1.9756-1.9766s-1.9766,.8851-1.9766,1.9766,.8851,1.9756,1.9766,1.9756,1.9756-.8841,1.9756-1.9756Z" style="fill:#34318f;"/><path d="M603.67618,414.89179c0,.5558,.3138,1.06259,.8112,1.3103l28.76952,10.1777c1.7529,.9033,5.2606,1.4947,5.0283-.4647h0c-.287-2.4143-3.2409-4.2133-10.88043-7.6414l-21.58307-9.80231c-.97442-.51349-2.14552,.193-2.14552,1.294v5.12641Z" style="fill:#bdc1e4;"/></g><g><path d="M610.71471,368.42699h-27.58882v-3.6565h27.58882c8.85957,0,13.16607-4.1279,13.16607-12.618v-16.9454h3.6575v16.9454c0,10.4945-5.974,16.2745-16.82357,16.2745Z" style="fill:#34318f;"/><path d="M641.79101,335.20709h2.736c2.8771,0,5.2472-2.2503,5.3912-5.1235,.5463-10.8678,2.7839-35.7264,11.8855-41.7013,6.7735-4.4485,.4147-15.57191-10.4311-6.478-10.2314,8.5774-10.099,23.9995-13.3351,48.378-.3177,2.39609,1.3594,4.5964,3.7535,4.9248Z" style="fill:#5555c6;"/><path d="M638.03751,330.28229c3.2361-24.3785,3.1037-39.8006,13.3351-48.378,3.0786-2.5823,5.7954-3.5308,7.9544-3.4693v-.0057h-38.76683v.0498c-2.2454-.2764-5.1867,.5942-8.564,3.4252-10.2294,8.5774-10.0969,23.9995-13.334,48.378-.3178,2.39609,1.3593,4.5964,3.75352,4.9248h39.3753c-2.3941-.3284-4.0712-2.52871-3.7535-4.9248Z" style="fill:#6a6ae2;"/></g><path d="M566.39449,354.68879h69.08572c3.14718,0,5.7023,2.55511,5.7023,5.7023v2.3346c0,3.14663-2.55467,5.7013-5.7013,5.7013h-69.08762c-3.14669,0-5.7014-2.55471-5.7014-5.7014v-2.3345c0-3.14718,2.55511-5.7023,5.7023-5.7023Z" style="fill:#6a6ae2;"/><polygon points="594.60908 404.39629 607.84248 404.39629 604.99138 419.91909 597.46028 419.91909 594.60908 404.39629" style="fill:#34318f;"/></g><path d="M594.56308,217.53259c2.45762,12.4562-.1536,27.2787-6.1103,37.3244,7.02992,1.17939,14.2893-.2251,18.68792-2.53961,1.30068-4.36159,13.51167-44.31869-1.89892-47.95319-5.7944-1.3665-9.7129,4.0717-10.6787,13.1684Z" style="fill:#34318f;"/><path d="M556.98579,436.12738s-.1642-3.07679-.35708-7.29489c-.12012-2.5833-.73922-2.4076-1.41032-1.7366-1.5311,1.2432-8.5869,2.0976-9.0784,0-.25828-1.1116-.9236-3.99251-1.55328-3.7641-.66332,.241-3.05842,3.44159-6.35022,4.6003-6.4414,2.2684-13.24578,4.1806-13.24578,5.7157,0,2.4872,1.94968,2.47959,3.27648,2.47959h28.7186Z" style="fill:#34318f;"/><g><path d="M605.53648,245.89219c3.0336-.31381,.8823,3.7709,.8823,11.9091,0,6.2585-5.6294,44.9624-12.951,44.9624-5.255,0-30.6444-2.063-42.3839-3.7401v-5.0341c6.5556,0,35.7802-1.0972,35.98082-2.8924,.15258-1.3708,4.796-23.8948,5.79348-29.5779,1.3986-7.9755,7.2421-15.0662,12.6783-15.627Z" style="fill:#bdc1e4;"/><path d="M588.23779,318.93159c-.7612,.0566,.9274-25.7216-.4598-31.7033-1.39-5.9815-3.54228-11.2028-3.13528-13.5807,.409-2.3769,16.44438-25.2857,17.21048-26.7646,3.9618-1.282,11.5101-9.0852,16.3704-3.1608,2.7916,3.4031,4.9237,4.3603,6.88013,5.7393,7.2806,5.1277-1.32663,30.8502-1.32663,30.8502-5.4508,16.43769-3.66237,35.60069-3.46737,38.6199,.14867,2.28379-32.07192,0-32.07192,0Z" style="fill:url(#k);"/><path d="M621.26671,248.66089c3.03257-.313,6.90327,1.0022,6.90327,9.1404,0,6.2585-2.22427,44.9624-9.5461,44.9624-5.2549,0-30.6443-1.6579-42.3839-3.3359v-5.5775c6.55572,0,35.7803-.958,35.98-2.7532,.1526-1.3708,3.8283-24.4588,3.10172-29.5779-.91212-6.4279,.50778-12.2972,5.945-12.8583Z" style="fill:url(#l);"/><path d="M576.23999,293.85029c-2.6072,0-10.13728-2.9222-12.7475-2.9222-2.6083,0-8.9825,8.5784-7.1009,8.5784,1.1318,0,3.1899-1.8787,4.8498-3.3888-.5482,1.6013-.9648,3.3888-.3572,3.3888,.5473,0,1.7328-1.824,2.62652-3.3523,.27838,1.7251,.78428,3.6557,1.34018,3.3523,.3801-.2055,.5644-1.607,.6547-3.0604,1.0684,1.4419,2.492,2.9817,4.2489,2.9817h6.4855v-5.5775Z" style="fill:#f2d5cc;"/></g><path d="M618.43578,244.00929c1.8518,1.8518-18.2626,15.6236-21.2213,14.5917-.7794-.2717,2.85122-8.7852,4.6387-11.718,4.35152-3.1684,4.6798-6.4443,3.77752-10.3221-2.06212,.2203-6.90222,.128-7.27282-.2424-.4906-.4892-1.5264-4.0593-1.6214-7.8277-1.3795,.1022-2.2176-.4968-2.2176-.4968-.0681-.9211,1.5523-3.1564,1.39682-5.2611-.15462-2.1039-.42912-4.0037-.025-7.47351,.40708-3.46739,4.08278-9.293,12.15328-9.196,9.451,.11271,12.1918,6.52591,12.5056,14.654,.3465,9.02431-11.6032,13.80061-2.1138,23.29191Z" style="fill:#f2d5cc;"/><path d="M547.83809,424.45789c.53962-2.3654-1.0012-6.669-1.6798-10.44551h7.7527c.68072,4.26421,.62972,6.43761,.9581,9.89451,.0902,.9504,.2755,2.1792,.3523,3.189h-.003c-1.5311,1.2432-8.5869,2.0976-9.0784,0,1.0781-.312,1.6981-1.66551,1.6981-2.638Z" style="fill:#f2d5cc;"/><path d="M507.86859,395.79689s-.1641-3.0758-.3571-7.2949c-.12-2.5833-.7392-2.40761-1.4102-1.73561-1.5312,1.24221-8.5879,2.09661-9.0785,0-.2582-1.11169-.9235-3.99349-1.5532-3.765-.6644,.24091-3.0595,3.44241-6.3503,4.60111-6.4414,2.2675-13.2458,4.1797-13.2458,5.7147,0,2.4874,1.9498,2.4797,3.2764,2.4797h28.7187Z" style="fill:#34318f;"/><path d="M501.52899,379.77479c.5385-2.3643,8.8212,.4109,6.7726,3.2141-.9802,1.3401-1.9786,2.7657-2.1974,3.77749h-.0029c-1.5312,1.24221-8.5879,2.09661-9.0785,0,1.0781-.314,3.6143-4.75769,4.5062-6.99159Z" style="fill:#f2d5cc;"/><path d="M527.87159,329.06989c9.7457-9.7447,52.2976-10.1383,63.7194-10.1383h28.71872c0,7.84679,11.3478,36.5175-22.37232,36.5175,0,0-35.8148-1.6166-46.4062-3.0441,4.6233,13.7862,2.495,40.1078,3.5356,66.0953h-9.11108c-18.62742-66.5858-21.89132-85.6232-18.08412-89.4304Z" style="fill:url(#m);"/><path d="M595.86388,213.03949c1.8431,3.3004,10.7402,6.5537,15.7532,5.4095,3.6997,10.8448,.4732,26.2447-5.2261,35.3708,6.4289,.2078,17.0126-.4161,20.6673-3.0172,.6383-4.0574,3.03643-35.0637-7.4763-44.7407-6.2255-5.73151-20.39-7.48251-23.7181,6.9776Z" style="fill:#34318f;"/><path d="M614.55838,218.85699c.3869,1.4673-.1593,2.8827-1.2182,3.1611-1.0588,.2784-2.231-.6849-2.6169-2.1522-.3859-1.4668,.1603-2.8824,1.2192-3.1608,1.0598-.2788,2.231,.685,2.6159,2.1519Z" style="fill:#f2d5cc;"/><path d="M587.53119,318.93159c-14.7356-3.0835-47.2576-7.1096-54.7157-7.1096-7.4571,0-32.1986,68.17939-32.1986,68.17939,2.4586,1.22111,8.0303,3.63451,8.0303,3.63451,6.1477-10.6423,38.1551-37.3862,39.6921-56.1366,7.1662-2.1512,18.5391-5.75891,39.1919-8.5677Z" style="fill:url(#n);"/><g><rect x="552.61219" y="300.18038" width="6.7419" height="2.58331" transform="translate(1111.96627 602.94407) rotate(180)" style="fill:#a3aace;"/><path d="M504.87549,299.42779h51.3625v.89659c0,1.34781-1.0915,2.43931-2.4384,2.43931h-46.48488c-1.34782,0-2.43922-1.0915-2.43922-2.43931v-.89659Z" style="fill:#d0d4f6;"/><path d="M556.23799,299.42779h25.1993v.89659c0,1.34781-1.0914,2.43931-2.4383,2.43931h-20.3217c-1.3478,0-2.4393-1.0915-2.4393-2.43931v-.89659Z" style="fill:#d0d4f6;"/><g><path d="M538.44771,261.94789c-.504-1.0843-1.896-1.9728-3.09312-1.9728h-47.01188c-1.19612,0-1.76252,.8885-1.25762,1.9728l16.87262,36.2597c.504,1.08579,1.89588,1.97279,3.093,1.97279h47.012c1.19608,0,1.76238-.887,1.25758-1.97279l-16.87258-36.2597Z" style="fill:#dfe3f7;"/><path d="M555.32029,298.20759l-16.87258-36.2597c-.504-1.0843-1.896-1.9728-3.09312-1.9728h1.6657c1.197,0,2.5899,.8885,3.0939,1.9728l16.2764,34.9782c.504,1.0847-.1526,3.25429-2.32788,3.25429,1.08858,0,1.76238-.887,1.25758-1.97279Z" style="fill:#e9efff;"/></g></g><path d="M516.07359,281.89479c-1.0291-2.8281,.4348-5.1282,3.2619-5.1282,2.8281,0,5.9663,2.3001,6.9953,5.1282,1.0292,2.827-.4338,5.1282-3.261,5.1282-2.829,0-5.9672-2.3012-6.9962-5.1282Zm2.1753,0c.5932,1.6281,2.3999,2.9519,4.028,2.9519,1.629,0,2.471-1.3238,1.8786-2.9519-.5922-1.6282-2.3989-2.9529-4.027-2.9529-1.6291,0-2.471,1.3247-1.8796,2.9529Z" style="fill:#d0d4f6;"/><polygon points="302.45289 441.32659 293.33119 441.32659 322.73239 311.03099 331.85309 311.03099 302.45289 441.32659" style="fill:#5555c6;"/><rect x="297.14819" y="302.76369" width="329.79589" height="8.2673" style="fill:#34318f;"/><polygon points="620.74258 441.32659 629.86331 441.32659 600.46308 311.03099 591.34139 311.03099 620.74258 441.32659" style="fill:#7f7ff4;"/><polygon points="591.34139 311.03099 602.04898 318.06189 600.46308 311.03099 591.34139 311.03099" style="fill:#6a6ae2;"/><polygon points="408.11079 311.03099 418.81829 318.06189 417.23249 311.03099 408.11079 311.03099" style="fill:#6a6ae2;"/><polygon points="322.73239 311.03099 330.26729 318.06189 331.85309 311.03099 322.73239 311.03099" style="fill:#4141aa;"/><g><path d="M418.31149,240.26149c-14.199,0-24.2279,8.2506-31.8769,26.2458-6.2246,14.6434-7.2614,36.2564-1.826,36.2564h14.5879l19.115-62.5022Z" style="fill:url(#o);"/><path d="M446.51079,240.26149c8.178,0,22.4173,16.20589,24.5945,52.8524,.4935,4.2701-2.9067,9.6498-5.9211,9.6498h-4.485l-14.1884-62.5022Z" style="fill:url(#p);"/><path d="M398.46589,326.28219c0-13.3831-2.2549-86.0207,19.8456-86.0207h28.1993c12.3702,0,21.4391,24.3038,21.4391,86.0207h-69.484Z" style="fill:#e9efff;"/></g><g><path d="M389.83471,352.86479c-5.87692,0-12.495,11.7117-12.64,19.79759-.14682,8.08691,.74308,59.22771,.74308,59.22771h11.89692c0-7.1452,10.411-61.5509,10.411-61.5509,0,0,4.08948-17.4744-10.411-17.4744Z" style="fill:#5555c6;"/><path d="M388.65109,434.72109c-.574-1.2903-.5597-2.831-.5597-2.831h-8.71268c0,1.8882-.21982,4.0529-.46942,5.14729,1.6761,.77191,6.6872-1.222,9.7418-2.31629Z" style="fill:#f2d5cc;"/><path d="M388.65109,434.72109c-3.0546,1.09429-8.0657,3.0882-9.7418,2.31629-.8861,.77191-11.3921,6.41751-12.72258,7.50991-1.36032,1.1184-1.16252,2.85409,.28038,2.85409,2.1052,0,19.4538-.91679,19.4538-.91679,.3552,.4579,.6374,.91679,.6374,.91679h3.9667c1.1836-2.46239,.8611-9.84949-1.8739-12.68029Z" style="fill:#4141aa;"/></g><g><path d="M429.05939,352.86479c-5.8779,0-12.4951,11.7117-12.641,19.79759-.1469,8.08691,.744,59.22771,.744,59.22771h11.896c0-7.1452,10.4109-61.5509,10.4109-61.5509,0,0,4.0896-17.4744-10.4099-17.4744Z" style="fill:#5555c6;"/><path d="M427.87579,434.72109c-.57608-1.2903-.5607-2.831-.5607-2.831h-8.7137c0,1.8882-.2198,4.0529-.4675,5.14729,1.6761,.77191,6.6872-1.222,9.7419-2.31629Z" style="fill:#f2d5cc;"/><path d="M427.87579,434.72109c-3.0547,1.09429-8.0658,3.0882-9.7419,2.31629-.886,.77191-11.394,6.41751-12.7245,7.50991-1.3583,1.1184-1.1606,2.85409,.28032,2.85409,2.10618,0,19.45488-.91679,19.45488-.91679,.3542,.4579,.6384,.91679,.6384,.91679h3.96472c1.18458-2.46239,.863-9.84949-1.87192-12.68029Z" style="fill:#4141aa;"/></g><path d="M426.33109,197.57138c16.8159,.20551,16.9744,15.97211,14.3373,25.43891-.4205,1.5076-.9715,3.2083-2.1533,4.7754l1.3517,12.4758h-18.9519s.05282-5.6787-.1555-7.2065c-2.8492-.0279-5.7684-.2938-5.9394-1.5177-.8457-6.0843-8.1232-34.2044,11.5111-33.96591Z" style="fill:#f2d5cc;"/><path d="M437.74719,199.98479c-8.7637-7.5296-10.3822-4.4197-7.20848-1.98141-21.55822-8.23029-14.95062-1.13659-13.42532-.16509-12.9875-2.8684-12.639,6.632-4.3054,11.5643,3.7698,2.2306,4.5733,3.8611,4.8948,6.0613,.2046-.17951,.4387-.2956,.69892-.3292,1.02138-.1339,2.02068,1.0554,2.23,2.65669,.20928,1.60071-.45112,3.00661-1.47452,3.14011-.2573,.034-.51348-.0178-.7564-.1383,1.17692,5.5881,3.8571,11.5284,7.2823,11.7343,5.3433,.3216,9.8552-.0744,13.3322-.12,3.9695-.0523,7.4955-24.8922-1.2681-32.4227Z" style="fill:url(#q);"/><path d="M461.63229,380.74929h-77.3309c-4.4619,0-9.3405-2.9088-12.5478-8.08691-3.3148-5.35279-8.3652-21.75019,8.3652-30.11539,9.3752-4.68661,10.5031-4.3209,17.1951-17.1481,4.7884-9.1763,20.123-40.61651,44.4757-40.61651,20.82,0,35.6439,26.44341,38.06112,51.35191,2.40668,24.7924,1.85858,44.615-18.21842,44.615Z" style="fill:url(#r);"/><g><rect x="439.0034" y="381.12531" width="2.00048" height="59.47822" transform="translate(-89.69205 696.93302) rotate(-71.41039)" style="fill:#d6952d;"/><rect x="403.37942" y="409.86445" width="59.25519" height="1.99994" transform="translate(-108.7887 160.34087) rotate(-18.68137)" style="fill:#d6952d;"/><polygon points="391.45809 449.38759 397.03649 449.38759 422.13119 380.74929 416.55379 380.74929 391.45809 449.38759" style="fill:#f7d25c;"/><polygon points="365.24779 449.38759 370.82529 449.38759 395.92009 380.74929 390.34249 380.74929 365.24779 449.38759" style="fill:#f7d25c;"/><polygon points="481.11029 449.38759 475.53271 449.38759 450.43799 380.74929 456.01459 380.74929 481.11029 449.38759" style="fill:#f7d25c;"/></g><polygon points="125.7972 138.2547 104.2361 147.9908 108.0274 151.7822 87.0012 172.8079 77.6818 163.4886 43.882 197.2879 48.1242 201.53109 77.6818 171.9739 87.0012 181.2933 112.2701 156.0248 116.0611 159.8158 125.7972 138.2547" style="fill:#f2bd42;"/><path d="M554.36529,16.9963l7.4931,7.493-32.7142,32.71408-16.26948-16.269-53.48222,53.48262c1.3755,2.32838,3.0691,4.44438,5.021,6.2925l48.46122-48.4617,16.26948,16.2691,38.3709-38.3709,7.4931,7.4932L592.00439,0l-37.6391,16.9963Z" style="fill:#34318f;"/></g></g></g></g></svg>