<?xml version="1.0" encoding="UTF-8"?><svg xmlns="http://www.w3.org/2000/svg" xmlns:xlink="http://www.w3.org/1999/xlink" viewBox="0 0 1560.41485 932.1572"><defs><style>.q{fill:url(#e);}.r{fill:url(#g);}.s{fill:url(#f);}.t{fill:url(#p);}.u{fill:url(#o);}.v{fill:url(#i);}.w{fill:url(#h);}.x{fill:url(#k);}.y{fill:url(#j);}.a`{fill:url(#m);}.aa{fill:url(#l);}.ab{fill:url(#n);}.ac{fill:#f8d8d0;}.ad{fill:#fb7d85;}.ae{fill:#f7d3c9;}.af{fill:#e7eeff;}.ag{fill:#fff;}.ah{fill:#ee6777;}.ai{fill:#fcba06;}.aj{fill:#ffd03e;}.ak{fill:#f0c9c0;}.al{fill:#6b67e9;}.am{fill:#ced3f8;}.an{fill:#bbc0e6;}.ao{fill:#dde2f8;}.ap{fill:#d64b61;}.aq{fill:#e19100;}.ar{fill:#131147;}.as{fill:#20196f;}.at{fill:#423eaf;}.au{fill:#362e94;}.av{fill:#807dfb;}.aw{fill:#5652cc;}.ax{fill:#2b2b2b;mix-blend-mode:screen;}.ay{isolation:isolate;}</style><linearGradient id="e" x1="1455.83258" y1="34.58854" x2="1437.32218" y2="16.07815" gradientTransform="translate(1239.09566 -1406.51135) rotate(80.75164)" gradientUnits="userSpaceOnUse"><stop offset="0" stop-color="#fb7d85"/><stop offset="1" stop-color="#fcba06"/></linearGradient><linearGradient id="f" x1="627.39753" y1="851.24832" x2="608.88713" y2="832.73791" gradientTransform="translate(1281.4894 35.13317) rotate(75.70874)" xlink:href="#e"/><linearGradient id="g" x1="1260.68321" y1="257.60121" x2="1236.43927" y2="233.35728" gradientTransform="translate(539.27517 -810.9669) rotate(45)" gradientUnits="userSpaceOnUse"><stop offset="0" stop-color="#fb7d85"/><stop offset="1" stop-color="#807dfb"/></linearGradient><linearGradient id="h" x1="71.39023" y1="727.69735" x2="440.78494" y2="792.81498" gradientTransform="matrix(1, 0, 0, 1, 0, 0)" gradientUnits="userSpaceOnUse"><stop offset="0" stop-color="#362e94"/><stop offset=".46561" stop-color="#131147"/></linearGradient><linearGradient id="i" x1="286.17482" y1="724.50369" x2="63.42386" y2="898.87917" gradientTransform="matrix(1, 0, 0, 1, 0, 0)" gradientUnits="userSpaceOnUse"><stop offset="0" stop-color="#20196f"/><stop offset="1" stop-color="#5652cc"/></linearGradient><linearGradient id="j" x1="243.60564" y1="660.96407" x2="467.05241" y2="660.96407" gradientTransform="translate(13.55929 -11.24586) rotate(1.55296)" gradientUnits="userSpaceOnUse"><stop offset=".14815" stop-color="#fcba06"/><stop offset=".40659" stop-color="#f7b204"/><stop offset=".78492" stop-color="#ea9f02"/><stop offset="1" stop-color="#e19100"/></linearGradient><linearGradient id="k" x1="289.17629" y1="683.5336" x2="404.26899" y2="683.5336" gradientTransform="matrix(1, 0, 0, 1, 0, 0)" gradientUnits="userSpaceOnUse"><stop offset="0" stop-color="#fcba06"/><stop offset=".28457" stop-color="#f1a903"/><stop offset=".70135" stop-color="#e59700"/><stop offset="1" stop-color="#e19100"/></linearGradient><linearGradient id="l" x1="895.96186" y1="32.56181" x2="968.13598" y2="63.97876" gradientTransform="translate(145.18583 -174.70866) rotate(17.74642)" gradientUnits="userSpaceOnUse"><stop offset="0" stop-color="#5652cc"/><stop offset=".25078" stop-color="#4c46ba"/><stop offset=".72506" stop-color="#3b349e"/><stop offset="1" stop-color="#362e94"/></linearGradient><linearGradient id="m" x1="1030.08799" y1="168.95925" x2="1207.74332" y2="168.95925" gradientTransform="translate(-13.8162 32.65341) rotate(-2.53336)" gradientUnits="userSpaceOnUse"><stop offset="0" stop-color="#5652cc"/><stop offset=".25981" stop-color="#6460dc"/><stop offset=".71261" stop-color="#7875f2"/><stop offset="1" stop-color="#807dfb"/></linearGradient><linearGradient id="n" x1="834.89563" y1="-29.78915" x2="984.9839" y2="-29.78915" gradientTransform="translate(145.18583 -174.70866) rotate(17.74642)" gradientUnits="userSpaceOnUse"><stop offset="0" stop-color="#131147"/><stop offset=".24157" stop-color="#191654"/><stop offset=".69235" stop-color="#292378"/><stop offset="1" stop-color="#362e94"/></linearGradient><linearGradient id="o" x1="1475.91547" y1="532.5228" x2="1284.51117" y2="341.11851" gradientTransform="matrix(1, 0, 0, 1, 0, 0)" gradientUnits="userSpaceOnUse"><stop offset="0" stop-color="#5652cc"/><stop offset="1" stop-color="#807dfb"/></linearGradient><linearGradient id="p" x1="787.21683" y1="479.13102" x2="849.75949" y2="479.13102" gradientTransform="translate(1446.83061 -584.55425) rotate(59.21606)" gradientUnits="userSpaceOnUse"><stop offset="0" stop-color="#423eaf"/><stop offset=".3015" stop-color="#322e8b"/><stop offset=".76881" stop-color="#1b195a"/><stop offset="1" stop-color="#131147"/></linearGradient></defs><g style="isolation:isolate;"><g id="a"/><g id="b"><g id="c"><g id="d"><g><circle cx="1446.5774" cy="25.33336" r="13.08889" transform="translate(1189.08755 1449.0352) rotate(-80.75164)" style="fill:url(#e);"/><circle cx="618.14231" cy="841.9931" r="13.08882" transform="translate(-350.38314 1233.15898) rotate(-75.70874)" style="fill:url(#f);"/><circle cx="1248.56122" cy="245.47926" r="17.14309" transform="translate(192.11506 954.76532) rotate(-45)" style="fill:url(#g);"/><circle cx="1276.9895" cy="182.11279" r="9.5376" style="fill:#e7eeff;"/><circle cx="1273.12782" cy="441.03718" r="7.42354" style="fill:#dde2f8;"/><circle cx="641.11828" cy="683.5336" r="7.42349" transform="translate(-212.77509 297.37696) rotate(-22.50005)" style="fill:#dde2f8;"/><path d="M1198.8538,218.52039c0-3.4174,2.7703-6.1877,6.1876-6.1877s6.1877,2.7703,6.1877,6.1877-2.7703,6.1876-6.1877,6.1876-6.1876-2.7703-6.1876-6.1876Z" style="fill:#fcba06;"/><path d="M484.80129,895.85917c0-3.4173,2.7704-6.1876,6.1877-6.1876s6.1877,2.7703,6.1877,6.1876-2.7704,6.1877-6.1877,6.1877-6.1877-2.7703-6.1877-6.1877Z" style="fill:#fcba06;"/><path d="M1547.3067,292.29199l-1.8753,.5462c-1.144-3.1855-2.9396-6.922-5.3876-11.2082l-4.922-8.6587c-2.9579-5.1876-4.7882-8.9911-5.4926-11.4093-.6378-2.19-.498-4.1446,.4219-5.8633,.9192-1.7183,2.4318-2.8839,4.538-3.4974,2.0484-.5966,3.9458-.4156,5.6913,.5413,1.7442,.9577,2.9198,2.47488,3.5247,4.5516,.6298,2.162,1.0925,6.4101,1.3879,12.7436l.4396,9.9643c.1608,3.5336,.7195,7.6305,1.6741,12.2899Zm.8941,6.3783c1.9046-.55482,3.7303-.3502,5.476,.6119,1.7449,.9621,2.9008,2.4141,3.4663,4.3558,.557,1.9122,.3576,3.744-.5977,5.4929-.9559,1.7491-2.3863,2.9017-4.2909,3.4564-1.9052,.555-3.7308,.3507-5.4758-.6116-1.7463-.9621-2.8969-2.4006-3.4539-4.3128-.557-1.9123-.3677-3.7493,.5695-5.5082,.9375-1.76022,2.3727-2.92122,4.3065-3.4844Z" style="fill:#fff;"/><path d="M327.17369,385.64419c-5.129-6.7039-13.5489-10.1071-21.8983-8.8673-43.2545,6.4234-82.9357,19.1468-121.882,39.0973-7.5125,3.8484-12.3818,11.5145-12.6543,19.9509-.8846,27.4015,5.7742,47.9593,22.3227,69.5737,5.127,6.6968,13.5432,10.0908,21.8861,8.8519,28.32861-4.2068,61.1519-12.555,87.1893-22.4151,0,0,12.4087,11.2828,13.4357,30.4572,11.6434-14.0481,7.2413-40.2937,7.2413-40.2937,4.6875-2.1824,9.36031-4.4602,14.0211-6.8477,7.5065-3.8452,12.3778-11.5015,12.6526-19.9311,.8873-27.2073-5.6553-47.8026-22.3142-69.5761Z" style="fill:#fb7d85;"/><g><path d="M202.46899,458.67818c-1.252,0-2.419-.7891-2.8418-2.0391-.5303-1.5703,.3115-3.2734,1.8818-3.8027l113.1035-38.2178c1.57229-.5312,3.27149,.3116,3.80179,1.88189,.5303,1.56931-.3115,3.27141-1.88179,3.80171l-113.1035,38.2178c-.3184,.1074-.6416,.1582-.96,.1582Z" style="fill:#fff;"/><path d="M233.59889,484.40868c-1.252,0-2.419-.7891-2.8418-2.0391-.5303-1.5703,.3115-3.2734,1.8818-3.8027l72.832-24.61141c1.5713-.52929,3.2715,.31251,3.8018,1.88091,.5303,1.5703-.3115,3.2734-1.8818,3.8027l-72.8321,24.61139c-.31829,.10741-.6416,.15821-.9599,.15821Z" style="fill:#fff;"/><path d="M207.96509,474.94578c-1.252,0-2.419-.7891-2.8418-2.0391-.5303-1.5703,.3115-3.2734,1.8818-3.8027l113.1045-38.2188c1.5713-.5312,3.2715,.3125,3.8018,1.8809,.5302,1.5703-.3115,3.27339-1.88189,3.8027l-113.10451,38.2188c-.3183,.1074-.6416,.1582-.9599,.1582Z" style="fill:#fff;"/><path d="M249.79689,419.37129c-.5716-1.6916,.3362-3.526,2.0277-4.0976s3.5262,.3362,4.0977,2.0277c.5716,1.6916-.3364,3.526-2.0279,4.0976-1.6915,.57149-3.52589-.3362-4.0975-2.0277Z" style="fill:#fff;"/><path d="M262.3005,415.14619c-.57161-1.6915,.33639-3.526,2.02789-4.0976,1.6913-.5715,3.5259,.3363,4.0975,2.0278,.57161,1.6915-.33639,3.526-2.0278,4.0975-1.6915,.57159-3.5261-.3362-4.09759-2.0277Z" style="fill:#fff;"/><path d="M243.41859,421.52647c-.5716-1.69149-2.406-2.59929-4.0975-2.02779-1.6915,.5716-2.5995,2.4061-2.0279,4.0976,.5715,1.6916,2.4061,2.5993,4.0976,2.0277,1.6916-.5716,2.5994-2.406,2.0278-4.09751Z" style="fill:#fff;"/></g><g><rect x="1053.51113" y="754.53278" width="14.85375" height="25.43979" transform="translate(127.95032 -151.33325) rotate(8.68053)" style="fill:#fcba06;"/><rect x="1081.64198" y="728.81649" width="14.85385" height="55.27798" transform="translate(126.64206 -155.7016) rotate(8.68047)" style="fill:#807dfb;"/><rect x="1133.18103" y="739.61075" width="14.85385" height="52.36904" transform="translate(2152.57388 1694.96364) rotate(-171.31953)" style="fill:#807dfb;"/><rect x="1108.42263" y="720.89098" width="14.85385" height="67.22289" transform="translate(126.65406 -159.76581) rotate(8.68047)" style="fill:#807dfb;"/><rect x="1057.91543" y="730.97731" width="14.85379" height="14.85379" transform="translate(123.6471 -152.32872) rotate(8.68055)" style="fill:#20196f;"/><rect x="1088.29793" y="705.43186" width="14.85384" height="14.85379" transform="translate(120.13272 -157.19903) rotate(8.68009)" style="fill:#20196f;"/><rect x="1115.97998" y="697.57481" width="14.85379" height="14.85379" transform="translate(119.26978 -161.4734) rotate(8.68047)" style="fill:#5652cc;"/><rect x="1139.61748" y="716.20951" width="14.85379" height="14.85379" transform="translate(122.35266 -164.82706) rotate(8.68045)" style="fill:#fb7d85;"/></g><g><path d="M1239.1979,685.12678c-8.6439,8.4049-24.4554,8.9843-35.3286,1.2749-1.0976-.7765-2.1037-1.60821-3.0153-2.4835-8.1297-7.8056-8.8114-19.1291-1.0391-26.6865,8.6318-8.3965,24.4432-8.9759,35.3164-1.2666,1.0976,.7765,2.1038,1.6085,3.0153,2.4835,8.1285,7.8036,8.8028,19.1188,1.0513,26.6782Zm-32.9665-9.166l30.7543-1.10931-.4197-2.993-27.1175,.96721-1.1686-8.3297-3.6245,.1338,1.576,11.331h0Z" style="fill:#fcba06;"/><polygon points="1236.5661 671.85847 1236.9857 674.85138 1206.2315 675.96078 1204.6554 664.62978 1208.28 664.49598 1209.4486 672.82568 1236.5661 671.85847" style="fill:#fff;"/><path d="M1243.3044,681.86208l1.0977-6.3654c-.6001,3.4806-2.3182,6.8156-5.2042,9.6301-8.644,8.405-24.4556,8.9842-35.3286,1.2749-1.0977-.7765-2.1037-1.60821-3.0154-2.4835-5.1008-4.8976-7.2696-11.1801-6.2578-17.0483l-1.0977,6.3654c-1.0118,5.86819,1.157,12.1507,6.2578,17.0483,.9117,.8753,1.9179,1.7071,3.0154,2.4835,10.8732,7.70939,26.6848,7.1301,35.3286-1.2749,2.886-2.8145,4.6041-6.1495,5.2042-9.6301Z" style="fill:#e19100;"/></g><g><path d="M732.45238,858.44577c-1.1055,0-2-.8946-2-2v-19.6211h-19.6191c-1.1055,0-2-.8945-2-2s.8945-2,2-2h21.6191c1.1055,0,2,.8945,2,2v21.6211c0,1.1054-.8945,2-2,2Z" style="fill:#807dfb;"/><path d="M671.70238,897.57467c-.5117,0-1.0234-.1953-1.4141-.586-.7812-.7812-.7812-2.0468,0-2.8281l60.75-60.75c.7813-.7812,2.0469-.7812,2.82822,0,.78118,.7813,.78118,2.0469,0,2.8281l-60.75,60.75c-.39072,.3907-.90242,.586-1.41412,.586Z" style="fill:#807dfb;"/></g><g><path d="M395.32839,805.12158c-1.1045,0-2-.8946-2-2v-30.8614h-30.8623c-1.1045,0-2-.8945-2-2,0-1.1054,.8955-2,2-2h32.8623c1.1045,0,2,.8946,2,2v32.8614c0,1.1054-.8955,2-2,2Z" style="fill:#ced3f8;"/><path d="M302.9895,864.59807c-.51171,0-1.02341-.1953-1.41411-.5859-.7812-.7813-.7812-2.0469,0-2.8281l92.3389-92.3379c.7813-.7813,2.0469-.7813,2.8281,0,.7813,.7812,.7813,2.0468,0,2.8281l-92.3388,92.3379c-.3907,.3906-.9024,.5859-1.41409,.5859Z" style="fill:#ced3f8;"/></g><g><path d="M1173.1887,205.30219c-1.1054,0-2-.8955-2-2v-21.30372h-21.3027c-1.1055,0-2-.89548-2-2s.8945-2,2-2h23.3027c1.1055,0,2,.89552,2,2v23.30372c0,1.1045-.8945,2-2,2Z" style="fill:#fcba06;"/><path d="M1107.7083,247.47899c-.5118,0-1.0235-.1953-1.4141-.586-.7813-.7812-.7813-2.0468,0-2.8281l65.4805-65.4805c.7812-.7812,2.0468-.7812,2.8281,0,.7812,.7813,.7812,2.0469,0,2.8282l-65.4805,65.4804c-.3906,.3907-.9023,.586-1.414,.586Z" style="fill:#fcba06;"/></g><g><path d="M1242.2532,579.69768c-1.1055,0-2-.8945-2-2v-21.3047h-21.3028c-1.1054,0-2-.89451-2-2,0-1.1054,.8946-2,2-2h23.3028c1.1054,0,2,.8946,2,2v23.3047c0,1.1055-.8946,2-2,2Z" style="fill:#fb7d85;"/><path d="M1099.7102,640.82078c-.5117,0-1.0234-.19531-1.4141-.586-.7812-.7812-.7812-2.0468,0-2.8281l60.4668-60.4668c.7813-.7812,2.0469-.7812,2.8282,0l27.6445,27.6445,51.6035-51.6054c.7813-.7813,2.0469-.7813,2.8281,0,.7813,.7812,.7813,2.0469,0,2.8281l-53.0175,53.0195c-.75,.75-2.0782,.75-2.8282,0l-27.6445-27.6445-59.0527,59.0527c-.3907,.39069-.9024,.586-1.4141,.586Z" style="fill:#fb7d85;"/></g><g><path d="M564.91238,401.28759c2.6588,0,4.9037-2.0147,5.1429-4.6629,.2758-3.02721,.419-6.0926,.419-9.1931,0-3.0987-.1432-6.16411-.419-9.19311-.2392-2.64819-2.4841-4.66289-5.1429-4.66289h-7.945c-2.4423,0-4.5285-1.7213-5.0451-4.1094-.5743-2.657-1.271-5.267-2.0879-7.8262-.74189-2.3271,.2025-4.855,2.3166-6.0753l6.8852-3.975c2.30431-1.3303,3.23831-4.202,2.1229-6.6164-2.5909-5.6021-5.679-10.92481-9.2055-15.9159-1.5327-2.1664-4.4847-2.7898-6.7839-1.4612l-6.8835,3.9734c-2.1141,1.2202-4.7762,.7767-6.4191-1.0318-1.8191-1.9988-3.7324-3.91231-5.7311-5.7296-1.807-1.64272-2.2521-4.305-1.0301-6.4191l3.9734-6.8834c1.3284-2.3009,.70521-5.25122-1.463-6.784-4.9893-3.5263-10.3156-6.6146-15.9143-9.20522-2.4142-1.11548-5.286-.18168-6.6162,2.121l-3.9752,6.88712c-1.222,2.114-3.7498,3.0584-6.0769,2.3148-2.5574-.8154-5.1674-1.5136-7.8243-2.0862-2.3883-.5168-4.1096-2.603-4.1096-5.0469v-7.9432c0-2.6605-2.01629-4.9038-4.6629-5.14462-3.0288-.27418-6.0943-.41728-9.193-.41728-3.1005,0-6.1677,.1431-9.1949,.41728-2.6466,.24082-4.6611,2.48412-4.6611,5.14462v7.9432c0,2.4439-1.7213,4.5301-4.1112,5.0469-2.6569,.5726-5.2669,1.2708-7.8261,2.0862-2.3254,.7436-4.8533-.2008-6.0753-2.3148l-3.9732-6.88712c-1.3304-2.30268-4.2038-3.23648-6.6164-2.121-5.6004,2.59062-10.9266,5.67892-15.9159,9.20522-2.16829,1.53278-2.7914,4.4831-1.463,6.784l3.9733,6.8834c1.2203,2.1141,.7768,4.77638-1.03,6.4191-2.0005,1.81728-3.9122,3.7308-5.72959,5.7296-1.64261,1.8085-4.30671,2.252-6.42261,1.0318l-6.8817-3.9734c-2.2991-1.3286-5.2494-.7052-6.7821,1.4612-3.5281,4.99109-6.6147,10.3138-9.2071,15.9159-1.11549,2.4144-.1816,5.2861,2.121,6.6164l6.8871,3.975c2.1141,1.2203,3.0585,3.7482,2.3166,6.0753-.8171,2.5592-1.5154,5.1692-2.088,7.8262-.5167,2.3881-2.6029,4.1094-5.04519,4.1094h-7.94481c-2.6588,0-4.9039,2.0147-5.1447,4.66289-.2742,3.029-.4156,6.09441-.4156,9.19311,0,3.1005,.1414,6.16589,.4156,9.1931,.2408,2.6482,2.4859,4.6629,5.1447,4.6629h7.94481c2.44229,0,4.52849,1.7213,5.04519,4.1112,.5726,2.6552,1.2709,5.2669,2.088,7.8243,.7419,2.32539-.2025,4.8549-2.3166,6.0753l-6.8871,3.975c-2.3026,1.3302-3.23649,4.20209-2.121,6.6165,2.5924,5.6003,5.679,10.9248,9.2071,15.9159,1.5327,2.1682,4.483,2.7896,6.7821,1.4628l6.8817-3.9732c2.1159-1.2221,4.78-.77691,6.42261,1.03,1.81739,2.0006,3.72909,3.91209,5.72959,5.7294,1.8068,1.6428,2.2503,4.3068,1.03,6.4192l-3.9733,6.8851c-1.3284,2.2993-.70529,5.24939,1.463,6.78239,4.9893,3.528,10.3155,6.61461,15.9159,9.207,2.4126,1.11551,5.286,.18151,6.6164-2.12279l3.9732-6.8853c1.222-2.114,3.7499-3.0585,6.0753-2.3166,2.5592,.817,5.1692,1.5136,7.8261,2.088,2.3899,.5166,4.1112,2.6028,4.1112,5.0451v7.9449c0,2.657,2.0145,4.90369,4.6611,5.1429,3.0272,.27579,6.0944,.4172,9.1949,.4172,3.0987,0,6.1642-.14141,9.193-.4172,2.64661-.23921,4.6629-2.4859,4.6629-5.1429v-7.9449c0-2.4423,1.7213-4.5285,4.1096-5.0451,2.6569-.5744,5.2669-1.271,7.8243-2.088,2.3271-.7419,4.8549,.2026,6.0769,2.3166l3.9752,6.8853c1.3302,2.3043,4.202,3.2383,6.6162,2.12279,5.5987-2.59239,10.925-5.679,15.9143-9.207,2.16821-1.533,2.7914-4.48309,1.463-6.78239l-3.9734-6.8851c-1.222-2.1124-.7769-4.7764,1.0301-6.4192,1.9987-1.81731,3.912-3.7288,5.7311-5.7294,1.6429-1.80691,4.305-2.2521,6.4191-1.03l6.8835,3.9732c2.2992,1.3268,5.2512,.7054,6.7839-1.4628,3.5265-4.9911,6.6146-10.3156,9.2055-15.9159,1.11541-2.41441,.18141-5.2863-2.1229-6.6165l-6.8852-3.975c-2.1141-1.2204-3.05849-3.74991-2.3166-6.0753,.8169-2.5574,1.5136-5.1691,2.0879-7.8243,.5166-2.3899,2.6028-4.1112,5.0451-4.1112h7.945Zm-95.6681,40.3306c-29.9282,0-54.1891-24.2609-54.1891-54.1866s24.2609-54.1866,54.1891-54.1866c29.9256,0,54.1866,24.2609,54.1866,54.1866s-24.261,54.1866-54.1866,54.1866Z" style="fill:#bbc0e6;"/><path d="M469.24389,317.19859c-38.7887,0-70.2331,31.4443-70.2331,70.233s31.4444,70.233,70.2331,70.233,70.233-31.4443,70.233-70.233-31.4443-70.233-70.233-70.233Zm.0005,135.0321c-35.7896,0-64.8021-29.0124-64.8021-64.7991s29.0125-64.7992,64.8021-64.7992c35.7866,0,64.79911,29.0125,64.79911,64.7992s-29.01251,64.7991-64.79911,64.7991Z" style="fill:#dde2f8;"/></g><g><path d="M415.05529,387.43599c0-29.9317,24.257-54.191,54.1888-54.191,29.9295,0,54.1876,24.2593,54.1876,54.191,0,29.9252-24.2581,54.1822-54.1876,54.1822-29.9318,0-54.1888-24.257-54.1888-54.1822Z" style="fill:#ffd03e;"/><path d="M425.21579,387.43599c0,24.2751,19.749,44.0217,44.0283,44.0217,24.275,0,44.026-19.7466,44.026-44.0217,0-24.277-19.751-44.0303-44.026-44.0303-24.2793,0-44.0283,19.7533-44.0283,44.0303Z" style="fill:#e19100;"/></g><g><path d="M1169.9119,484.73078c.001-1.781-.0892-3.536-.2249-5.2808l16.6743-4.5846-1.6109-9.15791-17.2242,1.37211c-.9378-3.4286-2.1489-6.744-3.6075-9.9236l14.0862-10.0104-4.6417-8.0543-15.7314,7.188c-2.0406-2.8727-4.307-5.5827-6.7748-8.0862l9.8238-14.2341-7.1214-5.9799-12.3203,12.1305c-2.8874-1.9957-5.9333-3.7739-9.1303-5.3022l4.352-16.706-8.7309-3.1877-7.4198,15.592c-3.3678-.8768-6.848-1.4851-10.4027-1.8224l-1.6213-17.2075-9.3006-.0047-1.6415,17.2056c-3.5526,.33379-7.0335,.941-10.4022,1.812l-7.4013-15.5998-8.7392,3.1788,4.3373,16.7105c-3.1984,1.5251-6.2509,3.3022-9.138,5.293l-12.3056-12.1406-7.1271,5.96989,9.8039,14.24411c-2.4654,2.501-4.7321,5.20889-6.7782,8.0794l-15.7238-7.1994-4.6498,8.0496,14.0732,10.02c-1.459,3.178-2.6741,6.49229-3.6153,9.9199l-17.2249-1.38961-1.6206,9.15611,16.6748,4.6016c-.1402,1.7448-.2322,3.4996-.2331,5.2807-.0009,1.77859,.0893,3.5287,.2276,5.2689l-16.6794,4.5916,1.6112,9.1578,17.2263-1.3741c.9378,3.4305,2.1494,6.7439,3.605,9.9257l-14.0833,10.00569,4.6415,8.05421,15.7218-7.1833c2.0527,2.8706,4.3144,5.578,6.7793,8.0913l-9.8184,14.227,7.121,5.9797,12.3107-12.1234c2.8898,1.9911,5.9407,3.7689,9.1398,5.2976l-4.3544,16.708,8.7359,3.1831,7.4152-15.5893c3.3699,.8765,6.8502,1.4873,10.4024,1.822l1.6239,17.2076,9.3005,.0048,1.6391-17.206c3.5549-.331,7.0358-.9382,10.4044-1.81131l7.404,15.59691,8.7341-3.174-4.3348-16.7125c3.1985-1.5256,6.2462-3.3003,9.1357-5.2883l12.3078,12.136,7.1274-5.9725-9.8016-14.2369c2.4629-2.5038,4.7321-5.2138,6.7755-8.0845l15.7242,7.2047,4.65-8.0524-14.0734-10.0224c1.4592-3.1802,2.6736-6.49,3.6151-9.9198l17.2227,1.3894,1.6203-9.156-16.6696-4.60871c.1376-1.73769,.2294-3.49,.2303-5.26869Zm-65.935,27.4296c-15.169-.00791-27.4594-12.311-27.4517-27.4798,.0077-15.1689,12.311-27.4595,27.4798-27.4516,15.1689,.0077,27.4595,12.3108,27.4516,27.4797-.0077,15.1689-12.3108,27.4594-27.4797,27.4517Z" style="fill:#6b67e9;"/><path d="M1103.5918,524.48098c-21.9378,0-39.7854-17.8486-39.7854-39.7864s17.8476-39.7863,39.7854-39.7863,39.7853,17.8486,39.7853,39.7863-17.8475,39.7864-39.7853,39.7864Zm0-75.4523c-19.6664,0-35.665,15.9996-35.665,35.6659s15.9986,35.666,35.665,35.666,35.665-15.9996,35.665-35.666-15.9987-35.6659-35.665-35.6659Z" style="fill:#423eaf;"/><path d="M1103.5918,536.83668c-28.7515,0-52.142-23.3906-52.142-52.1421s23.3905-52.142,52.142-52.142,52.142,23.3906,52.142,52.142-23.3906,52.1421-52.142,52.1421Zm0-95.7995c-24.0721,0-43.6575,19.58429-43.6575,43.6574s19.5854,43.6575,43.6575,43.6575,43.6574-19.5843,43.6574-43.6575-19.5853-43.6574-43.6574-43.6574Z" style="fill:#5652cc;"/></g><polygon points="1441.3397 155.87747 1329.7595 195.45979 1351.6161 217.31639 1219.259 349.67429 1132.2551 262.67139 972.11837 422.80709 1000.40357 451.09228 1132.2551 319.23969 1219.259 406.24269 1379.9011 245.60139 1401.7574 267.45769 1441.3397 155.87747" style="fill:#ced3f8;"/><path d="M632.23508,151.65359c-66.6534,0-120.6943,54.041-120.6943,120.6942s54.0409,120.6944,120.6943,120.6944,120.6958-54.041,120.6958-120.6944-54.0409-120.6942-120.6958-120.6942Z" style="fill:#e7eeff;"/><path d="M671.83588,328.73059c-1.3418,1.3658,.4964,1.7073,1.6352,1.6931,1.3196-.0125,2.6018-1.0509,3.937-.6061,.6751,.2271,.75342,1.0886,1.0542,1.228,.2263,.1018,.5873,.141,.838,.0658,.6344-.1895-.2459-1.99391-.5256-2.2226-.7558-.6328-1.654-.3807-2.5233-.4918-1.2343-.1567-3.41788-.6814-4.4155,.3336Zm2.7121-20.4145c-.3439-.003-3.876-.1331-3.8627,.1646,.0251,.4355,.13322,1.6431,.607,1.9061,.7463,.4121,1.3165-.6232,2.109-.3539,.7949,.27258,.7229,1.2092,1.91722,.838,1.94868-.5983,.72608-2.5406-.77052-2.5548Zm8.2382,14.2446c.0462-1.1858-.8246-2.2791-2.0394-2.0739-1.34,.2224-2.3777,.6845-3.8078,.6093-1.2578-.0627-1.80448-.7691-2.9362-1.1231-.8254-.2553-1.8232-.0423-2.6478,.141-2.2212,.4871-4.0569,.0454-6.2663,.1896-1.3259,.0892-2.5266,.3633-3.7913,.708-.8076,.2193-2.1068,.0547-2.814,.4417-.5083,.2788-1.0557,1.6994-.7025,2.2601,.3195,.5075,1.2679,.4418,1.9658,.5703,1.3502,.2412,2.528,.2584,3.8986-.1378,1.1138-.3243,2.0644-1.0902,3.1954-1.3863,1.1255-.2976,2.4295-.1896,3.6121-.1832,1.3438,.014,2.3032,.2193,3.5008,.6782,.6093,.2287,2.1215,.06888,2.5398,.6123-.9665,1.814,2.1208,1.4912,3.05912,1.2485,1.24048-.3243,3.17658-1.0776,3.23368-2.5547Zm46.6195-121.8034c-.9758,.4199-2.0989,1.6048-2.0691,2.3825-.7112,.2429-1.6447,.4002-1.9595,1.1881-.5529,1.3925,.6063,1.2828,1.3689,1.7629,1.6683,1.0519,.9416,2.0449,1.4912,3.51968,.5075,1.36192,1.676,.92322,2.453,1.78092,.98532,1.08008,1.0605,2.3589,3.0356,2.254-.0908,1.26408,1.5162,1.3722,2.1224,2.2829,.3055,.4583,.2616,1.0283,.5937,1.5295,.4777,.72368,.9162,.8772,1.1387,1.749,.15192,.596-.1206,1.2915,.0361,1.8866,.188,.7104,1.2029,1.5539,1.369,2.3708,.1284,.62728-.1771,1.1481-.1239,1.8208,.0878,1.18248,1.02772,1.9508,1.38172,3.0951,.23338,.7503,.20048,1.7292,.71418,2.3519,.423,.506,1.1889,.6069,1.6211,1.2836,.492,.7597,.3306,1.4608,.4591,2.2815,.1957,1.2326,.6485,1.6181,1.3815,2.5625,.957,1.232,3.16712,6.6015,5.4038,8.1748-3.7591-16.2642-10.8172-31.2676-20.4175-44.2771Zm-54.5844,113.0521c-1.01978-.5763-2.7936,1.1325-2.9957,2.1287-.3633,1.7857,2.6637,2.57038,3.5847,1.2312,.5224-.75982,.2709-2.8696-.589-3.3599Zm53.0024,15.52408c-2.0095-.10789-3.7137,.76611-5.689,1.06061-.8349,.1252-1.7903,.354-2.4263,.8677-.3696,.2991-.83788,1.0416-1.1074,1.4458-.1111,.1691-.3994,.0485-.5371,.202-.1473,.1645,.147,.7315-.0252,.84889-.4825,.32111-1.419,.31811-2.0598,.213-.9993-.16119-.8488-.41649-1.6635-.94439-2.2272-1.45361-4.5956,.1848-6.9882,.5091-.5225,.0674-1.575-.13171-2.0238,.0876-.5192,.2491-.2553,.3541-.5928,.7144-.6892,.73929-1.24608,1.9876-2.1303,.3336-.2506,.8583-1.0534,.8708-1.8789,.7863-1.69088-.1739-2.171-1.0574-2.2022,1.1888-1.6948,.0095-2.6002-.0359-3.9871,.7362-1.15458,.6453-2.40758,1.1701-3.7648,1.0197-1.4975-.1676-2.0441-.48231-3.331,.15969-1.1136,.55771-1.5921,1.059-2.4073,1.97831-.4684,.5279-.6949,.94-1.02848,1.3958-.52222,.7142-.85522,.7205-1.55782,1.3095-1.11818,.9397-.45018,1.9061-1.1769,2.9416-1.2415,1.7589-5.0156-.5827-4.8425,2.4294-.6281-.1959-1.3611-.6407-2.0731-.57961-.9406,.08621-1.2218,.64531-2.2672,.35711-.6618-.18011-1.3817-1.0808-2.1836-.9398-.9226,.1644-1.2194,1.2484-1.9917,1.6744-.6257,.34-1.8914,.5436-2.5915,.6126-1.8012,.169-4.0216-.7504-4.2816-2.7521-.20908-1.6244,.538-3.1343,.7722-4.7054,.141-.9806,.8552-3.244,.4528-4.082-.6878-1.4316-2.2008-.4323-3.2245-.1739-1.0267,.2602-4.90658,.1442-4.9419,1.40509-.9398,.05641-1.7809-.50749-2.7262-.58269-.8168-.0658-1.6439,.1708-2.4669,.1081-.098-2.099,.0665-4.284,2.4043-5.1157,.0626-1.1888-.0157-2.3904,.0204-3.5855,.018-.5811,.2622-1.5099,.6053-1.98921,.4849-.67348,1.698-.56858,2.0112-1.214,.549-1.14328-1.3581-1.867-2.1709-1.94528-.968-.0988-1.6831,.448-2.5117,.802-1.004,.426-2.178,.5012-3.103,1.0995-.7699,.495-1.1465,1.0777-2.1278,1.2907-.0823,1.1826,.1324,2.2962-.4136,3.3535-1.1183,2.1694-2.359,.2005-3.78278,1.2845-.72132,.5466-.25682,1.2875-1.02972,1.7449-.4426,.26-1.9126,0-2.435-.094-1.2891-.2255-2.442-.8975-3.764-.9335-.9789-.0298-1.4269,.2788-2.4114-.2616-1.8084-.9994-2.6597-3.1421-3.0316-5.0672-.4308-2.2211-.9125-4.65051-1.1459-6.83251-.2608-2.456,1.3141-3.59938,1.3182-5.85808,.00542-2.07392-1.0739-3.5933,.686-5.4416,.6938-.7299,1.759-1.1122,2.6659-1.4081,1.9118-.6156,1.4966-.4841,2.6574-1.61022,1.5765-1.52408,2.8562-1.449,5.2292-1.344,1.5515,.06892,2.7295,.37122,4.158,.67522,.7307,.1534,1.9555,.7267,2.7466,.3366,.5161-.2552,1.01032-1.5553,1.7512-2.1052,.8889-.661,1.9156-1.1041,3.0364-1.1104,.3782,0,.8591,.3242,1.2123,.2584,.4205-.0845,.6376-.5795,.9076-.6188,1.4146-.1989,1.9761,.9633,3.2894,1.1953,1.61342,.2818,1.7192-1.49912,2.905-1.5195,1.6665-.0328,2.7942,2.0708,4.2509,2.5423,.27652,.0908-1.5404,2.8554-1.5201,3.2094,.0557,1.0416,1.2218,1.3988,1.8428,2.0926,1.1983,1.3393,2.2212,5.61708,4.6913,5.0077,2.3613-.5795,.9476-3.7984,.5123-5.263-.4754-1.5977-1.0166-3.1734-1.6722-4.71-.2843-.6578-.5599-1.6869-1.0307-2.2242-.3148-.3572-.8168-.3853-1.0565-.6705-1.1685-1.3924-.7118-3.0982-.3445-4.7945,.0587-.2695,.4494-.7566,.4347-1.0057-.0385-.6719-.9039-1.1701-.9367-1.6384-.1106-1.5977,1.914-1.1497,2.7936-.7111,.1049-.6845,1.3877-1.5381,1.8544-2.2007,.6846-.9759,2.3842-2.2948,3.1884-2.8164,1.0503-.6814,3.9151-1.0933,3.9284-2.6659,.0086-1.0118-1.3619-1.8374-1.412-3.1014-.4982-.0422-1.0081-.1409-1.496-.2694-.0109-1.2797-.17768-2.3667,.8342-3.2377-1.1638-.7314-1.828-4.5408-.7424-5.4149,.3578,.3447,.3961,.1379,.8231,.28818-.0909-1.26408,1.1332-1.13868,1.6243-1.936,.3305-.53568,.07912-1.20448,.2365-1.76828,.88662-3.147,3.6238-2.1476,5.35462-4.2042,1.37518-1.6353-2.15142-3.3081-1.33852-5.5622,.5537-1.5335,2.6151-1.903,3.4147-3.2595,.6305-1.06982,.4879-3.4499,2.0551-3.9544,2.1272-.6813,.0313,2.0419,.0555,3.0365,.0478,1.7669,.7911,3.4584,2.9394,2.658,.8074-.3007,.8387-.52,1.2546-1.3893,.5059-1.0511,.8106-2.0691,1.4771-3.0802,.3845-.5882,.9397-1.1873,1.2022-1.8265,.3273-.80192,.2976-1.7205,.6892-2.5382,.4401-.9281,1.701-1.7653,1.878-2.70972,.3571-1.90328-1.5805-2.95268-3.1437-2.858-.072,2.16472,.0885,5.52692-3.2642,4.346-2.8656-1.00878-.2045-5.14168-3.5127-6.48948-3.2634-1.3314-4.5103,1.9634-6.4016,3.789-.9704,.9392-1.9979,.9634-1.4598-.8199,.4613-1.5311,1.9469-2.9628,2.792-4.3185,.899-1.4442,1.7324-2.106,3.4616-2.4513,3.5275-.70882,4.2598,.0837,6.4354-2.8509,.1378-.1902,.3016-.4292,.4918-.5732,.1371-.1081,.3501-.0446,.455-.19672,.2068-.28958,.0785-.73058,.0392-1.05168-.0525-.4645-.0525-.625,.2295-1.0377,.09322-.1348,.2311-.37362,.3634-.4684,.115-.0853,.41582-.0885,.5075-.18322,.2834-.29848,.0416-.69458,.1707-1.02908,.14562-.3681,.7041-.5091,.8544-.87092,.0855-.206,.0823-.809,.0918-1.05408,.0359-.8867-.8412-1.4545-1.6949-1.4317-.9515,.0226-.88268,.5075-1.5475-.4801-.4127-.6125-.5811-.67912-1.09018-1.0424-.59772-.4292-.54752-.7864-.84822-1.5053-.5341-.0165-1.3565,.1489-1.8577,0-.455-.1331-.4645-.5012-.8052-.7126-.354-.2194-.6947-.16382-1.0956-.167-1.0628-.0015-2.2587,.2265-3.1781-.3962-1.0691-.7237-2.2603-1.4888-3.2291-2.3863-.972-.9007-1.5327-2.1695-2.4709-3.0944-.3955-.3917-.8615-.5702-1.3103-.9187-.4558-.354-.809-.8161-1.39488-.9664-1.36272-.3407-1.14892,1.181-1.03462,2.1584,.069,.5844,.1418,.7401-.1268,1.27578-.213,.41752-.4299,1.06742-.73,1.41292-.6148,.7072-2.4223,.4589-3.027-.1934-.3358-.3602-.3491-.9688-.5309-1.4262-.2233-.5569-.4808-.9727-.8318-1.4396-.5404-.7173-.9954-1.7534-1.55288-2.394-.633-.72372-1.75522-.2061-2.56192-.712-.383-.2413-.5897-.7189-1.0057-.9186-.4439-.2132-1.04538-.1152-1.5279-.1152-.7683,0-1.0854-.1567-1.7903-.3391-.8677-.2256-1.0245,.2068-1.6189,.67818-.80028,.63212-3.009-.26318-3.4639,.99782-.4175,1.1513,2.1591,1.6728,2.4951,2.6135,.1473,.4143-.2842,.9038-.126,1.28668,.0986,.23582,.3822,.14422,.5184,.33912,.1254,.18488,.1409,.3751,.23412,.5881,.46758,1.1035,.77468,1.398,.43328,2.4985-.452,1.4692,.7941,1.3565,1.5412,2.4435,.2037,.2969,.32352,.5897,.5224,.8826,.3375,.4879,.9006,.90218,1.16312,1.4247,.19578,.3947,.249,.9171,.31618,1.3673,.0337,.2193,0,.4817,.0527,.6947,.0907,.3697,.46512,.7104,.5208,1.0612,.0226,.0619,.06032,.1175,.1095,.1637-.5529,.75658-.968,1.9384-1.2907,2.8344-.5293-.0244-1.5491,.1065-1.842,.64518-.7126,1.32142,.7386,2.91042,1.5209,3.83382,1.066,1.2577,1.893,2.5609,1.9658,4.284,.0314,.8121-.3461,.93818-1.1364,1.184-1.4825,.4567-2.7817-.33282-3.1154-1.9273-.1591-.7832,.6844-2.283-.10338-2.85-.45812-.332-.90932,.21148-1.38862,.1246-.5968-.10812-1.0056-.9547-1.1638-1.5162-.2608-.92892-.1464-2.0457-.0807-3.0036,.0807-1.1231-.0423-1.8302-1.3831-1.4309-1.4903,.4448-3.229,.4252-4.83378,.4833-.54122,.0196-1.03132-.051-1.44422-.4542-.3233-.3173-.3955-.8334-.827-1.0614-.35478-.1926-.7574-.003-1.062-.1369-.5012-.2233-.3249-.5961-.61478-1.0191-.34382-.4972-2.29152-1.5458-2.81942-1.3736-.6838,.22248-.1841,.7974-1.0738,.4621-.469-.1754-.7909-.74562-1.2577-.9453-.1958-.0838-.5678-.0329-.7229-.1245-.3509-.2029-.5137-.6846-.408-1.2084,.0571-.2852,.2396-.4425,.29282-.7058,.12388-.6273,.15348-1.2725,.29288-1.9109,.2844-1.2804,.2929-1.8146-.2435-2.9134-1.92738-.3869-.3862,4.81968-2.5523,4.53768-1.1459-.14718-1.1279-1.58358-1.0307-2.438,.0712-.62418,.2224-1.07288,.0492-1.75118-.18558-.7237-.2834-.5857,.0518-1.32282,.16762-.36488,.3179-1.05948,.5349-1.37518,.3383-.4857,1.0534-.5732,1.5233-.92882,.8779-.66508,.1652-1.91968,.9178-2.50078,.8945-.6946,1.875,.069,2.2853-1.1301,.19832-.58112,.6571-1.5404,1.1075-1.965,.3696-.3469,1.5953-.7988,2.0653-.4456,.4769,.3571,.0674,1.35648,.7479,1.6901,.3955,.1918,1.4418,.1965,1.9267,.1981,.19892-.7314,.5654-1.159,1.3978-1.0033,.394,.0752,.9359,.31258,.8036,.8052-.6814,.0359-1.1834,1.3133-1.1011,1.9227,.1081,.8223,1.1935,1.3556,1.9422,1.2836,.9571-.0948,1.279-.8772,1.4333-1.8044,.1418-.8381-.3384-1.2101-.2146-1.9681,.7181,.07358,.8803-.9696,.7354-1.5233-.1081-.4159-.29768-.2686-.5161-.6368-.2429-.4088-.134-1.12932-.585-1.4629-.8568-.6336-2.2893,.0109-3.1665-.6806-.8904-.7011-.9585-1.5805,.1183-2.04482,.773-.33218,1.2139-.098,1.2139-.98228,0-1.203,.0369-2.5484-.8591-3.4843-.4528-.473-1.2735-.354-1.6799-.874-.2264-.2937-.3211-1.49742-.2491-1.8671,.0713-.3978-.213-.1981,.3172-.4645,.303-.1519,.7542-.0477,1.0824-.061-.01878-.188,.0595-.43382,.0313-.6305,1.5906-.5412,1.2727,1.12468,1.7487,1.90468,.8546,1.40512,1.2657-.11678,2.19922-.094,.26018,.755-.11272,1.351-.06092,2.04572,.0625,.8647,1.3361,1.4755,2.156,1.3141,.332-.0674,.7127-.282,.9327-.5827,.1575-.2177,.1928-.8936,.3007-.9954,.8679-.8042,1.17252,1.2336,1.3559,1.6565,.3217,.733,1.2365,1.506,.7572,2.3737-.6178,1.1209-2.3472,.3792-3.0802,1.1404-.4793,.5035-.3831,1.9336-.1441,2.5266,.33672,.834,1.3251,1.4543,2.1865,1.4222,.1575-.7707,.6878-2.17412,1.5971-2.19212,.7838-.01648,1.36112,.98372,2.0792,.17632-.0799,.0891,.828,1.639,.9728,1.76368,.2475,.21842,.3947,.32492,.7314,.25522,.3995-.0791,.4504-.47222,.9163-.3367,.40342,.11348,.6471,.6977,.947,.95148,.7017,.59442,1.5247,.51232,2.34642,.78322,1.05718,.3469,5.07408,1.8169,5.56828,.4566,.5726-1.5773-2.2954-2.3769-1.9931-4.1015,.328,.0023,1.3565,.0023,1.5804-.293,.3102-.4095-.1222-1.3087-.3344-1.6501-.6485-1.0463-1.4261-1.0691-2.5258-1.3503-1.2687-.3203-2.4858,.22708-3.7506-.2733-.8224-.3249-3.049-1.7605-2.0816-2.8569,.8802-.9908,2.2524,.5607,3.1546,.6602,.4089,.0445,.809,.0054,1.2123,.0586,.6125,.0799,.6305,.1989,1.1741,.5108,.8552,.4895,1.8506,.4895,1.96182-.6086,.05018-.4778,.20288-.9861-.05172-1.3776-.3086-.4738-1.0416-.4417-1.228-1.0346-.3007-.9813,.2992-1.524-1.069-1.8506-.4332-.1035-1.02528-.2271-1.4638-.069-.3901,.1426-.643,.661-.9994,.7699-.7229,.2263-2.9424-.3086-3.3324-1.1097-.2694-.5507,.188-.9688,.2389-1.4537,.0556-.5176-.2538-.9053-.1755-1.4386,.0454-.30782,.17-.7096,.4135-.9454,.3298-.3171,.99242-.3328,1.1608-.7965,.2192-.6077-.3407-1.0831-.8811-1.1183-1.00728-.0681-.972,.77838-1.286,1.4449-.7034,.0423-1.2538,.4159-1.9071,.4723-.9789,.08918-1.3353-.4794-1.9203-1.0472-.5615-.54662-.9948-.354-1.756-.4613-.3947-.0539-.8137-.2608-1.2005-.3899-.5342-.1771-.8991-.1801-1.4459-.2521-.805-.1035-1.3603-.74032-2.0338-1.1741-.8842-.5709-1.976-.8881-3.0592-.68522-.7376,.13692-1.2334,.58572-1.6939-.13318-.6148-.0964-1.2679-.3181-1.7262-.3751-1.2256-.1505-1.4456,.2176-1.4402,1.4214,0,.7495,.3266,3.0058-.2953,3.3301-.5514-.5458-.885-.6743-.9728-1.4654-.0806-.6985,.0557-1.1692,.2312-1.7895,.1989-.708,.148-.8122-.5656-1.2257-.4972-.285-1.2123-.42362-.90368-1.1889,.47768-1.1935,2.18738-.1839,3.04338-.2608,.6085-.054,1.7238-.3383,2.2845-.8982,.0064-.4026-.0226-.8013-.1777-1.1834-.3478-.8584-1.2484-.7558-2.05818-.7769-.16062-.6869,.68048-1.0096,1.17468-1.29542,1.09732-.63208,1.1271-1.05428,1.4412-2.23288,.7824-.094,1.55212-.9124,2.2054,.0353,.4785,.6969,.1965,1.651,1.0832,2.1655,.7298,.4182,2.2351,.4393,3.0536,.2239,.6977-.1847,1.47-.9484,2.2421-.7987,.3203,.0633,.7221,.5583,1.0565,.6898,.59532,.2328,.8835,.1059,1.4999-.0163,1.0775-.213,1.5209,.38138,2.50142,.66338,.61248,.17692,.65548,.07822,1.12848,.52542,.3689,.3508,1.1083,.84658,1.3792,1.2742,.3486,.54738,.0846,1.23038,.2437,1.8232,.1573,.57418,.5819,1.1983,.8724,1.7113,.2781,.4957,.405,1.142,.8098,1.4278,.7855,.5529,2.9447,.5678,3.8086,.26708,.4331,.55122,.5444,1.304,.52082,1.98842-.01172,.3251-.25922,.8952-.17632,1.1513,.351,1.0666,1.7952,.2554,2.7028,.43228,1.2054,.23492,1.3408,1.01582,1.6613,2.09262,.2098,.7175,.6186,1.792,1.6477,1.5836-.1926,.571-.6664,.997-.8661,1.5554-.2116,.593-.1733,1.25938-.1733,1.9008,.0057,1.0848-.1472,2.1772,.3032,3.14058,.3266,.69542,.5138,.92342,.6368,1.83182,.11192,.8185,.198,1.5358,.9052,2.02618,.6408,.44632,1.1318,.16762,1.7653,.27252,.8702,.1441,1.6839,.5936,2.40842,1.08148-.22872,.91012-.28122,1.80772,.69378,2.15462,.6594,.231,1.9009-.2255,1.91022,.8357-.45812,.0931-.80042,.6022-.77462,1.0839,.0384,.7659,.611,.5372,.9672,1.11678,.3996,.64372-.1182,1.76522-.0807,2.59862,1.2657,.1753,1.5697-2.8148,1.7396-3.6583,1.8373,.2655,.578,1.9438,.8388,3.0381,.2812,1.1919,1.9422,3.5744,3.4976,2.5578,.7174-.4684,.383-1.3855,1.5194-1.6675,.2554-.0603,.55372,.0627,.809,0,.27172-.06172,.6289-.3891,.8286-.4205,1.8265-.2883,1.0088,1.6995,1.5249,2.8312,.4926,1.0792,2.8178,2.2398,3.0998,.4715,.2491-1.539-2.2978-3.4782-2.4497-5.1252-.0526-.5968,.1934-1.0291,.2489-1.5099,.119-1.0549-.2622-1.5523-.7009-2.4647-.45888-.9484-.31788-1.6604-.5043-2.608-.0689-.3493,.0392-.5357-.2585-.8326-.3375-.33752-.7966-.0672-1.0517-.2881-1.9243-1.68542,.7205-2.6261,2.1881-1.9799,.4778-1.6666-.3312-2.5516-.69148-4.1954-.101-.4536,.00708-.7919-.19822-1.2133-.3617-.7424-1.0675-1.1152-1.3799-1.84682-.5013-1.17778-.2788-2.43558-1.40888-3.131-1.536-.94058-2.78352-1.02608-4.02322-2.41058-.2766-.3078-.7074-.6759-.7645-1.088-.1049-.76042,.3306-.6015,.54672-1.0462,.40578-.8395,.59758-2.5024,.20588-3.4209-.55988-1.3135-2.42688-.88032-2.4975-2.5994-.022-.513,.405-.69392,.3509-1.2163-.06428-.6202-.5984-.712-.7009-1.3197-.1583-.9178,.9218-1.23192,.6828-2.1694-.097-.3838-.5928-.697-.8661-.9649-.1364-.1307-.4284-.1221-.589-.2529-.0704-.0563,.018-.3752-.0932-.4386-.6485-.3689-1.3557-.2608-2.1318-.0869-.7925,.1761-1.8216,1.3972-2.58608,.4417-.52-.6493,.18258-1.53192-.74952-2.0864-.1692-.10352-.4659,.0767-.6352-.0079-.4126-.2059-.498-.5843-.8512-.8152-.4332-.282-1.1388-.2592-1.3925-.7786-.2428-.4942,.2905-1.3611,.1119-1.98382-.4197-1.448-2.8131-1.56318-4.0357-1.79188-1.4206-.2685-3.67-.8357-4.432-2.2305-.549-1.0125,.2749-3.48362-1.5507-3.3049-.7847,.0774-1.53108,1.3972-2.1756,1.7934-1.1638,.7198-1.47948-.0376-.954-1.21712,.7283-1.63518,3.107-.82928,1.0417-2.79588-2.1796-2.0777-5.2128-.6829-7.2437-3.46712-.5693-.78088-.5983-1.92658-1.4614-2.48738-1.0557-.6853-3.9127,.5709-4.8714-.2452-.9641-.82-1.1904-1.2577-.0094-2.3479,2.0434-1.8891,10.089,1.5499,8.4122-3.4358-1.0676-3.1758-6.3414-2.178-8.89148-2.7811-.58582-.1378-1.17172-.2937-1.75992-.4597-3.6855-.3384-7.4174-.5208-11.1915-.5208-17.8949,0-34.8773,3.8986-50.1502,10.8862-.0345,.0962-.072,.188-.123,.2749-.8371,1.412-3.1153,1.2899-4.2933,2.4467-.903,.8849-.972,2.4535-1.889,3.21008-1.2053,.99242-3.23309-.30918-4.0092,1.55312-.7126,1.7143,.37211,2.792-1.3916,3.94088-.93129,.60312-2.5776,1.82652-3.7225,1.75672-1.4333-.0861-1.568-1.4269-3.1633-1.2859-.6234,.0555-1.2554,.0555-1.896,.04618-.8302,.59912-1.6526,1.21162-2.4678,1.83272,.58431,1.28828,1.593,2.622,2.5037,3.0387,.6783,.3132,1.727,.603,2.464,.2138,.9099-.4841,1.058-1.9767,2.4193-1.7363,.5434,1.0126,.1331,1.3502-.2334,2.04408-.1935,.37512-.6479,.148-.7935,.60932-.1535,.491,.63521,1.5733,.87421,1.9368,1.39069,2.1122,3.37849,2.5257,5.03029,.5466,.2834-.3383,.787-2.1538,1.2429-2.28072,1.0047-.28578,.6837,1.00652,.5365,1.57272-.2404,.921-1.1083,1.7042-.2711,2.7176,.6078,.7348,1.9196,.6611,2.7843,.6274,1.2484-.04772,2.5405,.014,3.06211-1.05972,.58819-1.20758-.21841-1.89288,1.16709-2.80848,.6743-.4448,1.8976-.5583,2.3323-1.2437,.1049-.1644,.0555-1.1856,.1848-1.5106,.2944-.7566,.5224-.9704,.64381-1.7435,.12439-.7879-.15671-1.3165,.48549-1.9814,.8474-.8701,1.2562-.5036,1.723-1.6549,.3094-.7683,.1841-1.7746,.7253-2.46142,1.7135-2.18048,1.7707,.17612,1.918,1.41192,.1018,.8554,.1684,4.3279,1.1638,4.46108,.8583,.11442,1.0917-1.78408,2.2188-1.3,1.0087,.43692-.0793,1.36352-.2179,1.838-.4754,1.62592,.0807,2.68,1.1951,3.91442,.5977,.6547,1.1546,.8262,1.4263,1.7097,.1738,.5623-.1307,1.2013,.07911,1.8028,.46529,1.33608,2.07549,1.2845,2.63,2.6675,.14639,.3643-.00791,.70258,.51049,.918,.5694,.238,1.2758-.1269,1.9141,.2051,.7205,.3728,.4386,.7512,.5921,1.4277,.7997-.0876,1.232,.3267,1.4692,1.0095,.2866,.831,.6579,1.5037,1.6642,1.7301,.5757,.12918,1.3355-.0337,1.8727-.1895,.3211-.0901,.643-.452,.9187-.0548,.5098,.7291-.6148,1.73,.9124,1.8671,.4284,.03838,.6704-.0282,.9836-.3172,.3508-.3212,.3454-1.1223,.8381-1.2813,1.0189-.32512,.4831,1.2452,.6469,1.73,.14952,.441,.26,.3986,.6626,.5773,.404,.1761,1.1778,.4565,1.6086,.4565,.5286,.0032,.2624,.0125,.5787-.119,.14962-.0611,.358-.2671,.5537-.3516,.1151-.0478,.3713-.0228,.4998-.0524,.6249-.1317,.6249-.4724,.86612,.1142,.21928,.53888-.184,.697-.28822,.997-.1261,.3594-.2154,.8052-.43778,1.1771-.11132,.1856-.34692,.1081-.44092,.3336-.1113,.2616,.094,.6931,.1362,.9321,.1942,1.07608-.466,1.7159-1.5396,1.6298-1.33068-.1035-1.351-1.1193-2.0622-1.8264-.5812-.5796-1.5217-.1794-2.0887-.7504-.4387-.4456,.0289-1.1285-.3024-1.6423-.5607-.8677-1.6156-.3422-2.4153-.3743-.6814-.0297-1.3172-.2631-1.965-.4426-.62408-.1753-1.2758-.6154-1.9336-.617-.65548-.0032-1.0166,.4518-1.59848,.5834-1.17011,.2577-2.41221-.2326-2.62521-1.4519-.0752-.4426,.1628-1.0856-.0149-1.5037-.2866-.6776-1.3-.76452-1.7371-1.3401-.6414-.8442-2.14979-3.68642-.217-3.7883-1.0001-.7118-1.8985-1.7465-3.092-2.1419-1.654-.5476-3.4114-.4387-5.1886-.1755-1.8506,.2742-3.1498,.4285-4.3905,1.85928-.5708,.65862-.8034,2.171-1.1598,2.53992-1.9603,2.01508-2.839-.6063-5.5035,.0359-.1753,.4904-.2152,1.467-.0587,1.987,.3657-.0157,.925,.1628,1.3361,.1057,.7175,3.244-4.3153,1.0119-5.8424,1.3197-.6971,.1409-4.7868,1.5491-3.17039,2.92278-.25531,.39252-.71661,.42452-.97741,.76752-.52159,.6869-.3774,1.5226-.5912,2.2963-.16839,.6124-.4912,.9077-.4347,1.6588,.0587,.7825,.3234,1.3126,.1761,2.1357-.1753,.968-.639,2.0082-1.6493,2.13568-1.2633,.16052-3.1257-.77378-4.2786-.03288-.6946-.6162-2.3605-1.40412-3.2815-1.4606-1.1842-.0736-1.1731,.4206-1.6415,1.2093-.264,.4425-.6531,.1189-.5764,.8755,.0611,.5725,.5553,.705,1.05651,.9821,1.41289,.7879,2.27039,1.0729,3.81639,1.1247,1.48961,.0462,2.74661,.1614,4.1658-.072,.3962-.06512,.82081-.1738,1.2562-.1144,.3915,.0509,.7572,.3932,1.1685,.2788,.7683-.2091,.29211-.4816,.7659-.9782,.7879-.8278,2.1899-.5475,3.3019-1.2234,1.2491-.762,1.1622-1.8631,2.83831-1.5952,.42609,.06728-.87881,3.66528-.88741,4.0122,1.3917-.3164,2.72-.4824,3.9215-1.4395,.3687-.2991,.166-.686,.6922-.7917,.7558-.1505,1.1372,.6687,1.20771,1.1614,.27809,1.95788-1.22881,3.1601,.68449,4.7413,1.0753,.8889,1.9689,1.4623,2.0873,2.9354,.0524,.6368,.3124,1.3871,.2646,1.8883-.0752,.8363-.9891,1.4715-1.1473,2.1811-.2868,1.2969,1.3744,2.2203,1.1316,3.5667-.7284,.0617-2.4655,.6257-1.8075,1.74008,.2913,.49342,1.7096,.56242,2.2532,.84032,.1128,.84668-.5561,.7042-.8513,1.1756-.37909,.6079-.015,.9947-.018,1.615-.0024,.5105-.192,.8677-.1747,1.4363,.0172,.6634,.42061,1.27278,.2483,2.0292-.213,.9187-.7598,1.2899-.5811,2.3284,.0986,.5779,.5285,1.2327,.7439,1.795,.2836,.73318,.5483,1.4607,.2741,2.312-.3399,1.0565-1.6447,1.9486-1.4731,3.1209,.1386,.9391,.6829,.734,1.2022,1.304,.3211,.3502,.6031,1.1889,.6939,1.69328-1.4513,.55372-.0117,2.81482,1.3369,2.27752,.8802-.3516,.7659-2.366,.79251-3.2408,.36419-.0095,.73939-.0125,1.10589-.0063,.4754,1.3478,1.0565,2.6855,2.0848,3.8141-.6242,.7253-.4175,.7777-1.1771,1.069-.5725,.2194-1.3189-.0407-1.5068,.7794-.5929-.1684-1.8867-.8498-2.5313-.347-.64849,.5027,.0094,1.5969-.0924,2.2696-.1785,1.19748-1.3659,1.2304-1.2326,2.5141,.0798,.7792,.6374,1.354,.5403,2.1889-.1527,1.3284-1.2312,2.38248-1.2124,3.7452,.0063,.3571,.3713,1.0275,.3344,1.253-.1285,.7487-1.49279,1.1122-1.9093,1.9487-.3314,.6577-.1442,.9288-.15049,1.6305-.00781,1.2046-.98511,1.4019-1.23811,2.4826-.3188,1.3393-.1284,2.6159,.6806,3.7624-2.6002,.918-.853,2.9542-.3251,4.6193,.2194,.69378,.7691,1.7544,.6031,2.4779-.0894,.3901-.5184,.2993-.6211,.5577-.1049,.2679-.0431,.5436-.0791,.8411-.1652,1.3956,.6602,2.1945,.8748,3.3739,.1152,.6455-.0462,1.1764,.1864,1.8077,.8074,2.1522,3.76,1.8873,4.5432,3.7827,.2882,.6907-.2999,.9634-.2051,1.6352,.0931,.6705,1.0377,.9007,1.2366,1.4693,.24281,.7017-.40719,1.4771-.1307,2.09728,.2372,.52952,1.0729,.91962,1.347,1.57732,.41051,.9728,.26,2.2181,.26,3.3412,0,1.2781,.0454,1.9719,.7996,3.0591,.195,.2757,.4613,.6547,.7221,.8772,.1567,.1315,.6022,.1739,.6791,.2693,.3673,.4684,.2412,.874,.3673,1.4537,.054,.2553,.4839,1.029,.401,1.3078-.1519,.5138-.846,.4089-.8772,1.1529-.0432,1.06348,1.17,1.7872,1.8859,2.2822,1.03071,.7237,1.19671,1.1559,1.6689,2.257,.3564,.8349,1.3056,1.153,1.5366,1.8734,.2051,.6423-.6374,1.5524-.8184,2.1976-.1089,.3994-.2765,.88028-.318,1.3002-.0587,.5983,.3461,1.3,1.1231,1.3516,1.0424,.069,1.8264-1.325,2.33151,.1614,.19739,.5764,.23189,1.0682,.53179,1.58208,.2498,.42912,.751,.82862,.9773,1.29682,.232,.4811,.0636,1.3629,.3996,1.7653,.2287,.2741,1.5217,.5985,1.8866,.5436,1.50371-.2334,.1794-3.29872-.0204-4.0193-.21689-.7926-.7064-1.4989-1.33289-2.0175-.52241-.4292-1.40261-.285-1.80451-.7957-.3509-.4448-.2059-1.51-.2271-2.066-.025-.7597-.0627-1.3721-.3007-2.0833-.1989-.5968-.3736-1.065-.3963-1.6868-.011-.3008,.1284-.8946,.0078-1.1623-.1426-.3211-.7441-.6156-.99619-.8553-.41821-.3962-.59061-.8113-.87011-1.2938-.3016-.5263-.5364-.9226-.7127-1.4708-.09719-.2976-.1605-.5686-.3156-.8176-.2695-.4465-.6719-.8035-.8865-1.2029-.2342-.4418-.3924-.9853-.5945-1.4145-.3939-.83492-.8748-1.5068-1.0855-2.4044-.1033-.43852-.2812-.99152-.1864-1.4536,.112-.5435,.4645-.6657,.7628-1.134,1.0267,.5436,1.2547,1.9297,1.8531,2.8367,.2263,.3367,.3836,.54038,.3649,.9696-.0258,.5279-.4684,1.0087-.3556,1.4771,.094,.4024,1.0127,1.062,1.2806,1.3361,.34851,.3602,.62951,.7502,.7761,1.2483,.4682,1.58828,1.434,2.9306,2.41141,4.2417,.89359,1.1921,1.49119,1.3909,2.52259,2.2101,1.5381,1.2219,.6791,3.717,2.9259,4.3529,.1841,.9305,.9266,2.5705,1.5156,3.3019,.8364,1.0338,2.2272,.9712,2.92192,2.1772,.56388,.9696,.80128,2.381,1.279,3.407,.878,1.8827,1.116,2.4199,.52238,4.2572-.5787,1.792-.1073,2.6879,1.3189,3.96928,.7502,.68141,1.3666,1.76211,2.3511,2.15851,.8802,.3477,1.9359-.22251,2.7833,.0062,.4865,.12529,.903,.6939,1.4396,.8615,.88572,.2646,1.6463-.1269,2.4019,.4292,.55382,.4024,.7057,1.5225,1.4427,1.8499,.8105,.3681,2.2712-.4355,2.9714-.0972,.4042,.1958,.7479,1.15589,1.1043,1.5022,.6829,.66869,1.35242,.711,2.1623,1.134,1.4426,.7566,2.2712,.9852,3.9574,1.0511,1.8194,.075,3.479-.2945,5.2449-.2069,1.1929,.0596,1.5437,.2914,2.6002,.9696,1.8821,1.2061,3.87762,1.7293,6.14962,1.9391,1.60148,.1505,2.95168,.708,4.46948,1.0935,.8929,.2301,1.8617,.2208,2.7741,.1738,.3023-2.0864,2.8319,.6548,3.2736,1.1371,.4379,.4746,.351,.6282,.8764,.9461,.3611,.2225,.925,.141,1.4575,.5765,.6721,.5575,.8796,1.2483,1.3025,1.96579,1.8585,3.14681,6.4408,3.20311,9.78742,3.29081,.87788,.0236,3.35818,.6328,4.08348-.0359,.704-.6485,.0039-1.7716,.5608-2.276,.58272-.52791,2.0253,.1989,2.3823,.4119,1.13642,.6813,1.46542,1.8546,2.2862,2.608,1.0189,.9335,4.5909,.3665,1.4371,2.6597-.6116,.4449-1.4513,.4778-2.0566,.91949-.8074,.59041-.8568,1.297-1.4662,2.02051-1.8052,2.1256-3.3299,5.6046-4.9276,8.0339-2.0544,3.125-8.4561,5.418-2.9824,8.12,2.1122,1.04159,5.1297-.1252,6.9915,1.0808,3.00742,1.9517,.6115,3.7593,1.8827,6.1465,.6868,1.2875,1.8123,1.867,3.1241,2.091,25.6851-10.4163,46.9703-29.41471,60.2969-53.4411-.82228-.0407-1.6838-.1049-2.6407-.2991-2.4233-.4872-4.9091-1.0307-7.3824-1.16551Zm-65.9718-57.65918c-.95,.5561-7.1607,2.4624-6.0588-.4167,.5803-1.5192,3.1383-1.9517,4.4516-2.1348,.9047-.1285,2.059-1.5304,2.98082-.6251,.93128,.9133-.57242,2.7083-1.37362,3.1766Zm1.35162-6.32182c.51068-.63438,1.55478-.93348,2.15618-1.57428,.91482-.9835,2.6823-2.5594,4.19-1.3924,.5545,.4293,.4432,1.2766,.20682,1.9392-.34942,.9758-.70412,1.0479-1.586,1.1324-.63982,.0627-1.44342-.1628-2.06442,.0173-.6814,.1957-1.2069,.96478-1.8977,1.17778-1.0682,.32112-1.7473-.37268-1.00488-1.3Zm-3.56412-5.28968c.4518-.3617,1.9963,.6751,2.2422,1.0511,.4237,.6422,.81992,1.5428,.8622,2.3261-.838,.18948-.831-.2976-1.286-.6673-.4385-.354-2.7999-1.9329-1.8184-2.7099Zm-4.3372-.6672c1.0831-.1033,2.8107,.473,3.4537,1.3627,.6963,.9649,.322,2.2008,.2717,3.291-.0415,.9006,.4128,3.0919-1.0658,3.1343-1.6001,.0486-1.27028-1.1983-1.492-2.2524-.712-.2272-.4966,.8834-1.2844,.6938-.1723-.9899,.8865-1.9876,.4268-2.9776-.3415-.7394-1.5844-.6218-1.8898-1.3956-.4056-1.0244,.7534-1.7826,1.5798-1.8562Zm-4.60368,3.8612c-.79332,.7768-.74632,2.2664-.63362,3.3316,.1708,1.6039,.3314,3.5728-.40638,5.1126-.231,.484-.93592,1.5381-1.44662,1.784-.9765,.4746-1.1332,.0486-1.3259-.5732-.3281-1.05732,.0791-2.3934-.2114-3.4712-.4308-1.6023-.3759-2.4277,.0493-4.005,.2592-.95712-.1136-2.4765,.24362-3.4273,.30858-.8176,1.00088-.849,1.78248-1.0243,.8968-.1991,3.7366-1.6917,3.6654,.2067-.0315,.79578-1.2171,1.582-1.71688,2.0661Zm-11.92322-4.9577c.1638-.6751,.354-.6688,.9791-1.0557,.8427-.5246,1.2633-1.1324,1.83812-1.90692,.75038-1.01358,1.74718-1.24288,2.76318-1.91258,1.3462-.8873,2.1693-.4597,3.48182-.10342,.74728,.20372,1.75758-.14568,2.45148,.17082,.6963,.3171,.585,.9381,.9946,1.51918,.5787,.82242,3.034,2.82352,.9563,3.44072-.7802,.2317-1.7419-.2993-2.5822-.08472-.96718,.24752-1.4521,1.29862-2.5125,1.073-1.6023-.33838-.1793-1.32978-.9726-2.18038-.7919-.8458-1.9188,.8115-2.637,1.0541-.59608,.2037-1.2492,.1927-1.7982,.5797-.4605,.3241-.4464,.7143-1.0237,.9037-1.1394,.3743-2.2367-.249-1.9384-1.4975Zm1.0128-51.95762c-.4974-.12068-1.1435-1.65338-.802-1.64548,.5686,.0149,1.4472,.0736,1.8718,.5067,.7503,.75978-.2812,1.329-1.0698,1.13878Zm-6.1597-9.64868c.22712-.8726,.9759-1.0668,1.636-1.5219,.6719-.4597,.6368-.8772,1.4858-.9571,.1448,1.041-1.8563,3.1476-.44568,3.8933,.58188,.30538,1.32818,.1049,1.84668,.35238,.6532,.31332,.495,1.14812,.88032,1.64932,.46748,.6094,1.275,.5468,1.72918,1.2516,.9289,1.441-.54818,2.7145-1.84818,1.5413-.42922-.3884-.372-.9061-.60312-1.405-.4276-.9288-.6555-.3743-1.4035-.6767-.6468-.2592-.8582-.9351-1.5162-1.1434-.8169-.257-1.08618-.4895-1.4974-1.3369-.2334-.4777-.4073-1.091-.2639-1.6469Zm-2.0027,8.1974c.2146-.3548,.9172-.5928,.9085-1.07372-.0141-.56708-.5654-.59758-.379-1.28438,.1347-.4919,1.1372-1.3338,1.6705-1.1342,.47,.1717,.4252,.9995,.3611,1.3847-.0956,.582-.4198,.8835-.8028,1.3065-.3766,.4119-1.3776,3.9715-2.0276,2.2116-.123-.3336,.1009-1.1317,.2693-1.4105Zm-26.9241-42.5235c-.44008,1.3706-1.795,1.3454-2.8993,1.8632-.99,.4629-1.9125,1.0533-2.9354,1.4191-.6242,.2256-1.3863,.0414-1.781,.5553-.4839,.6328,.14661,1.7966-.7706,2.315-.1793,.1019-2.2453-.119-2.5023-.2937-.9248-.6257-.86849-1.6572-.0093-2.12012,.9022-.49088,1.6399-.52538,2.4764-1.19888,.5889-.4754,1.134-.9799,1.6751-1.49912,.1567-.15028,.3149-.29988,.4716-.45178,1.2891-1.2383,2.7521-2.605,4.6866-2.4075,1.2546,.1284,2.07612,.3015,1.5882,1.8185Zm7.2335-1.5366c-.8552,.18638-1.8288-.6751-2.6127-.35562-.6046,.24352-.6932,1.51712-1.5523,.89142-1.0871-.7919,1.0816-3.3153,1.9618-2.4915,.5945,.5585,.5115,.5593,1.3597,.88808,.585,.228,1.0055,.06662,.8435,1.06762Zm-9.6644,47.5468c-.5797-2.0503,1.9525-1.2796,2.4826-2.6667,.2741-.71972-.51378-.4644-.9469-.4135-.3094,.0369-1.5264,.0187-1.354-.6665,.0617-.2396,.60212-.31872,.8419-.3493,.4339-.0533,1.0431,.3947,1.3446,.314,.3407-.0907,.2679-.6202,.6838-.7503,.7362-.2348,1.8099,.10888,2.6001,.0377,.3705-.0329,1.5554-.2592,.9359,.3649-.166,.166-.6547,.1622-.8756,.3572-.2224,.1926-.2569,.4143-.5819,.5975-.1089,.0619-.2991,.1184-.45968,.192-.11512,.05158-.22,.1103-.27182,.1847-.3274,.4738,.4183,.62188,.8263,.6031,.43152-.0203,.9053-.1535,1.0189,.4089,.29762,1.5067-1.5381,.476-2.1279,.8332-.1911,.1182-.3461,.5842-.4558,.78468-.1888,.35252-.065,.31262-.4659,.43552-1.0582,.3273-2.175-.3492-3.1946-.2671Zm6.35,10.9051c-.8005,.6814-1.7497,.12748-2.60018-.1246-.914-.27492-.76992-.4127-.76062-1.4527,.279-.0095,1.0785,.14078,1.2704-.0619,.0964-.10032,.0244-.708,.0665-.8536,.0652-.2241,.2429-.4716,.369-.6549,.0838-.1213,.292,.0721,.3892-.1245,.15352-.3032-.0728-.8905-.119-1.1951-.11348-.7126-.17-.7096,.3611-1.2413,.33042-.3306,.8512-1.0856,1.163-.5827,.1331,.2122-.0807,.5403-.1371,.7542-.1989,.7652-.2451,1.4661-.2138,2.2618,.6946,.0102,.9586,.87478,1.564,1.058,.82232,.2491,1.6572-.0625,2.1467-.636,.621-.7235,1.3337-1.0087,2.16-1.513,.5051-.311,1.6423-.43222,1.3924,.6164-.1511,.632-1.5749,.8575-2.1215,1.13638-.50528,.25522-.589,.769-1.0362,.97272-.4887,.2224-1.376,.0165-1.922,.1127-1.12608,.2045-1.2296,.896-1.9719,1.5281Zm5.8307,5.5346c-.8231-.2959-1.12388-.0454-1.8811,.1935-.69,.2146-1.2703,.4941-1.962,.7699-.3852,.1534-.8802,.3368-1.1693-.0408-.9241-1.2171,1.9354-1.636,2.5024-1.9313,.5646-.2913,1.1818-.5928,1.8115-.704,1.3345-.2342,2.24462,.8811,2.7912,1.94058-.66258,.329-1.4583,0-2.0927-.22788Zm9.47412-20.3094c-.24192-.2953-.27962-.7949-.60922-1.02672-.44878-.31478-.6063,.01092-1.0565,.163-.31728,.10712-.65328,.01632-.9971,.07832-.5873,.101-1.12,.4283-1.239,1.0103-.0877,.42438,.10182,1.0948-.21218,1.46838-.80042,.95792-1.27662-1.31488-1.55232-1.77-.48468-.79648-1.4269-.67668-2.2454-.54348-.90928,.148-1.5295,.556-2.5054,.4832-.3352-.025-1.0502-.1653-.67888-.6884,.17218-.2436,.55608-.1269,.81688-.1551,.0163-.3173,.1808-.5976,.19812-.92722,.599-.08308,.58728,.01092,.82858,.41892,.38842,.6523,.7221,.43,1.2836,.24508,.7933-.25758,1.6643-.07748,2.4812-.11358,1.2749-.0595,1.5779-1.7253,3.0653-1.6148,.7267,.0548,.5365,.5373,1.0581,.78538,.538,.25862,1.1435-.38908,1.6173-.22,.2513,.08692,.4651,.64,.783,.82862,1.7607,1.0456,2.2157-.7605,3.2087-1.7575,.3855-.386,1.3847-.5795,1.7748-.1228,.8607,1.0141-.6751,1.5694-1.0158,2.319-.2702,.596-.2374,2.0079-.9383,2.3165-.4809,.21-1.1176-.2075-1.5616-.3015-.4198-.09-.8264,.0079-1.25-.1402-.4205-.1456-.9712-.3844-1.25388-.7354Zm2.58758,35.47028c1.2453-.56478,2.4451,1.13322,2.977,2.01742,1.01342,1.6988,1.1567,4.2582,.8145,6.1722-.12308,.683-.7072,1.7591-1.0409,.5061-.2593-.9775,.37582-1.9229-.2381-2.7773-.4244-.5865-1.1223-1.0416-1.6133-1.5702-.7182-.7683-1.1114-1.2696-1.3972-2.2979-.2005-.7205-.2671-1.7026,.498-2.05032Zm63.2285,105.58051c-.78-.6313-.9829-1.3252-.845-1.9251,.3603-1.5851,3.0575-2.53441,3.8415-.072,.6916,2.1772-1.2312,3.4381-2.9965,1.9971Zm-6.408-18.364c-.5795,1.6446,3.0756,2.6377,4.1775,1.914,1.43642-.9508,.7629-2.8428,2.63-3.5478,1.2115-.451,2.1553-1.5256,3.3747-1.759,.7425-.1441,1.6133-.238,2.3699-.3336,.3015-.036,1.051,.1442,1.2969-.0063,1.2954-.7895,.0101-2.3714-1.094-2.5485-1.2939-.2098-2.5447-.3179-3.858-.462-.8677-.0939-1.6314-.249-2.51708-.2256-1.17412,.0298-1.83432,.60928-2.70362,1.2907-.68438,.5373-1.7936,.4542-1.8389,1.4145-.07048,1.4144,1.5867,1.8044,1.2789,3.3677-.8239,.0845-2.727-.213-3.1163,.8959Zm18.5623-6.43152c.41262-.34148,.4863-.39008,.9758-.62188,.3453-.1676,.6202-.18012,.9563-.44012,.7251-.55608,1.26552-2.60638-.239-2.43878-.0704,.0063-.46048,1.7716-.8387,1.9939-.7463,.4355-1.7387-.0235-2.5477,.6783-.5075,.448-.8928,.9884-.2788,1.5132,.7925,.6781,1.4379-.2429,1.9721-.68462Zm-31.5075-159.804c.7919,.06892,1.61512-.01638,2.41,.01322-.0722,.3643,.1878,.7457,.1894,1.0356,.6485-.0456,1.2453-.2132,1.5602-.6925,1.831,.8052-.3847,1.85468-.3361,2.8909,.0737,1.5795,2.359,.5881,3.5918,.7479,.00082,.1682,.0274,.3524,.0289,.5176,1.4215,.3297,1.6713-1.2304,3.0685-.9618,.9869,.1904,1.9462,1.4192,1.2907,2.37,1.2124,1.43008,5.3843-.9391,5.0476,2.4584,.9852,.2223,2.0009-.6626,3.01912-.3415,1.304,.4103,.83248,1.18418,1.15358,2.0613,.5006,1.3714,1.0166,1.5226,2.2697,1.0276,.8083-.3203,.3024-.8294,1.3753-.683,.4096,.0564,1.34642,1.055,1.6439,1.3095-.3964,.6235-.4402,1.3627-.7449,1.9642,1.351,1.0455,4.1165,.6344,4.1416,2.7983-.5075-.0141-.8811,.2874-1.0416,.7911,.3586,.2725,1.2475,1.141,1.5787,1.3048,1.0378,.52,2.5056-.4143,3.4484,.09538,.7174,.38852,.5631,1.76372,.9758,2.21492,.6814,.75108,1.586,.585,2.5094,.5983-.1198,1.3917-.1198,1.6384,1.31812,1.8797,.92648,.1559,2.86558-.2122,2.73638,1.2616-.1017,1.15048-1.8045,1.4686-2.6166,1.0087-.8959-.5026-1.0745-1.773-2.1255-2.24922-2.5094-1.13088-4.7461,2.56272-3.4084,4.64972,.5325,.8318,4.3975,2.2908,5.5927,2.1679,1.0839-.1135,1.6329-1.1725,2.8069-.92262,.047,.81922-.9242,1.347-.9242,2.09192-.0031,.7056,.7275,1.4606,1.4238,1.47308,1.3143,.02742,2.7161-2.58528,3.8878-1.04158-.0752,.499-.1051,1.0095-.06588,1.5139,.96028,.0392,1.99238,.1582,2.80688-.4471,1.2328,.9679-.48388,2.9047,1.9753,2.8789,.8457-.0103,1.1951-.5178,1.9422-.2108,.2255,.0934,.23962,1.0003,1.0323,1.1725,3.3237,.7276,.57-2.4866,.1331-3.2353-.1113-.191-.2382-.491-.3524-.8317-14.705-17.07882-34.1091-29.9903-56.2026-36.7359,.1026,.8655,.96722,1.85,1.2195,2.424,.53572,1.2177-.2272,1.47008,1.6406,1.63208Zm28.1553,83.00692c.2734-.2013,.4684-.7683,.4402-1.0878,.40962,.0101,.8193,.1918,1.21562,.2967,.89038,.2405,.59588,.14418,1.07678-.3782,.5851-.6375,1.0221-.21462,1.8836-.3453,.0164-.8012-.1472-2.2407-.9728-2.6597-.5732-.2914-1.0315,.249-1.58658,.213-.84672-.0572-.58672-.4558-.58982-1.019-.0016-.758-.4566-1.1441-1.2594-1.1723-.95-.0377-.9742,.0555-.997-.9758-1.4394-.8357-2.0322-.0252-3.4209-.0791-.213-.8153,.2553-1.7849-.0031-2.55942-.1676-.49278-.737-1.10678-1.1239-1.43568-.76988-.6586-1.0016,.1276-1.1858,.856-.2372,.9579,.611,1.3705,.3901,2.4045-.4096,1.8881,.1606,3.7975,.1739,5.7296,.0063,.9861,.0932,1.8702,.9531,2.43958,1.593,1.05192,.9132-.92958,1.9486-1.57018,.4895-.3032,.5208,.1214,.9908,.1393,.3029,.0117,.6233-.4369,.953-.2426,.3877,.2356-.2475,2.463,1.1136,1.4464Z" style="fill:#ced3f8;"/><g><path d="M897.01958,408.33989v168.156l76.0726,148.086c-22.6464,12.798-48.54268,20.088-76.0726,20.088-88.7286,0-160.6573-75.294-160.6573-168.174,0-92.862,71.9287-168.156,160.6573-168.156Z" style="fill:#807dfb;"/><path d="M973.09217,724.58188h11.8251c-22.6465,12.798-48.5427,20.088-76.0727,20.088h-11.82508c27.53,0,53.42628-7.29,76.07268-20.088Z" style="fill:#6b67e9;"/><path d="M897.01958,576.49588l109.24272,123.246c-9.95613,9.684-21.11602,18.036-33.17012,24.84l-76.0726-148.086Z" style="fill:#362e94;"/><path d="M1006.2623,699.74188h11.8251c-9.9562,9.684-21.11603,18.036-33.17012,24.84h-11.8251c12.0541-6.804,23.214-15.156,33.17012-24.84Z" style="fill:#20196f;"/><path d="M1055.149,606.05188h11.8251c-6.2248,36.738-23.8501,69.354-48.8867,93.69h-11.8251c25.0366-24.336,42.662-56.952,48.8867-93.69Z" style="fill:#d64b61;"/><path d="M897.01958,576.49588l158.12942,29.556c-6.2247,36.738-23.8501,69.354-48.8867,93.69l-109.24272-123.246Z" style="fill:#fb7d85;"/><path d="M897.01958,408.33989c88.7286,0,160.64002,75.294,160.64002,168.156,0,10.098-.8942,19.962-2.5106,29.556l-158.12942-29.556v-168.156Z" style="fill:#ffd03e;"/><path d="M897.01958,408.33989h11.825c88.7286,0,160.64012,75.294,160.64012,168.156,0,10.098-.8942,19.962-2.5106,29.556h-11.8251c1.6164-9.594,2.5106-19.458,2.5106-29.556,0-92.862-71.91142-168.156-160.64002-168.156Z" style="fill:#e19100;"/></g><polygon points="801.60098 617.03668 706.65078 650.71958 725.97028 670.03918 648.61058 747.39888 597.37228 696.16058 452.63309 840.90087 475.25999 863.52977 597.37228 741.41447 648.61058 792.65278 748.59908 692.66788 767.91808 711.98688 801.60098 617.03668" style="fill:#dde2f8;"/><path d="M141.03289,573.54208c0-11.9723,9.7049-21.6769,21.6771-21.6769,11.9703,0,21.6752,9.7046,21.6752,21.6769,0,11.9703-9.7049,21.6732-21.6752,21.6732-11.9722,0-21.6771-9.7029-21.6771-21.6732Z" style="fill:#423eaf;"/><path d="M162.71019,584.46728c-.5117,0-1.0234-.1954-1.4141-.586l-9.6152-9.6113c-.7812-.7813-.7812-2.0469,0-2.8281,.7793-.7813,2.0469-.7813,2.8281,0l8.2012,8.1972,22.6602-22.6601c.7812-.7813,2.0468-.7813,2.8281,0,.7812,.7812,.7812,2.0469,0,2.8281l-24.0742,24.0742c-.3907,.3906-.9024,.586-1.4141,.586Z" style="fill:#fcba06;"/><path d="M1314.6016,91.05669c0-11.97222,9.7049-21.6769,21.6771-21.6769,11.9703,0,21.6752,9.70468,21.6752,21.6769,0,11.9704-9.7049,21.6733-21.6752,21.6733-11.9722,0-21.6771-9.7029-21.6771-21.6733Z" style="fill:#5652cc;"/><path d="M1336.2786,101.98289c-.5118,0-1.0235-.1953-1.4141-.586l-9.6152-9.6132c-.7813-.7803-.7813-2.0469,0-2.82822,.7812-.78118,2.0468-.78118,2.8281,0l8.2012,8.19932,22.6601-22.6602c.7813-.7812,2.0469-.7812,2.8281,0,.7813,.7813,.7813,2.04688,0,2.8281l-24.0742,24.0742c-.3906,.3907-.9023,.586-1.414,.586Z" style="fill:#fff;"/><g><path d="M396.00189,547.80108c-1.9326,.2852-2.81039,5.1859-1.9605,10.9461,.8498,5.76029,3.1055,10.1988,5.038,9.9137l10.9465-1.615-3.0775-20.8598-10.9465,1.615Z" style="fill:#362e94;"/><path d="M465.92839,520.59908l-54.4776,8.03739c-4.9946,.73691-7.2632,13.40271-5.0669,28.28971,2.1964,14.88729,8.0261,26.35829,13.0207,25.6214l54.4776-8.0374c4.9946-.7368,7.26331-13.40271,5.0669-28.29-2.1963-14.887-8.0261-26.358-13.0207-25.6211Z" style="fill:#5652cc;"/><path d="M470.11579,529.14698c-3.3326,.4917-4.8461,8.94249-3.3806,18.8753,1.4654,9.933,5.3549,17.5866,8.6875,17.095l86.66,24.33019-14.8464-107.19149-77.1205,46.891Z" style="fill:#807dfb;"/><ellipse cx="556.83278" cy="535.77798" rx="18.26247" ry="54.43291" transform="translate(-72.23712 87.01095) rotate(-8.39267)" style="fill:#5652cc;"/><path d="M537.23508,522.68898c.2269,5.0248,.7281,10.3139,1.5308,15.75449,.8027,5.44061,1.8503,10.64911,3.0841,15.52541,8.236-1.6315,13.8339-9.4415,12.595-17.8387-1.2388-8.3971-8.8536-14.25771-17.2099-13.4412Z" style="fill:#fcba06;"/><path d="M418.4375,551.46047c-1.35081-13.26359,.92589-23.99139,5.50889-24.66759l-3.94189,.58159c-4.583,.67611-6.85971,11.40391-5.50881,24.66761l3.94181-.58161Z" style="fill:#362e94;"/><path d="M426.94599,550.20518c-1.3508-13.2636,.9258-23.9914,5.5089-24.6676l-3.9419,.5816c-4.583,.6761-6.8597,11.4039-5.5089,24.6676l3.9419-.5816Z" style="fill:#362e94;"/><path d="M435.45439,548.94988c-1.3508-13.2636,.9259-23.99141,5.5089-24.6676l-3.94179,.5816c-4.58311,.6761-6.85971,11.4039-5.50891,24.66759l3.9418-.58159Z" style="fill:#362e94;"/><path d="M443.96289,547.69458c-1.3508-13.2636,.9259-23.9914,5.5089-24.6676l-3.9419,.5816c-4.583,.6761-6.8597,11.40389-5.5089,24.6676l3.9419-.5816Z" style="fill:#362e94;"/><path d="M429.33109,581.08308c1.45141,9.8375,10.5529,43.8455,19.3836,52.8291,5.0346-.7428,9.5011-1.40171,11.4153-1.6841,1.9142-.2825,3.4902-1.3843,1.8811-4.1893-1.6091-2.8051-8.6901-29.6872-10.702-50.1982-2.9777,.4393-21.978,3.2425-21.978,3.2425Z" style="fill:#362e94;"/></g><g><path d="M618.93868,528.61568c-.9765,0-1.8301-.7148-1.9765-1.709-.1622-1.0918,.5937-2.1074,1.6875-2.2695l79.3769-11.711c1.0938-.17571,2.1094,.5957,2.2695,1.6875,.1622,1.09179-.5937,2.1075-1.6875,2.2696l-79.3769,11.7109c-.0977,.0156-.1973,.0215-.293,.0215Z" style="fill:#fb7d85;"/><path d="M611.42108,506.44188c-.7031,0-1.3847-.3711-1.75-1.02741-.5371-.96479-.1894-2.18359,.77542-2.72069l70.11918-39c.9707-.541,2.1855-.1875,2.7207,.7754,.53712,.9649,.1894,2.1836-.7754,2.7207l-70.1192,39c-.3085,.1719-.6425,.252-.9707,.252Z" style="fill:#fb7d85;"/><path d="M596.54608,488.35588c-.455,0-.914-.1543-1.289-.4726-.8438-.7129-.9492-1.9766-.2363-2.8184l51.8183-61.2607c.7149-.8399,1.9766-.9492,2.81842-.2354,.84368,.7139,.94918,1.9766,.23628,2.8184l-51.8184,61.2597c-.3964,.4688-.96089,.709-1.5293,.709Z" style="fill:#fb7d85;"/><path d="M696.54028,569.10398c-.1406,0-.2852-.0137-.42778-.0449l-78.39642-17.0899c-1.0801-.2363-1.7637-1.30271-1.5274-2.3808,.2344-1.0782,1.30282-1.7657,2.3789-1.5293l78.3965,17.0898c1.0801,.2363,1.7637,1.3027,1.5293,2.3809-.2051,.9355-1.0332,1.5742-1.9531,1.5742Z" style="fill:#fb7d85;"/><path d="M676.42898,617.30908c-.3731,0-.75-.10361-1.086-.3223l-67.3047-43.6836c-.92578-.6016-1.1894-1.8398-.5879-2.7656,.5996-.9297,1.836-1.1934,2.7676-.5899l67.3028,43.6836c.92572,.6016,1.1894,1.8399,.5878,2.7656-.3828,.5918-1.0253,.9122-1.6796,.9122Z" style="fill:#fb7d85;"/></g><g><path d="M41.4709,890.01647c.0296-3.3084-1.324-5.9426,.1877-7.9574,2.7543-3.6707,9.448-4.0079,19.8982-5.7897,.6951,6.9096,3.0243,14.3877,5.3619,19.5899-3.1552,1.427-5.3143,2.9501-6.2219,4.6076-8.3849,15.31248-7.3624,31.13279-14.0801,31.6887-3.0171,.2497-5.2701-28.3004-5.1458-42.1391Z" style="fill:#20196f;"/><path d="M11.14881,780.18178c1.86046-5.2354,.09678-6.9386,3.94021-10.499,3.25678-3.0169,10.96408-.4929,22.54318,2.0461-1.3703,6.0754-2.7563,15.0604-3.3032,19.556-3.8315,.0501-6.733,.658-8.4423,2.0079-13.70041,10.8201-19.56925,27.1526-25.34057,23.6702-2.73343-1.6493,5.41892-22.1945,10.60268-36.7812Z" style="fill:#20196f;"/><path d="M238.36169,685.33068c-52.0687,28.5426-34.9279,60.6615-88.0254,89.1849-45.0681-7.9432-64.9987,4.0197-105.7273-3.413-2.335-.4261-4.6831-.9929-6.769-1.4503-1.3703,6.0753-2.964,17.1371-3.511,21.6326,26.8056-.3506,99.1788,26.6277,128.2164,18.3545,35.5875-.1992,105.941-71.2851,119.8342-87.8471,0,0-33.3844-27.8612-44.0179-36.4616Z" style="fill:url(#h);"/><path d="M238.36169,685.33068c-39.2634,42.1915-6.0857,83.9884-53.04619,146.45169-41.5485,8.3818-75.712,32.1322-116.1077,41.2011-2.9303,.6578-5.5019,1.3491-8.0035,1.7758,.6952,6.9095,3.3768,15.8978,5.7144,21.0999,25.9948-11.7571,118.309-20.2838,143.59659-36.415,35.2354-18.7948,75.1904-108.8291,80.9561-130.6657,0,0-41.0257-33.99359-53.1097-43.44779Z" style="fill:url(#i);"/></g><g><path d="M157.42529,673.28118s-18.8485,6.5341-20.3771,15.036c-1.5284,8.5018,1.2434,9.8655,2.4842,10.5621,2.9513,1.65719,14.5256-11.5347,17.3662-9.1241,2.8405,2.4106-5.5613,7.3894-4.6569,8.2094,.9046,.82,11.9558-5.8965,13.7032-13.4583,.8523-3.6887,11.1152-12.6013,22.8527-21.4284l-8.2535-11.0343c-12.1777,11.08289-23.1188,21.2376-23.1188,21.2376Z" style="fill:#f0c9c0;"/><path d="M430.62669,609.29258s17.6052-3.78111,19.4793-12.2135c1.8742-8.4323,6.4494-14.0559,5.238-14.8025-2.8813-1.7763-20.7789,13.1017-23.5188,10.5772-.3316-1.3497-.87269-3.6349-1.1954-5.0578-1.9115,1.0127-6.003,2.449-8.0575,9.9332-1.0022,3.6509-7.673,9.5797-16.2185,26.4184l6.6351,9.6695c12.6197-10.5767,17.6378-24.5245,17.6378-24.5245Z" style="fill:#f0c9c0;"/><path d="M216.48089,621.27718c-2.1282,.7632-41.7778,35.4236-56.0167,48.3824l8.1497,11.5034c13.7252-8.41751,51.0644-37.2196,57.4908-40.1161,12.3142-5.55041,53.5733-9.3232,53.5733-9.3232l17.3096-43.9586c-13.2714,4.0945-68.1904,29.0953-80.5067,33.5121Z" style="fill:#fcba06;"/><path d="M416.91779,603.68718c-6.0388,11.2616-27.9517,46.1419-31.1052,48.6905-12.5377-15.4011-33.3899-50.6688-40.5436-53.0993-4.0639-1.3808-12.1951-2.2713-16.6727-5.282-20.0492-13.4807-42.7995-7.7843-51.989,10.3922-6.2161,12.2953-18.0624,49.18489-38.2456,80.942l53.10981,43.44789c14.616-16.66509,31.73959-33.75009,43.26939-60.92619,2.5971-6.1216,8.5411-16.843,11.5262-14.1669,15.2421,13.6637,35.906,33.4785,49.9872,27.7599,7.6851-5.2352,31.183-58.708,34.1703-69.8267l-13.5068-7.9314Z" style="fill:url(#j);"/><path d="M383.2205,675.06208c-12.65621-9.2813-29.625-29.625-32.625-30.75s-13.31251-7.6875-15-5.625c-1.68751,2.0625,5.65769,4.125-1.20241,13.6875s-19.6101,23.8125-22.6101,32.0625-18.9634,37.115-22.6067,42.4637h0l2.29521,1.8777c14.61609-16.66509,31.73959-33.75009,43.26939-60.92619,2.597-6.1216,8.541-16.8429,11.5262-14.1669,15.2421,13.6637,35.9061,33.4785,49.9872,27.7599,1.8926-1.2893,4.7465-5.5124,8.0147-11.2997-3.24249,5.423-8.4134,14.1822-21.04849,4.9165Z" style="fill:url(#k);"/></g><g><path d="M329.23819,586.37947c.3782,3.43911,.7397,8.42221,.7397,8.42221-4.9988,3.5789-23.5188-2.9655-23.08939-7.2574,3.00279-6.2983,6.72109-19.7274,6.72109-19.7274l15.6286,18.56259Z" style="fill:#f7d3c9;"/><path d="M351.90979,551.36058c-1.0279,7.40889-3.534,29.75589-10.1809,35.8703-5.4517,5.0218-12.7583,3.72059-22.6773-3.8508-9.9247-7.5732-3.5369-28.0727-3.0324-34.4405,.8039-10.08311,37.383-8.3273,35.8906,2.421Z" style="fill:#f7d3c9;"/><path d="M316.76039,535.27828c16.2992-12.2556,14.0842-4.8813,11.8589-2.7185,14.5325-5.9661,34.1578-6.8659,38.0093-3.36531,3.8518,3.50081,4.2763,13.52611-6.5304,19.42-10.8101,5.89881-11.8484,1.956-16.8474,1.86081-4.9991-.0889-4.0912,9.3327-4.3814,11.4204-.0723,.51179-.946,.7886-1.3692,.4773-2.0588-1.5038-3.2211-1.72251-4.1808-.2231-1.0797,1.687-1.4287,4.9411,.1449,6.2487,.8761,.728,1.7015,.8376,2.6673,.8812-8.5713,14.2512-21.816,4.5963-24.0506,3.4821-3.3769-1.6881-11.6154-25.2283,4.6794-37.4836Z" style="fill:#362e94;"/></g><g><path d="M1066.2595,93.37299c14.9401-4.9098,38.2225-18.60852,38.2225-18.60852l59.4492-57.28928,7.0592,8.6754s-48.0415,59.5503-56.3358,65.0813c-9.7174,6.48-46.9669,26.8261-46.9669,26.8261l-1.4282-24.685Z" style="fill:#6b67e9;"/><path d="M1190.9068,1.8138c-1.9171-1.9706-6.17-2.2886-10.916-1.1815-4.7459,1.10718-10.9099,12.6505-15.2752,17.8069l2.944,3.6181h0l2.6657,3.2761s4.7587-5.1812,9.5105-5.9544c4.9641,.3003,7.0329-1.9383,10.1355-5.0772,3.1169-3.1534,2.5315-10.8475,.9355-12.488Z" style="fill:#f7d3c9;"/></g><path d="M1073.1389,103.05047c-.8619-5.60158,.5352-15.68948,3.4404-17.63808,2.9051-1.9486,10.7231,3.5228,14.4225,.3212,4.9895-4.31812,11.1649-14.1238,14.1819-23.0745,4.4097-13.0825,3.8806-23.2698-10.7154-27.9083-11.5833-3.6811-22.9411,1.46468-28.0525,12.8974-5.7038,12.7577-4.2302,28.58228-6.8783,32.7486-2.6482,4.1662-6.6159,4.3534-6.6159,4.3534l20.2173,18.30028Z" style="fill:#f7d3c9;"/><g><g><path d="M771.89538,410.23169c.0419-1.6466-1.7332-3.7369-3.6626-4.0457,.0586-2.303,.072-2.91951,.0758-2.9991,0,0,5.0483-2.8181,11.40492-1.1093,4.00558,1.0777,3.012,2.0901,1.94078,3.1101-2.0006,2.3372-2.88,12.0569,.3727,12.9053-.4393,2.5032-8.52448,28.1914-10.9174,28.12949-3.8765-.09409-3.7918-3.13409-3.7398-5.205,.6074-24.47189,2.0303-21.19349,4.5256-30.78579Z" style="fill:#20196f;"/><path d="M787.24178,413.97559c1.3966-.5358,2.52072-.894,4.0823-1.6898,3.9606-2.0182,.6943-12.4631-4.0729-10.2348-1.7118,.8001-3.69568,2.4179-4.8729,1.8842l-.0007,.0045c-1.9988,2.3382-9.4392,24.4511-4.74808,28.2446,1.43748-2.5325,5.276-16.5452,9.61228-18.2087Z" style="fill:#f7d3c9;"/></g><g><path d="M958.47717,365.48019c.0419-1.6466-1.7332-3.737-3.6626-4.04571,.0585-2.303,.072-2.91949,.0758-2.99909,0,0,5.0483-2.8182,11.4049-1.1093,4.0056,1.0777,3.012,2.0901,1.9408,3.11-2.00058,2.3373-2.88,12.057,.3727,12.9053-.43928,2.5033-8.5245,28.1915-10.9174,28.1296-3.8765-.0941-3.7918-3.1341-3.7398-5.205,.6073-24.4719,2.0303-21.19351,4.5256-30.7858Z" style="fill:#20196f;"/><path d="M973.82357,369.22409c1.3966-.5358,2.5207-.8941,4.0823-1.6898,3.96062-2.0182,.6943-12.4631-4.0729-10.23481-1.7118,.80011-3.6958,2.41791-4.8729,1.88421l-.0007,.0045c-1.9988,2.3382-9.4392,24.4511-4.7481,28.2445,1.4375-2.5324,5.2759-16.54521,9.6123-18.2086Z" style="fill:#f7d3c9;"/></g><path d="M969.90127,218.52039c-8.1896,6.435-40.93578,46.95608-40.93578,46.95608,11.13918,5.24152,80.0563,24.07322,97.3099,30.30782-15.5402,18.1877-35.46082,43.82118-53.13472,61.0908,1.0783,5.4128,5.3201,11.494,5.3201,11.494,16.9085-8.563,103.02032-71.6183,101.14982-80.13961-2.2706-10.34458-74.82723-56.666-109.70932-69.70908Z" style="fill:#131147;"/><path d="M943.18327,190.90639c-6.1792,6.5755-15.1884,27.7634-20.0569,47.1559-4.8686,19.3926-31.0151,69.704-36.4295,82.7931-20.2771,9.0312-64.61338,54.78108-99.8241,80.4425,.2903,5.5114,3.6151,12.13859,3.6151,12.13859,17.4514-5.87529,112.0644-55.12179,120.2989-62.75539h0c.241-.2235,.4181-.4161,.5069-.5661,4.7896-3.8236,63.2381-82.2949,77.4449-116.7196-6.1566-8.401-45.5553-42.489-45.5553-42.489Z" style="fill:#20196f;"/></g><path d="M1057.8141,162.48479c-11.4027,6.1395-26.9845,10.6402-31.2221,15.52468-4.2376,4.88452-30.82833,60.11832-30.82833,60.11832-14.1845-7.2137-55.9-50.5867-55.9-50.5867,13.8951-7.9958,32.01182-21.0238,44.66-35.4752,13.916-15.8997,33.21142-57.9632,55.11762-66.7211,16.1013-6.437,31.2683,9.8948,34.8992,21.532,2.7827,8.9185,2.9271,36.8201,2.9271,36.8201l-19.6535,18.7879Z" style="fill:url(#l);"/><g><path d="M1098.4255,133.55289s-38.5364,37.9445-46.7694,44.2409c-.8862-.9148,8.8029-34.3727,14.3371-51.1384,4.5081-13.6576-.0092-25.39892-10.699-28.279-7.3992-1.9935-13.5601-2.8176-22.6821,12.2702-10.1433,16.7772-14.713,95.4568,1.7816,101.69388,3.8881,1.47022,14.3674-.92058,24.7002-10.66458,24.7336-23.32442,46.4909-56.6542,48.6149-59.5912,0,0-7.5331-7.3309-9.2833-8.5318Z" style="fill:url(#m);"/><path d="M1107.126,141.52019c1.6511-1.6509,6.5729-7.8034,8.1115-9.724,1.5385-1.9205,4.2249-7.6386,1.7974-12.6801-1.4475-3.0061-9.0844-4.3782-12.922-.8901-2.3259,2.114-5.5063,7.382-1.3895,10.26348-.1067,1.94762-3.013,6.105-3.013,6.105l7.4156,6.92572Z" style="fill:#f7d3c9;"/></g><g><path d="M1032.6121,110.64659c-6.8813,6.5654-194.20722,223.43179-194.20722,223.43179-6.2789,1.6894-50.0235-8.7622-89.3093-18.8367-11.2778-14.918-28.8182-38.3631-28.8182-38.3631,34.3857-17.3202,275.82359-175.7796,292.73742-182.5029,16.9139-6.7233,44.6814-11.283,49.7016-6.3645,5.0202,4.9186,10.1711,11.4579,10.1711,11.4579,.066-2.2702,2.6346-.06,2.8033,2.5143,.1688,2.5743,.7758,4.5732-.9764,5.4959-4.9103-2.5639-13.5987-6.3332-19.2093-6.8245-9.6453-.8448-20.1553,7.3798-22.893,9.9918Z" style="fill:#ee6777;"/><path d="M792.52738,311.02829l40.3044-35.6877-51.3331,36.0086,142.45882-124.9472-157.29422,125.379-26.7384-8.70752c3.2,4.25512,6.3775,8.47332,9.1708,12.16812,39.2856,10.0746,83.0303,20.5261,89.3092,18.8368,0,0,142.8515-165.3783,183.63872-211.66439l.0004-.0008-187.9795,195.2845-41.53712-6.6694Z" style="fill:#d64b61;"/></g><g><path d="M1090.8444,60.10789c-8.5853-2.1623-15.6102-1.7389-21.6408,4.943-6.9064,7.6522-2.7284,18.1635-11.2721,21.2943-12.1825,4.4645-28.5525-4.4516-44.9167,8.0305-16.36323,12.4814-14.63973,45.7739-45.50112,28.6969,1.4017,7.2153,5.2205,13.4804,16.6786,15.4032,28.55512,4.7918,17.1103-34.5554,53.62932-36.9974,33.055-2.2104,33.6994-15.3458,34.0263-23.1001,.292-6.9273,7.1855-15.7463,13.8394-13.995,4.2654,1.1227,7.3623,1.215,10.3459,.14318,3.6882-1.32488,7.803-5.086,11.5084-15.07758-1.9057,4.4805-8.7242,12.6672-16.6972,10.659Z" style="fill:#131147;"/><path d="M1083.2834,30.1071c-17.1542,1.3697-24.111,17.0215-24.8608,25.5512-.5367,6.1051-6.3433,11.52518-27.8789,10.0593-23.8849-1.6257-56.30942-26.7119-76.22672-25.0846-13.2841,23.0741-8.5778,48.7624,5.7968,55.0341,8.6066,3.7549,5.3085,16.63938,7.3999,27.4055,30.8614,17.077,29.1379-16.2155,45.50112-28.6969,16.3642-12.4821,32.7342-3.566,44.9167-8.0305,8.5437-3.1308,4.3657-13.6421,11.2721-21.2943,6.0306-6.6819,13.0555-7.1053,21.6408-4.943,7.973,2.0082,14.7915-6.1785,16.6972-10.659,.3742-1.0089,.7456-2.0595,1.1105-3.1999-.3639-7.9171-8.2146-17.51152-25.3687-16.1419Z" style="fill:url(#n);"/></g><g><path d="M579.2375,677.57658c-9.97341-18.7395-32.50161-29.10811-53.98531-26.26611-3.9051,.51641-7.7774,1.46971-11.53169,2.88831-14.59751,5.5284-24.12561,16.8591-26.89511,29.8145l-2.0241,9.4687c2.7696-12.9556,12.2975-24.2862,26.89521-29.8147,3.75429-1.4186,7.62659-2.3717,11.53159-2.8883,21.4838-2.842,44.0118,7.5266,53.98541,26.2661,4.72369,8.8897,5.90489,18.308,4.04789,26.9945l2.02411-9.4685c1.85689-8.6867,.67579-18.1048-4.048-26.9945Z" style="fill:#5652cc;"/><path d="M523.22809,660.77888c21.4838-2.8419,44.0119,7.5267,53.9853,26.2662,11.7688,22.1481,1.5485,47.5757-22.85989,56.79839-3.75541,1.4223-7.63161,2.378-11.53921,2.8948-21.4679,2.839-43.9883-7.537-53.9566-26.2592-11.7863-22.1458-1.5484-47.5758,22.83881-56.8118,3.75419-1.4186,7.62649-2.37181,11.53159-2.8884Z" style="fill:#807dfb;"/><path d="M523.9495,685.91828c5.09959-.6261,10.41079,1.8935,12.709,6.3569,1.725,3.3431,1.34559,6.9769-.63161,9.7242,12.4584-.5925,16.4402,5.28509,20.6423,13.4625l-34.6405,12.7203c-4.20219-8.1773-6.0041-15.5991,2.4324-21.9188-3.73659-.6723-7.1384-2.9046-8.8637-6.2476-2.7152-5.2737-.1933-11.3034,5.61611-13.4387,.89239-.328,1.81039-.5451,2.736-.6588Z" style="fill:#362e94;"/><path d="M523.22809,660.77898c-3.905,.5166-7.7773,1.4697-11.53159,2.8883-24.38721,9.2361-34.62511,34.666-22.83891,56.8117,6.1445,11.5406,17.0645,19.8942,29.5613,23.952l23.7704-82.8083c-6.17979-1.3424-12.61279-1.6834-18.9612-.8437Z" style="fill:#2b2b2b; mix-blend-mode:screen;"/></g><path d="M1479.1311,442.84638c9.0635,19.1987,8.1001,83.6129,5.3996,91.8043-4.4222,13.4134-46.3914,55.8144-46.3914,55.8144l-7.4114-10.7339s31.6598-46.65,32.7256-50.61c.6752-2.5086-3.2167-50.6551-3.2167-50.6551l18.8943-35.6197Z" style="fill:#423eaf;"/><path d="M1386.6968,544.96028c-3.1928-22.326-3.7157-62.5087,0-105.75-11.25-9.6285-46.875-47.0625-49.7812-55.96881-3.872-11.86569-10.6289-83.89848-10.6289-83.89848l16.8324-1.2727c2.625,13.98,11.5013,65.4746,14.8902,71.39,3.1875,5.5638,35.1563,31.5,43.0313,34.875s14.3437,2.8125,21.2812,3.9375,24.375,7.7699,28.875,9.8849c4.5,2.1151,27.1875,21.2401,28.6875,26.1151s-18.6562,97.59369-20.0625,104.34369c-5.3437-.28119-73.125-3.65619-73.125-3.65619Z" style="fill:url(#o);"/><g><path d="M1458.6575,392.57069c-1.9134,3.7187-7.041,19.22379-6.3844,26.194-4.2639,1.2363-16.3575-2.52321-24.4148-9.1453,2.8858-2.7777,6.4743-5.3055,6.2321-9.1108-.3767-5.919-8.1592-1.124-9.0151-10.3895-1.003-10.8065,4.3479-29.4208,10.5555-32.86961,6.9468-3.86229,19.1993-7.19729,29.4841,5.33831,8.3926,10.2261-2.5707,22.4251-6.4574,29.9829Z" style="fill:#f8d8d0;"/><path d="M1436.2458,373.17747c-2.993-1.05189-.3727-6.19579,.4384-9.14869,.5733-2.087-1.0698-4.1247-3.4066-4.7291-8.7-2.2506-9.9277-15.0296-2.8974-17.6006,7.0361-2.5685,9.6093,5.4883,14.095,5.6262,5.2282,.16019,6.499-5.8255,13.1988-2.681,6.1887,2.9015,1.0997,7.7817,4.7733,10.3319,3.7852,2.6287,11.9837-.6588,14.6825,7.78529,2.0018,6.26551-5.8858,8.93671-7.2748,14.57731-.8664,3.5216-1.4192,19.0628-11.8272,19.1003-10.6849,.0386-16.6404-11.0839-13.133-20.6222,1.4216-3.8656,1.1863-7.1462-.8067-7.6122-2.9714-.695-3.5664,6.4827-7.8423,4.97279Z" style="fill:url(#p);"/></g><path d="M1459.8218,548.61647c8.1505,25.32491,8.3095,46.08811,10.6677,64.05391,4.6179,35.1806,12.4374,69.6707,14.8381,74.3803,4.2517,8.3407,53.4056,83.1025,63.0362,94.18-1.4498,3.1829-9.5722,12.5444-9.5722,12.5444-16.3919-12.9497-74.2563-78.6246-81.4347-90.8729-5.632-9.60971-29.9924-94.1693-29.9924-94.1693-1.1151,7.3633-7.1232,86.5638-3.5625,96.2688,2.7733,7.5589,41.9472,102.15579,41.9472,102.15579-2.8441,2.0552-12.3026,8.4089-13.422,8.2967-6.3413-8.1733-53.7658-82.4543-59.1729-96.1871-5.4071-13.7329-15.7179-110.1292-6.4575-174.3068,7.6826,.3791,73.125,3.65619,73.125,3.65619Z" style="fill:#20196f;"/><path d="M1548.3638,781.23068c3.1519,2.5865,8.2934,5.2883,10.0464,7.8692,3.2749,4.8215,1.5961,9.9117,1.4088,17.9016-.3058,13.0436,1.9489,26.6302-4.3586,27.4993-4.1559,.5727-10.9771-12.1431-11.5229-28.3847-.3132-9.3196-5.1459-12.341-5.1459-12.341l9.5722-12.5444Z" style="fill:#131147;"/><path d="M1465.7492,807.15747c2.0199,3.5418,5.8569,7.9021,6.5721,10.939,1.3362,5.6733-2.0503,9.8278-5.0797,17.2235-4.9455,12.0735-7.6936,25.569-13.8953,24.1273-4.0863-.9499-5.9145-15.2634-.6218-30.6281,3.037-8.8164-.3973-13.365-.3973-13.365l13.422-8.2967Z" style="fill:#131147;"/><path d="M1328.6757,299.16229c-.0365-2.6224-1.6237-3.1794-3.7331-11.195-2.1093-8.0157-.5461-18,1.3441-19.2657,1.8903-1.2656,7.6559-11.95312,10.4684-6.0468,2.8125,5.9062,6.3666,19.7259,6.3666,19.7259,1.6172-1.61722,8.0859-8.0859,7.875-7.875,.3834,2.7741-3.8353,9.8053-5.8041,12.8991-1.9687,3.09368-3.9667,5.66068-3.5302,10.7756-3.3347,.2522-12.9867,.9819-12.9867,.9819Z" style="fill:#f7d3c9;"/></g></g></g></g></g></svg>