<?xml version="1.0" encoding="UTF-8"?><svg xmlns="http://www.w3.org/2000/svg" xmlns:xlink="http://www.w3.org/1999/xlink" viewBox="0 0 1568.75055 1075.1346"><defs><style>.p{fill:url(#e);}.q{fill:url(#g);}.r{fill:url(#f);}.s{fill:url(#i);}.t{fill:url(#h);}.u{fill:url(#k);}.v{fill:url(#j);}.w{fill:url(#m);}.x{fill:url(#n);}.y{fill:#f6f6fb;}.a`{fill:#f8d8d0;}.aa{fill:#e9edf7;}.ab{fill:#e7eeff;}.ac{fill:#ffaf6d;}.ad{fill:#fff;}.ae{fill:#f0ccc0;}.af{fill:#e3b8ae;}.ag{fill:#ff826a;}.ah{fill:#6b67e9;}.ai{fill:#ced3f8;}.aj{fill:#bbc0e6;}.ak{fill:#dde2f8;}.al{fill:#20196f;}.am{fill:#423eaf;}.an{fill:#362e94;}.ao{fill:#a3a9d0;}.ap{fill:#807dfb;}.aq{fill:#5652cc;}.ar{fill:#dae0f5;}.ar,.as,.at{mix-blend-mode:multiply;}.as{fill:url(#o);}.at{fill:url(#l);}.au{isolation:isolate;}</style><linearGradient id="e" x1="1424.27449" y1="1040.6208" x2="1424.27449" y2="823.7598" gradientTransform="matrix(1, 0, 0, 1, 0, 0)" gradientUnits="userSpaceOnUse"><stop offset="0" stop-color="#423eaf"/><stop offset="1" stop-color="#20196f"/></linearGradient><linearGradient id="f" x1="1390.42497" y1="832.52855" x2="1486.08812" y2="721.04723" gradientTransform="matrix(1, 0, 0, 1, 0, 0)" gradientUnits="userSpaceOnUse"><stop offset="0" stop-color="#dde2f8"/><stop offset=".39726" stop-color="#e2e6f8"/><stop offset=".88862" stop-color="#f1f2fa"/><stop offset="1" stop-color="#f6f6fb"/></linearGradient><linearGradient id="g" x1="1176.60575" y1="915.5125" x2="1322.25315" y2="915.5125" gradientTransform="matrix(1, 0, 0, 1, 0, 0)" gradientUnits="userSpaceOnUse"><stop offset="0" stop-color="#362e94"/><stop offset=".76104" stop-color="#4d48bd"/><stop offset="1" stop-color="#5652cc"/></linearGradient><linearGradient id="h" x1="1204.06295" y1="846.6273" x2="1308.53075" y2="846.6273" gradientTransform="matrix(1, 0, 0, 1, 0, 0)" gradientUnits="userSpaceOnUse"><stop offset="0" stop-color="#ff826a"/><stop offset="1" stop-color="#ff5a72"/></linearGradient><linearGradient id="i" x1="791.08495" y1="644.37951" x2="1123.82815" y2="644.37951" gradientTransform="matrix(1, 0, 0, 1, 0, 0)" gradientUnits="userSpaceOnUse"><stop offset="0" stop-color="#807dfb"/><stop offset="1" stop-color="#423eaf"/></linearGradient><linearGradient id="j" x1="791.08495" y1="665.4628" x2="1123.82815" y2="665.4628" gradientTransform="matrix(1, 0, 0, 1, 0, 0)" gradientUnits="userSpaceOnUse"><stop offset="0" stop-color="#ffaf6d"/><stop offset="1" stop-color="#ff826a"/></linearGradient><linearGradient id="k" x1="512.87378" y1="919.32615" x2="363.65669" y2="770.10905" gradientTransform="matrix(1, 0, 0, 1, 0, 0)" gradientUnits="userSpaceOnUse"><stop offset="0" stop-color="#ff826a"/><stop offset=".28002" stop-color="#ff876a"/><stop offset=".62694" stop-color="#ff966b"/><stop offset="1" stop-color="#ffaf6d"/></linearGradient><linearGradient id="l" x1="466.38481" y1="951.3806" x2="466.38481" y2="742.64581" gradientTransform="matrix(1, 0, 0, 1, 0, 0)" gradientUnits="userSpaceOnUse"><stop offset="0" stop-color="#e8ecf7"/><stop offset=".46159" stop-color="#eff2f9"/><stop offset="1" stop-color="#fff"/></linearGradient><linearGradient id="m" x1="916.19141" y1="276.93611" x2="1065.18031" y2="276.93611" gradientTransform="matrix(1, 0, 0, 1, 0, 0)" gradientUnits="userSpaceOnUse"><stop offset="0" stop-color="#5652cc"/><stop offset="1" stop-color="#423eaf"/></linearGradient><linearGradient id="n" x1="934.72679" y1="175.7905" x2="1046.97783" y2="175.7905" xlink:href="#j"/><linearGradient id="o" x1="1027.71272" y1="225.4534" x2="1027.71272" y2="152.45" gradientTransform="matrix(1, 0, 0, 1, 0, 0)" gradientUnits="userSpaceOnUse"><stop offset=".4923" stop-color="#dae0f5"/><stop offset="1" stop-color="#fff"/></linearGradient></defs><g style="isolation:isolate;"><g id="a"/><g id="b"><g id="c"><g id="d"><g><path d="M509.16313,135.52882c54.8036-20.8286,63.3964-75.0146,30.1554-135.52882-45.70058,28.6844-76.1134,90.86282-30.1554,135.52882Z" style="fill:#362e94;"/><g><path d="M1318.41895,269.40822c-.3809,0-.7617-.00682-1.1445-.0214-8.1094-.3106-15.4336-4.02842-19.918-10.0352-5.5274,1.7969-13.3438,1.8203-20.332-3.0801-7.1133-4.9873-15.334-16.5107-14.0977-43.08012,.0527-1.10448,.9258-1.94818,2.0918-1.90518,1.1035,.0517,1.9551,.9873,1.9043,2.0908-1.1524,24.7529,6.1055,35.208,12.3984,39.6201,6.336,4.4424,13.4688,3.9971,18.0293,2.0977,.8867-.3721,1.9239-.0518,2.4512,.76558,3.7051,5.76952,10.1289,9.24222,17.627,9.52932,10.6621,.4131,21.9062-5.916,30.5644-17.36332,.668-.88178,1.9199-1.05758,2.8027-.38868,.8809,.666,1.0547,1.9199,.3887,2.8008-9.1582,12.1104-21.041,18.9697-32.7656,18.9697Z" style="fill:#ced3f8;"/><path d="M1313.47365,261.95122c-5.9414,0-11.5254-1.6777-15.5078-4.7744-7.7071-.65042-14.668-5.02642-19.1739-12.083-6.9804-10.9317-7.416-26.1983-1.1972-41.8848,.4062-1.0283,1.58-1.5254,2.5957-1.1221,1.0273,.4073,1.5293,1.5694,1.123,2.5967-5.7402,14.4776-5.4316,28.4219,.8496,38.2569,3.9922,6.25088,9.916,9.9052,16.6836,10.289,.4317,.0244,.8418,.1875,1.1719,.46488,4.418,3.709,11.6406,5.14062,18.8672,3.73042,11.3203-2.208,21.5078-10.8877,28.6855-24.44042,.5176-.97748,1.7325-1.34758,2.7032-.831,.9765,.51752,1.3496,1.72752,.832,2.70412-7.7559,14.6406-18.9258,24.0498-31.4551,26.4931-2.0684,.4033-4.1426,.6006-6.1777,.6006Z" style="fill:#ced3f8;"/><path d="M1306.67475,257.0694c-3.2832,0-6.039-.88768-8.1308-2.64158-6.7227-2.5342-10.9668-7.6905-12.2852-14.9346-2.9355-16.1221,8.9766-38.5781,14.5938-43.3496,.8418-.7129,2.1054-.6133,2.8183,.2295,.7168,.8418,.6133,2.1035-.2285,2.81928-4.416,3.752-15.9121,24.958-13.25,39.584,1.1035,6.05572,4.3946,9.98732,10.0606,12.01862,.248,.0888,.4765,.2255,.6699,.4023,2.0937,1.9014,5.7012,2.3652,10.1465,1.3066,11.4277-2.7138,27.2265-15.0957,33.9961-32.6972,.3965-1.03132,1.5508-1.543,2.5859-1.1494,1.0293,.3964,1.5449,1.5537,1.1484,2.5849-7.2617,18.8809-24.3828,32.2041-36.8066,35.1543-1.8926,.4492-3.6719,.67288-5.3184,.67288Z" style="fill:#ced3f8;"/><path d="M1299.57905,254.67782c-.33,0-.6601-.0821-.957-.2442-.5-.2724-.8594-.7441-.9902-1.2988-3.0078-12.8057,2.3457-36.2793,7.2773-43.1807,.6426-.8965,1.8906-1.1054,2.7891-.4638,.8984,.6416,1.1074,1.8906,.4648,2.79-4.0508,5.669-8.7011,25.7539-7.0527,37.6709,12.6582-5.1553,29.2207-16.9346,32.4121-21.5664,.625-.9082,1.873-1.1397,2.7813-.5117,.9101,.626,1.1386,1.872,.5117,2.7812-4.1055,5.95708-23.709,19.3272-36.5645,23.9073-.2187,.0781-.4453,.1162-.6719,.1162Z" style="fill:#ced3f8;"/><path d="M1299.58105,254.67782c-.6094,0-1.209-.27642-1.6016-.8008-.664-.8838-.4843-2.1377,.4004-2.7998,10.3653-7.7676,22.1114-16.5713,33.168-35.5215,.5566-.9522,1.7832-1.2754,2.7344-.7197,.9531,.5566,1.2754,1.7812,.7207,2.7353-11.4649,19.6504-23.5567,28.7119-34.2246,36.70708-.3594,.26952-.7813,.39942-1.1973,.39942Z" style="fill:#ced3f8;"/><path d="M1302.24125,252.67582c-.086,0-.1758-.0058-.2637-.0176-1.0957-.1445-1.8653-1.1494-1.7207-2.2441,1.7168-12.9971,17.6894-41.249,27.1289-47.9824,.9023-.6407,2.1484-.4336,2.791,.4668,.6406,.8984,.4316,2.1474-.4668,2.789-8.4551,6.0323-23.9375,33.5205-25.4883,45.25-.1328,1.00688-.9922,1.7383-1.9804,1.7383Z" style="fill:#ced3f8;"/><path d="M1259.34275,358.20412c-.1465,0-.2949-.0156-.4453-.0498-1.0762-.2441-1.752-1.3154-1.5078-2.3925,6.3633-28.0518,32.8437-91.2627,39.1035-99.98642,.6426-.89648,1.8906-1.10348,2.791-.459,.8965,.64462,1.1035,1.89362,.459,2.79112-6.1367,8.5517-32.1641,70.8212-38.4512,98.539-.2109,.9287-1.0351,1.5576-1.9492,1.5576Z" style="fill:#ced3f8;"/></g><g><path d="M338.94954,983.8244c24.1052-15.8332,83.5092-132.547,36.8076-155.1666-44.2636-21.4386-58.3046,69.8542-60.9398,81.7128-9.22339-44.799-21.2966-88.2806-50.8356-80.3748-29.5392,7.9058,0,71.1514,0,71.1514-26.904-34.258-93.9496-86.9828-124.4674-71.156-30.5176,15.8268,61.9878,72.5902,61.9878,72.5902-42.0358-23.8454-167.66359-55.954-42.2006,4.6564-57.441-18.58-169.46279-27.6972-44.939,11.061-74.95-6.5086-112.99,3.6962-114.3078,14.237-1.3174,10.541,20.6668,25.4554,117.5246,27.9042-47.8392,7.9058-71.8354,19.0988-59.5078,23.3844H338.94954Z" style="fill:#6b67e9;"/><path d="M170.66595,935.2694c0-2.148-1.74121-3.8892-3.88921-3.8892s-3.889,1.7412-3.889,3.8892c0,2.1478,1.741,3.889,3.889,3.889s3.88921-1.7412,3.88921-3.889Z" style="fill:#ffaf6d;"/><path d="M312.01854,950.3912c0-3.3078-2.6814-5.9892-5.9892-5.9892-3.3076,0-5.989,2.6814-5.989,5.9892,0,3.3076,2.6814,5.989,5.989,5.989,3.3078,0,5.9892-2.6814,5.9892-5.989Z" style="fill:#ffaf6d;"/><circle cx="234.05474" cy="911.9912" r="5.112" style="fill:#ffaf6d;"/></g><g><path d="M1172.94275,592.75921c81.1354-31.1236,144.164,20.2634,167.2172,119.97219-78.8402,13.45381-173.876-25.208-167.2172-119.97219Z" style="fill:#423eaf;"/><path d="M1327.36815,706.29401c-.5,0-1.0019-.1875-1.3906-.5625-25.25-24.4063-69.2461-53.5489-104.5977-76.9668-21.0156-13.9219-39.164-25.9434-49.6933-34.4492-.8594-.6954-.9942-1.95511-.3008-2.8125,.6953-.8614,1.9551-.9961,2.8125-.3008,10.3828,8.3887,28.4609,20.3633,49.3906,34.2285,35.4883,23.5078,79.6543,52.76369,105.1699,77.4258,.793,.7676,.8145,2.0332,.0469,2.8281-.3926,.4043-.9141,.6094-1.4375,.6094Z" style="fill:#362e94;"/></g><g><path d="M506.21195,159.87702c-76.18461,2.5752-113.73121-58.0788-104.29681-147.35262,69.2224,11.41882,136.9512,70.68582,104.29681,147.35262Z" style="fill:#5652cc;"/><path d="M506.21383,161.87702c-.666,0-1.3184-.333-1.6973-.9395-6.2011-9.916-17.7539-25.0127-31.1328-42.49312-22.7011-29.66308-50.9541-66.57908-65.0605-94.35648-.5-.9844-.1074-2.18852,.8779-2.68852,.9854-.50087,2.1895-.10737,2.6885,.878,13.9394,27.44822,42.06831,64.20312,64.6699,93.73632,13.44141,17.5606,25.0469,32.7275,31.3477,42.80268,.5859,.93662,.30071,2.17092-.6348,2.75592-.3301,.207-.6973,.3047-1.0586,.3047Z" style="fill:#423eaf;"/></g><path d="M1193.88835,445.22761c70.2436-21.7108,85.3054-88.8426,48.5142-167.22021-59.4756,32.266-102.481,107.666-48.5142,167.22021Z" style="fill:#423eaf;"/><g><path d="M331.54884,862.6201c-.8838,0-1.6914-.5878-1.9307-1.4824-3.875-14.459-36.6348-99.3613-98.8047-153.7988-.831-.7266-.915-1.9902-.18749-2.8223,.72659-.832,1.99119-.9179,2.82229-.1855,62.9248,55.0976,96.1074,141.1191,100.0332,155.7715,.2861,1.0664-.3467,2.164-1.4141,2.4492-.1728,.0469-.3476,.0683-.5185,.0683Z" style="fill:#5652cc;"/><path d="M316.76534,824.9696c19.8968,8.6684,44.2052-12.3552,45.6002-48.308-29.1962-4.91921-55.5982,27.295-50.734,37.4744,1.904,3.9826,5.1338,10.8336,5.1338,10.8336Z" style="fill:#5652cc;"/><path d="M288.37695,772.52001c19.32,3.9792,36.99779-19.2744,31.497-51.5102-26.888,1.099-44.32721,34.69759-38.09241,42.8384,2.4376,3.1846,6.59541,8.6718,6.59541,8.6718Z" style="fill:#5652cc;"/><path d="M305.41514,802.53801c-5.457,18.956-34.2624,23.799-60.2466,3.9456,13.4706-23.2964,51.32441-23.1206,55.6348-13.81621,1.6862,3.639,4.6118,9.87061,4.6118,9.87061Z" style="fill:#5652cc;"/><path d="M251.19414,724.56061c14.2622,1.204,24.997-17.0706,18.2614-39.8226-19.2784,3.1048-28.9522,28.8132-23.7598,34.1422,2.0304,2.0846,5.4984,5.6804,5.4984,5.6804Z" style="fill:#5652cc;"/><path d="M236.69474,702.69801c2.868-11.6682-9.11179-23.78561-29.04879-22.6988-1.21,16.3866,13.65759,29.9586,23.46019,29.7824,2.4482-.04421,4.0922-.996,5.5886-7.0836Z" style="fill:#5652cc;"/><path d="M270.46034,748.0224c-1.3176,14.252-21.1936,21.61261-42.40939,10.98821,6.439-18.4344,33.448-23.4454,37.78219-17.398,1.69581,2.3646,4.6272,6.40979,4.6272,6.40979Z" style="fill:#5652cc;"/></g><g><path d="M1161.65655,572.33521c-17.7082-23.08481-42.3786-94.399,8.1132-133.2016,22.8544-17.5696,29.8856-20.832,41.2992-18.7296,7.4288,1.368,12.9874,6.29739,18.5178,2.4516,10.1116-7.0446-16.2214-44.8844,18.0326-73.9548,34.2558-29.0742,60.5426-9.593,69.7078-17.552,9.1668-7.95742,1.6674-25.4642,21.8372-32.785,20.1758-7.32342,32.8596,25.57258,60.0786,19.7434,28.3163-6.0636,77.489-5.7252,83.2424,21.1566,5.7574,26.878-16.3376,30.4794-24.2978,47.5542-7.9622,17.078,4.7286,69.834-37.1042,78.787-41.5696,8.9032-58.2882,6.1146-66.131,58.7662-7.8382,52.65719-56.2708,75.01819-81.585,68.8184-25.3214-6.1938-19.5186,7.74279-6.6884,16.05279,12.837,8.308-8.4456,18.30461-27.186,14.82321-18.7362-3.4884-55.6068-22.9528-77.8364-51.9304Z" style="fill:#6b67e9;"/><path d="M1153.24705,586.25691c-.3516,0-.707-.0918-1.0312-.2871-.9454-.57041-1.25-1.7989-.6797-2.7461,74.9961-124.44531,195.5273-200.68169,283.3203-230.53231,1.0605-.35448,2.1836,.20512,2.539,1.25,.3555,1.04592-.205,2.18172-1.25,2.53712-87.125,29.6231-206.7441,105.2872-281.1835,228.81159-.375,.623-1.0372,.9668-1.7149,.9668Z" style="fill:#5652cc;"/><path d="M1361.87405,389.17392c-.043,0-.086-.001-.1309-.0039-1.1016-.0713-1.9375-1.0225-1.8672-2.125,.4238-6.5713-1.4922-34.9639-8.7969-49.8682-.4863-.9912-.0781-2.1895,.9141-2.6758,.9922-.4853,2.1934-.0752,2.6758,.916,7.75,15.8067,9.6523,44.8281,9.1992,51.8858-.0684,1.05758-.9492,1.8711-1.9941,1.8711Z" style="fill:#5652cc;"/><path d="M1417.48535,401.1114c-.4766,0-.9551-.169-1.3379-.51268-5.3828-4.8389-26.2812-18.3008-35.9453-21.3018-1.0547-.3281-1.6445-1.4482-1.3164-2.5029,.3262-1.0537,1.4453-1.6455,2.5039-1.3174,10.2969,3.1982,31.6953,16.9902,37.4336,22.1475,.8203,.7382,.8887,2.0029,.1504,2.8242-.3965,.4394-.9414,.66308-1.4883,.66308Z" style="fill:#5652cc;"/><path d="M1286.64545,438.24421c-.0957,0-.1933-.0069-.291-.0215-1.0937-.1592-1.8496-1.1748-1.6894-2.2676,1.7929-12.26271,2.6933-31.5195-10.1133-57.0703-.4961-.9873-.0957-2.1895,.8906-2.6846,.9864-.4912,2.1914-.0937,2.6836,.8916,14.8535,29.6319,11.5742,52.0684,10.4961,59.4414-.1445,.99519-1,1.711-1.9766,1.711Z" style="fill:#5652cc;"/><path d="M1365.51465,441.10551c-.3731,0-.75-.1035-1.0859-.3213-11.9434-7.7334-40.4083-22.458-49.5333-23.0859-1.1035-.0762-1.9335-1.0303-1.8593-2.1328,.0781-1.1026,1.0449-1.9239,2.1328-1.8575,10.1133,.6963,39.4609,15.9659,51.4355,23.7188,.9258,.60059,1.1914,1.8389,.5918,2.76559-.3828,.59181-1.0254,.91311-1.6816,.91311Z" style="fill:#5652cc;"/><path d="M1271.76465,503.90821c-.3731,0-.7481-.1035-1.084-.3213-1.6562-1.0712-3.4199-2.2626-5.2715-3.5146-9.2012-6.2178-20.6523-13.957-31.9492-15.6328-1.0937-.16211-1.8477-1.1797-1.6855-2.2715,.164-1.0928,1.1835-1.8408,2.2714-1.6855,12.1973,1.8095,24.0664,9.831,33.6036,16.2763,1.8281,1.2363,3.5683,2.4121,5.2031,3.4707,.9277,.5996,1.1933,1.83789,.5937,2.7656-.3828,.5909-1.0254,.9131-1.6816,.9131Z" style="fill:#5652cc;"/><path d="M1206.65335,513.28231c-.1817,0-.3672-.0254-.5508-.0772-1.0625-.30371-1.6778-1.4101-1.375-2.47171,3.5742-12.53609,1.4297-37.65429-4.7813-55.99119-.3535-1.0459,.2071-2.1816,1.2539-2.5361,1.0411-.3535,2.1797,.207,2.5352,1.2529,6.4297,18.9883,8.6016,45.1729,4.8398,58.3701-.2519,.8799-1.0527,1.4532-1.9218,1.4532Z" style="fill:#5652cc;"/></g><g><path d="M647.21795,217.57982c2.80578,0,5.17578-2.128,5.42958-4.92242,.2902-3.19618,.4406-6.433,.4406-9.70478,0-3.27222-.1504-6.5088-.4406-9.70522-.2538-2.79438-2.6238-4.92218-5.42958-4.92218h-8.38622c-2.5802,0-4.7816-1.8162-5.3262-4.3382-.60558-2.8048-1.3422-5.5604-2.20458-8.2602-.78442-2.456,.21338-5.125,2.44618-6.4142l7.2684-4.1964c2.4312-1.4036,3.4176-4.4354,2.239-6.9834-2.735-5.91242-5.9932-11.5326-9.71758-16.8008-1.61822-2.2894-4.73262-2.9458-7.16062-1.544l-7.2658,4.1948c-2.2322,1.289-5.0432,.8194-6.7772-1.0882-1.9188-2.111-3.9378-4.1298-6.0488-6.049-1.9074-1.7336-2.377-4.5446-1.0882-6.777l4.195-7.2658c1.40162-2.4278,.7452-5.54242-1.544-7.1608-5.26838-3.724-10.8886-6.9824-16.801-9.7174-2.5478-1.1786-5.5798-.192-6.98338,2.2392l-4.19642,7.2682c-1.289,2.2328-3.958,3.2306-6.414,2.44638-2.6998-.86238-5.45558-1.59918-8.2602-2.20478-2.522-.5446-4.33838-2.746-4.33838-5.326v-8.38622c0-2.806-2.128-5.176-4.92222-5.42958-3.1964-.2902-6.433-.4406-9.705-.4406s-6.5086,.1504-9.705,.4406c-2.7942,.25358-4.9222,2.62358-4.9222,5.42958v8.38622c0,2.58-1.8164,4.7814-4.3384,5.326-2.8046,.6056-5.5604,1.3424-8.26019,2.20478-2.456,.78422-5.125-.21358-6.414-2.44638l-4.19641-7.2682c-1.40359-2.4312-4.43559-3.4178-6.9834-2.2392-5.9124,2.735-11.5326,5.9934-16.801,9.7174-2.28919,1.61838-2.9456,4.733-1.544,7.1608l4.1952,7.2658c1.28861,2.2324,.819,5.0434-1.0882,6.777-2.11119,1.9192-4.13019,3.938-6.049,6.049-1.734,1.9076-4.545,2.3772-6.77719,1.0882l-7.26581-4.1948c-2.428-1.4018-5.5424-.7454-7.1606,1.544-3.7244,5.2682-6.98259,10.88838-9.71759,16.8008-1.17861,2.548-.19221,5.5798,2.239,6.9834l7.26839,4.1964c2.2328,1.2892,3.2304,3.9582,2.4462,6.4142-.8624,2.6998-1.599,5.4554-2.20459,8.2602-.54461,2.522-2.74621,4.3382-5.32621,4.3382h-8.3862c-2.806,0-5.1758,2.1278-5.42959,4.92218-.29021,3.19642-.44061,6.433-.44061,9.70522,0,3.27178,.1504,6.5086,.44061,9.70478,.25379,2.79442,2.62359,4.92242,5.42959,4.92242h8.3862c2.58,0,4.7816,1.8162,5.32621,4.3382,.60559,2.8048,1.34219,5.56038,2.20459,8.26038,.7842,2.45582-.2134,5.12482-2.4462,6.41382l-7.26839,4.1964c-2.43121,1.40378-3.41761,4.4356-2.239,6.9836,2.735,5.91218,5.99319,11.5326,9.71759,16.8006,1.6182,2.2894,4.7326,2.946,7.1606,1.5442l7.26581-4.195c2.23219-1.28862,5.04319-.819,6.77719,1.0882,1.91881,2.11118,3.93781,4.1298,6.049,6.049,1.9072,1.7338,2.37681,4.5448,1.0882,6.77718l-4.1952,7.26582c-1.4016,2.4278-.74519,5.54218,1.544,7.1606,5.2684,3.7242,10.8886,6.98258,16.801,9.71758,2.54781,1.17862,5.57981,.192,6.9834-2.239l4.19641-7.26858c1.289-2.2326,3.958-3.23042,6.414-2.446,2.69979,.8622,5.45559,1.599,8.26019,2.20458,2.522,.54442,4.3384,2.746,4.3384,5.32622v8.386c0,2.806,2.128,5.176,4.9222,5.4296,3.1964,.29018,6.433,.4406,9.705,.4406s6.5086-.15042,9.705-.4406c2.79422-.2536,4.92222-2.6236,4.92222-5.4296v-8.386c0-2.58022,1.81638-4.7818,4.33838-5.32622,2.80462-.60558,5.5604-1.34238,8.2602-2.20458,2.456-.78442,5.125,.2134,6.414,2.446l4.19642,7.26858c1.40358,2.431,4.43558,3.41762,6.98338,2.239,5.9124-2.735,11.53262-5.99338,16.801-9.71758,2.2892-1.61842,2.94562-4.7328,1.544-7.1606l-4.195-7.26582c-1.2888-2.23238-.8192-5.04338,1.0882-6.77718,2.111-1.919,4.13-3.93782,6.0488-6.049,1.734-1.9072,4.545-2.37682,6.7772-1.0882l7.2658,4.195c2.428,1.4018,5.5424,.7452,7.16062-1.5442,3.72438-5.268,6.98258-10.88842,9.71758-16.8006,1.1786-2.548,.1922-5.57982-2.239-6.9836l-7.2684-4.1964c-2.2328-1.289-3.2306-3.958-2.44618-6.41382,.86238-2.7,1.599-5.45558,2.20458-8.26038,.5446-2.522,2.746-4.3382,5.3262-4.3382h8.38622Zm-100.99122,26.8872c-22.92778,0-41.5144-18.5868-41.5144-41.5144s18.58661-41.5148,41.5144-41.5148,41.5144,18.587,41.5144,41.5148-18.5866,41.5144-41.5144,41.5144Z" style="fill:#ced3f8;"/><path d="M546.22673,124.17922c-43.5052,0-78.773,35.268-78.773,78.7734s35.2678,78.773,78.773,78.773,78.773-35.268,78.773-78.773-35.26778-78.7734-78.773-78.7734Zm0,120.2878c-22.92778,0-41.5144-18.5868-41.5144-41.5144s18.58661-41.5148,41.5144-41.5148,41.5144,18.587,41.5144,41.5148-18.5866,41.5144-41.5144,41.5144Z" style="fill:#bbc0e6;"/><path d="M546.22673,148.6694c-29.97978,0-54.2832,24.30322-54.2832,54.28322s24.30341,54.283,54.2832,54.283,54.28322-24.3034,54.28322-54.283-24.30342-54.28322-54.28322-54.28322Zm0,95.79762c-22.92778,0-41.5144-18.5868-41.5144-41.5144s18.58661-41.5148,41.5144-41.5148,41.5144,18.587,41.5144,41.5148-18.5866,41.5144-41.5144,41.5144Z" style="fill:#ced3f8;"/></g><path d="M266.10834,549.40921c-2.0937,0-4.2129-.1016-6.2988-.3027-1.09959-.1055-1.9053-1.08211-1.7998-2.1817,.1055-1.0996,1.0674-1.9238,2.1826-1.7988,1.97761,.1895,3.9141,.2559,5.97561,.2832,1.86719,0,3.76269-.0859,5.63579-.2539,1.1035-.1133,2.07121,.7129,2.1708,1.8125,.0987,1.10159-.7128,2.0723-1.8134,2.1719-2.0108,.1816-4.0996,.2519-6.0528,.2695Zm17.6553-2.4375c-.8721,0-1.6738-.5742-1.9238-1.4551-.3008-1.0625,.3174-2.1679,1.3799-2.4687,3.7256-1.0547,7.3681-2.4649,10.82421-4.18951,.99019-.498,2.19039-.09179,2.68259,.89651,.4941,.9883,.0928,2.18949-.8965,2.6817-3.6787,1.8359-7.5556,3.33779-11.5205,4.4589-.18259,.0528-.3652,.0762-.5459,.0762Zm-35.5332-.0996c-.1836,0-.3711-.0254-.5566-.0781-3.96-1.1465-7.8282-2.668-11.4971-4.5254-.9854-.5-1.3799-1.7031-.8809-2.6895,.49911-.9843,1.7032-1.3789,2.6875-.8808,3.4473,1.74609,7.0811,3.1777,10.8018,4.2519,1.0605,.3067,1.67281,1.416,1.3652,2.4766-.2529,.8769-1.0517,1.4453-1.9199,1.4453Zm56.8779-10.5586c-.6035,0-1.2002-.2715-1.5937-.78911-.669-.87889-.4981-2.13279,.3808-2.80269,2.2413-1.7051,4.3946-3.5859,6.39751-5.5898l2.34279-2.3418c.78121-.7813,2.0478-.7813,2.8291,0,.7803,.7812,.7803,2.0488-.001,2.8281l-2.3428,2.3418c-2.1298,2.1309-4.4189,4.1309-6.8037,5.9453-.3613,.2754-.7871,.4082-1.209,.4082Zm-78.166-.2207c-.4267,0-.85639-.1348-1.2197-.416-2.2813-1.7578-4.46969-3.6817-6.5049-5.7168-.8779-.8789-1.7256-1.7774-2.5449-2.6895-.7373-.8242-.668-2.0879,.1543-2.8242,.8232-.7402,2.0849-.66791,2.8242,.1524,.7705,.8613,1.5693,1.705,2.3965,2.5332,1.91311,1.914,3.9707,3.7226,6.1162,5.3769,.875,.6738,1.0381,1.9297,.3633,2.8047-.3936,.5117-.9863,.7793-1.585,.7793Zm95.6602-16.44341c-.5117,0-1.0235-.19529-1.4141-.58589-.7812-.7812-.7812-2.0469,0-2.82811l8.5371-8.53709c.7813-.7813,2.0469-.7813,2.8282,0,.78121,.7812,.78121,2.0468,0,2.82809l-8.5372,8.53711c-.39059,.3906-.9023,.58589-1.414,.58589Zm-111.5703-1.34369c-.6768,0-1.3369-.3438-1.7129-.9648-2.1299-3.5166-3.9385-7.2598-5.376-11.1231-.3857-1.0352,.14161-2.1865,1.1768-2.5713,1.0312-.3887,2.1855,.1397,2.5712,1.1768,1.35161,3.6279,3.0499,7.1435,5.0499,10.4463,.5722,.9463,.2695,2.17479-.6749,2.747-.3242,.1953-.6816,.2891-1.0341,.2891Zm128.6308-15.7148c-.5117,0-1.0234-.1954-1.414-.586-.7813-.7812-.7813-2.0469,0-2.8281l8.5175-8.5176c.7813-.7812,2.0469-.7812,2.8282,0,.78121,.7813,.78121,2.0469,0,2.8281l-8.5176,8.5176c-.3906,.3906-.9024,.586-1.4141,.586Zm-136.9629-6.6387c-.957,0-1.8027-.6875-1.9697-1.6621-.6357-3.7158-.959-7.5108-.959-11.2803l.0078-1.0342c.0166-1.0947,.9082-1.9707,1.9991-1.9707h.0302c1.1045,.0166,1.98641,.9248,1.9707,2.0293l-.0078,.9756c0,3.5439,.3037,7.1113,.9024,10.6045,.1865,1.0889-.545,2.123-1.6338,2.3096-.1143,.01949-.2285,.0283-.3399,.0283Zm153.9932-10.3926c-.5117,0-1.02339-.1953-1.4141-.5859-.7812-.78131-.7812-2.0469,0-2.8282l8.5108-8.5107c.7812-.7813,2.04691-.7813,2.8281,0,.7813,.7812,.7813,2.0469,0,2.8281l-8.5107,8.5108c-.3907,.3906-.9024,.5859-1.4141,.5859Zm-153.6182-13.4668c-.1318,0-.2666-.0127-.4013-.04-1.0821-.2207-1.7803-1.27641-1.5606-2.35941,.8223-4.03909,2.0283-8.01759,3.583-11.82419,.418-1.0225,1.584-1.5127,2.6084-1.09481,1.0225,.418,1.5127,1.586,1.0948,2.60841-1.461,3.5752-2.5938,7.3125-3.3663,11.1094-.1933,.9473-1.0263,1.6006-1.958,1.6006Zm170.63681-3.5518c-.51181,0-1.02351-.1953-1.41411-.5859-.7813-.7812-.7813-2.0469,0-2.8281l8.5068-8.5069c.78131-.7812,2.0469-.7812,2.8282,0,.7812,.78129,.7812,2.0469,0,2.8282l-8.50689,8.5068c-.39061,.3906-.90231,.5859-1.414,.5859Zm17.01259-17.01261c-.5117,0-1.0234-.19539-1.414-.586-.7813-.78119-.7813-2.04689,0-2.82809l8.5049-8.50491c.7812-.78119,2.0468-.78119,2.8281,0,.7812,.78131,.7812,2.04691,0,2.82811l-8.5049,8.50489c-.3906,.39061-.9023,.586-1.4141,.586Zm-178.6279-1.52059c-.373,0-.75-.1035-1.0859-.3222-.92679-.6006-1.1914-1.8389-.5899-2.7656,2.2315-3.4424,4.8086-6.7041,7.6592-9.6954,.7647-.7988,2.0293-.8261,2.8281-.0683,.79981,.7627,.8301,2.0283,.0684,2.82809-2.6807,2.81151-5.1025,5.87791-7.2002,9.11131-.3828,.5909-1.02439,.9121-1.6797,.9121Zm195.6367-15.4882c-.5117,0-1.02339-.1953-1.414-.586-.7813-.78121-.7813-2.0468,0-2.8281l8.5039-8.5039c.7812-.7813,2.0469-.7813,2.8281,0,.7813,.7812,.7813,2.0469,0,2.8281l-8.5039,8.5039c-.3906,.3907-.9023,.586-1.4141,.586Zm-179.73339-2.4141c-.51171,0-1.02341-.1953-1.414-.5859-.78131-.7813-.78131-2.0469,0-2.82821l8.48529-8.48529c.7813-.7813,2.0469-.7813,2.8282,0,.7812,.7812,.7812,2.0469,0,2.8281l-8.4854,8.4854c-.3906,.3906-.9023,.5859-1.41409,.5859Zm196.73929-14.5908c-.5117,0-1.0234-.19532-1.4141-.586-.78119-.7812-.78119-2.0468,0-2.8281l8.503-8.5029c.7812-.78132,2.04681-.78132,2.8281,0,.7812,.7812,.7812,2.0469,0,2.8281l-8.5029,8.5029c-.3907,.39068-.90239,.586-1.4141,.586Zm-179.7686-2.3799c-.51169,0-1.0234-.1953-1.414-.5859-.7813-.7813-.7813-2.0469,0-2.8282l8.48531-8.48532c.78129-.78128,2.04689-.78128,2.82819,0,.7812,.78122,.7812,2.04692,0,2.82812l-8.4854,8.4854c-.3906,.3906-.9023,.5859-1.4141,.5859Zm196.7549-14.60642c-.5117,0-1.0234-.19538-1.414-.586-.7813-.78118-.7813-2.04688,0-2.82808l8.5117-8.5117c.7812-.7813,2.0469-.7813,2.8281,0,.7813,.7812,.7813,2.04678,0,2.8281l-8.5117,8.51168c-.3906,.39062-.9024,.586-1.4141,.586Zm-179.7842-2.36428c-.5117,0-1.02339-.1953-1.414-.5859-.7813-.7813-.7813-2.0469,0-2.8282l8.4853-8.4853c.78131-.78132,2.0469-.78132,2.8282,0,.7812,.7812,.7812,2.0469,0,2.8281l-8.4854,8.4854c-.3906,.3906-.9023,.5859-1.4141,.5859Zm196.7979-14.6494c-.5117,0-1.0234-.19532-1.4141-.586-.78119-.7812-.78119-2.0468,0-2.8281l8.502-8.5019c.7812-.78132,2.0469-.78132,2.8281,0,.7813,.7812,.7813,2.0468,0,2.8281l-8.5019,8.5019c-.3907,.39068-.90239,.586-1.4141,.586Zm-179.8272-2.32132c-.5117,0-1.0234-.19528-1.414-.58588-.7813-.7813-.7813-2.0469,0-2.8282l8.4853-8.4853c.7813-.7813,2.0469-.7813,2.8282,0,.7812,.7812,.7812,2.0469,0,2.8281l-8.4854,8.4854c-.3906,.3906-.9023,.58588-1.4141,.58588Zm196.8311-14.68358c-.5117,0-1.0234-.1953-1.4141-.5859-.7812-.7813-.7812-2.0469,0-2.8282l8.502-8.5029c.7812-.7812,2.04691-.7812,2.8281,0,.7813,.7803,.7813,2.0469,0,2.8281l-8.5019,8.503c-.3907,.3906-.9024,.5859-1.4141,.5859Zm-179.8603-2.2871c-.5118,0-1.0235-.19532-1.4141-.5859-.7813-.7813-.7813-2.0469,0-2.8282l8.4853-8.4853c.7813-.7813,2.04691-.7813,2.8282,0,.7812,.7812,.7812,2.0468,0,2.82808l-8.4854,8.48542c-.3906,.39058-.9023,.5859-1.414,.5859Zm196.8662-14.7178c-.5118,0-1.0235-.1953-1.41409-.5859-.78121-.7813-.78121-2.0469,0-2.8281l8.50389-8.503c.7813-.7812,2.0469-.7812,2.82811,0,.78129,.7813,.78129,2.0479,0,2.8281l-8.50391,8.503c-.3906,.3906-.9023,.5859-1.414,.5859Zm-179.8955-2.2529c-.5118,0-1.0235-.1953-1.4141-.586-.7813-.7812-.7813-2.0468,0-2.8281l8.4853-8.4853c.7813-.7813,2.0469-.7813,2.82821,0,.78119,.7812,.78119,2.04678,0,2.8281l-8.48541,8.4853c-.39059,.3907-.9023,.586-1.414,.586Zm196.9013-14.7539c-.5117,0-1.0234-.1953-1.414-.586-.7813-.7812-.7813-2.0468,0-2.8281l8.5058-8.5049c.78131-.7812,2.0469-.7812,2.8281,0,.7813,.78128,.7813,2.0469,0,2.8282l-8.50579,8.5048c-.39061,.3907-.90241,.586-1.41411,.586Zm-179.9306-2.2168c-.5118,0-1.0235-.1953-1.4141-.586-.7813-.7812-.7813-2.0468,0-2.8281l8.4853-8.4853c.7813-.7813,2.0469-.7813,2.8282,0,.7812,.7812,.7812,2.0468,0,2.8281l-8.4854,8.4853c-.3906,.3907-.90229,.586-1.414,.586Zm196.9443-14.794c-.5117,0-1.0234-.1953-1.4141-.58592-.7812-.78028-.7812-2.04688,0-2.82808l8.5059-8.5078c.7812-.7813,2.0469-.7813,2.8281,0,.7813,.7812,.7813,2.0468,0,2.8281l-8.5058,8.50778c-.39069,.39062-.9024,.58592-1.4141,.58592Zm-179.97359-2.1767c-.51181,0-1.02351-.1953-1.41411-.586-.7813-.78122-.7813-2.0468,0-2.8281l8.4844-8.4844c.7812-.7812,2.0468-.7812,2.8281,0,.7812,.78128,.7812,2.0469,0,2.8282l-8.48439,8.4843c-.39061,.3907-.90231,.586-1.414,.586Zm196.98728-14.8428c-.5118,0-1.0235-.1953-1.4141-.5859-.78118-.7803-.78118-2.0469,0-2.8282l8.5117-8.5127c.7813-.7812,2.0469-.7812,2.82812,0,.78128,.7803,.78128,2.0469,0,2.8282l-8.51172,8.5127c-.3906,.3906-.90228,.5859-1.414,.5859Zm-180.0176-2.1269c-.51169,0-1.0234-.1954-1.4141-.586-.7812-.7812-.7812-2.0469,0-2.8281l8.48541-8.48542c.78119-.78118,2.04689-.78118,2.82809,0,.7813,.78132,.7813,2.04692,0,2.82822l-8.4853,8.4853c-.3907,.3906-.9024,.586-1.4141,.586Zm197.0469-14.9004c-.5118,0-1.0235-.1954-1.4141-.586-.7812-.7812-.7812-2.0469,0-2.82812l8.52152-8.52248c.78118-.7812,2.04688-.7812,2.82808,0,.7813,.7803,.7813,2.0469,0,2.8282l-8.5215,8.5224c-.39058,.3906-.9023,.586-1.414,.586Zm-180.0762-2.0704c-.5117,0-1.02339-.1953-1.4141-.5859-.7812-.7812-.7812-2.0469,0-2.8281l8.4854-8.4854c.7812-.7812,2.0469-.7812,2.8281,0,.7813,.7813,.7813,2.0469,0,2.8282l-8.4853,8.4853c-.3907,.3906-.9024,.5859-1.4141,.5859Zm197.1309-14.9814c-.5118,0-1.0235-.19532-1.4141-.5859-.7813-.7813-.7813-2.0469,0-2.8282l8.5469-8.5488c.7812-.7812,2.0468-.7803,2.8281-.001,.7812,.7813,.7812,2.0469,0,2.8291l-8.5469,8.5489c-.3906,.39058-.90228,.5859-1.414,.5859Zm-180.1602-1.98932c-.5117,0-1.0234-.19528-1.41409-.58588-.78121-.7812-.78121-2.0469,0-2.82812l8.48539-8.48538c.7812-.7812,2.0469-.7812,2.8281,0,.7813,.7813,.7813,2.0469,0,2.8282l-8.4853,8.4853c-.3907,.3906-.9024,.58588-1.4141,.58588Zm194.0586-11.91008c-.51168,0-1.0234-.1953-1.4141-.58592-.7812-.78128-.7812-2.04688,0-2.82818,2.7481-2.748,5.2442-5.7539,7.4219-8.9345,.623-.9102,1.8711-1.1446,2.7793-.5206,.9121,.6241,1.1445,1.8682,.5215,2.78028-2.3164,3.38382-4.9727,6.58112-7.8945,9.503-.3907,.39062-.9024,.58592-1.4141,.58592Zm-177.0879-5.0606c-.5117,0-1.0234-.19532-1.4141-.5859-.7812-.7812-.7812-2.0469,0-2.8281l8.4854-8.4854c.7812-.7812,2.04691-.7812,2.8281,0,.7813,.7813,.7813,2.0469,0,2.8282l-8.4853,8.4853c-.3907,.39058-.9024,.5859-1.4141,.5859Zm190.5547-14.6357c-.2676,0-.5391-.0547-.8008-.1689-1.01168-.4424-1.47268-1.6221-1.0293-2.6338,1.5488-3.5401,2.7734-7.2491,3.6387-11.0235,.248-1.0771,1.3183-1.7529,2.3965-1.5029,1.0761,.2461,1.748,1.3193,1.5019,2.39548-.9199,4.01862-2.2246,7.96682-3.873,11.73442-.3282,.751-1.06248,1.1992-1.834,1.1992Zm-173.584-2.335c-.5117,0-1.0234-.1953-1.4141-.5859-.7812-.7812-.7812-2.0469,0-2.8281l8.4854-8.4854c.78121-.78122,2.0469-.78122,2.8281,0,.7813,.7813,.7813,2.0469,0,2.8282l-8.4853,8.4853c-.3907,.3906-.9024,.5859-1.4141,.5859Zm16.9707-16.9707c-.5117,0-1.0234-.1953-1.4141-.58592-.7812-.78128-.7812-2.04688,0-2.82808l8.4844-8.4854c.7813-.7812,2.0469-.7812,2.8281,0,.7813,.7813,.7813,2.0469,0,2.8281l-8.4843,8.48538c-.3907,.39062-.9024,.58592-1.4141,.58592Zm161.959-3.9511c-.0274,0-.0567-.001-.084-.002-1.1035-.0449-1.9609-.9756-1.916-2.0801,.0332-.832,.05082-1.665,.04882-2.497,0-3.0352-.22262-6.0948-.66212-9.09672-.1601-1.09278,.5957-2.10938,1.6895-2.26858,1.09762-.1601,2.1093,.5967,2.2675,1.6885,.4688,3.1943,.70512,6.4482,.70512,9.6719,.002,.8857-.01562,1.7754-.05272,2.666-.043,1.07518-.9297,1.918-1.9961,1.918Zm-144.9883-13.0196c-.5117,0-1.0234-.1953-1.4141-.5859-.7812-.78132-.7812-2.0469,0-2.8281l8.4844-8.4844c.7813-.7813,2.0469-.7813,2.8281,0,.7813,.78118,.7813,2.0469,0,2.8281l-8.48429,8.4844c-.39071,.3906-.90241,.5859-1.41411,.5859Zm141.5234-10.5879c-.83,0-1.6054-.5214-1.8906-1.3505-1.25968-3.6563-2.8711-7.2129-4.789-10.5704-.5489-.9589-.2149-2.1806,.7441-2.7285,.957-.5508,2.1797-.2158,2.7285,.7442,2.043,3.5732,3.7578,7.3593,5.09772,11.25388,.35928,1.04392-.19532,2.18162-1.24032,2.542-.2148,.07322-.4355,.10932-.6504,.10932Zm-124.5527-6.3818c-.5117,0-1.0234-.1953-1.4141-.5859-.7812-.7803-.7812-2.0469,0-2.8282l8.4844-8.4853c.7813-.7813,2.0469-.7813,2.82811,0,.78129,.7812,.78129,2.04688,0,2.8281l-8.48431,8.4854c-.39069,.3906-.9024,.5859-1.4141,.5859Zm112.7188-14.3291c-.5645,0-1.125-.2383-1.5215-.7021-1.0742-1.2588-2.2207-2.4991-3.4063-3.6866-1.5605-1.5595-3.2129-3.0478-4.9121-4.4238-.8574-.6953-.9902-1.9541-.2949-2.8125,.6953-.85742,1.9531-.9932,2.81442-.2949,1.80468,1.4619,3.56058,3.0449,5.22078,4.7021,1.2617,1.2627,2.4785,2.5811,3.621,3.92,.7168,.8398,.61722,2.1025-.2226,2.8193-.377,.3213-.8379,.4785-1.2988,.4785Zm-95.7481-2.6416c-.5117,0-1.0234-.1953-1.414-.585-.78129-.7812-.78129-2.04682,0-2.8291l1.1601-1.1611c2.5195-2.5185,5.25-4.8467,8.1152-6.9189,.8926-.6475,2.1465-.4463,2.793,.4492s.4453,2.1455-.4492,2.793c-2.6953,1.9472-5.2617,4.1357-7.6309,6.5048l-1.1601,1.1612c-.3906,.3906-.90239,.5859-1.4141,.5859Zm77.1895-12.3643c-.3203,0-.6446-.0761-.9453-.2382-3.4043-1.8321-7.002-3.3516-10.6934-4.5176-1.0547-.333-1.6387-1.4561-1.3047-2.5098,.3301-1.0517,1.4629-1.6396,2.5078-1.3047,3.9297,1.2412,7.75982,2.8594,11.38482,4.8086,.97258,.5235,1.33788,1.7364,.81438,2.709-.3613,.6719-1.0507,1.0527-1.7636,1.0527Zm-57.8301-1.5869c-.752,0-1.47269-.4248-1.8125-1.1504-.4688-1.0009-.0391-2.1914,.9609-2.6601,3.7207-1.74512,7.6328-3.1485,11.62891-4.1738,1.06839-.2735,2.15819,.3711,2.43359,1.4404,.2735,1.07028-.3711,2.1601-1.4414,2.4346-3.7539,.9628-7.4277,2.2812-10.9219,3.9199-.27529,.1289-.5644,.1894-.8476,.1894Zm35.0859-5.6074c-.0801,0-.1601-.0049-.2402-.0146-3.8438-.462-7.77538-.5704-11.60938-.3155-1.08792,.0703-2.05272-.7617-2.12692-1.8652-.0723-1.1016,.7617-2.0537,1.8652-2.127,4.084-.2685,8.2656-.1552,12.34772,.337,1.09758,.1318,1.87888,1.1279,1.748,2.2246-.123,1.0156-.98632,1.7607-1.98442,1.7607Z" style="fill:#a3a9d0;"/><g><path d="M319.13854,490.6814c1.4716,0,2.7146-1.11619,2.8476-2.58179,.1522-1.6764,.231-3.374,.231-5.09,0-1.71621-.0788-3.4138-.231-5.09021-.133-1.46559-1.376-2.58179-2.8476-2.58179h-4.3984c-1.35319,0-2.508-.9526-2.7936-2.2754-.31759-1.471-.704-2.9164-1.1564-4.3322-.4114-1.2882,.112-2.688,1.2832-3.3642l3.812-2.2008c1.2752-.7364,1.79261-2.32661,1.1744-3.663-1.4344-3.1008-3.1434-6.04861-5.09679-8.8118-.84881-1.2006-2.48221-1.545-3.75561-.80981l-3.8108,2.20041c-1.1708,.6758-2.6452,.4294-3.55459-.571-1.00641-1.1072-2.06541-2.166-3.17261-3.1726-1.00039-.9092-1.2466-2.3836-.5706-3.5544l2.2-3.8108c.7354-1.27361,.391-2.907-.80979-3.7558-2.763-1.9532-5.71081-3.6622-8.81181-5.0966-1.3364-.6184-2.9264-.1008-3.6626,1.1742l-2.2012,3.8122c-.676,1.1712-2.0758,1.69439-3.364,1.283-1.416-.4522-2.8612-.83861-4.3322-1.1562-1.3228-.2856-2.2754-1.4402-2.2754-2.7936v-4.3984c0-1.4716-1.116-2.7148-2.58179-2.8478-1.67641-.152-3.374-.231-5.09-.231-1.71621,0-3.41381,.079-5.09021,.231-1.4656,.133-2.5816,1.3762-2.5816,2.8478v4.3984c0,1.3534-.9528,2.508-2.2754,2.7936-1.4712,.31759-2.9164,.704-4.3326,1.1562-1.288,.41139-2.688-.1118-3.364-1.283l-2.201-3.8122c-.73619-1.275-2.3264-1.7926-3.6628-1.1742-3.1008,1.4344-6.0486,3.1434-8.8116,5.0966-1.20079,.8488-1.545,2.48219-.81,3.7558l2.20021,3.8108c.676,1.1708,.42959,2.6452-.57061,3.5544-1.10739,1.0066-2.1662,2.0654-3.1728,3.1728-.9092,1.0002-2.38359,1.2466-3.5544,.5708l-3.811-2.20041c-1.2734-.73519-2.9068-.39079-3.7556,.80981-1.9532,2.76319-3.6622,5.711-5.0968,8.8118-.6182,1.33639-.1006,2.9266,1.1744,3.663l3.8124,2.2008c1.1708,.6762,1.6942,2.076,1.2828,3.3642-.4522,1.4158-.8386,2.8612-1.1562,4.3322-.2856,1.3228-1.44019,2.2754-2.7934,2.2754h-4.3986c-1.4716,0-2.7148,1.1162-2.8478,2.58179-.1522,1.67641-.231,3.374-.231,5.09021,0,1.716,.0788,3.4136,.231,5.09,.133,1.4656,1.3762,2.58179,2.8478,2.58179h4.3986c1.35321,0,2.5078,.95261,2.7934,2.27541,.3176,1.471,.704,2.9162,1.1562,4.3322,.4114,1.2882-.112,2.688-1.2828,3.364l-3.8124,2.2012c-1.275,.73619-1.7926,2.32619-1.1744,3.6626,1.4346,3.101,3.1436,6.0488,5.0968,8.812,.8488,1.20059,2.4822,1.545,3.7556,.80959l3.811-2.20019c1.17081-.67581,2.6452-.4296,3.5544,.571,1.0066,1.107,2.06541,2.1658,3.1728,3.1724,1.0002,.9094,1.24661,2.38379,.57061,3.5546l-2.20021,3.8108c-.735,1.27339-.39079,2.9068,.81,3.7556,2.763,1.9532,5.7108,3.6624,8.8116,5.09679,1.3364,.61821,2.92661,.10081,3.6628-1.17439l2.201-3.812c.676-1.1712,2.076-1.69461,3.364-1.2832,1.4162,.4524,2.8614,.83859,4.3326,1.1564,1.3226,.2856,2.2754,1.44019,2.2754,2.7936v4.3984c0,1.4716,1.116,2.7146,2.5816,2.8476,1.6764,.1522,3.374,.2312,5.09021,.2312,1.716,0,3.41359-.079,5.09-.2312,1.46579-.133,2.58179-1.376,2.58179-2.8476v-4.3984c0-1.35341,.9526-2.508,2.2754-2.7936,1.471-.31781,2.9162-.704,4.3322-1.1564,1.2882-.41141,2.688,.112,3.364,1.2832l2.2012,3.812c.7362,1.2752,2.3262,1.7926,3.6626,1.17439,3.101-1.43439,6.04881-3.14359,8.81181-5.09679,1.20079-.8488,1.54519-2.48221,.80979-3.7556l-2.2-3.8108c-.676-1.17081-.42979-2.6452,.5706-3.5546,1.1072-1.0066,2.1662-2.0654,3.17261-3.1724,.90939-1.0006,2.38379-1.24681,3.55459-.57081l3.8108,2.2c1.2734,.73541,2.9068,.391,3.75561-.80959,1.95339-2.7632,3.66239-5.711,5.09679-8.812,.61821-1.33641,.1008-2.92641-1.1744-3.6626l-3.812-2.2012c-1.1712-.676-1.6946-2.0758-1.2832-3.364,.4524-1.416,.83881-2.8612,1.1564-4.3322,.2856-1.3228,1.44041-2.27541,2.7936-2.27541h4.3984Zm-52.96859,14.102c-12.02561,0-21.774-9.74859-21.774-21.77379s9.74839-21.774,21.774-21.774,21.77379,9.7486,21.77379,21.774-9.7486,21.77379-21.77379,21.77379Z" style="fill:#ced3f8;"/><path d="M266.16974,454.31601c-15.847,0-28.6934,12.84639-28.6934,28.69339s12.8464,28.69361,28.6934,28.69361,28.6936-12.84661,28.6936-28.69361-12.8466-28.69339-28.6936-28.69339Zm.00021,50.46739c-12.02561,0-21.774-9.74859-21.774-21.774s9.74839-21.77379,21.774-21.77379,21.77379,9.7486,21.77379,21.77379-9.7486,21.774-21.77379,21.774Z" style="fill:#bbc0e6;"/><path d="M251.53314,518.65731c-.1298,0-.2627-.0254-.3896-.0782-14.3223-6.0595-23.5762-20.0205-23.5762-35.5693,0-21.2852,17.3174-38.6025,38.60261-38.6025,.55269,0,1,.4472,1,1,0,.5527-.44731,1-1,1-20.18271,0-36.60261,16.4199-36.60261,36.6025,0,14.7432,8.7754,27.9814,22.3555,33.72559,.5088,.21681,.74611,.80271,.5312,1.31051-.16109,.3828-.5312,.6114-.9209,.6114Z" style="fill:#bbc0e6;"/><path d="M266.16995,521.61231c-.55281,0-1-.4472-1-1,0-.5527,.44719-1,1-1,20.18259,0,36.60249-16.41991,36.60249-36.6025,0-.5527,.4473-1,1-1s1,.4473,1,1c0,21.2852-17.3174,38.6025-38.60249,38.6025Z" style="fill:#bbc0e6;"/></g><g><rect x="660.89613" y="843.7358" width="200.58882" height="124.1048" style="fill:#ced3f8;"/><rect x="660.89613" y="843.7358" width="200.58882" height="35.3292" style="fill:#dae0f5; mix-blend-mode:multiply;"/><path d="M567.38133,980.3428v11.9066h387.61842v-11.9066c0-6.8148-5.5244-12.3394-12.33923-12.3394h-362.93999c-6.8148,0-12.3392,5.5246-12.3392,12.3394Z" style="fill:#dde2f8;"/></g><path d="M1187.77535,763.13321H334.60554v54.9798c0,14.1512,11.4718,25.6228,25.623,25.6228h801.92401c14.151,0,25.6228-11.4716,25.6228-25.6228v-54.9798Z" style="fill:#dde2f8;"/><path d="M1144.34415,803.4344c0-4.84679,3.9288-8.77559,8.7754-8.77559s8.776,3.9288,8.776,8.77559-3.9292,8.77581-8.776,8.77581-8.7754-3.9292-8.7754-8.77581Z" style="fill:#6b67e9;"/><path d="M1108.27915,803.4344c0-4.84679,3.9288-8.77559,8.7756-8.77559s8.7758,3.9288,8.7758,8.77559-3.9292,8.77581-8.7758,8.77581-8.7756-3.9292-8.7756-8.77581Z" style="fill:#6b67e9;"/><rect x="334.60554" y="289.21962" width="853.16981" height="473.91359" style="fill:#e7eeff;"/><path d="M1162.15255,246.54022H360.22374c-14.151,0-25.62279,11.4716-25.62279,25.6228v490.97019h21.87759V289.21962h809.41921v473.91359h21.8776V272.16302c0-14.1512-11.4716-25.6228-25.6228-25.6228Z" style="fill:#20196f;"/><ellipse cx="1446.1847" cy="1060.506" rx="122.56585" ry="14.6286" style="fill:#e9edf7;"/><g><g><path d="M1459.40435,823.7598c2.499,39.1782-20.2233,81.9794-33.5051,119.6864-1.6248,37.747-23.2311,82.167-27.0259,97.1746h-9.9184c-.0532-18.75959,4.3432-105.2414,19.8676-216.861h50.5818Z" style="fill:url(#e);"/><path d="M1398.87335,1044.251v-3.6302h-9.9184c-.1284,3.3826-.757,5.1958-1.1378,6.6,2.579,.99,6.353-1.5674,11.0562-2.9698Z" style="fill:#f0ccc0;"/><path d="M1398.87335,1044.251c-4.7032,1.4024-8.4772,3.9598-11.0562,2.9698-1.3656,.99-21.4814,8.2254-23.5286,9.627-2.0948,1.4342-1.7882,3.6582,.4298,3.6582,3.243,0,29.9524-1.1756,29.9524-1.1756,.5424,.5878,.9818,1.1756,.9818,1.1756h6.1032c1.8206-3.1556,1.3276-12.6252-2.8824-16.255Z" style="fill:#20196f;"/></g><g><path d="M1484.55235,818.1742c8.8038,38.2578,3.6146,80.4766,1.9752,106.2576,17.9602,36.6886,20.7504,90.74901,25.0884,105.6088-2.6762,1.5742-8.549,5.0286-8.549,5.0286-9.5568-16.14279-65.694-96.052-68.4303-208.7128,10.2167-1.6748,49.9157-8.1822,49.9157-8.1822Z" style="fill:#423eaf;"/><path d="M1513.45635,1033.1694c-1.0144-1.7246-1.8404-3.1288-1.8404-3.1288l-8.549,5.0286c1.6044,2.9804,1.9818,4.8622,2.3654,6.2656,2.725-.4542,4.6812-4.572,8.024-8.1654Z" style="fill:#f0ccc0;"/><path d="M1513.45635,1033.1694c-3.3428,3.5934-5.299,7.7112-8.024,8.1654-.3442,.788-4.0652,5.4452-7.7698,10.119-5.7892,2.2356-12.0298,4.6458-13.123,5.394-2.0946,1.4342-1.788,3.6582,.43,3.6582h13.6052c7.5574-4.8436,18.9046-12.2082,18.9046-12.2082,.7656,.2318,1.4422,.5156,1.4422,.5156l5.2608-3.0944c-.0306-3.6428-5.2568-11.5552-10.726-12.5496Z" style="fill:#20196f;"/></g><path d="M1404.49895,828.4898c15.7582,2.2514,68.285,.0818,85.919-10.4936-1.876-10.8922-12.7564-64.5446-12.7564-86.681s-12.3814-30.8126-19.51-35.6432c-7.1288-.7504-29.6081,9.6512-36.8892,26.3122-6.2256,14.2456-17.206,50.7646-16.7634,106.5056Z" style="fill:#f6f6fb;"/><g><path d="M1368.69055,825.4336c-.3488-4.4016-.646-7.5654,3.2128-8.2094,4.237-.7072,8.0826-2.5034,10.9124-3.483,2.8298-.9794,10.557,4.03519,5.333,8.16719-5.4576,4.3168-11.047,3.9528-13.4414,3.5252,.7076,1.4226,2.2856,5.123-1.687,5.4496s-4.0598-2.0396-4.3298-5.4496Z" style="fill:#f8d8d0;"/><path d="M1382.81575,813.74121c10.7276-5.0226,54.6063-30.368,59.3899-33.74481,.367-4.69819-.9794-74.21379,22.5117-74.49139,13.2256-.1564,14.778,16.2428,14.5328,30.1308-.1406,7.9584-5.2468,49.98859-17.3468,59.8374-12.1,9.8486-64.8482,26.3394-73.7546,26.43519-2.4882-2.5168-5.333-8.16719-5.333-8.16719Z" style="fill:url(#f);"/></g><g><path d="M1457.93135,677.84661c-.4704,3.427-.4206,13.2602,.2202,17.8254-1.8174,4.9126-8.899,8.1738-20.4653,7.97139,2.8136-2.78179,5.5045-8.48739,3.2532-12.849-2.2512-4.36159-6.6782,1.369-9.8954-5.62779-3.7522-8.1604-4.6944-24.1618-.7976-28.5616,4.3616-4.9242,13.0065-10.895,24.4815-3.9394,9.362,5.67479,4.1594,18.2112,3.2034,25.181Z" style="fill:#f8d8d0;"/><path d="M1449.33435,669.8774c-2.6262,0-1.1876-6.86719-3.0952-8.53559-2.2524-1.9696-9.8621-3.1996-17.2655-2.4908-7.4035,.7086-11.8823-8.9994-7.0985-12.9388,4.7835-3.9396,9.0093,1.6408,12.5453,.5158,4.1272-1.3132,3.4726-6.3308,9.5663-5.72161,5.6292,.56281,2.9982,5.77281,6.5672,6.75341,3.679,1.0108,9.1738-3.8088,13.6006,2.0404,3.283,4.3378-1.7822,6.7766-1.3132,11.5604,.293,2.987,7.5976,11.8966-.469,15.51579-8.0666,3.61881-6.0968-4.54159-5.6278-7.91819,.469-3.37681-1.0318-5.628-2.7202-5.72181-1.6884-.09379-.938,6.941-4.69,6.941Z" style="fill:#20196f;"/></g></g><path d="M1247.78255,893.5328l-42.2618-61.308c-19.453,13.4356-32.2088,35.8774-32.2088,61.308,0,41.129,33.3416,74.4706,74.4706,74.4706s74.4706-33.3416,74.4706-74.4706c0-18.5984-6.8338-35.5902-18.1064-48.641l-56.3642,48.641Z" style="fill:#5652cc;"/><path d="M1315.70375,863.0216c2.162,6.9676,3.3436,14.3664,3.3436,22.0464,0,41.1288-33.3416,74.4704-74.4706,74.4704-30.289,0-56.3354-18.093-67.971-44.0516,9.3696,30.4124,37.6898,52.5166,71.1768,52.5166,41.129,0,74.4706-33.3416,74.4706-74.4706,0-10.8784-2.3526-21.1992-6.5494-30.5112Z" style="fill:url(#g);"/><path d="M1308.53075,834.546c-14.4648-16.7466-35.8378-27.3594-59.7028-27.3594-16.628,0-32.0452,5.1572-44.765,13.9422l44.765,64.9392,59.7028-51.522Z" style="fill:url(#h);"/><rect x="769.18773" y="305.21982" width="380.70942" height="212.95699" style="fill:#fff;"/><rect x="372.47814" y="305.21982" width="380.70959" height="212.95699" style="fill:#fff;"/><rect x="769.18773" y="534.17681" width="380.70942" height="212.95699" style="fill:#fff;"/><rect x="372.47814" y="534.17681" width="380.70959" height="212.95699" style="fill:#fff;"/><g><rect x="795.25673" y="357.27382" width="26.557" height="147.563" style="fill:#6b67e9;"/><rect x="795.25673" y="357.27382" width="26.557" height="40" style="fill:#ff826a;"/><rect x="828.81373" y="411.76402" width="26.55722" height="93.0728" style="fill:#6b67e9;"/><rect x="828.81373" y="411.76402" width="26.55722" height="17.29438" style="fill:#423eaf;"/><rect x="862.37095" y="436.21521" width="26.55718" height="68.6216" style="fill:#6b67e9;"/><rect x="862.37095" y="436.21521" width="26.55718" height="11.68619" style="fill:#ff826a;"/><rect x="895.92812" y="394.03162" width="26.5572" height="110.8052" style="fill:#6b67e9;"/><rect x="895.92812" y="394.03162" width="26.5572" height="35.3334" style="fill:#423eaf;"/><rect x="929.48532" y="373.96662" width="26.55702" height="130.8702" style="fill:#6b67e9;"/><rect x="929.48532" y="373.96662" width="26.55702" height="40.1302" style="fill:#ff826a;"/><rect x="963.04235" y="353.9014" width="26.5572" height="150.93541" style="fill:#6b67e9;"/><rect x="963.04235" y="353.9014" width="26.5572" height="32.66662" style="fill:#423eaf;"/><rect x="996.59955" y="345.58762" width="26.5572" height="159.2492" style="fill:#6b67e9;"/><rect x="996.59955" y="345.58762" width="26.5572" height="28.379" style="fill:#ff826a;"/><rect x="1030.15675" y="400.01202" width="26.5572" height="104.8248" style="fill:#6b67e9;"/><rect x="1030.15675" y="400.01202" width="26.5572" height="42.04638" style="fill:#ff826a;"/><rect x="1063.71395" y="365.58762" width="26.5572" height="139.2492" style="fill:#6b67e9;"/><rect x="1063.71395" y="365.58762" width="26.5572" height="40.9804" style="fill:#423eaf;"/><rect x="1097.27115" y="353.9014" width="26.557" height="150.93541" style="fill:#6b67e9;"/><rect x="1097.27115" y="353.9014" width="26.557" height="75.46761" style="fill:#ff826a;"/></g><path d="M791.08495,714.52421v-41.62281c27.90258-52.72239,54.66658-98.66659,88.66658-98.66659,34.33342,0,34,81,73.00002,81,26.9028,0,49.6668-56.6668,80-56.6668,41.9624,0,42.3334,64.7918,91.0766,35.45839v80.49781h-332.7432Z" style="fill:url(#i);"/><path d="M791.08495,714.52421v-31.2894c23-38.85541,43-66.83341,66.5-66.83341,31.34318,0,40.16658,60.17481,77.83337,60.17481,40.00003,0,54.18123-46.5734,86.33323-46.5734,32.6668,0,53.3334,47.48,102.0766,10.65259v73.86881h-332.7432Z" style="fill:url(#j);"/><g><rect x="795.23533" y="726.4014" width="6.8828" height="4" style="fill:#807dfb;"/><rect x="817.91895" y="726.4014" width="6.88278" height="4" style="fill:#807dfb;"/><rect x="840.60053" y="726.4014" width="6.8848" height="4" style="fill:#807dfb;"/><rect x="863.28412" y="726.4014" width="6.88282" height="4" style="fill:#807dfb;"/><rect x="885.96772" y="726.4014" width="6.8828" height="4" style="fill:#807dfb;"/><rect x="908.64942" y="726.4014" width="6.8828" height="4" style="fill:#807dfb;"/><rect x="931.33295" y="726.4014" width="6.88287" height="4" style="fill:#807dfb;"/><rect x="954.01465" y="726.4014" width="6.8828" height="4" style="fill:#807dfb;"/><rect x="976.69825" y="726.4014" width="6.8828" height="4" style="fill:#807dfb;"/><rect x="999.37985" y="726.4014" width="6.8828" height="4" style="fill:#807dfb;"/><rect x="1022.06345" y="726.4014" width="6.8828" height="4" style="fill:#807dfb;"/><rect x="1044.74515" y="726.4014" width="6.8847" height="4" style="fill:#807dfb;"/><rect x="1067.42875" y="726.4014" width="6.8828" height="4" style="fill:#807dfb;"/><rect x="1090.11035" y="726.4014" width="6.8848" height="4" style="fill:#807dfb;"/><rect x="1112.79395" y="726.4014" width="6.8828" height="4" style="fill:#807dfb;"/></g><path d="M1025.50485,719.4014c-.5527,0-1-.44729-1-1v-127.61909c0-.5528,.4473-1,1-1,.5528,0,1,.4472,1,1v127.61909c0,.55271-.4472,1-1,1Z" style="fill:#20196f;"/><polygon points="1025.50475 581.78201 1017.26575 566.6884 1033.74255 566.6874 1025.50475 581.78201" style="fill:#20196f;"/><path d="M451.08495,368.50082c-20.33681,0-36.823,16.486-36.823,36.8228s16.48619,36.823,36.823,36.823,36.823-16.48621,36.823-36.823-16.48621-36.8228-36.823-36.8228Zm0,59.483c-12.51481,0-22.66021-10.14541-22.66021-22.6602s10.1454-22.66,22.66021-22.66,22.66,10.1452,22.66,22.66-10.14521,22.6602-22.66,22.6602Z" style="fill:#ffaf6d;"/><path d="M460.98233,384.96322l9.2812-19.093c-5.794-2.822-12.3004-4.4084-19.17859-4.4084v21.20158c3.554,0,6.90359,.84162,9.89739,2.29982Z" style="fill:#5652cc;"/><g><path d="M562.83295,368.50082c-20.33682,0-36.823,16.486-36.823,36.8228s16.48618,36.823,36.823,36.823,36.823-16.48621,36.823-36.823-16.48622-36.8228-36.823-36.8228Zm0,59.483c-12.51482,0-22.66-10.14541-22.66-22.6602s10.14518-22.66,22.66-22.66,22.66,10.1452,22.66,22.66-10.14522,22.6602-22.66,22.6602Z" style="fill:#ff826a;"/><path d="M583.72953,396.55062l19.5542-8.2096c-6.6374-15.7902-22.2482-26.8792-40.45078-26.8792v21.20158c9.40378,0,17.46758,5.72962,20.89658,13.88722Z" style="fill:#5652cc;"/></g><g><path d="M637.75813,405.32362c0,20.33678,16.4862,36.823,36.82282,36.823s36.82318-16.48621,36.82318-36.823-16.4864-36.8228-36.82318-36.8228-36.82282,16.486-36.82282,36.8228Zm14.16282,0c0-12.5148,10.14538-22.66,22.66-22.66s22.66018,10.1452,22.66018,22.66-10.1454,22.6602-22.66018,22.6602-22.66-10.14541-22.66-22.6602Z" style="fill:#ff826a;"/><path d="M697.24113,405.32362c0,12.51478-10.1454,22.6602-22.66018,22.6602-6.07262,0-11.57442-2.40241-15.64282-6.2916l-14.6528,15.3324c7.875,7.5282,18.541,12.161,30.29562,12.161,24.22438,0,43.86218-19.6376,43.86218-43.862s-19.6378-43.8618-43.86218-43.8618v21.20158c12.51478,0,22.66018,10.14542,22.66018,22.66022Z" style="fill:#5652cc;"/></g><g><path d="M428.42474,480.5684h-14.163c-1.1045,0-2-.89549-2-2s.8955-2,2-2h14.163c1.1045,0,2,.89551,2,2s-.8955,2-2,2Z" style="fill:#807dfb;"/><path d="M487.90723,480.5684h-49.7285c-1.1045,0-2-.89549-2-2s.8955-2,2-2h49.7285c1.1054,0,2,.89551,2,2s-.8946,2-2,2Z" style="fill:#807dfb;"/><path d="M487.90723,491.4014h-73.6455c-1.1045,0-2-.89549-2-2s.8955-2,2-2h73.6455c1.1054,0,2,.89551,2,2s-.8946,2-2,2Z" style="fill:#807dfb;"/></g><g><path d="M540.17283,480.5684h-14.1621c-1.1055,0-2-.89549-2-2s.8945-2,2-2h14.1621c1.1055,0,2,.89551,2,2s-.8945,2-2,2Z" style="fill:#807dfb;"/><path d="M569.75095,480.5684h-19.82422c-1.1055,0-2-.89549-2-2s.8945-2,2-2h19.82422c1.10548,0,2,.89551,2,2s-.89452,2-2,2Z" style="fill:#807dfb;"/><path d="M599.65523,480.5684h-22.3945c-1.1055,0-2-.89549-2-2s.8945-2,2-2h22.3945c1.1055,0,2,.89551,2,2s-.8945,2-2,2Z" style="fill:#807dfb;"/><path d="M587.08495,491.4014h-61.07421c-1.1055,0-2-.89549-2-2s.8945-2,2-2h61.07421c1.10548,0,2,.89551,2,2s-.89452,2-2,2Z" style="fill:#807dfb;"/></g><g><path d="M659.00295,480.5684h-14.16412c-1.1055,0-2-.89549-2-2s.8945-2,2-2h14.16412c1.10538,0,2,.89551,2,2s-.89462,2-2,2Z" style="fill:#807dfb;"/><path d="M711.40333,480.5684h-42.6465c-1.1055,0-2-.89549-2-2s.8945-2,2-2h42.6465c1.1054,0,2,.89551,2,2s-.8946,2-2,2Z" style="fill:#807dfb;"/><path d="M711.40333,491.4014h-73.6446c-1.1054,0-2-.89549-2-2s.8946-2,2-2h73.6446c1.1054,0,2,.89551,2,2s-.8946,2-2,2Z" style="fill:#807dfb;"/></g><polygon points="658.79195 650.75491 590.51853 575.57331 545.30953 608.58111 497.68263 582.88191 461.14353 597.04591 460.73333 596.8174 402.26364 564.1084 403.24024 562.36231 461.29973 594.84281 497.81933 580.68261 545.14943 606.22171 590.79195 572.89751 591.39543 573.56351 659.21383 648.24711 719.27243 615.52251 720.22943 617.28031 658.79195 650.75491" style="fill:#807dfb;"/><path d="M397.58914,563.23481c0-2.8512,2.3112-5.1626,5.1624-5.1626s5.1626,2.3114,5.1626,5.1626-2.3114,5.1624-5.1626,5.1624-5.1624-2.3112-5.1624-5.1624Z" style="fill:#807dfb;"/><path d="M456.05973,595.94461c0-2.85121,2.3114-5.1626,5.1626-5.1626s5.1624,2.31139,5.1624,5.1626-2.3112,5.1626-5.1624,5.1626-5.1626-2.3114-5.1626-5.1626Z" style="fill:#807dfb;"/><path d="M492.58913,581.78201c0-2.8512,2.3112-5.1624,5.1624-5.1624s5.1626,2.3112,5.1626,5.1624-2.3114,5.1626-5.1626,5.1626-5.1624-2.3114-5.1624-5.1626Z" style="fill:#807dfb;"/><circle cx="545.22854" cy="607.40141" r="9.02539" transform="translate(-136.28473 1056.56763) rotate(-81.4753)" style="fill:#ff826a;"/><path d="M585.49295,574.23481c0-2.8512,2.31138-5.1626,5.16258-5.1626s5.1626,2.3114,5.1626,5.1626-2.3114,5.1624-5.1626,5.1624-5.16258-2.3112-5.16258-5.1624Z" style="fill:#807dfb;"/><circle cx="659.00233" cy="649.50021" r="5.16261" style="fill:#807dfb;"/><path d="M714.58913,616.4014c0-2.85119,2.3112-5.16259,5.1624-5.16259s5.1626,2.3114,5.1626,5.16259-2.3114,5.16261-5.1626,5.16261-5.1624-2.3114-5.1624-5.16261Z" style="fill:#807dfb;"/><g><path d="M685.16895,684.4014h-29.084c-1.10552,0-2-.89449-2-2s.89448-2,2-2h29.084c1.10548,0,2,.89451,2,2s-.89452,2-2,2Z" style="fill:#ced3f8;"/><path d="M737.81153,684.4014h-41.418c-1.1055,0-2-.89449-2-2s.8945-2,2-2h41.418c1.10542,0,2,.89451,2,2s-.89458,2-2,2Z" style="fill:#ced3f8;"/><path d="M703.36423,708.5284h-58.5254c-1.1055,0-2-.89459-2-2,0-1.10549,.8945-2,2-2h58.5254c1.1055,0,2,.89451,2,2,0,1.10541-.8945,2-2,2Z" style="fill:#ced3f8;"/><path d="M737.81153,708.5284h-23.2227c-1.1055,0-2-.89459-2-2,0-1.10549,.8945-2,2-2h23.2227c1.10542,0,2,.89451,2,2,0,1.10541-.89458,2-2,2Z" style="fill:#ced3f8;"/><path d="M662.71773,732.65531h-17.8789c-1.1055,0-2-.8945-2-2s.8945-2,2-2h17.8789c1.1055,0,2,.8945,2,2s-.8945,2-2,2Z" style="fill:#ced3f8;"/><path d="M726.08495,732.65531h-52.14062c-1.1055,0-2-.8945-2-2s.8945-2,2-2h52.14062c1.10548,0,2,.8945,2,2s-.89452,2-2,2Z" style="fill:#ced3f8;"/><path d="M737.81153,696.46591h-92.9727c-1.1055,0-2-.8946-2-2,0-1.10551,.8945-2,2-2h92.9727c1.10542,0,2,.89449,2,2,0,1.1054-.89458,2-2,2Z" style="fill:#ced3f8;"/><path d="M737.81153,720.59281h-92.9727c-1.1055,0-2-.8945-2-2s.8945-2,2-2h92.9727c1.10542,0,2,.8945,2,2s-.89458,2-2,2Z" style="fill:#ced3f8;"/></g><g><circle cx="718.44308" cy="561.69726" r="17.50096" transform="translate(-108.19301 176.55178) rotate(-13.0375)" style="fill:#ced3f8;"/><path d="M715.70395,560.34821c-1.353-.89181-2.24722-2.42281-2.24722-4.1644,0-2.754,2.2324-4.9866,4.9864-4.9866,2.75382,0,4.9864,2.2326,4.9864,4.9866,0,1.74159-.8944,3.27259-2.2472,4.1644,5.1452,1.2734,5.4602,4.9634,5.4602,9.224h-16.3988c0-4.2606,.5136-7.9506,5.46022-9.224Z" style="fill:#fff;"/></g><path d="M305.54234,1062.613c0-6.9166,45.834-12.5228,102.3718-12.5228s102.37181,5.6062,102.37181,12.5228-45.83321,12.5216-102.37181,12.5216-102.3718-5.605-102.3718-12.5216Z" style="fill:#e9edf7;"/><path d="M317.82095,1000.6204c17.52139-26.484,42.38979-64.9958,70.02079-81.9904l16.4248,16.7134c-37.0782,35.9654-73.54559,66.2122-78.9348,69.62681-2.787,1.8926-1.6942,4.5342-1.3296,5.6624,3.0544,9.4262,9.7012,22.56099,5.8322,24.23819-3.4448,1.4938-7.6166-2.5182-13.036-10.0664-2.8228-3.93079-5.6928-9.02659-6.48439-11.76599-1.02861-3.56901,4.00539-6.9982,7.507-12.41801Z" style="fill:#f8d8d0;"/><path d="M438.76134,1033.762c.3924-7.4046-.1466-74.9488,8.8402-102.98l26.1008,5.1172c-10.10239,49.947-24.0806,91.181-27.03439,100.3966-.65,2.6328-.32941,4.9058,.26779,5.93,4.9914,8.559,15.3014,21.1748,11.878,23.6378-3.048,2.1944-8.9916-2.0362-15.8962-8.2552-3.59559-3.2392-7.486-7.6074-8.8422-10.115-1.7666-3.2672,2.4204-7.6898,4.686-13.7314Z" style="fill:#f8d8d0;"/><path d="M407.22754,730.03901c-6.6524,9.0246-32.5638,57.2022-38.4412,65.97839,1.7468,13.76521,14.6274,48.7476,14.6274,48.7476,0,0-1.65579,16.0192,4.0418,20.041,5.6968,4.0198,7.6406,2.4576,8.57441,1.7884,2.22-1.5922-3.47861-14.5638-.74541-15.8184,2.1038-.3526,3.9898-.61,4.80441-.7204-4.083-2.5218-2.88261-5.115-5.55481-7.6902-4.5108-4.3468-11.414-36.27239-11.2724-42.57819,6.78021-12.26,24.79921-34.01781,32.2716-42.6702,7.4722-8.6514-8.3058-27.078-8.3058-27.078Z" style="fill:#f8d8d0;"/><path d="M466.31513,719.79221c11.398-4.729,31.3446-19.8442,35.4072-26.8272,4.06261-6.9822,24.181-55.8094,23.6834-59.806-.5752-4.6234,8.2266-3.7188,7.65621-.1742-4.537,28.1844-10.34521,62.3578-18.28621,71.216-10.572,11.79359-37.9744,34.5128-44.8916,38.2524-6.3468,3.431-6.21719,1.4954-9.1236-5.642-2.9054-7.1382,.0038-14.715,5.5546-17.019Z" style="fill:#f8d8d0;"/><g><path d="M455.73373,813.10061c1.1164-11.6468,23.1996-87.97921,10.5814-93.3084-12.704-5.3644-46.04-9.87481-55.6744,3.60519-9.6346,13.48061-2.943,28.025-2.416,40.96581,.5284,12.94019,5.0558,31.763,2.6916,44.8056-32.20539,30.4808-45.2986,89.3458-46.9356,114.62479,34.103,29.1478,75.9824,33.6702,121.9936,22.432,9.0778-76.5658-24.847-120.94-30.2406-133.12499Z" style="fill:url(#k);"/><path d="M454.64973,951.3806c10.1896-.7994,20.644-2.5466,31.3246-5.155,9.0778-76.566-24.847-120.94-30.2406-133.12499,.7556-7.881,11.10921-45.378,13.81721-70.4548-10.05961,43.6478-22.97921,56.384-24.215,69.78159-1.68981,18.3188,25.57879,55.073,20.57039,103.789-1.719,16.7192-8.1462,32.0434-11.2566,35.1642Z" style="fill:url(#l); mix-blend-mode:multiply;"/></g><path d="M443.62374,664.13521c-12.27-1.177-28.86779,11.1308-26.6824,38.3838,2.18461,27.25339-10.01639,51.2612-27.14539,50.0646,9.06,19.6274,19.97139,32.4072,39.58519,27.1396,11.8082-3.172,23.8896-16.6254,29.032-38.597,4.0072-17.12,5.668-29.0204,6.5886-48.1454,1.0176-21.13441-10.86-27.8352-21.378-28.8456Z" style="fill:#20196f;"/><path d="M545.22853,607.4014c-.4802-1.57919-11.43958,6.56561-13.3398,7.819-.685,.45241-1.55379,.965-2.4654,1.53461,.2898-1.7212,1.1228-7.22861-.0906-7.22861-1.4376,0-3.0626,8.68741-3.89979,10.262-2.11281,2.11241-.40061,9.48841-.02721,13.37061l7.65621-.1742s1.09359-.7728,2.69879-2.18c2.55121-2.2368,2.7206-3.85,4.261-6.379,1.3368-2.1986,.4376-2.9712-.7994-2.9712,1.3398-1.6584,.3602-3.1426-.4122-3.1426,1.3912-2.01-.02618-3.0664-1.0826-2.78261,0,0,7.984-6.54819,7.501-8.128Z" style="fill:#f8d8d0;"/><path d="M1043.80695,339.9064c-2.7242,3.22482-5.6504,12.32162,0,19.04322,5.6492,6.7232,15.4938,8.04,20.9952,8.04,5.5004,0,7.007-1.9774,6.2538-4.8754-.7534-2.9014-11.8538-16.324-13.0488-21.6734-5.4686-2.0568-14.2002-.53442-14.2002-.53442Z" style="fill:#20196f;"/><path d="M937.66352,339.9064c2.7242,3.22482,5.65043,12.32162,0,19.04322-5.6492,6.7232-20.76257,8.04-26.2642,8.04-5.5002,0-7.007-1.9774-6.25338-4.8754,.75318-2.9014,17.12258-16.324,18.31738-21.6734,5.46862-2.0568,14.2002-.53442,14.2002-.53442Z" style="fill:#20196f;"/><path d="M1063.10355,223.79202c-6.2798-6.281-54.87-10.5572-72.3684-10.5572-27.3534,0-66.08842,4.2762-72.36802,10.5572-6.28018,6.2808,2.8914,99.4088,4.2964,116.84538h16.173c1.9366-9.39878,8.01303-58.72758,6.96443-84.78278,11.8994,0,44.9342-9.3144,44.9342-9.3144,0,0,34.0646,9.3144,44.9346,9.3144,0,23.4686,5.3126,76.76678,6.9646,84.78278h15.5112c1.4052-17.43658,11.2382-110.56458,4.958-116.84538Z" style="fill:url(#m);"/><g><path d="M1046.89375,147.8174c-4.4728-8.28318-9.9404-16.39558-14.1184-19.37978-8.6992-6.2138-28.9976-5.3854-41.8946-4.971-12.8972-.4144-33.1954-1.2428-41.8948,4.971-4.2434,3.031-9.59423,10.9372-14.11843,19.37978-1.78157,3.32462,13.85863,6.45342,18.26103,8.47862,1.2128,19.0116-3.6978,67.12-3.6978,67.12,0,0,17.4784,4.9818,41.45,4.9818s41.5376-4.7192,41.5376-4.7192c0,0-4.2658-47.3746-3.7854-67.3826,5.2082-2.3968,19.5712-6.0518,18.2608-8.47862Z" style="fill:url(#n);"/><path d="M1028.63295,156.29602c-1.8814-4.87262-4.915-7.0982-5.4762,5.65738-.4736,10.76482,.1954,45.893,1.7432,63.5,5.556-.95478,7.5184-1.77458,7.5184-1.77458,0,0-4.2658-47.3748-3.7854-67.3828Z" style="fill:url(#o); mix-blend-mode:multiply;"/><path d="M1028.63295,156.29602s12.9394-5.937,18.2608-8.47862c4.6614,8.76442,8.6348,18.46162,10.2344,25.15242,3.169,13.256-20.695,41.218-20.695,41.218,0,0-2.9624,2.238-7.7644,5.2722l10.0616-42.2442s-7.5084-16.1558-10.0974-20.9198Z" style="fill:#f0ccc0;"/><path d="M953.12855,156.29602s-12.9396-5.937-18.26103-8.47862c-4.6612,8.76442-8.6348,18.46162-10.2344,25.15242-3.1688,13.256,20.69522,41.218,20.69522,41.218,0,0,2.9624,2.238,7.7642,5.2722l-10.06143-42.2442s7.50823-16.1558,10.09743-20.9198Z" style="fill:#f0ccc0;"/></g><g><path d="M998.65815,112.69602h-15.555c-1.0156,5.1782-3.4112,8.5838-5.3396,10.4872,2.0578,5.418,7.7516,7.5328,13.1172,7.5328s11.35-2.1148,13.408-7.5328c-1.9284-1.9036-4.615-5.309-5.6306-10.4872Z" style="fill:#e3b8ae;"/><path d="M971.55095,93.66722c0-8.5196,.9138-18.906,6.3242-23.38282,2.8982-2.39818,7.555-3.15618,13.0056-3.15618,5.519,0,10.334,.9186,13.3006,3.6526,4.9444,4.557,6.029,14.7094,6.029,22.8864,0,13.08318-8.654,23.68918-19.3296,23.68918s-19.3298-10.606-19.3298-23.68918Z" style="fill:#f0ccc0;"/><path d="M1007.30175,89.14722c-.1844-2.3346,.898-4.32482,2.4178-4.44482,1.5198-.12018,2.9014,1.675,3.0858,4.00982,.1846,2.3348-.8978,4.3248-2.4176,4.445-1.5196,.12018-2.9012-1.6752-3.086-4.01Z" style="fill:#f0ccc0;"/><path d="M974.45955,89.14722c.1844-2.3346-.8978-4.32482-2.4176-4.44482-1.5198-.12018-2.9014,1.675-3.086,4.00982-.1846,2.3348,.8978,4.3248,2.4176,4.445,1.5198,.12018,2.9014-1.6752,3.086-4.01Z" style="fill:#f0ccc0;"/><path d="M1005.62175,67.12902l.0058-.0008c-10.8816-10.46-10.4524-5.28182-8.7736-3.78282l-.0006,.00082c-6.29-2.03582-11.5358-3.40882-12.5312-3.0532-.5014,.1792-.1752,1.4828,.2834,2.3358-1.949-.6156-4.1524-1.4458-6.842-2.5868-20.7218-8.79062-20.206,10.7618-7.6366,15.7762,11.3938,4.5456,22.953,5.1348,38.1844,2.209,1.8378-4.0262,.4258-8.2266-2.6896-10.8982Z" style="fill:#362e94;"/></g><path d="M940.77995,174.3554l9.064,56.05162h82.0734l9.0642-56.05162c.3724-2.303-1.4058-4.392-3.7388-4.392h-92.724c-2.33303,0-4.11123,2.089-3.7388,4.392Z" style="fill:#e9edf7;"/><polygon points="993.81255 196.9444 987.89675 196.9444 984.93895 200.5104 987.89675 204.07622 993.81255 204.07622 996.77035 200.5104 993.81255 196.9444" style="fill:#ced3f8;"/></g></g></g></g></g></svg>