<?xml version="1.0" encoding="UTF-8"?><svg xmlns="http://www.w3.org/2000/svg" viewBox="0 0 237 237"><g id="a"/><g id="b"><g id="c"><g><rect width="237" height="237" rx="5.79064" ry="5.79064" style="fill:#5dc1cf;"/><g><path d="M185.26015,105.69164l-47.87163-47.87163-15.94442-15.94442c-1.26255-1.26255-3.30949-1.26255-4.572,0l-12.52501,12.52501-10.98316,10.98316-.00025,.0002-7.39589,7.39594-32.91174,32.91174c-1.26255,1.2625-1.26255,3.30949,0,4.572l15.94442,15.94442c1.2625,1.2625,3.30945,1.2625,4.572,0l30.62574-30.62574,45.58563,45.58563c1.2625,1.2625,3.30945,1.2625,4.572,0l7.39594-7.39594c1.2625-1.2625,1.2625-3.30945,0-4.572l-45.58563-45.58563,6.41136-6.41136,45.58563,45.58563c1.2625,1.2625,3.30945,1.2625,4.572,0l12.52501-12.52501c1.2625-1.2625,1.2625-3.30949,0-4.572Z" style="fill:#fff;"/><g><path d="M192.49843,86.01798l-33.1646,10.00263c-.29253,.08825-.38512,.4566-.16905,.67266l3.37441,3.37441-33.63575,33.63575v-20.06933c0-1.11935-.59023-2.09499-1.47205-2.65069l-10.70523-10.70523c-1.2625-1.2625-3.30945-1.2625-4.572,0l-32.25575,32.2558c-1.26255,1.2625-1.26255,3.30945,0,4.57195l10.81529,10.81534c1.26255,1.2625,3.30949,1.2625,4.572,0l8.8271-8.8271v19.88617c0,.0663,.01554,.12816,.01949,.19347-.24453,1.05157,.03379,2.19977,.85341,3.01939l11.8411,11.8411c1.26255,1.26265,3.30949,1.26265,4.572,0l57.55351-57.55351,3.37441,3.37441c.21607,.21607,.58446,.12347,.67266-.16905l10.00268-33.1646c.09309-.30866-.19495-.59669-.50361-.50356Z" style="fill:#bce5ea;"/><path d="M192.61719,86.00019c.25842,0,.46582,.25288,.38489,.52135l-10.00269,33.1646c-.05518,.18292-.21985,.28764-.38843,.28764-.10095,0-.20337-.03764-.2843-.11859l-3.37439-3.37442-57.55347,57.5535c-.63123,.63133-1.45862,.94699-2.28601,.94699s-1.65479-.31566-2.28601-.94699l-11.84106-11.84108c-.8197-.81963-1.09802-1.96783-.85352-3.01939-.00391-.06531-.01941-.12717-.01941-.19345v-19.88618l-8.82715,8.82709c-.63123,.63126-1.45862,.94688-2.28589,.94688-.82739,0-1.65479-.31563-2.28601-.94688l-10.81531-10.81534c-1.26257-1.2625-1.26257-3.30943,0-4.57195l32.25574-32.2558c.63123-.63126,1.45862-.94687,2.28601-.94687s1.65479,.31561,2.28601,.94687l10.7052,10.70525c.88184,.55569,1.47205,1.53134,1.47205,2.6507v20.06932l33.63574-33.63576-3.37439-3.37439c-.21606-.21606-.12354-.58441,.16907-.67268l33.16455-10.00262c.04016-.01212,.08008-.01779,.11877-.01779m0-3.23289c-.35632,0-.71057,.05238-1.05286,.15565l-33.16394,10.00248c-1.21802,.36737-2.16711,1.36194-2.47717,2.59558-.31006,1.23366,.05615,2.55879,.95557,3.45827l1.08838,1.08838-25.83081,25.83087v-12.26442c0-2.05518-.9762-3.95039-2.63159-5.14929l-10.49255-10.49265c-1.22131-1.22122-2.84497-1.89377-4.57202-1.89377s-3.35071,.67255-4.57202,1.89372l-32.25574,32.25584c-1.22119,1.22118-1.8938,2.84488-1.8938,4.57196s.67261,3.3508,1.89392,4.57202l10.81519,10.81531c1.22119,1.22119,2.84485,1.89375,4.57202,1.89375,1.72705,0,3.35071-.67256,4.5719-1.8938l3.30823-3.30818v12.09006c-.29395,2.01793,.36621,4.03662,1.81995,5.49019l11.84094,11.841c1.22119,1.22124,2.84497,1.89386,4.57202,1.89386,1.72717,0,3.35083-.67262,4.57202-1.89395l55.26746-55.26741,1.08838,1.08839c.68713,.6871,1.59998,1.06549,2.57031,1.06549,1.6167,0,3.0166-1.03946,3.48352-2.58656l10.00281-33.16504c.33057-1.09709,.12048-2.30003-.56201-3.21844-.68359-.92004-1.77454-1.46933-2.91809-1.46933h0Z" style="fill:#5dc1cf;"/></g></g><g><path d="M37.448,195.91042h-6.95898v4.62891h6.52441v3.47949h-6.52441v9.13379h-4.03809v-20.72168h10.99707v3.47949Z" style="fill:#fff;"/><path d="M44.15796,199.70046v7.61133c0,.71484,.0625,1.67773,.80762,2.36133,.46582,.4043,1.21191,.68359,1.92676,.68359,.71387,0,1.45996-.2793,1.92578-.68359,.74512-.68359,.80762-1.64648,.80762-2.36133v-7.61133h3.79004v8.2334c0,1.21094-.15527,2.82617-1.64648,4.13184-1.24219,1.08691-3.23047,1.52148-4.87695,1.52148-1.64746,0-3.63574-.43457-4.87793-1.52148-1.49121-1.30566-1.64648-2.9209-1.64648-4.13184v-8.2334h3.79004Z" style="fill:#fff;"/><path d="M56.39819,199.70046h3.79004v1.74023c.71484-.99414,1.98828-2.1748,4.16309-2.1748,1.18066,0,2.91992,.3418,3.97656,1.64648,.93164,1.14941,1.05664,2.48535,1.05664,3.79004v8.4502h-3.79102v-7.33203c0-.74512-.03027-1.92578-.71387-2.64062-.59082-.62109-1.39844-.68359-1.77148-.68359-.99414,0-1.77051,.3418-2.33008,1.18066-.55859,.87012-.58984,1.83301-.58984,2.60938v6.86621h-3.79004v-13.45215Z" style="fill:#fff;"/><path d="M83.11499,203.80105c-.80762-.74512-1.80176-1.17969-3.10645-1.17969-2.5166,0-3.79004,1.83203-3.79004,3.79004,0,2.20508,1.64648,3.82129,3.91406,3.82129,.83887,0,1.95703-.24902,2.98242-1.18066v3.69629c-.74512,.37305-1.92578,.83887-3.47949,.83887-2.1123,0-3.97656-.80762-5.1875-1.95703-1.02539-.96289-2.14355-2.64062-2.14355-5.15723,0-2.36035,.96289-4.25586,2.3291-5.46777,1.64746-1.45996,3.54199-1.73926,4.84668-1.73926,1.39844,0,2.54785,.2793,3.63477,.80762v3.72754Z" style="fill:#fff;"/><path d="M91.62769,202.93191v10.2207h-3.79102v-10.2207h-1.49121v-3.23145h1.49121v-4.59766h3.79102v4.59766h2.60938v3.23145h-2.60938Z" style="fill:#fff;"/><path d="M99.36206,191.74734c1.24316,0,2.26855,1.02539,2.26855,2.26855,0,1.24219-1.02539,2.26758-2.26855,2.26758-1.24219,0-2.26758-1.02539-2.26758-2.26758,0-1.24316,1.02539-2.26855,2.26758-2.26855Zm1.89551,7.95312v13.45215h-3.79004v-13.45215h3.79004Z" style="fill:#fff;"/><path d="M117.94019,201.16042c1.33594,1.21191,2.26758,3.07617,2.26758,5.28125,0,2.1748-.93164,4.03906-2.26758,5.25098-1.14941,1.05566-2.88965,1.89453-5.43652,1.89453-2.54785,0-4.28809-.83887-5.4375-1.89453-1.33594-1.21191-2.26758-3.07617-2.26758-5.25098,0-2.20508,.93164-4.06934,2.26758-5.28125,1.14941-1.05566,2.88965-1.89453,5.4375-1.89453,2.54688,0,4.28711,.83887,5.43652,1.89453Zm-1.64648,5.28125c0-2.1123-1.61621-3.82031-3.79004-3.82031-2.1748,0-3.79102,1.70801-3.79102,3.82031,0,2.05078,1.58496,3.79102,3.79102,3.79102,2.20508,0,3.79004-1.74023,3.79004-3.79102Z" style="fill:#fff;"/><path d="M123.12769,199.70046h3.79004v1.74023c.71484-.99414,1.98828-2.1748,4.16309-2.1748,1.18066,0,2.91992,.3418,3.97656,1.64648,.93164,1.14941,1.05664,2.48535,1.05664,3.79004v8.4502h-3.79102v-7.33203c0-.74512-.03027-1.92578-.71387-2.64062-.59082-.62109-1.39844-.68359-1.77148-.68359-.99414,0-1.77051,.3418-2.33008,1.18066-.55859,.87012-.58984,1.83301-.58984,2.60938v6.86621h-3.79004v-13.45215Z" style="fill:#fff;"/><path d="M150.03101,199.70046h3.79004v13.45215h-3.79004v-1.74023c-1.36719,1.95801-3.16895,2.1748-4.13184,2.1748-4.13184,0-6.86523-3.23047-6.86523-7.17578,0-3.97656,2.70215-7.14551,6.67871-7.14551,1.02539,0,3.04492,.18652,4.31836,2.1748v-1.74023Zm-7.08301,6.71094c0,2.14355,1.55371,3.82129,3.72754,3.82129,2.1748,0,3.72852-1.67773,3.72852-3.82129s-1.55371-3.79004-3.72852-3.79004c-2.17383,0-3.72754,1.64648-3.72754,3.79004Z" style="fill:#fff;"/><path d="M161.2146,190.50515v22.64746h-3.79004v-22.64746h3.79004Z" style="fill:#fff;"/><path d="M170.65894,192.43093v17.24219h6.39941v3.47949h-10.43848v-20.72168h4.03906Z" style="fill:#fff;"/><path d="M190.2312,199.70046h3.79004v13.45215h-3.79004v-1.74023c-1.36719,1.95801-3.16895,2.1748-4.13184,2.1748-4.13184,0-6.86621-3.23047-6.86621-7.17578,0-3.97656,2.70312-7.14551,6.67969-7.14551,1.02539,0,3.04395,.18652,4.31836,2.1748v-1.74023Zm-7.08398,6.71094c0,2.14355,1.55371,3.82129,3.72852,3.82129s3.72754-1.67773,3.72754-3.82129-1.55273-3.79004-3.72754-3.79004-3.72852,1.64648-3.72852,3.79004Z" style="fill:#fff;"/><path d="M200.79273,201.44069c1.33594-1.86426,3.23145-2.1748,4.38086-2.1748,3.97656,0,6.61719,3.0752,6.61719,7.14551,0,4.10059-2.73438,7.17578-6.71094,7.17578-.87012,0-2.82715-.15527-4.28711-2.1748v1.74023h-3.79004v-22.64746h3.79004v10.93555Zm-.37305,4.9707c0,2.14355,1.55371,3.82129,3.72852,3.82129s3.72754-1.67773,3.72754-3.82129-1.55273-3.79004-3.72754-3.79004-3.72852,1.64648-3.72852,3.79004Z" style="fill:#fff;"/></g></g></g></g></svg>