<?xml version="1.0" encoding="UTF-8"?><svg xmlns="http://www.w3.org/2000/svg" viewBox="0 0 449.93113 105"><g id="a"/><g id="b"><g id="c"><g><rect width="449.93113" height="105" rx="20.24186" ry="20.24186" style="fill:#5dc1cf;"/><g><path d="M136.27489,41.90212h-11.14551v7.41406h10.44922v5.57324h-10.44922v14.62891h-6.46875V36.32888h17.61426v5.57324Z" style="fill:#fff;"/><path d="M147.02098,47.97243v12.19141c0,1.14453,.09961,2.68652,1.29395,3.78125,.74609,.64746,1.94043,1.09473,3.08496,1.09473s2.33887-.44727,3.08496-1.09473c1.19434-1.09473,1.29395-2.63672,1.29395-3.78125v-12.19141h6.07031v13.18652c0,1.94043-.24805,4.52832-2.63672,6.61816-1.99023,1.74121-5.1748,2.4375-7.8125,2.4375-2.63672,0-5.82129-.69629-7.81152-2.4375-2.38867-2.08984-2.6377-4.67773-2.6377-6.61816v-13.18652h6.07031Z" style="fill:#fff;"/><path d="M166.6245,47.97243h6.07031v2.78711c1.14453-1.59277,3.18457-3.4834,6.66797-3.4834,1.89062,0,4.67773,.54688,6.36914,2.63672,1.49316,1.8418,1.69141,3.98145,1.69141,6.07129v13.53418h-6.07031v-11.74316c0-1.19434-.0498-3.08496-1.14453-4.22949-.94531-.99512-2.23926-1.09473-2.83594-1.09473-1.59277,0-2.83594,.54785-3.73242,1.89062-.89551,1.39355-.94531,2.93652-.94531,4.17969v10.99707h-6.07031v-21.5459Z" style="fill:#fff;"/><path d="M209.41551,54.54079c-1.29395-1.19434-2.88574-1.89062-4.97559-1.89062-4.03027,0-6.07031,2.93555-6.07031,6.07031,0,3.5332,2.63672,6.12012,6.26953,6.12012,1.34277,0,3.13477-.39746,4.77637-1.89062v5.92188c-1.19434,.59668-3.08496,1.34277-5.57227,1.34277-3.38379,0-6.36914-1.29297-8.31055-3.13477-1.6416-1.54199-3.43262-4.22949-3.43262-8.25977,0-3.78125,1.54199-6.81738,3.73145-8.75781,2.6377-2.33789,5.67285-2.78613,7.7627-2.78613,2.23926,0,4.08008,.44824,5.82129,1.29395v5.9707Z" style="fill:#fff;"/><path d="M223.04833,53.14724v16.37109h-6.07031v-16.37109h-2.38867v-5.1748h2.38867v-7.36426h6.07031v7.36426h4.17969v5.1748h-4.17969Z" style="fill:#fff;"/><path d="M235.437,35.23415c1.99023,0,3.63281,1.64258,3.63281,3.63281s-1.64258,3.63184-3.63281,3.63184-3.63184-1.6416-3.63184-3.63184,1.6416-3.63281,3.63184-3.63281Zm3.03516,12.73828v21.5459h-6.07031v-21.5459h6.07031Z" style="fill:#fff;"/><path d="M265.19188,50.3113c2.13965,1.94043,3.63281,4.92578,3.63281,8.45898,0,3.4834-1.49316,6.46875-3.63281,8.40918-1.84082,1.69238-4.62695,3.03516-8.70801,3.03516-4.08008,0-6.86621-1.34277-8.70703-3.03516-2.13965-1.94043-3.63281-4.92578-3.63281-8.40918,0-3.5332,1.49316-6.51855,3.63281-8.45898,1.84082-1.69141,4.62695-3.03516,8.70703-3.03516,4.08105,0,6.86719,1.34375,8.70801,3.03516Zm-2.63672,8.45898c0-3.38379-2.58789-6.12012-6.07129-6.12012-3.48242,0-6.07031,2.73633-6.07031,6.12012,0,3.28418,2.53809,6.07031,6.07031,6.07031,3.5332,0,6.07129-2.78613,6.07129-6.07031Z" style="fill:#fff;"/><path d="M273.50048,47.97243h6.07031v2.78711c1.14453-1.59277,3.18457-3.4834,6.66797-3.4834,1.89062,0,4.67676,.54688,6.36914,2.63672,1.49219,1.8418,1.69141,3.98145,1.69141,6.07129v13.53418h-6.07031v-11.74316c0-1.19434-.0498-3.08496-1.14453-4.22949-.94531-.99512-2.23926-1.09473-2.83691-1.09473-1.5918,0-2.83594,.54785-3.73145,1.89062-.89551,1.39355-.94531,2.93652-.94531,4.17969v10.99707h-6.07031v-21.5459Z" style="fill:#fff;"/><path d="M316.58934,47.97243h6.07129v21.5459h-6.07129v-2.78613c-2.18848,3.13477-5.0752,3.48242-6.61719,3.48242-6.61816,0-10.99707-5.1748-10.99707-11.49414,0-6.36914,4.3291-11.44434,10.69824-11.44434,1.6416,0,4.87598,.29883,6.91602,3.4834v-2.78711Zm-11.34473,10.74805c0,3.43359,2.48828,6.12012,5.97168,6.12012,3.48242,0,5.9707-2.68652,5.9707-6.12012s-2.48828-6.07031-5.9707-6.07031c-3.4834,0-5.97168,2.63672-5.97168,6.07031Z" style="fill:#fff;"/><path d="M334.50145,33.24392v36.27441h-6.07031V33.24392h6.07031Z" style="fill:#fff;"/><path d="M349.62743,36.32888v27.61621h10.25v5.57324h-16.71875V36.32888h6.46875Z" style="fill:#fff;"/><path d="M380.97313,47.97243h6.07129v21.5459h-6.07129v-2.78613c-2.18848,3.13477-5.0752,3.48242-6.61719,3.48242-6.61816,0-10.99707-5.1748-10.99707-11.49414,0-6.36914,4.3291-11.44434,10.69824-11.44434,1.6416,0,4.87598,.29883,6.91602,3.4834v-2.78711Zm-11.34473,10.74805c0,3.43359,2.48828,6.12012,5.97168,6.12012,3.48242,0,5.9707-2.68652,5.9707-6.12012s-2.48828-6.07031-5.9707-6.07031c-3.4834,0-5.97168,2.63672-5.97168,6.07031Z" style="fill:#fff;"/><path d="M397.89012,50.75954c2.13965-2.98633,5.1748-3.4834,7.01562-3.4834,6.36914,0,10.59863,4.92578,10.59863,11.44434,0,6.56836-4.37891,11.49414-10.74805,11.49414-1.39258,0-4.52734-.24805-6.86621-3.48242v2.78613h-6.07031V33.24392h6.07031v17.51562Zm-.59766,7.96094c0,3.43359,2.48828,6.12012,5.97168,6.12012,3.48242,0,5.9707-2.68652,5.9707-6.12012s-2.48828-6.07031-5.9707-6.07031c-3.4834,0-5.97168,2.63672-5.97168,6.07031Z" style="fill:#fff;"/></g><g><path d="M100.9151,51.30851l-25.20095-25.20095-8.39358-8.39358c-.66464-.66464-1.74221-.66464-2.40683,0l-6.59351,6.59351-5.78184,5.78184-.00013,.0001-3.8934,3.89343-17.32565,17.32565c-.66464,.66462-.66464,1.74221,0,2.40683l8.39358,8.39358c.66462,.66462,1.74218,.66462,2.40683,0l16.12224-16.12224,23.99754,23.99754c.66462,.66462,1.74218,.66462,2.40683,0l3.89343-3.89343c.66462-.66462,.66462-1.74218,0-2.40683l-23.99754-23.99754,3.37512-3.37512,23.99754,23.99754c.66462,.66462,1.74218,.66462,2.40683,0l6.59351-6.59351c.66462-.66462,.66462-1.74221,0-2.40683Z" style="fill:#fff;"/><g><path d="M104.72553,40.95175l-17.45877,5.26566c-.15399,.04646-.20274,.24037-.08899,.35411l1.77638,1.77638-17.70679,17.70679v-10.56505c0-.58925-.31071-1.10286-.77493-1.3954l-5.63553-5.63553c-.66462-.66462-1.74218-.66462-2.40683,0l-16.98032,16.98035c-.66464,.66462-.66464,1.74218,0,2.4068l5.69347,5.69349c.66464,.66462,1.74221,.66462,2.40683,0l4.64683-4.64683v10.46863c0,.0349,.00818,.06747,.01026,.10185-.12873,.55357,.01779,1.15802,.44926,1.58949l6.23349,6.23349c.66464,.66469,1.74221,.66469,2.40683,0l30.29777-30.29777,1.77638,1.77638c.11374,.11374,.30768,.065,.35411-.08899l5.26569-17.45877c.049-.16249-.10263-.31412-.26511-.26509Z" style="fill:#bce5ea;"/><path d="M104.78807,40.94239c.13599,0,.24524,.13313,.20251,.27446l-5.26562,17.45876c-.02905,.0963-.11572,.15143-.20447,.15143-.0531,0-.10706-.01981-.14966-.06242l-1.77637-1.7764-30.29773,30.29778c-.33228,.33235-.76782,.49852-1.20337,.49852s-.87109-.16617-1.20349-.49852l-6.23352-6.23349c-.4314-.43147-.578-1.03592-.44922-1.58949-.00208-.03438-.01025-.06694-.01025-.10184v-10.46864l-4.64685,4.64684c-.33228,.33231-.76782,.49846-1.20337,.49846s-.87122-.16615-1.20349-.49846l-5.69348-5.6935c-.66455-.66461-.66455-1.74219,0-2.4068l16.98035-16.98035c.3324-.33231,.76794-.49846,1.20349-.49846,.43542,0,.87097,.16615,1.20337,.49846l5.6355,5.63553c.46423,.29254,.7749,.80615,.7749,1.3954v10.56505l17.70691-17.70679-1.77649-1.77638c-.11365-.11374-.06494-.30765,.08899-.35411l17.45886-5.26566c.02112-.00638,.04211-.00937,.0625-.00937m0-1.70187c-.18762,0-.37415,.02757-.55432,.08197l-17.4585,5.26553c-.64124,.19359-1.14062,.71706-1.30383,1.36623-.16333,.64922,.0293,1.34666,.50244,1.82021l.57349,.57349-13.59814,13.59807v-6.45636c0-1.08189-.51392-2.07962-1.38538-2.71075l-5.52356-5.52359c-.64294-.6429-1.49768-.99693-2.40686-.99693-.90906,0-1.76379,.35403-2.40674,.99687l-16.98035,16.98042c-1.32703,1.32713-1.32703,3.48648-.00012,4.81355l5.6936,5.69356c.64294,.6429,1.49768,.99693,2.40686,.99693s1.76404-.35408,2.40686-.99699l1.74146-1.74149v6.36469c-.15466,1.06206,.19275,2.12465,.95789,2.88989l6.23364,6.2336c.64282,.64291,1.49768,.99698,2.40686,.99698s1.76392-.35408,2.40686-.99701l29.09424-29.09433,.573,.57297c.36182,.36177,.84229,.56091,1.35303,.56091,.85144,0,1.5885-.5475,1.83398-1.36237l5.2655-17.45828c.17419-.57664,.06384-1.21008-.29541-1.69385-.35986-.48459-.93433-.77391-1.5365-.77391h0Z" style="fill:#5dc1cf;"/></g></g></g></g></g></svg>