<?xml version="1.0" encoding="UTF-8"?><svg xmlns="http://www.w3.org/2000/svg" viewBox="0 0 237 237"><defs><style>.d{letter-spacing:-.02em;}.e{letter-spacing:-.02em;}.f,.g{fill:#fff;}.h{fill:#bce5ea;}.i{fill:#5dc1cf;}.j{letter-spacing:.04em;}.k{letter-spacing:.02em;}.l{letter-spacing:.06em;}.g{font-family:FuturaPT-Demi, Futura PT;font-size:31.07px;}.m{letter-spacing:.02em;}</style></defs><g id="a"/><g id="b"><g id="c"><g><rect class="i" width="237" height="237" rx="5.79" ry="5.79"/><g><path class="f" d="M185.26,105.69l-47.87-47.87-15.94-15.94c-1.26-1.26-3.31-1.26-4.57,0l-12.53,12.53-10.98,10.98h0l-7.4,7.4-32.91,32.91c-1.26,1.26-1.26,3.31,0,4.57l15.94,15.94c1.26,1.26,3.31,1.26,4.57,0l30.63-30.63,45.59,45.59c1.26,1.26,3.31,1.26,4.57,0l7.4-7.4c1.26-1.26,1.26-3.31,0-4.57l-45.59-45.59,6.41-6.41,45.59,45.59c1.26,1.26,3.31,1.26,4.57,0l12.53-12.53c1.26-1.26,1.26-3.31,0-4.57Z"/><g><path class="h" d="M119.11,176.6c-1.3,0-2.51-.5-3.43-1.42l-11.84-11.84c-1.12-1.12-1.61-2.68-1.34-4.24,0-.04,0-16.1,0-16.1l-6.07,6.07c-.92,.92-2.13,1.42-3.43,1.42s-2.51-.5-3.43-1.42l-10.81-10.82c-.92-.92-1.42-2.13-1.42-3.43s.5-2.51,1.42-3.43l32.26-32.26c.92-.92,2.13-1.42,3.43-1.42s2.51,.5,3.43,1.42l10.59,10.59c1.29,.89,2.06,2.34,2.06,3.91v16.17l29.73-29.73-2.23-2.23c-.51-.51-.71-1.23-.53-1.92,.18-.69,.69-1.23,1.38-1.44l33.17-10c.19-.06,.39-.09,.59-.09,.64,0,1.24,.31,1.62,.82,.38,.51,.5,1.18,.31,1.79l-10,33.16c-.26,.86-1.04,1.44-1.94,1.44h0c-.54,0-1.05-.21-1.43-.59l-2.23-2.23-56.41,56.41c-.92,.92-2.13,1.42-3.43,1.42Z"/><path class="i" d="M192.62,86c.26,0,.47,.25,.38,.52l-10,33.16c-.06,.18-.22,.29-.39,.29-.1,0-.2-.04-.28-.12l-3.37-3.37-57.55,57.55c-.63,.63-1.46,.95-2.29,.95s-1.65-.32-2.29-.95l-11.84-11.84c-.82-.82-1.1-1.97-.85-3.02,0-.07-.02-.13-.02-.19v-19.89l-8.83,8.83c-.63,.63-1.46,.95-2.29,.95s-1.65-.32-2.29-.95l-10.82-10.82c-1.26-1.26-1.26-3.31,0-4.57l32.26-32.26c.63-.63,1.46-.95,2.29-.95s1.65,.32,2.29,.95l10.71,10.71c.88,.56,1.47,1.53,1.47,2.65v20.07l33.64-33.64-3.37-3.37c-.22-.22-.12-.58,.17-.67l33.16-10s.08-.02,.12-.02m0-3.23c-.36,0-.71,.05-1.05,.16l-33.16,10c-1.22,.37-2.17,1.36-2.48,2.6-.31,1.23,.06,2.56,.96,3.46l1.09,1.09-25.83,25.83v-12.26c0-2.06-.98-3.95-2.63-5.15l-10.49-10.49c-1.22-1.22-2.84-1.89-4.57-1.89s-3.35,.67-4.57,1.89l-32.26,32.26c-1.22,1.22-1.89,2.84-1.89,4.57s.67,3.35,1.89,4.57l10.82,10.82c1.22,1.22,2.85,1.89,4.57,1.89s3.35-.67,4.57-1.89l3.31-3.31v12.08h0c-.29,2.03,.37,4.05,1.82,5.5l11.84,11.84c1.22,1.22,2.84,1.89,4.57,1.89s3.35-.67,4.57-1.89l55.27-55.27,1.09,1.09c.69,.69,1.6,1.07,2.57,1.07,1.62,0,3.02-1.04,3.48-2.59l10-33.16c.33-1.1,.12-2.3-.56-3.22-.68-.92-1.77-1.47-2.92-1.47h0Z"/></g></g><text class="g" transform="translate(24.09 213.15)"><tspan x="0" y="0">F</tspan><tspan class="e" x="14.48" y="0">u</tspan><tspan x="30.51" y="0">n</tspan><tspan class="l" x="47.1" y="0">c</tspan><tspan class="j" x="61.95" y="0">t</tspan><tspan class="m" x="71.58" y="0">i</tspan><tspan x="79.59" y="0">ona</tspan><tspan class="j" x="131.53" y="0">l</tspan><tspan class="k" x="140.17" y="0">L</tspan><tspan class="d" x="154.03" y="0">a</tspan><tspan x="171.11" y="0">b</tspan></text></g></g></g></svg>